<?xml version="1.0" encoding="UTF-8"?>
<svg width="100px" height="100px" viewBox="0 0 100 100" version="1.1" xmlns="http://www.w3.org/2000/svg" xmlns:xlink="http://www.w3.org/1999/xlink">
    <!-- Generator: Sketch 57.1 (83088) - https://sketch.com -->
    <title>icon/menu/highlight/alt</title>
    <desc>Created with Sketch.</desc>
    <g id="icon/menu/highlight/alt" stroke="none" stroke-width="1" fill="none" fill-rule="evenodd">
        <g id="Group" transform="translate(26.000000, 14.000000)" fill="#FFFFFF">
            <path d="M34,10 C34,11.914297 34.384208,13.7388575 35.0797183,15.4007757 L0.467773438,15.4 L0.467773438,10 L34,10 L34,10 Z" id="Combined-Shape"></path>
            <path d="M47.2671033,23.9811463 L47.2677734,26.2 L0.467773438,26.2 L0.467773438,20.8 L39.091697,20.8006016 C41.3363319,22.6540834 44.1685455,23.8213431 47.2671033,23.9811463 Z" id="Combined-Shape"></path>
            <polygon id="Rectangle-2" points="0.467773438 31.6 47.2677734 31.6 47.2677734 37 0.467773438 37"></polygon>
            <path d="M5.62695313,48.8828125 L8.58535156,57.2359375 L11.5279297,48.8828125 L14.6445313,48.8828125 L14.6445313,60.4 L12.2635742,60.4 L12.2635742,57.2517578 L12.5008789,51.8174805 L9.3921875,60.4 L7.76269531,60.4 L4.66191406,51.8253906 L4.89921875,57.2517578 L4.89921875,60.4 L2.52617188,60.4 L2.52617188,48.8828125 L5.62695313,48.8828125 Z M23.6462891,55.4086914 L19.0900391,55.4086914 L19.0900391,58.4936523 L24.4373047,58.4936523 L24.4373047,60.4 L16.7169922,60.4 L16.7169922,48.8828125 L24.4214844,48.8828125 L24.4214844,50.8049805 L19.0900391,50.8049805 L19.0900391,53.5498047 L23.6462891,53.5498047 L23.6462891,55.4086914 Z M35.1951172,60.4 L32.8220703,60.4 L28.2025391,52.8220703 L28.2025391,60.4 L25.8294922,60.4 L25.8294922,48.8828125 L28.2025391,48.8828125 L32.8299805,56.4765625 L32.8299805,48.8828125 L35.1951172,48.8828125 L35.1951172,60.4 Z M45.9845703,48.8828125 L45.9845703,56.4686523 C45.9845703,57.7290102 45.5903848,58.7256799 44.802002,59.4586914 C44.0136191,60.1917029 42.9365303,60.5582031 41.5707031,60.5582031 C40.2259698,60.5582031 39.1581094,60.2022497 38.3670898,59.490332 C37.5760703,58.7784144 37.1726563,57.8002015 37.1568359,56.5556641 L37.1568359,48.8828125 L39.5298828,48.8828125 L39.5298828,56.4844727 C39.5298828,57.238578 39.7104962,57.7883284 40.0717285,58.1337402 C40.4329608,58.4791521 40.932614,58.6518555 41.5707031,58.6518555 C42.9048895,58.6518555 43.5825194,57.9504953 43.6036133,56.5477539 L43.6036133,48.8828125 L45.9845703,48.8828125 Z" id="menu"></path>
            <g id="icon/mark/alt" transform="translate(38.000000, 0.000000)">
                <circle id="Oval" cx="10" cy="10" r="10"></circle>
            </g>
        </g>
    </g>
</svg>