<?xml version="1.0" encoding="UTF-8"?>
<svg width="44px" height="48px" viewBox="0 0 44 48" version="1.1" xmlns="http://www.w3.org/2000/svg" xmlns:xlink="http://www.w3.org/1999/xlink">
    <!-- Generator: Sketch 57.1 (83088) - https://sketch.com -->
    <title>icon/cool</title>
    <desc>Created with Sketch.</desc>
    <g id="icon/cool" stroke="none" stroke-width="1" fill="none" fill-rule="evenodd">
        <path d="M40.63,24.08 C40.8953853,24.1625949 41.172076,24.2030862 41.45,24.2 L41.45,24.2 C42.1858828,24.2259673 42.8601465,23.7910872 43.14,23.11 C43.3453271,22.6480566 43.354882,22.1226631 43.166487,21.6535595 C42.9780919,21.1844558 42.607799,20.8116116 42.14,20.62 L42,20.92 L42.12,20.61 L36.73,18.38 L37.1,18.18 L37.1,18.18 L42.1,15.44 C42.6849357,15.0695049 43.0568024,14.4410502 43.1,13.75 C43.1046171,13.3966967 43.0074119,13.0495352 42.82,12.75 C42.5122693,12.1728168 41.9037919,11.8201325 41.25,11.84 C40.8673956,11.8424808 40.4894539,11.9241979 40.14,12.08 L38.98,12.71 L38.98,12.71 L35,15 L36,9.29 L35.68,9.24 L36.01,9.24 C36.01,9.24 36.01,9.14 36.01,9 C36.0823255,8.03800479 35.4185318,7.17593505 34.47,7 L34.11,7 C32.65,7.05 32.28,8.61 32.26,8.62 L30.63,17.32 L23.91,21 L23.91,13.35 L30.78,7.77 C31.2320465,7.34249149 31.5068872,6.76068575 31.55,6.14 C31.5455554,5.74457844 31.4042003,5.36291944 31.15,5.06 C30.8114966,4.62235308 30.2931641,4.36134879 29.74,4.35 C29.2877318,4.36245572 28.849288,4.50860368 28.48,4.77 L28.68,5.03 L28.47,4.78 L23.94,8.46 L23.94,7.91 L23.94,7.91 L23.94,2.29 C23.8882403,1.24744816 23.0434038,0.420031007 22,0.39 L21.9,0.39 C20.19,0.47 20.1,2.39 20.09,2.39 L20.09,3.65 L20.09,3.65 L20.09,8.39 L15.59,4.74 L15.38,4.99 L15.58,4.73 C15.210712,4.46860368 14.7722682,4.32245572 14.32,4.31 C13.7661156,4.31843286 13.2465897,4.58003809 12.91,5.02 C12.6557997,5.32291944 12.5144446,5.70457844 12.51,6.1 C12.5507798,6.71133956 12.8182266,7.28545866 13.26,7.71 L20.11,13.28 L20.11,20.82 L13.64,17 L12.34,8.25 C12.34,8.25 11.99,6.58 10.48,6.53 L10.18,6.53 C9.20593666,6.67836547 8.50690779,7.54672432 8.57,8.53 C8.56686991,8.58662344 8.56686991,8.64337656 8.57,8.7 L8.9,8.7 L8.57,8.7 L9.43,14.48 L9,14.28 L9,14.28 L4.12,11.4 C3.80905362,11.2455487 3.46717519,11.1634979 3.12,11.16 C2.43348516,11.157124 1.80511436,11.5450072 1.5,12.16 C1.34353517,12.4232756 1.26064827,12.7237406 1.26,13.03 C1.32353783,13.7513563 1.70938493,14.405459 2.31,14.81 L3.31,15.42 L3.31,15.42 L7.43,17.85 L1.99,19.85 L2.11,20.16 L1.98,19.86 C1.26552845,20.1521208 0.782932883,20.8293114 0.74,21.6 C0.742030672,21.8423959 0.786013562,22.0826101 0.87,22.31 C1.14344094,23.0358587 1.85543361,23.5010812 2.63,23.46 L2.63,23.46 C2.86228081,23.4594372 3.09375247,23.4325999 3.32,23.38 L11.61,20.31 L18.08,24.14 L11.57,27.7 L3.39,24.31 C3.1235344,24.2322574 2.8475686,24.1918721 2.57,24.19 C1.81619807,24.142331 1.11602615,24.5809444 0.83,25.28 C0.72623122,25.5235478 0.671846634,25.7852736 0.67,26.05 C0.720620985,26.7926038 1.16790196,27.4501451 1.84,27.77 L1.98,27.47 L1.86,27.77 L7.25,30 L6.77,30.26 L6.77,30.26 L1.84,32.94 C1.25780098,33.308459 0.886311962,33.9325606 0.84,34.62 C0.840623338,34.9712598 0.933746491,35.3161604 1.11,35.62 C1.42317578,36.1796371 2.01880013,36.5216408 2.66,36.51 L2.66,36.51 C3.0416398,36.5081616 3.41905187,36.4299591 3.77,36.28 L4.77,35.72 L4.77,35.72 L9.01,33.42 L8,39.1 L8.32,39.17 L8,39.12 C8,39.12 8,39.22 8,39.37 C7.91318288,40.3362712 8.58363059,41.2069825 9.54,41.37 C9.65958188,41.3841668 9.78041812,41.3841668 9.9,41.37 C11.36,41.37 11.73,39.76 11.75,39.75 L13.38,31.07 L20.1,27.4 L20.1,35.05 L13.24,40.63 C12.7879535,41.0575085 12.5131128,41.6393142 12.47,42.26 C12.4760739,42.6551183 12.6172335,43.0362493 12.87,43.34 C13.2023496,43.7730856 13.7141654,44.0308345 14.26,44.04 L14.26,44.04 C14.7118396,44.0341504 15.151241,43.8911705 15.52,43.63 L15.33,43.36 L15.53,43.62 L20.06,39.94 L20.06,40.35 L20.06,40.35 L20.06,46.11 C20.1167873,47.1486322 20.9602394,47.9703458 22,48 L22,48 C23.81,47.91 23.9,46 23.91,46 L23.91,44.7 L23.91,44.7 L23.91,40 L28.41,43.65 L28.62,43.39 L28.42,43.66 C28.788759,43.9211705 29.2281604,44.0641504 29.68,44.07 L29.68,44.07 C30.2258346,44.0608345 30.7376504,43.8030856 31.07,43.37 C31.3227665,43.0662493 31.4639261,42.6851183 31.47,42.29 C31.4251479,41.6768075 31.1585382,41.1009305 30.72,40.67 L23.86,35.1 L23.86,27.54 L30.33,31.37 L31.64,40.11 C31.64,40.11 31.98,41.78 33.49,41.83 L33.77,41.83 C34.7495494,41.6865169 35.4571021,40.8183541 35.4,39.83 C35.402885,39.7767057 35.402885,39.7232943 35.4,39.67 L35.07,39.67 L35.4,39.62 L34.54,33.84 L34.93,34.07 L34.93,34.07 L39.89,37 C40.2012976,37.1534816 40.5429519,37.2354787 40.89,37.24 L40.89,37.24 C41.5650181,37.2292745 42.1779672,36.843772 42.48,36.24 C42.6364648,35.9767244 42.7193517,35.6762594 42.72,35.37 C42.6682379,34.6573951 42.3016699,34.0049039 41.72,33.59 L40.6,33 L40.6,33 L36.6,30.62 L42.04,28.62 L41.93,28.31 L42.06,28.62 C42.7659567,28.3137573 43.2409498,27.6379541 43.29,26.87 C43.2870212,26.6309488 43.24305,26.3941808 43.16,26.17 C42.8852668,25.4060142 42.1283861,24.9247368 41.32,25 C41.0874039,24.9945587 40.8551807,25.0214831 40.63,25.08 L32.33,28.15 L25.87,24.33 L32.46,20.76 L40.63,24.08 Z" id="Shape" fill="#000000" fill-rule="nonzero"></path>
    </g>
</svg>