<?xml version="1.0" encoding="UTF-8"?>
<svg width="48px" height="45px" viewBox="0 0 48 45" version="1.1" xmlns="http://www.w3.org/2000/svg" xmlns:xlink="http://www.w3.org/1999/xlink">
    <!-- Generator: Sketch 57.1 (83088) - https://sketch.com -->
    <title>icon/heat</title>
    <desc>Created with Sketch.</desc>
    <g id="icon/heat" stroke="none" stroke-width="1" fill="none" fill-rule="evenodd">
        <path d="M32.72,0.92 L33.41,0.92 C34.9619201,0.92 36.22,2.17807985 36.22,3.73 L36.22,41.49 C36.22,43.0419201 34.9619201,44.3 33.41,44.3 L32.72,44.3 C31.1680799,44.3 29.91,43.0419201 29.91,41.49 L29.91,3.73 C29.91,2.17807985 31.1680799,0.92 32.72,0.92 Z" id="Rectangle-path" fill="#000000" fill-rule="nonzero"></path>
        <path d="M23.54,0.92 L24.23,0.92 C25.7819201,0.92 27.04,2.17807985 27.04,3.73 L27.04,41.49 C27.04,43.0419201 25.7819201,44.3 24.23,44.3 L23.54,44.3 C21.9880799,44.3 20.73,43.0419201 20.73,41.49 L20.73,3.73 C20.73,2.17807985 21.9880799,0.92 23.54,0.92 Z" id="Rectangle-path" fill="#000000" fill-rule="nonzero"></path>
        <path d="M14.36,0.92 L15.05,0.92 C16.6019201,0.92 17.86,2.17807985 17.86,3.73 L17.86,41.49 C17.86,43.0419201 16.6019201,44.3 15.05,44.3 L14.36,44.3 C12.8080799,44.3 11.55,43.0419201 11.55,41.49 L11.55,3.73 C11.55,2.17807985 12.8080799,0.92 14.36,0.92 Z" id="Rectangle-path" fill="#000000" fill-rule="nonzero"></path>
        <path d="M1.51,11.16 L2,11.16 C2.12985116,11.1588239 2.25723522,11.1243957 2.37,11.06 L2.37,41.5 C2.37548551,43.0496423 3.63035771,44.3045145 5.18,44.31 L5.87,44.31 C7.41738379,44.2991025 8.66910253,43.0473838 8.68,41.5 L8.68,3.73 C8.66910253,2.18261621 7.41738379,0.930897473 5.87,0.92 L5.18,0.92 C3.63035771,0.925485511 2.37548551,2.18035771 2.37,3.73 L2.37,5 C2.2547133,4.94335569 2.12842371,4.9126366 2,4.91 L1.51,4.91 C1.05712651,4.91 0.69,5.27712651 0.69,5.73 L0.69,10.31 C0.681849586,10.5326275 0.764630548,10.748989 0.91930262,10.9093198 C1.07397469,11.0696506 1.28722344,11.1601491 1.51,11.16 L1.51,11.16 Z" id="Shape" fill="#000000" fill-rule="nonzero"></path>
        <path d="M46.26,34.07 L45.4,34.07 L45.4,3.73 C45.3945145,2.18035771 44.1396423,0.925485511 42.59,0.92 L41.9,0.92 C40.3503577,0.925485511 39.0954855,2.18035771 39.09,3.73 L39.09,41.5 C39.0954855,43.0496423 40.3503577,44.3045145 41.9,44.31 L42.59,44.31 C44.1396423,44.3045145 45.3945145,43.0496423 45.4,41.5 L45.4,40.29 L46.26,40.29 C46.7128735,40.29 47.08,39.9228735 47.08,39.47 L47.08,34.89 C47.08,34.6725225 46.9936074,34.4639523 46.8398276,34.3101724 C46.6860477,34.1563926 46.4774775,34.07 46.26,34.07 L46.26,34.07 Z" id="Shape" fill="#000000" fill-rule="nonzero"></path>
    </g>
</svg>