<?xml version="1.0" encoding="UTF-8"?>
<svg width="100px" height="100px" viewBox="0 0 100 100" version="1.1" xmlns="http://www.w3.org/2000/svg" xmlns:xlink="http://www.w3.org/1999/xlink">
    <!-- Generator: Sketch 57.1 (83088) - https://sketch.com -->
    <title>icon/help/circle/alt</title>
    <desc>Created with Sketch.</desc>
    <g id="icon/help/circle/alt" stroke="none" stroke-width="1" fill="none" fill-rule="evenodd">
        <path d="M50,27.0833333 C62.6565255,27.0833333 72.9166667,37.3434745 72.9166667,50 C72.9166667,62.6565255 62.6565255,72.9166667 50,72.9166667 C37.3434745,72.9166667 27.0833333,62.6565255 27.0833333,50 C27.0833333,37.3434745 37.3434745,27.0833333 50,27.0833333 Z M50,31.25 C39.6446609,31.25 31.25,39.6446609 31.25,50 C31.25,60.3553391 39.6446609,68.75 50,68.75 C60.3553391,68.75 68.75,60.3553391 68.75,50 C68.75,39.6446609 60.3553391,31.25 50,31.25 Z" id="Combined-Shape" fill="#FFFFFF"></path>
        <path d="M47.8922526,54.3212891 C47.8922526,53.0585332 48.0489079,52.0521413 48.3622233,51.3020833 C48.6755387,50.5520253 49.2950393,49.728398 50.2207438,48.8311768 C51.1464483,47.9339555 51.732719,47.2954663 51.9795736,46.9156901 C52.3593498,46.3365314 52.549235,45.7099101 52.549235,45.0358073 C52.549235,44.1433332 52.3284934,43.4621199 51.8870036,42.9921468 C51.4455137,42.5221738 50.7975303,42.2871908 49.9430339,42.2871908 C49.126515,42.2871908 48.4690373,42.5174266 47.9705811,42.9779053 C47.4721248,43.4383839 47.2229004,44.0626317 47.2229004,44.8506673 L43.762207,44.8506673 C43.7811958,43.1701576 44.3532252,41.8409608 45.4783122,40.8630371 C46.6033992,39.8851134 48.0916249,39.3961589 49.9430339,39.3961589 C51.8514093,39.3961589 53.339635,39.8803663 54.4077555,40.8487956 C55.4758761,41.8172249 56.0099284,43.1701573 56.0099284,44.9076335 C56.0099284,46.4552215 55.2883644,47.9790507 53.8452148,49.4791667 L52.0935059,51.2023926 C51.4668751,51.914473 51.1440702,52.9540947 51.1250814,54.3212891 L47.8922526,54.3212891 Z M47.6501465,58.7504069 C47.6501465,58.190237 47.8257903,57.736886 48.1770833,57.3903402 C48.5283763,57.0437944 49.0030895,56.8705241 49.601237,56.8705241 C50.2088789,56.8705241 50.6883392,57.0485415 51.0396322,57.4045817 C51.3909252,57.7606219 51.566569,58.2092258 51.566569,58.7504069 C51.566569,59.2725992 51.3956723,59.7093353 51.0538737,60.0606283 C50.7120751,60.4119212 50.2278677,60.5875651 49.601237,60.5875651 C48.9746062,60.5875651 48.4927724,60.4119212 48.155721,60.0606283 C47.8186696,59.7093353 47.6501465,59.2725992 47.6501465,58.7504069 Z" id="?" fill="#FEFEFE"></path>
    </g>
</svg>