<svg id="Layer_1" data-name="Layer 1" xmlns="http://www.w3.org/2000/svg" viewBox="0 0 100 100"><title>icon_all_zones</title><polygon points="48.61 21.27 69.2 38.88 72.39 35.51 48.61 15.85 25.34 35.51 28.55 38.72 48.61 21.27"/><path d="M48.36,24,32,38.4V62.9h20v-14h6.34v14H65.4V38.4ZM44.48,55.27H38.14V48.93h6.34Zm0-11H38.14V37.91h6.34Zm13.8,0H51.94V37.91h6.34Z"/><path d="M48.86,5.33A37.76,37.76,0,1,0,86.62,43.09,37.76,37.76,0,0,0,48.86,5.33Zm0,71.5A33.74,33.74,0,1,1,82.6,43.09,33.74,33.74,0,0,1,48.86,76.83Z"/><path d="M51.86,79.67c-18.83,3.7-32.49-18-32.49-18h61A47.58,47.58,0,0,1,51.86,79.67Z"/><rect x="4.07" y="86.03" width="91.86" height="8.64"/></svg>