<svg id="Layer_1" data-name="Layer 1" xmlns="http://www.w3.org/2000/svg" viewBox="0 0 100 100"><defs><style>.cls-1{fill:#231f20;}</style></defs><title>icon_oil_burner_power_2</title><path class="cls-1" d="M11.92,12.42V88.58L88.08,12.42Zm2.07,71V73.61h9.76ZM14,69.3V59H38.42L28.07,69.3Z"/><polygon class="cls-1" points="63.07 74.42 71.82 74.42 72.68 73.56 72.68 66.32 71.82 65.46 63.07 65.46 63.07 74.42"/><path class="cls-1" d="M74.77,69.17a13.59,13.59,0,0,0,.08,1.5c.14-6.26,7.58.17,7.58.17s-4.7,4.06-6.7,2.59C79,78.26,89.39,69.14,92.2,69.05,87.76,69.08,75.63,58.32,74.77,69.17Z"/><path class="cls-1" d="M45.86,66.5v16c0,1.94,1.59,3.23,3.52,3.85L57,88.73H60V63H49.38A3.53,3.53,0,0,0,45.86,66.5Z"/></svg>