<svg id="Layer_1" data-name="Layer 1" xmlns="http://www.w3.org/2000/svg" viewBox="0 0 100 100"><title>icon_holiday</title><rect x="33.23" y="30.08" width="33.38" height="51.85"/><path d="M87.69,56.54V40.08s.16-4.31-2.15-7.07a9.12,9.12,0,0,0-6-2.93H74.15V81.93h5.39a9.82,9.82,0,0,0,6-2.92c2.31-2.77,2.15-7.08,2.15-7.08Z"/><path d="M25.69,30.08H20.31a9.77,9.77,0,0,0-6,2.93c-2.16,2.76-2,7.07-2,7.07V71.93s-.16,4.31,2.15,7.08a9.15,9.15,0,0,0,6,2.92h5.39V30.08Z"/><path d="M62,29.16V27.62s.15-4.61-1.08-7.08C59.54,17.77,56,18.08,56,18.08H44.31s-3.54-.15-4.93,2.46c-1.23,2.47-1.07,7.08-1.07,7.08v1.85A10.75,10.75,0,0,0,38.92,33a1.72,1.72,0,0,0,1.7,1.07H60A2.07,2.07,0,0,0,61.69,33a7.6,7.6,0,0,0,.62-3.54v-.31Zm-3.85,3.23a1.19,1.19,0,0,1-1.23.77H43.08a1.53,1.53,0,0,1-1.23-.77,7.32,7.32,0,0,1-.47-2.62V28.54a12.85,12.85,0,0,1,.77-5.07,4,4,0,0,1,3.54-1.85h8.46a4,4,0,0,1,3.54,1.85c.93,1.69.77,5.07.77,5.07v1.23A4.27,4.27,0,0,1,58.15,32.39Z"/></svg>