<svg id="Layer_1" data-name="Layer 1" xmlns="http://www.w3.org/2000/svg" viewBox="0 0 100 100"><defs><style>.cls-1{fill:#231f20;}</style></defs><title>icon_auto_mode</title><rect class="cls-1" x="28.01" y="16.64" width="5.56" height="38.22" rx="2.48" ry="2.48"/><path class="cls-1" d="M37.07,54.33a7,7,0,0,1,.25-.73l4.34-9.68V19.11a2.48,2.48,0,0,0-2.48-2.47h-.6a2.48,2.48,0,0,0-2.48,2.47V52.38A2.47,2.47,0,0,0,37.07,54.33Z"/><path class="cls-1" d="M36.08,76.61a11.08,11.08,0,0,0,.4,3.18,5.18,5.18,0,0,0,1.31,2.26,5.46,5.46,0,0,0,2.29,1.3,11.38,11.38,0,0,0,3.23.41,8.93,8.93,0,0,0,2.78-.39,5.48,5.48,0,0,0,2.14-1.24,5.15,5.15,0,0,0,1.46-2.33,11.56,11.56,0,0,0,.38-3.19V69a2.43,2.43,0,0,0-.54-1.69,1.89,1.89,0,0,0-1.43-.59,1.83,1.83,0,0,0-1.41.59A2.51,2.51,0,0,0,46.17,69v7.85a4.58,4.58,0,0,1-.7,2.81,2.88,2.88,0,0,1-2.38.86,3.56,3.56,0,0,1-1.93-.43,2.2,2.2,0,0,1-.91-1.2A7,7,0,0,1,40,76.78V69a2.48,2.48,0,0,0-.52-1.68,1.86,1.86,0,0,0-1.44-.6,1.81,1.81,0,0,0-1.41.6A2.43,2.43,0,0,0,36.08,69Z"/><rect class="cls-1" x="19.92" y="16.64" width="5.56" height="38.22" rx="2.48" ry="2.48"/><path class="cls-1" d="M20.45,83.22a1.82,1.82,0,0,0,1.31.54,1.56,1.56,0,0,0,1.3-.55,7.47,7.47,0,0,0,.8-1.69l.67-1.81h5.95l.67,1.78c.11.24.23.53.37.85a3.64,3.64,0,0,0,.44.79,1.61,1.61,0,0,0,.57.46,1.78,1.78,0,0,0,.8.17,1.86,1.86,0,0,0,1.35-.56A1.74,1.74,0,0,0,35.24,82a5.43,5.43,0,0,0-.51-1.83L30.6,69.93l-.48-1.23a5.91,5.91,0,0,0-.5-.93,2.54,2.54,0,0,0-.84-.75,2.88,2.88,0,0,0-2.56,0,2.31,2.31,0,0,0-.84.77A5.76,5.76,0,0,0,24.8,69L20.37,80.21c-.17.42-.29.75-.37,1a2.63,2.63,0,0,0-.12.77A1.68,1.68,0,0,0,20.45,83.22Zm7-11.77,1.89,5.17H25.62Z"/><path class="cls-1" d="M14.31,54.86h.61a2.48,2.48,0,0,0,2.47-2.48V19.11a2.48,2.48,0,0,0-2.47-2.47h-.61a2.48,2.48,0,0,0-2.47,2.47v1.15a.73.73,0,0,0-.32-.09h-.44a.73.73,0,0,0-.72.73v4a.72.72,0,0,0,.72.72h.44a.72.72,0,0,0,.32-.08V52.38A2.48,2.48,0,0,0,14.31,54.86Z"/><path class="cls-1" d="M87.39,36.32a2.76,2.76,0,0,0,.71.09,1.58,1.58,0,0,0,1.56-1,1.71,1.71,0,0,0-.92-2.24L84.4,31.4l0,0h0L88.79,29a1.74,1.74,0,0,0,.63-2.37A1.54,1.54,0,0,0,88,25.84a2.4,2.4,0,0,0-1,.22l-.89.48h0l-3.34,1.81.87-4.59a1.71,1.71,0,0,0-1.38-2c-1.51-.28-2,1.35-2,1.45l-1.36,7.24-5.48,3V27.22l5.77-4.69a1.78,1.78,0,0,0,.3-2.41,1.61,1.61,0,0,0-1.27-.64,2.08,2.08,0,0,0-1.14.38l-3.64,3V22.7h0V17.83a1.75,1.75,0,0,0-1.79-1.69h0A1.84,1.84,0,0,0,70,18v.9h0V22.8l-3.62-2.95a2.26,2.26,0,0,0-.71-.32,6.44,6.44,0,0,1-.25.74l-1,2.34L70,27.19V33.3l-5.23-3.09-1-6.4L59,34.64l4-1.5,5.24,3.1-5.32,2.88-5-2.08-1.4,3.11,2.56,1.05,0,0h0l-4,2.15L54,45.79,54,46a1.54,1.54,0,0,0,1.42.81,2.58,2.58,0,0,0,1-.22l.82-.44h0l3.41-1.84-.86,4.59a1.7,1.7,0,0,0,1.37,2,1.22,1.22,0,0,0,.32,0c1.24,0,1.64-1.39,1.67-1.48l1.35-7.23,5.48-3v6.19l-5.76,4.69a1.78,1.78,0,0,0-.3,2.41,1.61,1.61,0,0,0,1.27.64,2.08,2.08,0,0,0,1.14-.38l3.64-3h0v5a1.75,1.75,0,0,0,1.75,1.69h0a1.83,1.83,0,0,0,1.68-1.84v-1h0V49.8l3.63,3a2,2,0,0,0,1.12.37,1.61,1.61,0,0,0,1.27-.64A1.8,1.8,0,0,0,79.15,50L73.44,45.4V39.31l5.25,3.11,1.09,7.32c0,.07.37,1.51,1.66,1.51a1.18,1.18,0,0,0,.26,0,1.71,1.71,0,0,0,1.45-1.94l-.69-4.64,0,0h0l4.25,2.51a2,2,0,0,0,.9.21,1.64,1.64,0,0,0,1.46-.88,1.83,1.83,0,0,0-.74-2.39l-.87-.52h0l-3.26-1.93,4.38-1.62a1.7,1.7,0,0,0,1-2.19,1.58,1.58,0,0,0-1.62-1,2.9,2.9,0,0,0-.64.08l-6.91,2.56-5.22-3.09,5.34-2.89Z"/><path class="cls-1" d="M57,83.16a1.82,1.82,0,0,0,1.41.6,1.84,1.84,0,0,0,1.4-.59,2.48,2.48,0,0,0,.53-1.71V70.32h3.15a2.14,2.14,0,0,0,1.46-.45,1.52,1.52,0,0,0,.52-1.21,1.59,1.59,0,0,0-.51-1.22A2.15,2.15,0,0,0,63.45,67H53.27a2.14,2.14,0,0,0-1.43.44,1.55,1.55,0,0,0-.53,1.23,1.57,1.57,0,0,0,.51,1.21,2.1,2.1,0,0,0,1.45.45h3.15V81.46A2.43,2.43,0,0,0,57,83.16Z"/><path class="cls-1" d="M70.26,83.13a9,9,0,0,0,3.46.63,9.25,9.25,0,0,0,3.44-.61,6.81,6.81,0,0,0,2.56-1.77,7.56,7.56,0,0,0,1.56-2.72,11,11,0,0,0,.51-3.44,10,10,0,0,0-.94-4.47,6.77,6.77,0,0,0-2.81-3,8.83,8.83,0,0,0-4.39-1,9.11,9.11,0,0,0-3.36.59A6.81,6.81,0,0,0,67.75,69a7.45,7.45,0,0,0-1.59,2.71,10.6,10.6,0,0,0-.54,3.46,10.78,10.78,0,0,0,.52,3.41,7.57,7.57,0,0,0,1.55,2.75A6.91,6.91,0,0,0,70.26,83.13Zm-.38-10.24a4.62,4.62,0,0,1,.86-1.64,3.51,3.51,0,0,1,1.28-1A4,4,0,0,1,73.65,70a4.18,4.18,0,0,1,2.21.6,4,4,0,0,1,1.47,1.78,8.07,8.07,0,0,1,0,5.88A4,4,0,0,1,75.78,80a4.2,4.2,0,0,1-3.71.24,3.82,3.82,0,0,1-1.3-1,4.63,4.63,0,0,1-.89-1.68,7.67,7.67,0,0,1-.33-2.33A7.49,7.49,0,0,1,69.88,72.89Z"/><path class="cls-1" d="M43.17,55.4a2.36,2.36,0,0,0,.93.2,2.27,2.27,0,0,0,2-1.33L61.79,19.52a2.25,2.25,0,0,0-4.1-1.85L42.05,52.43A2.24,2.24,0,0,0,43.17,55.4Z"/><path class="cls-1" d="M47.27,16.64h-.6a2.48,2.48,0,0,0-2.48,2.47V38.29L49.75,25.9V19.11A2.48,2.48,0,0,0,47.27,16.64Z"/></svg>