<svg id="Layer_1" data-name="Layer 1" xmlns="http://www.w3.org/2000/svg" viewBox="0 0 100 100"><defs><style>.cls-1{fill:#231f20;}</style></defs><title>icon_day</title><path class="cls-1" d="M71.71,49.16A20.57,20.57,0,1,0,51.14,69.72,20.57,20.57,0,0,0,71.71,49.16Z"/><path class="cls-1" d="M18,82.22c2,1.92,4.48-.27,4.48-.27l2.2-2.21h0L32,72.45s2-2.33-.11-4.4c-2-1.93-4.48.26-4.48.26L25.35,70.4h0l-7.41,7.42S15.89,80.15,18,82.22Z"/><path class="cls-1" d="M28,31.65s2.33,2,4.4-.11c1.92-2-.27-4.48-.27-4.48L30,24.86v0l-7.31-7.29s-2.33-2-4.4.11c-1.92,2,.26,4.48.26,4.48l2.09,2.08v0Z"/><path class="cls-1" d="M72.82,67.72s-2.34-2-4.41.11c-1.92,2,.27,4.48.27,4.48l2.09,2.08h0l7.42,7.42s2.34,2,4.41-.11c1.92-2-.27-4.48-.27-4.48L80.11,75h0Z"/><path class="cls-1" d="M82.08,17.88c-2-1.92-4.48.26-4.48.26l-2.09,2.09h0l-7.41,7.43s-2,2.33.11,4.4c2,1.92,4.48-.27,4.48-.27l2.2-2.2h0l7.3-7.31S84.21,20,82.08,17.88Z"/><path class="cls-1" d="M53.65,92.08V89h0V78.64s-.22-3.08-3.2-3c-2.76.05-3,3.36-3,3.36v3h0V92.4A3.64,3.64,0,0,0,48.94,95h3.18A4.19,4.19,0,0,0,53.65,92.08Z"/><path class="cls-1" d="M92.09,47h-3v0H78.65s-3.09.22-3,3.19c0,2.76,3.36,3,3.36,3H92.41a3.6,3.6,0,0,0,2.67-1.65V48.64A4.11,4.11,0,0,0,92.09,47Z"/><path class="cls-1" d="M47.48,8v3h0v10.5s.22,3.08,3.19,3c2.76,0,3-3.35,3-3.35V18h0V7.69A3.56,3.56,0,0,0,52,5H49.19A4.07,4.07,0,0,0,47.48,8Z"/><path class="cls-1" d="M8,53.13H21.46s3.08-.22,3-3.2c-.05-2.76-3.36-3-3.36-3H18.19v0H7.7a3.64,3.64,0,0,0-2.62,1.52v3.07A4.19,4.19,0,0,0,8,53.13Z"/></svg>