<?xml version="1.0" encoding="utf-8"?>
<!-- Generator: Adobe Illustrator 20.1.0, SVG Export Plug-In . SVG Version: 6.00 Build 0)  -->
<!DOCTYPE svg PUBLIC "-//W3C//DTD SVG 1.1//EN" "http://www.w3.org/Graphics/SVG/1.1/DTD/svg11.dtd">
<svg version="1.1" id="Layer_1" xmlns="http://www.w3.org/2000/svg" xmlns:xlink="http://www.w3.org/1999/xlink" x="0px" y="0px"
	 viewBox="0 0 100 100" enable-background="new 0 0 100 100" xml:space="preserve">
<g>
	<g>
		<path d="M29.2,12c-2,0-2.3,1.7-2.3,1.7v1.4v14.8v1.4c0,0,0.2,1.7,2.2,1.7s2.3-1.7,2.3-1.7v-1.4v-15v-1.2
			C31.2,13.7,31.2,12,29.2,12z"/>
		<rect x="19.6" y="66" width="9.7" height="9.7"/>
		<rect x="33.3" y="66" width="9.7" height="9.7"/>
		<path d="M63,12c-2,0-2.3,1.7-2.3,1.7v1.4v14.8v1.4c0,0,0.2,1.7,2.2,1.7s2.3-1.7,2.3-1.7v-1.4v-15v-1.2C65.2,13.7,65,12,63,12z"/>
		<path d="M45.3,78H16.4V37.7h57.4v6c1.8,0.5,3.5,1.2,5.2,2.2v-8.2c0,0,0.2-4.8-2.5-7.8c-2.9-3.4-7.7-3.2-7.7-3.2H67v2.6v2.5
			c0,0-0.5,3.1-4.2,3.1S59,31.7,59,31.7v-2.5v-2.6h-9.8H33v2.6v2.5c0,0-0.5,3.1-4.2,3.1S25,31.7,25,31.7v-2.5v-2.6h-2.8
			c0,0-4.6-0.2-7.7,3.2c-2.6,3.1-2.5,7.8-2.5,7.8v16.9v1.2v16.9c0,0-0.2,4.8,2.5,7.8c2.9,3.4,7.7,3.2,7.7,3.2H42h7.5
			C47.8,82,46.4,80.2,45.3,78z"/>
		<path d="M66.8,45.8c-11.7,0-21.1,9.5-21.1,21.1S55.3,88,66.8,88s21.1-9.5,21.1-21.1S78.5,45.8,66.8,45.8z M66.8,85.8
			c-10.5,0-18.9-8.5-18.9-18.9S56.4,48,66.8,48s18.9,8.5,18.9,18.9S77.3,85.8,66.8,85.8z"/>
		<g>
			<path d="M66.2,53.4c-1.7,0-1.8,1.4-1.8,1.4v1.1v12.5v1.1c0,0,0.2,1.4,1.8,1.4c1.7,0,1.8-1.4,1.8-1.4v-1.1V55.8v-1.1
				C67.9,54.8,67.9,53.4,66.2,53.4z"/>
			<path d="M77.3,71.1H65.8v-3.7h11.5c0,0,1.4,0.3,1.4,1.8C78.7,70.8,77.3,71.1,77.3,71.1z"/>
		</g>
		<path d="M66.8,42.6c1.1,0,2.2,0.2,3.2,0.3v-1.7h-9.7v2.5C62.5,42.9,64.7,42.6,66.8,42.6z"/>
		<path d="M56.5,44.9v-3.8h-9.7v9.7h1.8C51,48.3,53.6,46.5,56.5,44.9z"/>
	</g>
</g>
<g>
	<path d="M35.9,51c-0.2-0.2-0.5-0.4-0.7-0.6c0.2-0.2,0.4-0.3,0.6-0.6c0.7-0.8,1.1-1.9,1.1-3.1c0-1.7-0.6-3-1.8-4
		c-1.2-1-2.7-1.5-4.6-1.5c-1,0-1.9,0.1-2.6,0.4c-0.7,0.2-1.3,0.6-1.9,1.1c-0.7,0.7-1.2,1.4-1.5,2.2c-0.3,0.9-0.5,1.8-0.5,2.7l0,0.5
		h4.4l0-0.5c0-0.8,0.1-1.4,0.5-1.9c0.3-0.4,0.8-0.6,1.5-0.6c0.6,0,1,0.2,1.4,0.5c0.3,0.3,0.5,0.8,0.5,1.4c0,1.2-0.5,1.5-0.9,1.7
		c-0.3,0.1-0.9,0.3-2.3,0.3l-0.5,0v3.6H29c1.1,0,1.9,0.1,2.4,0.3c0.8,0.3,1.2,1,1.2,2c0,0.8-0.2,1.3-0.6,1.7
		c-0.4,0.4-0.9,0.6-1.5,0.6c-1,0-1.6-0.3-1.9-1.1c-0.2-0.4-0.3-1-0.3-1.6v-0.5h-4.6l0,0.5c0.1,1.5,0.4,2.8,1,3.8
		c1.1,1.9,3.1,2.8,5.9,2.8c2.3,0,4-0.7,5.2-1.9c1.2-1.3,1.7-2.8,1.7-4.4C37.4,53.2,36.9,51.9,35.9,51z"/>
</g>
</svg>
