<svg id="Layer_1" data-name="Layer 1" xmlns="http://www.w3.org/2000/svg" viewBox="0 0 100 100"><title>icon_cooling_mode</title><polygon points="45.33 5.01 5.16 38.95 5.16 42.23 9.78 46.86 49.81 12.04 90.9 47.18 95.16 42.67 95.16 38.72 54.39 5.01 45.33 5.01"/><path d="M49.31,17.54,16.59,46.2V95H83.31V46.2ZM60.67,67.92l8.41-3.11s1.62-.44,2.1.87a1.61,1.61,0,0,1-.92,2L64.17,70l4.35,2.57h0l1.39.82s1.41,1,.71,2.21a1.67,1.67,0,0,1-2.2.62l-4.67-2.76h0l-1.23-.73,1,6.46a1.61,1.61,0,0,1-1.33,1.79c-1.38.21-1.77-1.42-1.77-1.42l-1.32-8.89L52,66.42v8.27l7,5.65s1.21,1.17.32,2.25a1.61,1.61,0,0,1-2.21.23l-5-4.09v5.06h0V85.4s-.12,1.71-1.54,1.74a1.66,1.66,0,0,1-1.66-1.57V80.14h0V78.71l-5.07,4.11a1.62,1.62,0,0,1-2.22-.23c-.88-1.08.32-2.25.32-2.25l7-5.67V66.31l-7.37,4-1.65,8.81s-.45,1.61-1.82,1.35a1.61,1.61,0,0,1-1.27-1.83l1.2-6.39L33.37,74.7h0L32,75.42s-1.57.72-2.27-.53a1.66,1.66,0,0,1,.6-2.2l4.69-2.55h0l1.33-.73-6-2.49a1.61,1.61,0,0,1-.85-2.06c.53-1.29,2.13-.79,2.13-.79L40,67.52l7.23-3.92-7.11-4.2-8.4,3.11s-1.62.44-2.1-.87a1.61,1.61,0,0,1,.93-2l6.09-2.26-4.43-2.61h0L30.86,54s-1.42-1-.71-2.21a1.65,1.65,0,0,1,2.19-.62l4.6,2.72h0l1.31.78-1-6.47a1.61,1.61,0,0,1,1.33-1.78c1.38-.21,1.77,1.42,1.77,1.42l1.33,8.9,7.09,4.2V52.62L41.85,47s-1.2-1.17-.32-2.25a1.61,1.61,0,0,1,2.21-.24l5,4.1V43.44h0V41.92s.11-1.72,1.54-1.74A1.65,1.65,0,0,1,52,41.75v5.34h0v1.52l5.07-4.12a1.61,1.61,0,0,1,2.21.24c.89,1.08-.32,2.25-.32,2.25l-7,5.67V61l7.38-4L61,48.21s.45-1.61,1.82-1.35a1.61,1.61,0,0,1,1.26,1.83l-1.2,6.39,4.45-2.42h0l1.42-.77s1.56-.72,2.26.53a1.66,1.66,0,0,1-.59,2.2l-4.78,2.59h0l-1.26.68,6,2.5a1.61,1.61,0,0,1,.84,2.06c-.52,1.29-2.12.79-2.12.79L60.82,59.8l-7.24,3.92Z"/></svg>