<svg id="Layer_1" data-name="Layer 1" xmlns="http://www.w3.org/2000/svg" viewBox="0 0 100 100"><defs><style>.cls-1{fill:#231f20;}</style></defs><title>icon_filled_water_the_system</title><path class="cls-1" d="M64.65,80.4a3.18,3.18,0,0,0,3.17-3.16V47.67a3.18,3.18,0,0,0-3.17-3.17h-.54a3.17,3.17,0,0,0-3.17,3.17V77.24a3.17,3.17,0,0,0,3.17,3.16ZM62.87,47.67a1.25,1.25,0,0,1,1.24-1.24h.54a1.24,1.24,0,0,1,1.23,1.24v5.12h-3Z"/><path class="cls-1" d="M56.68,80.4a3.17,3.17,0,0,0,3.16-3.16V47.67a3.17,3.17,0,0,0-3.16-3.17h-.54A3.17,3.17,0,0,0,53,47.67V77.24a3.17,3.17,0,0,0,3.17,3.16ZM54.9,47.67a1.25,1.25,0,0,1,1.24-1.24h.54a1.24,1.24,0,0,1,1.23,1.24v5.12h-3Z"/><path class="cls-1" d="M11.43,30h7.31a2,2,0,0,0,1.82-1.25h4.21c1.65,0,3,1.1,3,2.4V34h.86V85.2a6.18,6.18,0,0,0,6.17,6.17H86.47a6.17,6.17,0,0,0,6.16-6.17V38.85a6.17,6.17,0,0,0-6.16-6.17H43.79a6.18,6.18,0,0,0-6.16,6.17V48a5.91,5.91,0,0,0,5.6,6.17H44a1.48,1.48,0,0,0,.87.28H45V77.24a3.17,3.17,0,0,0,3.16,3.16h.54a3.17,3.17,0,0,0,3.17-3.16V47.67A3.17,3.17,0,0,0,48.7,44.5h-.54A3.16,3.16,0,0,0,45,47.64h-.1a1.49,1.49,0,0,0-1,.36h-.14V38.85H86.47V85.2H34.84V34h1v-2.8c0-5.74-4.95-10.4-11-10.4H20.68A2,2,0,0,0,18.74,19H17V12.4h4.42a1.72,1.72,0,0,0,0-3.43H8.75a1.72,1.72,0,0,0,0,3.43h4.42V19H11.43a2,2,0,0,0-1.94,1.82H5v8H9.61A2,2,0,0,0,11.43,30Zm75,6.89H43.79a1.93,1.93,0,0,0-1.93,1.93V48A2,2,0,0,0,43,49.9c.1,0,.24.09.29,0h1.14a1.07,1.07,0,0,0,.74-.36h.82a1,1,0,0,0,1-.94l0-1a1.24,1.24,0,0,1,1.23-1.24h.54a1.24,1.24,0,0,1,1.24,1.24v5.12H46.68a1.23,1.23,0,0,0-.28-.23,1.05,1.05,0,0,0-.87-.05h-.44a1,1,0,0,0-.68-.28H43.23A4,4,0,0,1,39.56,48V38.85a4.24,4.24,0,0,1,4.23-4.23H86.47a4.24,4.24,0,0,1,4.23,4.23V52.79H88.41V38.85A1.93,1.93,0,0,0,86.47,36.92ZM30.61,34H32.9V52.79H30.61Z"/><path class="cls-1" d="M72.62,80.4a3.17,3.17,0,0,0,3.17-3.16V47.67a3.17,3.17,0,0,0-3.17-3.17h-.54a3.17,3.17,0,0,0-3.17,3.17V77.24a3.17,3.17,0,0,0,3.17,3.16ZM70.85,47.67a1.24,1.24,0,0,1,1.23-1.24h.54a1.24,1.24,0,0,1,1.23,1.24v5.12h-3Z"/><path class="cls-1" d="M80.59,44.5h-.54a3.17,3.17,0,0,0-3.17,3.17V77.24a3.17,3.17,0,0,0,3.17,3.16h.54a3.17,3.17,0,0,0,3.17-3.16h0a1.61,1.61,0,0,0,1.31-1.58V72.06a1.62,1.62,0,0,0-1.31-1.58V47.67A3.17,3.17,0,0,0,80.59,44.5Zm1.23,8.29h-3V47.67a1.24,1.24,0,0,1,1.23-1.24h.54a1.24,1.24,0,0,1,1.23,1.24Z"/></svg>