<svg id="Layer_1" data-name="Layer 1" xmlns="http://www.w3.org/2000/svg" viewBox="0 0 100 100"><title>icon_kitchen</title><rect x="3.92" y="87.92" width="92.15" height="8.62"/><path d="M11.15,44.85V82.38H52.54V44.85ZM47.62,56.54H44.23V48.23h3.39Z"/><path d="M10.69,3.46V24.23H52.08V3.46ZM47.15,20.85H43.77V12.54h3.38Z"/><polygon points="74.69 12.38 74.69 3.77 67.31 3.77 67.31 12.38 59 19.61 83.15 19.61 74.69 12.38"/><path d="M77.22,41.31a5.11,5.11,0,0,1,0-5.81c1.87-3-.25-4.66-.27-4.68l.46-.88A3.64,3.64,0,0,1,78.8,32,4.92,4.92,0,0,1,78,36a4.07,4.07,0,0,0,0,4.66Z"/><path d="M71.22,41.31a5.11,5.11,0,0,1,0-5.81c1.87-3-.25-4.66-.27-4.68l.46-.88A3.64,3.64,0,0,1,72.8,32,4.92,4.92,0,0,1,72,36a4.07,4.07,0,0,0,0,4.66Z"/><path d="M65.38,41.31a5.09,5.09,0,0,1,0-5.81c1.86-3-.26-4.66-.28-4.68l.46-.88A3.59,3.59,0,0,1,67,32a5,5,0,0,1-.77,4,4.06,4.06,0,0,0,0,4.66Z"/><path d="M56.38,44.85V82.23h32V44.85ZM82.23,73.77H61.31V60.69H82.23Zm-.46-19.54a2.46,2.46,0,1,1,2.46-2.46A2.43,2.43,0,0,1,81.77,54.23Z"/></svg>