<svg id="Layer_1" data-name="Layer 1" xmlns="http://www.w3.org/2000/svg" viewBox="0 0 100 100"><title>icon_scheduling</title><path d="M29.15,12a2.19,2.19,0,0,0-2.3,1.69V31.23A2,2,0,0,0,29,32.92a2.2,2.2,0,0,0,2.31-1.69V13.69C31.15,13.69,31.15,12,29.15,12Z"/><rect x="19.62" y="41.08" width="9.69" height="9.69"/><rect x="33.31" y="41.08" width="9.69" height="9.69"/><rect x="19.62" y="53.54" width="9.69" height="9.69"/><rect x="33.31" y="53.54" width="9.69" height="9.69"/><rect x="19.62" y="66" width="9.69" height="9.69"/><rect x="33.31" y="66" width="9.69" height="9.69"/><path d="M63,12a2.2,2.2,0,0,0-2.31,1.69V31.23a2,2,0,0,0,2.16,1.69,2.19,2.19,0,0,0,2.3-1.69V13.69A2,2,0,0,0,63,12Z"/><path d="M45.31,78H16.39V37.69H73.77v6A21.63,21.63,0,0,1,79,45.85V37.69s.15-4.77-2.46-7.84c-2.92-3.39-7.69-3.23-7.69-3.23H67v5.07a3.87,3.87,0,0,1-4.15,3.08c-3.7,0-3.85-3.08-3.85-3.08V26.62H33v5.07a3.87,3.87,0,0,1-4.15,3.08c-3.7,0-3.85-3.08-3.85-3.08V26.62H22.23a10.8,10.8,0,0,0-7.69,3.23c-2.62,3.07-2.46,7.84-2.46,7.84V72.77s-.16,4.77,2.46,7.85c2.92,3.38,7.69,3.23,7.69,3.23H49.62A22.2,22.2,0,0,1,45.31,78Z"/><path d="M66.85,45.85A21.08,21.08,0,1,0,87.92,66.92,21.1,21.1,0,0,0,66.85,45.85Zm0,40A18.93,18.93,0,1,1,85.77,66.92,18.92,18.92,0,0,1,66.85,85.85Z"/><path d="M66.23,53.38a1.67,1.67,0,0,0-1.84,1.39V69.38a1.92,1.92,0,0,0,3.69,0V54.77C67.92,54.77,67.92,53.38,66.23,53.38Z"/><path d="M77.31,71.08H65.77v-3.7H77.31a1.93,1.93,0,0,1,0,3.7Z"/><path d="M66.85,42.62a23.66,23.66,0,0,1,3.23.3V41.23H60.39v2.46A18.91,18.91,0,0,1,66.85,42.62Z"/><path d="M56.54,44.92V41.08H46.85v9.69h1.84A29.19,29.19,0,0,1,56.54,44.92Z"/></svg>