<svg id="Layer_1" data-name="Layer 1" xmlns="http://www.w3.org/2000/svg" viewBox="0 0 100 100"><title>icon_manual</title><path d="M73.77,45.23V71.85l-7.69,1.84V45.23a3.73,3.73,0,0,1,4-2.92C73.62,42.31,73.77,45.23,73.77,45.23Z"/><path d="M64.08,41.23V69.69h-7.7V41.23a3.74,3.74,0,0,1,4-2.92C63.92,38.31,64.08,41.23,64.08,41.23Z"/><path d="M54.23,38.77V67.23H46.54V38.77a3.73,3.73,0,0,1,4-2.92C54.08,35.85,54.23,38.77,54.23,38.77Z"/><path d="M44.08,22.77V54.31H35.62V22.77a4.17,4.17,0,0,1,4.46-3.39C44.08,19.38,44.08,22.77,44.08,22.77Z"/><path d="M35.62,72.46V49.08h38V72.46S72.23,87.08,54.85,87.08,35.62,72.46,35.62,72.46Z"/><path d="M69.15,89.23V85.08a4.07,4.07,0,0,0-.77-2.31A2.35,2.35,0,0,0,66.69,82H43.46a2.35,2.35,0,0,0-1.69.77A4.07,4.07,0,0,0,41,85.08v4.3a4.07,4.07,0,0,0,.77,2.31,2.35,2.35,0,0,0,1.69.77H66.69a2.35,2.35,0,0,0,1.69-.77,4.07,4.07,0,0,0,.77-2.31Z"/><path d="M39.77,7.54A13.54,13.54,0,1,0,53.31,21.08,13.56,13.56,0,0,0,39.77,7.54Zm0,25.54a12,12,0,1,1,12-12A11.83,11.83,0,0,1,39.77,33.08Z"/></svg>