<svg id="Layer_1" data-name="Layer 1" xmlns="http://www.w3.org/2000/svg" viewBox="0 0 100 100"><title>icon_solar</title><path d="M40,49.67H26.65a4.17,4.17,0,0,0-4.31,3.54l-1.85,8.31H40Z"/><path d="M40,64.9H19.72L17,78s-.77,2.46,1.39,2.46H39.88V64.9Z"/><path d="M68,78,65.26,64.9H45V80.59H66.49C68.65,80.59,68,78,68,78Z"/><path d="M74.34,60.75A23.84,23.84,0,0,1,70,63.06l4,18.46s.92,3.23-1.85,3.23H12.8c-2.77-.16-2-3.23-2-3.23l6.92-31.23a5.19,5.19,0,0,1,5.54-4.47H41.88c0-.76-.16-1.38-.16-2.15V42.29H19.88a6.13,6.13,0,0,0-6.46,5.23L5.26,84.75s-1.08,3.84,2.16,3.84h70c3.23,0,2.15-3.84,2.15-3.84Z"/><circle cx="62.49" cy="43.82" r="15.38"/><path d="M91.72,33.21l-2.15.61h0L82,36a2.4,2.4,0,0,0-1.54,2.92c.62,2,3.08,1.39,3.08,1.39l2.31-.62h0l7.38-2.15a2.4,2.4,0,0,0,1.54-2.93C94.18,32.59,91.72,33.21,91.72,33.21Z"/><path d="M51.42,14.59,52,16.75h0l2.15,7.54a2.4,2.4,0,0,0,2.93,1.53c2-.61,1.38-3.07,1.38-3.07l-.61-2.31h0l-2.16-7.38a2.4,2.4,0,0,0-2.92-1.54C50.8,12.13,51.42,14.59,51.42,14.59Z"/><path d="M75.26,15.52l-1.08,2h0l-3.69,6.92a2.34,2.34,0,0,0,1.08,3.08c1.85.92,3.23-1.08,3.23-1.08l1.08-2h0l3.69-6.77a2.34,2.34,0,0,0-1.08-3.08C76.49,13.36,75.26,15.52,75.26,15.52Z"/><path d="M80.18,56.29l2,1.07h0l6.93,3.7A2.32,2.32,0,0,0,92.18,60c.93-1.85-1.07-3.23-1.07-3.23l-2-1.08h0L82.34,52a2.33,2.33,0,0,0-3.08,1.08A2.43,2.43,0,0,0,80.18,56.29Z"/><path d="M33.57,30.9l2,1.08h0l6.92,3.69a2.33,2.33,0,0,0,3.08-1.08c.92-1.84-1.08-3.23-1.08-3.23l-2-1.07h0l-6.77-3.7a2.32,2.32,0,0,0-3.07,1.08C31.42,29.52,33.57,30.9,33.57,30.9Z"/><path d="M45,54.9v6.62h6.77A23.34,23.34,0,0,1,45,54.9Z"/></svg>