<svg id="Layer_1" data-name="Layer 1" xmlns="http://www.w3.org/2000/svg" viewBox="0 0 100 100"><defs><style>.cls-1{fill:#231f20;}</style></defs><title>icon_dhw_off_v1</title><path class="cls-1" d="M15.94,43.21a2,2,0,0,0-2,2V56.51l26.35-4V45.17a2,2,0,0,0-2-2Z"/><path class="cls-1" d="M90.12,5.39,75.84,19.67A9.78,9.78,0,0,1,77.69,16h0a1.86,1.86,0,1,0-2.54-2.73,13.82,13.82,0,0,0-3.36,10.46L67.61,27.9a1.84,1.84,0,0,1-.09-.25c-3-7.2,1.13-11.65,1.11-11.65a1.87,1.87,0,1,0-2.54-2.74c-1.12,1-5.68,7.15-2,15.84a13.36,13.36,0,0,1,.59,1.75l-5,5a16.61,16.61,0,0,0-1.27-8.22C55.33,20.45,59.5,16,59.48,16h0a1.86,1.86,0,1,0-2.54-2.73c-1.13,1-5.67,7.15-2,15.84a12.76,12.76,0,0,1-.7,11.61,1.73,1.73,0,0,0-.21.79l-15,15L16.09,60.18a2.36,2.36,0,0,0-1.93,2.25V81.35L5,90.5v4.88H9.87l4.29-4.28v4.28H40.5V72.56a2.35,2.35,0,0,1,1.93-2.25l19.74-3.49A1.92,1.92,0,0,1,64.43,68a1.94,1.94,0,0,0,2.27,1.19l.23,0,4.29,26.23H74L69.66,68.75l3.77-.58,4.45,27.22h2.8L76.16,67.76l3.8-.58,4.62,28.21h2.79L82.69,66.77h0c1.06-.16,1.78-1,1.6-1.77a1.32,1.32,0,0,1,1-1.68c.69-.1,1-1,.69-2.06l-2.09-9.91a2.32,2.32,0,0,0-2.51-1.57L50.59,54.68,63.22,42.05A1.84,1.84,0,0,0,65,43.46a1.85,1.85,0,0,0,1.64-1,16,16,0,0,0,2-5.91l5.17-5.17a12.61,12.61,0,0,1-1.45,9.31,1.87,1.87,0,0,0,.76,2.52,1.79,1.79,0,0,0,.89.23,1.86,1.86,0,0,0,1.64-1,16.49,16.49,0,0,0,1.14-14.06L95,10.27V5.39H90.12Z"/></svg>