<svg id="Layer_1" data-name="Layer 1" xmlns="http://www.w3.org/2000/svg" viewBox="0 0 100 100"><defs><style>.cls-1{fill:#231f20;}</style></defs><title>icon_solar copy 20</title><polygon class="cls-1" points="61.77 91.43 61.77 91.43 61.77 91.43 61.77 91.43"/><path class="cls-1" d="M49.15,17.55,16.43,46.22V95H83.15V46.22ZM52,42.48a1.92,1.92,0,0,1,1.91-1.92h.47a1.92,1.92,0,0,1,1.92,1.92V54.06L52,58.36Zm-6.26,0a1.92,1.92,0,0,1,1.92-1.92h.46A1.92,1.92,0,0,1,50,42.48V60.32l-4.3,4.3Zm-6.26,0a1.92,1.92,0,0,1,1.92-1.92h.47a1.92,1.92,0,0,1,1.91,1.92v24.1l-3.3,3.3a1.92,1.92,0,0,1-1-1.66Zm-6.26,0a1.92,1.92,0,0,1,1.92-1.92h.47a1.92,1.92,0,0,1,1.91,1.92V68.22a1.92,1.92,0,0,1-1.91,1.92h-.47a1.92,1.92,0,0,1-1.92-1.92ZM26.94,68.22V47.47a.55.55,0,0,1-.25.07h-.34a.57.57,0,0,1-.56-.56V43.86a.57.57,0,0,1,.56-.56h.34a.54.54,0,0,1,.25.06v-.88a1.92,1.92,0,0,1,1.92-1.92h.47a1.92,1.92,0,0,1,1.91,1.92V68.22a1.92,1.92,0,0,1-1.91,1.92h-.47A1.92,1.92,0,0,1,26.94,68.22ZM30.86,88.6a1.74,1.74,0,0,1-1.23-3L70.36,44.9a1.74,1.74,0,1,1,2.46,2.46L32.09,88.09A1.73,1.73,0,0,1,30.86,88.6ZM68.8,78l5.62-2.08a1.67,1.67,0,0,1,.51-.07,1.26,1.26,0,0,1,1.28.82,1.35,1.35,0,0,1-.78,1.73L71.8,79.77l2.7,1.59h0l.73.43a1.44,1.44,0,0,1,.58,1.88,1.25,1.25,0,0,1-1.15.7h0a1.87,1.87,0,0,1-.71-.16l-3.45-2h0l-.09,0L71,85.94a1.34,1.34,0,0,1-1.14,1.53.75.75,0,0,1-.21,0c-1,0-1.3-1.14-1.31-1.19l-.89-6L63.1,77.79v5l4.65,3.77A1.42,1.42,0,0,1,68,88.5a1.27,1.27,0,0,1-1,.5,1.62,1.62,0,0,1-.89-.29l-3-2.44v3.1h0v.88a1.44,1.44,0,0,1-1.32,1.46h0a1.37,1.37,0,0,1-1.38-1.33V86.44h0v-.18l-3,2.44a1.6,1.6,0,0,1-.9.3,1.27,1.27,0,0,1-1-.5,1.41,1.41,0,0,1,.24-1.9l4.68-3.81v-5.1l-4.51,2.44L54.79,86c0,.07-.34,1.16-1.31,1.16l-.26,0a1.35,1.35,0,0,1-1.08-1.56l.71-3.8-2.79,1.52h0l-.69.38a2.16,2.16,0,0,1-.79.17,1.21,1.21,0,0,1-1.12-.64,1.38,1.38,0,0,1,.49-1.87l3.44-1.87h0l.19-.1L48,77.9a2,2,0,0,1-.44-.34l1.94-1.94,5.15,2.12L59,75.37,54.7,72.81l-3.82,1.41,5-5,.19,1.3,4.31,2.55V68l-1.83-1.48L63.12,62v2.35h0v.23l3-2.44a1.6,1.6,0,0,1,.9-.3,1.27,1.27,0,0,1,1,.5,1.4,1.4,0,0,1-.24,1.9L63.1,68v5.12l4.51-2.45,1.11-5.88c0-.08.4-1.37,1.57-1.14a1.34,1.34,0,0,1,1.08,1.55L70.66,69l2.74-1.49h0l.75-.41a2.16,2.16,0,0,1,.79-.17,1.23,1.23,0,0,1,1.13.64,1.39,1.39,0,0,1-.5,1.87l-3.5,1.9h0l-.13.07,3.59,1.49a1.34,1.34,0,0,1,.72,1.76,1.24,1.24,0,0,1-1.23.78,2,2,0,0,1-.56-.08l-5.56-2.3-4.4,2.38Z"/><polygon class="cls-1" points="45.17 5.02 5 38.96 5 42.25 9.62 46.87 49.65 12.05 90.74 47.2 95 42.69 95 38.73 54.23 5.02 45.17 5.02"/><path class="cls-1" d="M27.25,47V43.86a.56.56,0,0,0-.31-.5v4.11A.55.55,0,0,0,27.25,47Z"/></svg>