<svg id="Layer_1" data-name="Layer 1" xmlns="http://www.w3.org/2000/svg" viewBox="0 0 100 100"><defs><style>.cls-1{fill:#231f20;}</style></defs><title>icon_installer</title><path class="cls-1" d="M60.89,36.84V24a4.33,4.33,0,0,0-4.32-4.32H43.4A4.33,4.33,0,0,0,39.08,24v5.18h-5a2.65,2.65,0,0,0-2.65,2.65,2.62,2.62,0,0,0,2.65,2.61H39.1v2.39c0,8.66,4.41,15.76,10,16.45h1.78C56.48,52.6,60.89,45.5,60.89,36.84Z"/><path class="cls-1" d="M71.35,54.36q7.26-14.56,9.17-16.78a7.28,7.28,0,0,1,3.56-1.88A11.11,11.11,0,0,0,88,34.07a9.84,9.84,0,0,0,3.68-8.2q-.06-5.35-4.48-7.54a62.41,62.41,0,0,1-1.45,9.4,12.75,12.75,0,0,1-5.43.32C78,27.73,76.59,27,76,26c.11-1,.36-2.51.74-4.54s.56-3.48.69-4.59l-.7-.06q-5.77,3.29-5.86,9.1A19.89,19.89,0,0,0,71.57,30,10.17,10.17,0,0,1,72,33.82q-.21,1.27-4.51,9.2c-2.07,3.84-3.91,7.26-5.55,10.27H59.06A12.6,12.6,0,0,1,50,57.5a12.6,12.6,0,0,1-9.06-4.21H36.59V68.37h16.9c-.32.52-.57.92-.74,1.16a8.31,8.31,0,0,0-6.06,2.16,12.35,12.35,0,0,0-3.53,5.61,11.15,11.15,0,0,0-.24,6.47,7.88,7.88,0,0,0,3.81,5.06,44.21,44.21,0,0,0,.86-5.34,22,22,0,0,1,1-5.11,10.83,10.83,0,0,1,5.52-.15c2.13.42,3.54,1.2,4.25,2.33a39.25,39.25,0,0,1-.5,4.83q-.53,3.9-.63,4.59,6.87-2.2,6.63-10a10.69,10.69,0,0,0-.69-2.81,9.16,9.16,0,0,1-.6-2.75q.12-2.1,3.88-10l2.41-5V94.89H31.3V53.41a7.84,7.84,0,0,0-6.56,7.71V95H75.26V61.12A7.84,7.84,0,0,0,71.35,54.36Z"/><path class="cls-1" d="M50.89,53.29h0a6.54,6.54,0,0,1-.89.07A6.54,6.54,0,0,0,50.89,53.29Z"/><path class="cls-1" d="M49.11,53.29a6.67,6.67,0,0,0,.89.07,6.67,6.67,0,0,1-.89-.07Z"/></svg>