<svg id="Layer_1" data-name="Layer 1" xmlns="http://www.w3.org/2000/svg" viewBox="0 0 100 100"><defs><style>.cls-1{fill:#231f20;}</style></defs><title>icon_micro_chp</title><path class="cls-1" d="M43.9,10.19V38.65H58.46L45.17,54.12h45.4V10.19H82.81V5h-14v5.18Zm28.78,5c.2,5.87,19.26,27.66,9.16,34.43,3.09-4.18-5.4-14-5.4-14S63,51.2,76.09,51.48a29.77,29.77,0,0,1-3.14.19C50.27,49.86,72.75,24.5,72.68,15.22Z"/><polygon class="cls-1" points="11.01 86.31 47.76 43.73 25.87 43.73 38.72 19.02 22.06 19.01 7.99 51.96 23.86 51.96 11.01 86.31"/><rect class="cls-1" x="43.9" y="59.55" width="46.67" height="11.17"/></svg>