<svg id="Layer_1" data-name="Layer 1" xmlns="http://www.w3.org/2000/svg" viewBox="0 0 100 100"><defs><style>.cls-1{fill:#231f20;}</style></defs><title>icon_cascade</title><path class="cls-1" d="M83,44.59H52.93a2.07,2.07,0,0,0-2.08,2.07V77.8H48.57V74.14a2.07,2.07,0,0,0-2.07-2.07c-9.24,0-14.07,7.16-14.07,14.24v2.41A2.08,2.08,0,0,0,34.5,90.8h12a2.08,2.08,0,0,0,2.07-2.08v-3.8h2.28v5.45a2.08,2.08,0,0,0,2.08,2.07H83a2.07,2.07,0,0,0,2.07-2.07V46.66A2.07,2.07,0,0,0,83,44.59ZM44.43,86.65H36.57v-.34c0-4.34,2.48-9,7.86-9.93Zm36.5,1.65H55V48.73H80.93Z"/><path class="cls-1" d="M43.12,16.2l3.26,1.41C50,9.17,54.44,6.25,58.52,6.93c4.51.73,8.39,7.37,9.63,16.14l-5.26,0,7,12.28,7.11-12.24H71.73C70.65,14.58,67.35,8,62.94,5H52.41C49.5,6.87,46.22,9,43.12,16.2Z"/><path class="cls-1" d="M7,67.35H19a2.07,2.07,0,0,0,2.07-2.07v-3.8h2.28v5.44A2.07,2.07,0,0,0,25.45,69H46.62V64.85H27.52V25.28H53.45V40.35h4.14V23.21a2.07,2.07,0,0,0-2.07-2.07H25.45a2.07,2.07,0,0,0-2.07,2.07V54.35H21.1V50.69A2.07,2.07,0,0,0,19,48.62C10.19,48.62,5.4,55.18,5,62v3.71A2.07,2.07,0,0,0,7,67.35ZM9.1,62.86c0-4.34,2.48-9,7.86-9.93V63.21H9.1Z"/></svg>