<svg id="Layer_1" data-name="Layer 1" xmlns="http://www.w3.org/2000/svg" viewBox="0 0 100 100"><defs><style>.cls-1{fill:#231f20;}</style></defs><title>icon_chimney_sweep</title><rect class="cls-1" x="38.26" y="69.55" width="4.19" height="5.53" transform="matrix(0.95, -0.31, 0.31, 0.95, -20.71, 16.38)"/><rect class="cls-1" x="65.66" y="60.46" width="4.19" height="5.53" transform="translate(-16.46 24.53) rotate(-18.34)"/><polygon class="cls-1" points="27.32 90.95 27.32 94.79 73.15 94.79 73.15 75.76 27.32 90.95"/><polygon class="cls-1" points="27.26 73.75 27.26 79.58 29.52 78.82 27.78 73.57 27.26 73.75"/><rect class="cls-1" x="51.96" y="65.01" width="4.19" height="5.53" transform="translate(-18.58 20.46) rotate(-18.34)"/><path class="cls-1" d="M27.32,49.18V62.32l45.54-15.1a7.83,7.83,0,0,0-7.54-5.87h-.89c-2.29,7.11-8.22,12.09-14.2,12.09s-11.9-5-14.19-12.09h-.89A7.86,7.86,0,0,0,27.32,49.18Z"/><path class="cls-1" d="M84.79,64,78.27,66.2,74.41,54.57l6.52-2.17a1.83,1.83,0,1,0-1.15-3.47L13.61,70.87a1.83,1.83,0,0,0,.57,3.57,1.9,1.9,0,0,0,.58-.09l1.38-.46L20,85.52,18.62,86a1.83,1.83,0,0,0,.57,3.57,1.9,1.9,0,0,0,.58-.09L86,67.51A1.83,1.83,0,0,0,84.79,64ZM23.48,84.37,19.62,72.74l10.22-3.39L33.7,81Zm13.7-4.54L33.32,68.19l10.22-3.38L47.4,76.44Zm13.7-4.55L47,63.65l10.22-3.39,3.85,11.63Zm13.69-4.54L60.72,59.11l10.22-3.39,3.85,11.63Z"/><path class="cls-1" d="M57.4,7.76H43.07a3.93,3.93,0,0,0-3.92,3.91V27H32.52a2.4,2.4,0,0,0,0,4.8H39v1.33c0,9.3,5,16.08,11.23,16.08s11.24-6.78,11.24-16.08V31.79H68A2.4,2.4,0,0,0,68,27H61.31V11.67A3.92,3.92,0,0,0,57.4,7.76Z"/></svg>