<svg id="Layer_1" data-name="Layer 1" xmlns="http://www.w3.org/2000/svg" viewBox="0 0 100 100"><title>icon_outdoor_sensor</title><polygon points="5 48 22.11 33.51 53.38 59.36 49.19 63.8 22.11 40.64 5 55.52 5 48"/><path d="M21.79,44.26,5,59V95H26.49V77h8.33V95h9.37V63.15ZM16.68,85.35H8.34V77h8.34Zm0-14.5H8.34V62.51h8.34Zm18.12,0H26.49V62.51H34.8Z"/><path d="M85.77,56.25V22.83h0a8.13,8.13,0,1,0-16.25,0h0V56.26a12.7,12.7,0,1,0,16.33,0ZM77.74,74A8,8,0,0,1,74,58.86V24.63h7.09v34A8,8,0,0,1,77.74,74Z"/><rect x="87.96" y="27.89" width="7.04" height="2.28"/><rect x="87.96" y="37.42" width="7.04" height="2.28"/><rect x="87.96" y="47.3" width="7.04" height="2.28"/></svg>