<svg id="Layer_1" data-name="Layer 1" xmlns="http://www.w3.org/2000/svg" viewBox="0 0 100 100"><defs><style>.cls-1{fill:#231f20;}</style></defs><title>icon_pressure</title><path class="cls-1" d="M64.71,76.39l-1.79.38a4.92,4.92,0,0,0-2.72,1.48,3.83,3.83,0,0,0-1,2.66,4,4,0,0,0,.6,2.14,4.27,4.27,0,0,0,1.71,1.57,5.53,5.53,0,0,0,2.57.58A7.44,7.44,0,0,0,67,84.66a11.44,11.44,0,0,0,2.66-1.61,8.35,8.35,0,0,0,1.22,1.6A1.7,1.7,0,0,0,72,85.2a1.85,1.85,0,0,0,1.25-.48,1.4,1.4,0,0,0,.55-1.07,7.09,7.09,0,0,0-.36-1.5,7.83,7.83,0,0,1-.35-2.23c0-.76,0-1.46,0-2.08s0-1.38,0-2.27a8.13,8.13,0,0,0-.6-3.4,3.65,3.65,0,0,0-2-1.87,10.71,10.71,0,0,0-3.94-.59,9.94,9.94,0,0,0-3.75.61,5.08,5.08,0,0,0-2.21,1.56,3.18,3.18,0,0,0-.72,2,1.33,1.33,0,0,0,.47,1,1.59,1.59,0,0,0,1.11.41,1.2,1.2,0,0,0,.92-.25c.15-.18.39-.53.74-1.07a3.54,3.54,0,0,1,1.26-1.21,4.58,4.58,0,0,1,2.18-.41,2.71,2.71,0,0,1,2.22.71,3.89,3.89,0,0,1,.6,2.21c-.8.23-1.54.42-2.22.59S65.67,76.2,64.71,76.39Zm4.68,1.7a5.85,5.85,0,0,1-.51,2.84,3.37,3.37,0,0,1-1.4,1.28,4.46,4.46,0,0,1-2.08.49,2.45,2.45,0,0,1-1.72-.6A2,2,0,0,1,63,80.63a1.57,1.57,0,0,1,.56-1.3,2.92,2.92,0,0,1,1.17-.63c.4-.11,1.14-.28,2.2-.5a19.57,19.57,0,0,0,2.43-.65Z"/><rect class="cls-1" x="5" y="15.84" width="72.19" height="10.35"/><rect class="cls-1" x="5" y="30.51" width="56.54" height="10.35"/><path class="cls-1" d="M84,69.74a3,3,0,0,0-1.92.59,7,7,0,0,0-1.4,1.77,3.23,3.23,0,0,0-.46-1.77,1.55,1.55,0,0,0-1.36-.59c-1.24,0-1.85.85-1.85,2.56V82.88a2.46,2.46,0,0,0,.53,1.73,1.74,1.74,0,0,0,1.35.59,1.86,1.86,0,0,0,1.38-.58,2.48,2.48,0,0,0,.54-1.74V79.71c0-1.14,0-2.11.11-2.91a9.19,9.19,0,0,1,.4-2,2.76,2.76,0,0,1,.83-1.3A2,2,0,0,1,83.46,73a4.42,4.42,0,0,1,1.41.26,4.9,4.9,0,0,0,1,.25,1.48,1.48,0,0,0,1-.45,1.5,1.5,0,0,0,.48-1.15,1.78,1.78,0,0,0-1.13-1.59A5,5,0,0,0,84,69.74Z"/><rect class="cls-1" x="5" y="59.84" width="25.24" height="10.35"/><rect class="cls-1" x="5" y="45.17" width="40.89" height="10.35"/><path class="cls-1" d="M45.24,64.65a1.64,1.64,0,0,0-1.35-.57,1.57,1.57,0,0,0-1.3.59,2.81,2.81,0,0,0-.47,1.75V83a2.42,2.42,0,0,0,.48,1.63,1.65,1.65,0,0,0,1.29.55,1.73,1.73,0,0,0,1.31-.55A2.33,2.33,0,0,0,45.72,83v-.37a13.15,13.15,0,0,0,1,1.08,5.42,5.42,0,0,0,.92.71A5,5,0,0,0,49,85a6.21,6.21,0,0,0,1.65.21,6,6,0,0,0,2.62-.58,5.75,5.75,0,0,0,2-1.64,7.37,7.37,0,0,0,1.27-2.5A10.61,10.61,0,0,0,57,77.31a9.61,9.61,0,0,0-.78-4A6,6,0,0,0,54,70.66a6.09,6.09,0,0,0-3.32-.9,5.75,5.75,0,0,0-2.76.6,8.68,8.68,0,0,0-2.18,1.7V66.25A2.39,2.39,0,0,0,45.24,64.65Zm1.14,10.23a3.9,3.9,0,0,1,1.34-1.71,3.27,3.27,0,0,1,1.94-.59,3,3,0,0,1,1.85.59,3.73,3.73,0,0,1,1.23,1.68,7.16,7.16,0,0,1,.43,2.59,5.45,5.45,0,0,1-1,3.57,3.13,3.13,0,0,1-2.47,1.25A3.43,3.43,0,0,1,46.93,81a5.25,5.25,0,0,1-1-3.49A6.77,6.77,0,0,1,46.38,74.88Z"/><rect class="cls-1" x="5" y="74.51" width="9.59" height="10.35"/></svg>