<svg id="Layer_1" data-name="Layer 1" xmlns="http://www.w3.org/2000/svg" viewBox="0 0 100 100"><defs><style>.cls-1{fill:#231f20;}</style></defs><title>icon_information</title><path class="cls-1" d="M49.93,85.18a5.83,5.83,0,0,0,4.47-1.89,7.94,7.94,0,0,0,1.76-5.6V42.05a7.13,7.13,0,0,0-1.76-5.14,5.88,5.88,0,0,0-4.47-1.86,5.68,5.68,0,0,0-4.4,1.86,7.9,7.9,0,0,0-1.69,5.51V77.69a8.17,8.17,0,0,0,1.69,5.55A5.55,5.55,0,0,0,49.93,85.18Z"/><path class="cls-1" d="M54.31,18.8a6.42,6.42,0,0,0-4.24-1.54A6.3,6.3,0,0,0,45.71,19a5.53,5.53,0,0,0-1.87,4.31,5.62,5.62,0,0,0,1.82,4.47,6.54,6.54,0,0,0,4.41,1.58,6.26,6.26,0,0,0,4.29-1.6,5.66,5.66,0,0,0,1.8-4.45A5.45,5.45,0,0,0,54.31,18.8Z"/></svg>