<svg id="Layer_1" data-name="Layer 1" xmlns="http://www.w3.org/2000/svg" viewBox="0 0 100 100"><title>icon_heating_mode_cooling_mode_menu</title><path d="M49.15,17.54,16.43,46.2V95H83.15V46.2ZM36,81.42A2.54,2.54,0,0,1,33.46,84h-.62a2.54,2.54,0,0,1-2.54-2.53V54a.73.73,0,0,1-.33.08h-.45a.74.74,0,0,1-.74-.73V49.18a.75.75,0,0,1,.74-.74H30a.74.74,0,0,1,.33.09V47.36a2.54,2.54,0,0,1,2.54-2.54h.62A2.54,2.54,0,0,1,36,47.36Zm8.28,0A2.54,2.54,0,0,1,41.74,84h-.62a2.54,2.54,0,0,1-2.54-2.53V47.36a2.54,2.54,0,0,1,2.54-2.54h.62a2.54,2.54,0,0,1,2.53,2.54Zm8.28,0A2.54,2.54,0,0,1,50,84H49.4a2.54,2.54,0,0,1-2.54-2.53V47.36a2.54,2.54,0,0,1,2.54-2.54H50a2.54,2.54,0,0,1,2.53,2.54Zm8.28,0A2.54,2.54,0,0,1,58.3,84h-.62a2.54,2.54,0,0,1-2.54-2.53V47.36a2.54,2.54,0,0,1,2.54-2.54h.62a2.54,2.54,0,0,1,2.53,2.54Zm9.8-1.83a.74.74,0,0,1-.74.74h-.77v1.09A2.55,2.55,0,0,1,66.58,84H66a2.54,2.54,0,0,1-2.54-2.53V47.36A2.54,2.54,0,0,1,66,44.82h.62a2.55,2.55,0,0,1,2.54,2.54V74.72h.77a.74.74,0,0,1,.74.74Z"/><polygon points="45.17 5 5 38.95 5 42.24 9.62 46.86 49.65 12.04 90.74 47.18 95 42.67 95 38.72 54.23 5 45.17 5"/></svg>