<svg id="Layer_1" data-name="Layer 1" xmlns="http://www.w3.org/2000/svg" viewBox="0 0 100 100"><defs><style>.cls-1{fill:#231f20;}</style></defs><title>icon_swimming_pool</title><path class="cls-1" d="M47.85,90.76c-3.8,0-6.22,1.77-8.56,3.49l-1,.74h4.81a8.56,8.56,0,0,1,9.59,0h4.8l-1-.74C54.07,92.53,51.66,90.76,47.85,90.76Z"/><path class="cls-1" d="M79.17,21.86l-22.39,0h0a3,3,0,0,0,0,6.05l21.11-.05L87.47,38,76.53,41.18a3,3,0,0,0-2,3.93l4.75,13.17A3,3,0,0,0,80.88,60H69.07a3.46,3.46,0,1,0,0,6.91H95V60H83.39A3,3,0,0,0,85,56.23L81.3,46.1l12.62-3.63a2.94,2.94,0,0,0,1.08-.6V37.19L81.35,22.81A3.06,3.06,0,0,0,79.17,21.86Z"/><path class="cls-1" d="M68.38,15.07A5.64,5.64,0,1,0,74,9.44,5.64,5.64,0,0,0,68.38,15.07Z"/><path class="cls-1" d="M15.47,90.76c-3.81,0-6.22,1.77-8.56,3.49l-1,.74h4.81a8.56,8.56,0,0,1,9.59,0h4.8l-1-.74C21.69,92.53,19.28,90.76,15.47,90.76Z"/><path class="cls-1" d="M80.24,74.65c-3.81,0-6.23,1.78-8.56,3.49s-4.3,3.15-7.64,3.15-5.42-1.53-7.63-3.15-4.75-3.49-8.56-3.49-6.22,1.78-8.56,3.49-4.3,3.15-7.63,3.15S26.24,79.76,24,78.14s-4.75-3.49-8.56-3.49-6.22,1.78-8.56,3.49c-.63.47-1.26.92-1.91,1.34v3.18a27,27,0,0,0,3.54-2.29c2.16-1.59,4-3,6.93-3s4.77,1.37,6.93,3c2.35,1.73,5,3.69,9.26,3.69s6.91-2,9.27-3.69c2.16-1.59,4-3,6.92-3s4.77,1.37,6.93,3c2.36,1.73,5,3.69,9.26,3.69s6.91-2,9.27-3.69c2.16-1.59,4-3,6.93-3s4.76,1.37,6.92,3S91.57,83.59,95,84V81.18c-2.53-.36-4.33-1.66-6.21-3C86.46,76.43,84,74.65,80.24,74.65Z"/><path class="cls-1" d="M80.24,90.76c-3.81,0-6.23,1.77-8.56,3.49l-1,.74h4.8A8.56,8.56,0,0,1,85,95h4.8l-1-.74C86.46,92.53,84,90.76,80.24,90.76Z"/><path class="cls-1" d="M80.24,82.7c-3.81,0-6.23,1.78-8.56,3.49s-4.3,3.16-7.64,3.16-5.42-1.53-7.63-3.16-4.75-3.49-8.56-3.49-6.22,1.78-8.56,3.49-4.3,3.16-7.63,3.16S26.24,87.82,24,86.19s-4.75-3.49-8.56-3.49-6.22,1.78-8.56,3.49c-.63.47-1.26.92-1.91,1.34v3.18a26,26,0,0,0,3.54-2.29c2.16-1.59,4-3,6.93-3s4.77,1.36,6.93,3c2.35,1.73,5,3.69,9.26,3.69s6.91-2,9.27-3.69c2.16-1.59,4-3,6.92-3s4.77,1.36,6.93,3c2.36,1.73,5,3.69,9.26,3.69s6.91-2,9.27-3.69c2.16-1.59,4-3,6.93-3s4.76,1.36,6.92,3S91.57,91.65,95,92V89.24c-2.53-.37-4.33-1.67-6.21-3C86.46,84.48,84,82.7,80.24,82.7Z"/></svg>