<svg id="Layer_1" data-name="Layer 1" xmlns="http://www.w3.org/2000/svg" viewBox="0 0 100 100"><title>icon_target_temperature</title><polygon points="26.15 37.92 26.15 15.15 34.46 26.39 26.15 37.92"/><rect x="19.38" y="22.08" width="7.08" height="8.92"/><path d="M26.31,6.85A19.54,19.54,0,1,0,45.85,26.38,19.57,19.57,0,0,0,26.31,6.85Zm0,36.92A17.39,17.39,0,1,1,43.69,26.38,17.38,17.38,0,0,1,26.31,43.77Z"/><path d="M69.54,61.46V19.31S70,6.69,60.77,6.69c-9.85,0-9.39,12.62-9.39,12.62V61.46A17.22,17.22,0,1,0,77.69,76.08,16.81,16.81,0,0,0,69.54,61.46ZM60.62,87.62A10.94,10.94,0,0,1,55.54,67V38.69h9.54V66.85a10.91,10.91,0,0,1,6.3,9.84A10.73,10.73,0,0,1,60.62,87.62Z"/><rect x="74.46" y="24.38" width="18.77" height="3.08"/><rect x="74.46" y="37.31" width="18.77" height="3.08"/><rect x="74.46" y="50.69" width="18.77" height="3.08"/></svg>