<svg id="Layer_1" data-name="Layer 1" xmlns="http://www.w3.org/2000/svg" viewBox="0 0 100 100"><defs><style>.cls-1{fill:#231f20;}</style></defs><title>icon_cool_producing</title><path class="cls-1" d="M68.63,34.08a2.66,2.66,0,0,0,.82.12h0a1.76,1.76,0,0,0,1.69-1.09,1.87,1.87,0,0,0-1-2.49l-.14.3.12-.31-5.39-2.23.37-.2h0l5-2.74a2.16,2.16,0,0,0,1-1.69,1.84,1.84,0,0,0-.28-1,1.72,1.72,0,0,0-1.57-.91,2.77,2.77,0,0,0-1.11.24l-1.16.63h0L63,25,64,19.29l-.32-.05.33,0s0-.1,0-.24a1.89,1.89,0,0,0-1.54-2l-.36,0c-1.46.05-1.83,1.61-1.85,1.62l-1.63,8.7L51.91,31V23.35l6.87-5.58a2.48,2.48,0,0,0,.77-1.63,1.71,1.71,0,0,0-.4-1.08,1.83,1.83,0,0,0-1.41-.71,2.29,2.29,0,0,0-1.26.42l.2.26-.21-.25-4.53,3.68v-.55h0V12.29A2,2,0,0,0,50,10.39h-.1c-1.71.08-1.8,2-1.81,2v1.26h0v4.74l-4.5-3.65-.21.25.2-.26a2.29,2.29,0,0,0-1.26-.42,1.81,1.81,0,0,0-1.41.71,1.71,1.71,0,0,0-.4,1.08,2.46,2.46,0,0,0,.75,1.61l6.85,5.57v7.54L41.64,27l-1.3-8.75s-.35-1.67-1.86-1.72l-.3,0a1.9,1.9,0,0,0-1.61,2,1.54,1.54,0,0,0,0,.17l.33,0-.33,0,.86,5.78L37,24.28h0l-4.88-2.88a2.3,2.3,0,0,0-1-.24,1.8,1.8,0,0,0-1.62,1,1.71,1.71,0,0,0-.24.87,2.4,2.4,0,0,0,1.05,1.78l1,.61h0l4.12,2.43-5.44,2,.12.31-.13-.3a2,2,0,0,0-1.24,1.74,2.1,2.1,0,0,0,.13.71,1.78,1.78,0,0,0,1.76,1.15h0a3.08,3.08,0,0,0,.69-.08l8.29-3.07,6.47,3.83L39.57,37.7l-8.18-3.39a3,3,0,0,0-.82-.12,1.76,1.76,0,0,0-1.74,1.09,2,2,0,0,0-.16.77,2.06,2.06,0,0,0,1.17,1.72l.14-.3-.12.3L35.25,40l-.48.26h0l-4.93,2.68a2.16,2.16,0,0,0-1,1.68,2,2,0,0,0,.27,1,1.74,1.74,0,0,0,1.55.89h0a2.86,2.86,0,0,0,1.11-.23l1-.56h0l4.24-2.3L36,49.1l.32.07L36,49.12s0,.1,0,.25a1.86,1.86,0,0,0,1.54,2,1.53,1.53,0,0,0,.36,0c1.46,0,1.83-1.61,1.85-1.62l1.63-8.68L48.1,37.4v7.65l-6.86,5.58a2.48,2.48,0,0,0-.77,1.63,1.73,1.73,0,0,0,.4,1.08,1.79,1.79,0,0,0,1.39.7h0a2.23,2.23,0,0,0,1.26-.41l-.19-.27.2.26,4.53-3.68v.41h0v5.76A2,2,0,0,0,50,58h0c1.81-.09,1.9-2,1.91-2v-1.3h0V50l4.5,3.65.21-.26-.2.27a2.23,2.23,0,0,0,1.26.41h0a1.79,1.79,0,0,0,1.39-.7,1.73,1.73,0,0,0,.4-1.08,2.53,2.53,0,0,0-.75-1.62l-6.86-5.57V37.54l6.47,3.83,1.31,8.74s.34,1.67,1.85,1.72l.28,0a1.91,1.91,0,0,0,1.63-2,1.48,1.48,0,0,0,0-.16l-.33,0,.33-.05-.86-5.78.39.23h0L67.89,47a2.33,2.33,0,0,0,1,.24h0a1.81,1.81,0,0,0,1.59-1,1.71,1.71,0,0,0,.24-.87,2.4,2.4,0,0,0-1-1.78L68.6,43h0l-4-2.38,5.44-2-.11-.31.13.31a2.05,2.05,0,0,0,1.23-1.75,2.09,2.09,0,0,0-.13-.7A1.78,1.78,0,0,0,69.32,35a2.51,2.51,0,0,0-.69.08l-8.3,3.07-6.46-3.82,6.59-3.57Z"/><path class="cls-1" d="M44.68,89.13a4.47,4.47,0,0,0,.42-.86.4.4,0,0,0-.17-.21,7,7,0,0,0-.88,0h-1.9a9,9,0,0,0,.52-2.92c-.12-5-3.57-9.15-3.46-13.1a8,8,0,0,1,2-5.18A1.37,1.37,0,0,0,41,64.9a1.39,1.39,0,0,0-1.94.22A10.86,10.86,0,0,0,36.45,72c.11,5.29,3.58,9.5,3.45,13.1A5.9,5.9,0,0,1,39.14,88H37.36a4,4,0,0,0-1,.07.46.46,0,0,0-.1.25s.21.4.42.77l3.35,5.79s0,0,0,.08H41.3l0-.08Z"/><path class="cls-1" d="M66.39,89.13a4.18,4.18,0,0,0,.41-.86c0-.06-.11-.2-.17-.21a6.83,6.83,0,0,0-.87,0H63.85a8.74,8.74,0,0,0,.52-2.92c-.12-5-3.57-9.15-3.46-13.1a8.05,8.05,0,0,1,2-5.18,1.38,1.38,0,0,0-2.16-1.72A10.82,10.82,0,0,0,58.15,72c.11,5.29,3.58,9.5,3.46,13.1A6,6,0,0,1,60.84,88H59.06a4,4,0,0,0-1,.07.38.38,0,0,0-.09.25,8.69,8.69,0,0,0,.41.77l3.35,5.79a.3.3,0,0,1,0,.08H63a.3.3,0,0,0,0-.08Z"/><path class="cls-1" d="M55.54,89.13a4.85,4.85,0,0,0,.41-.86.4.4,0,0,0-.17-.21,6.83,6.83,0,0,0-.87,0H53a8.74,8.74,0,0,0,.52-2.92C53.4,80.09,50,76,50.06,72a8.05,8.05,0,0,1,2-5.18,1.38,1.38,0,0,0-2.17-1.72A10.92,10.92,0,0,0,47.3,72c.11,5.29,3.58,9.5,3.46,13.1A6,6,0,0,1,50,88H48.21a4,4,0,0,0-1,.07.38.38,0,0,0-.09.25,8.69,8.69,0,0,0,.41.77l3.35,5.79s0,0,0,.08h1.18l0-.08Z"/></svg>