<svg id="Layer_1" data-name="Layer 1" xmlns="http://www.w3.org/2000/svg" viewBox="0 0 100 100"><defs><style>.cls-1{fill:#231f20;}</style></defs><title>icon_oil_burner</title><path class="cls-1" d="M58.68,27.43a2.06,2.06,0,0,0-1.46-.61H39.62v-3H17.79A7.24,7.24,0,0,0,10.57,31V63.86c0,4,3.26,6.61,7.22,7.9l15.53,4.88h6.3V49.36h17.6a2.06,2.06,0,0,0,1.46-.61L60.45,47a2.08,2.08,0,0,0,.61-1.47V30.66a2.06,2.06,0,0,0-.61-1.46ZM56.92,44.66l-.56.55H39.62V37.64h17.3Zm0-10.82H39.62V31H56.36l.56.56Z"/><path class="cls-1" d="M63.11,36.51a28.73,28.73,0,0,0,.18,3.08c.28-12.86,15.54.34,15.54.34s-9.64,8.33-13.74,5.31C70.66,53.55,86.6,41.73,95,37.59V35.43C84.15,31.67,64.67,16.91,63.11,36.51Z"/></svg>