<svg id="Layer_1" data-name="Layer 1" xmlns="http://www.w3.org/2000/svg" viewBox="0 0 100 100"><defs><style>.cls-1{fill:#231f20;}</style></defs><title>icon_winter</title><path class="cls-1" d="M50.11,50.94A13.25,13.25,0,0,0,54,25l2.22-1.25a1.71,1.71,0,0,0-1.67-3L50.41,23.1l-6.71-12L29.93,18.86l6.71,12-4.12,2.31a1.71,1.71,0,0,0,.84,3.2,1.66,1.66,0,0,0,.83-.22l3.09-1.73A13.21,13.21,0,0,0,50.11,50.94ZM53.47,38a1,1,0,0,1,1.19-1l7.62,1.18a1,1,0,0,1,0,2l-7.62,1.18-.16,0a1,1,0,0,1-1-1Z"/><path class="cls-1" d="M74.39,72.69A24.37,24.37,0,0,0,59.84,50.38a15.92,15.92,0,0,1-19.55-.07A24.38,24.38,0,0,0,40.15,95h19.7A24.37,24.37,0,0,0,74.39,72.69ZM50.25,79.43a2.94,2.94,0,1,1,2.94-2.94A2.94,2.94,0,0,1,50.25,79.43Zm0-13a2.94,2.94,0,1,1,2.94-2.94A2.94,2.94,0,0,1,50.25,66.42Z"/></svg>