<svg id="Layer_1" data-name="Layer 1" xmlns="http://www.w3.org/2000/svg" viewBox="0 0 100 100"><defs><style>.cls-1{fill:#231f20;}</style></defs><title>icon_antifrost</title><path class="cls-1" d="M53.2,89.28h0v-10l9.95,8.08s2.48,1.82,4.37-.47c1.74-2.13-.63-4.43-.63-4.43L53.16,71.32V55l14,8.3,2.61,17.55s.78,3.22,3.5,2.8c2.93-.45,2.63-3.52,2.63-3.52L74,67.39l2.44,1.43v0l9.23,5.44s2.82,1.41,4.32-1.22c1.4-2.45-1.4-4.36-1.4-4.36l-2.74-1.62v0L77.26,62l12-4.45s2.84-1.21,1.82-4C90.16,51,87,51.83,87,51.83L70.37,58l-14-8.28L70.65,42l16.4,6.78s3.16,1,4.2-1.56c1.12-2.74-1.67-4.06-1.67-4.06L77.67,38.18l2.48-1.35v0l9.42-5.11s2.66-1.7,1.17-4.35c-1.38-2.45-4.46-1-4.46-1l-2.8,1.52h0l-8.77,4.76L77.07,20s.42-3.05-2.49-3.61c-2.7-.53-3.6,2.66-3.6,2.66L67.72,36.46,53.16,44.35V27.84L67,16.64s2.38-2.31.63-4.43c-1.88-2.3-4.36-.47-4.36-.47l-10,8.13v-3h0V6.32a4.32,4.32,0,0,0-.55-1.65H47.53a5.08,5.08,0,0,0-.62,2v3h0V19.82L37,11.74s-2.49-1.83-4.37.47c-1.75,2.12.63,4.43.63,4.43L46.94,27.78V44.11l-14-8.28L30.32,18.26s-.77-3.22-3.49-2.8C23.9,15.91,24.2,19,24.2,19l1.91,12.75-2.59-1.52v0l-9.08-5.35s-2.82-1.42-4.32,1.22c-1.4,2.45,1.4,4.36,1.4,4.36L14.12,32v0l8.75,5.16-12,4.45S8,42.79,9,45.58c.94,2.58,4.13,1.71,4.13,1.71l16.58-6.14,14,8.3L29.49,57.18,13.07,50.39s-3.16-1-4.2,1.56C7.75,54.69,10.54,56,10.54,56l11.91,4.93-2.64,1.43h0l-9.27,5s-2.66,1.7-1.17,4.34c1.38,2.46,4.46,1,4.46,1l2.65-1.44h0l8.92-4.84L23.05,79.09s-.42,3.06,2.49,3.62c2.7.52,3.59-2.66,3.59-2.66L32.4,62.67l14.54-7.88v16.5L33.17,82.48s-2.38,2.3-.63,4.43c1.88,2.29,4.36.47,4.36.47l10-8.13v2.83h0V92.79a4.27,4.27,0,0,0,.71,1.88h4.83a5.06,5.06,0,0,0,.76-2.2Z"/></svg>