<svg id="Layer_1" data-name="Layer 1" xmlns="http://www.w3.org/2000/svg" viewBox="0 0 100 100"><title>icon_short_temperature_change</title><polygon points="95.08 14.62 71.39 14.62 83.08 5.85 95.08 14.62"/><rect x="78.62" y="14.15" width="9.23" height="25.54"/><path d="M51.85,59.69V23.85s.3-10.77-7.39-10.77c-8.31,0-8,10.77-8,10.77V59.69a14.62,14.62,0,1,0,15.39,0ZM44.31,82a9.25,9.25,0,0,1-9.23-9.23A8.64,8.64,0,0,1,40,64.62V40.31h8.15v24A9.27,9.27,0,0,1,44.31,82Z"/><rect x="56" y="28.15" width="16" height="2.62"/><rect x="56" y="39.23" width="16" height="2.62"/><rect x="56" y="50.62" width="16" height="2.62"/><polygon points="4.92 85.39 28.61 85.39 16.92 94.15 4.92 85.39"/><rect x="12.15" y="60.31" width="9.23" height="25.54"/></svg>