<svg id="Layer_1" data-name="Layer 1" xmlns="http://www.w3.org/2000/svg" viewBox="0 0 100 100"><title>icon_living_room</title><path d="M17.62,40.23v34H7.31v-34s.61-5.38,5.38-5.38S17.62,40.23,17.62,40.23Z"/><path d="M92.54,40.23v34H82.23v-34s.62-5.38,5.39-5.38S92.54,40.23,92.54,40.23Z"/><path d="M47.15,40.39H21.31s1.38-10-8.16-10c-.15-3.54,0-9.23,0-13.54s4.93-4.31,4.93-4.31H41s6.15-.31,6.31,6.15C47.31,25.16,47.15,40.23,47.15,40.39Z"/><path d="M52.38,40.39H78.23s-1.38-10,8.15-10c.16-3.54,0-9.23,0-13.54s-4.92-4.31-4.92-4.31H58.54s-6.16-.31-6.31,6.15C52.23,25.16,52.38,40.23,52.38,40.39Z"/><path d="M78.54,70.39V65.31A3.15,3.15,0,0,0,77,62.54a7.49,7.49,0,0,0-3.54-.92H25.92a7.51,7.51,0,0,0-3.54.92,3.64,3.64,0,0,0-1.53,2.77v5.38a3.12,3.12,0,0,0,1.53,2.77,7.44,7.44,0,0,0,3.54.93H73.31a7.44,7.44,0,0,0,3.54-.93,3.63,3.63,0,0,0,1.53-2.77v-.3Z"/><path d="M78.54,54.08V49A3.15,3.15,0,0,0,77,46.23a7.49,7.49,0,0,0-3.54-.92H25.92a7.51,7.51,0,0,0-3.54.92A3.64,3.64,0,0,0,20.85,49v5.39a3.13,3.13,0,0,0,1.53,2.77,7.51,7.51,0,0,0,3.54.92H73.31a7.51,7.51,0,0,0,3.54-.92,3.64,3.64,0,0,0,1.53-2.77v-.31Z"/><rect x="3.92" y="78.85" width="92.15" height="8.62"/></svg>