<svg id="Layer_1" data-name="Layer 1" xmlns="http://www.w3.org/2000/svg" viewBox="0 0 100 100"><defs><style>.cls-1{fill:#231f20;}</style></defs><title>icon_boiler_switch_off</title><path class="cls-1" d="M61.83,40a3,3,0,0,0,2.1-.63,2.14,2.14,0,0,0,.69-1.66A2.09,2.09,0,0,0,63.93,36a3,3,0,0,0-2.1-.63H47.9a4.9,4.9,0,0,0-2.06.37A2.28,2.28,0,0,0,44.66,37,4.8,4.8,0,0,0,44.28,39V61.49a3.86,3.86,0,0,0,.82,2.7,3,3,0,0,0,4.26,0,3.85,3.85,0,0,0,.83-2.71V51.87h9.73a2.94,2.94,0,0,0,2-.6,2,2,0,0,0,.68-1.61A2.05,2.05,0,0,0,61.94,48a2.87,2.87,0,0,0-2-.61H50.19V40Z"/><path class="cls-1" d="M18.94,64a16,16,0,0,0,6.13,1.11A16.2,16.2,0,0,0,31.18,64a11.94,11.94,0,0,0,4.5-3.1,13.24,13.24,0,0,0,2.74-4.8A19.18,19.18,0,0,0,39.34,50a17.9,17.9,0,0,0-1.67-8,12,12,0,0,0-4.93-5.24A15.56,15.56,0,0,0,25,34.91,16,16,0,0,0,19,36a12,12,0,0,0-4.46,3,13.28,13.28,0,0,0-2.8,4.78,19,19,0,0,0-1,6.17A19.41,19.41,0,0,0,11.68,56a13.28,13.28,0,0,0,2.74,4.84A12,12,0,0,0,18.94,64ZM17.37,45.47a9.19,9.19,0,0,1,1.72-3.25,7.1,7.1,0,0,1,2.58-1.94A7.92,7.92,0,0,1,25,39.61a8.15,8.15,0,0,1,4.41,1.2,7.75,7.75,0,0,1,3,3.56,13.64,13.64,0,0,1,1,5.55,13.53,13.53,0,0,1-1.13,5.83,7.91,7.91,0,0,1-3,3.51A8.06,8.06,0,0,1,25,60.39a8,8,0,0,1-3.26-.66,7.32,7.32,0,0,1-2.63-2,9.26,9.26,0,0,1-1.77-3.33,15,15,0,0,1-.62-4.5A14.64,14.64,0,0,1,17.37,45.47Z"/><path class="cls-1" d="M86.46,35.41H72.52a4.93,4.93,0,0,0-2.06.37A2.32,2.32,0,0,0,69.28,37,5,5,0,0,0,68.9,39V61.49a3.86,3.86,0,0,0,.83,2.7,3,3,0,0,0,4.26,0,3.85,3.85,0,0,0,.82-2.71V51.87h9.74a2.94,2.94,0,0,0,2-.6,2,2,0,0,0,.68-1.61A2.09,2.09,0,0,0,86.57,48a2.91,2.91,0,0,0-2-.61H74.81V40H86.46a3,3,0,0,0,2.1-.63,2.14,2.14,0,0,0,.69-1.66A2.09,2.09,0,0,0,88.56,36,3,3,0,0,0,86.46,35.41Z"/></svg>