<svg id="Layer_1" data-name="Layer 1" xmlns="http://www.w3.org/2000/svg" viewBox="0 0 100 100"><title>icon_fireplace</title><path d="M0,2.31H100V9.23a8,8,0,0,1-2.62,6c-2.3,2-6.15,1.85-6.15,1.85H8.77a10.34,10.34,0,0,1-6.15-1.85A8,8,0,0,1,0,9.23Z"/><rect x="5.85" y="14.31" width="14.77" height="83.08"/><rect x="79.23" y="14.31" width="14.77" height="83.08"/><path d="M26.62,92.31a4.82,4.82,0,0,0,3.84,5.07h3.08l33.23.31h3.08s3.84-.15,3.84-4.61A4.84,4.84,0,0,0,69.85,88H66.77l-33.23-.31H30.46C30.46,87.54,26.62,87.85,26.62,92.31Z"/><path d="M58.15,82.15c3.39-4.61-5.84-15.38-5.84-15.38S37.54,83.85,52,84.15a22.87,22.87,0,0,1-3.38.16c-24.77-2-.16-29.69-.31-39.85C48.31,50.92,69.23,74.77,58.15,82.15Z"/><path d="M63.08,67.08c-2-3.08,6.15-14.46,6.15-14.46S68,56.46,71.85,64.15c2.61,5.23,1.53,12.93-3.39,15.39a60.49,60.49,0,0,1-5.54,2.61,11.26,11.26,0,0,0,1.54-3.23A13.88,13.88,0,0,0,63.08,67.08Z"/><path d="M34.46,68.46c1.69-2.46-4.92-11.69-4.92-11.69s1.08,3.08-2.16,9.23c-2.15,4.15-1.23,10.31,2.77,12.46,1.54.77,4.47,2.16,4.47,2.16A10,10,0,0,1,33.38,78,12.11,12.11,0,0,1,34.46,68.46Z"/></svg>