<?xml version="1.0" encoding="utf-8"?>
<!-- Generator: Adobe Illustrator 23.0.1, SVG Export Plug-In . SVG Version: 6.00 Build 0)  -->
<svg version="1.1" id="Calque_1" xmlns="http://www.w3.org/2000/svg" xmlns:xlink="http://www.w3.org/1999/xlink" x="0px" y="0px"
	 viewBox="0 0 65.2 65.2" style="enable-background:new 0 0 65.2 65.2;" xml:space="preserve">
<g>
	<path d="M57.01,5.84c0.14,0.93,0.38,0.93,0.54,0l1.49-5.79c0-0.02,0.01-0.04,0.01-0.06h-3.42c0.13,0.4,0.24,0.87,0.31,1.34
		L57.01,5.84z"/>
	<polygon points="14.32,45.21 16.67,47.57 31.36,34.79 46.45,47.68 48.78,45.21 31.36,30.81 	"/>
	<path d="M4.28,7.93C4.4,8.86,4.67,8.87,4.88,7.95l0.96-4.28C6.04,2.75,6.4,2.74,6.63,3.66L7.2,5.98C7.43,6.9,7.77,6.89,7.96,5.97
		l0.21-1.01c0.19-0.93,0.53-1.9,0.75-2.16c0.22-0.26,0.66-0.11,0.96,0.35c0.31,0.46,0.69,1.59,0.85,2.52l1.65,9.66
		c0.16,0.93,0.38,0.93,0.48-0.01l1.24-10.82c0.11-0.93,0.4-1.72,0.64-1.75s0.57,0.71,0.73,1.64c0,0,0.73,4.34,0.92,3.97
		c0.19-0.37,0.98-4.04,0.98-4.04c0.2-0.92,0.54-0.93,0.75,0l0.02,0.08c0.21,0.92,0.53,0.92,0.71-0.01l0.03-0.15
		c0.18-0.93,0.75-1.84,1.28-2.03c0.53-0.19,1.3-0.06,1.71,0.29c0.41,0.35,0.9,1.4,1.09,2.32l0.72,3.47
		c0.19,0.93,0.52,0.93,0.74,0.01l1.22-5.19c0.22-0.92,0.51-1.73,0.65-1.78c0.14-0.06,0.46,0.11,0.7,0.37
		c0.25,0.26,0.56,1.24,0.69,2.17l1.07,7.35c0.14,0.93,0.38,0.93,0.54,0l1.49-8.64c0.16-0.93,0.44-1.83,0.63-2.01
		c0.18-0.18,0.46,0.44,0.62,1.37l0.24,1.41l0.27,2.1c0.12,0.93,0.39,0.94,0.59,0.01l0.96-4.28c0.21-0.92,0.56-0.93,0.79-0.01
		l0.58,2.31c0.23,0.92,0.57,0.92,0.76-0.01l0.21-1.01c0.19-0.93,0.53-1.9,0.75-2.16c0.22-0.26,0.66-0.11,0.96,0.35
		c0.31,0.46,0.69,1.59,0.84,2.52l1.65,9.66c0.16,0.93,0.38,0.93,0.48-0.01l1.24-10.82c0.11-0.93,0.4-1.72,0.64-1.75
		s0.57,0.71,0.73,1.64c0,0,0.73,4.34,0.92,3.97c0.19-0.37,0.98-4.04,0.98-4.04c0.2-0.92,0.54,7.72,0.75,8.64l0.02,0.08
		c0.21,0.92,0.53,0.92,0.71-0.01l0.03-0.15C47.3,9.52,47.78,1.65,48.27,0H2.81c0.18,0.4,0.34,0.9,0.45,1.56L4.28,7.93z"/>
	<path d="M59.34,29.56c-0.16-0.26-1-1.45-1.88-2.71c-1.44-2.04-3.23-4.58-3.8-5.53c-0.73-1.21-2.4-2.27-3.79-2.41
		c-0.55-0.06-7.23-0.7-12.78-1.24c-3.71-0.36-6.92-0.67-7.45-0.72c-2.18-0.22-3.13,0.14-3.54,0.48c-0.34,0.29-0.44,0.67-0.48,1.19
		c-0.04,0.43,0.2,0.88,0.65,1.26c0.6,0.49,1.52,0.81,2.6,0.9c1.15,0.1,9.79,1.32,10.16,1.38c0.05,0.01,0.1,0.02,0.15,0.04
		c0.29-0.11,0.59-0.18,0.92-0.21c1-0.09,2.11,0.22,3.22,0.9c0.69,0.42,2.96,1.83,4.72,2.93c1.12,0.69,2.03,1.26,2.2,1.37
		c1.95,1.19,3.08,3.11,3.45,4.4c0.13,0.44-0.12,0.89-0.56,1.02c-0.43,0.13-0.89-0.12-1.02-0.56c-0.32-1.08-1.28-2.57-2.73-3.45
		c-0.17-0.11-1.09-0.68-2.21-1.37c-1.76-1.09-4.02-2.5-4.7-2.92c-0.72-0.44-1.41-0.67-2.01-0.67c-0.07,0-0.13,0-0.2,0.01
		c-0.51,0.05-0.91,0.28-1.15,0.67c-0.34,0.55-0.42,0.95-0.28,1.37c0.22,0.65,1.01,1.4,2.28,2.18c2.37,1.45,4.16,3.16,4.93,4.7
		c0.79,1.58,1.55,3.26,2.17,4.6c0.27,0.6,0.52,1.14,0.73,1.6c1.3,2.77,3.25,3.61,4.6,3.99c1.08,0.31,8.55,2.5,11.65,3.42v-12.8
		c-1.01-0.35-1.82-0.64-2.38-0.86C61.38,31.91,60.15,30.87,59.34,29.56z"/>
	<path d="M51.93,14.67c0.19,0.93,0.52,0.93,0.74,0.01l1.22-14.1c0.05-0.2,0.1-0.4,0.15-0.58h-3.89c0.4,0.37,0.88,1.39,1.06,2.29
		L51.93,14.67z"/>
	<path d="M31.18,36.8L19.17,47.32l0,17.86h14.62l0-10.15l4.64,0l0,10.15h5.23l0-17.86L31.18,36.8z M28.34,59.69h-4.64l0-4.64h4.64
		L28.34,59.69z M28.34,51.61h-4.64l0-4.64h4.64L28.34,51.61z M38.44,51.61H33.8l0-4.64l4.64,0L38.44,51.61z"/>
	<path d="M61.04,1.59L61.32,0h-0.93l0.22,1.27C60.74,2.06,60.92,2.14,61.04,1.59z"/>
</g>
</svg>
