<svg id="Layer_1" data-name="Layer 1" xmlns="http://www.w3.org/2000/svg" viewBox="0 0 100 100"><defs><style>.cls-1{fill:#231f20;}</style></defs><title>icon_dhw_v1</title><path class="cls-1" d="M68.73,13a1.87,1.87,0,0,0-2.64-.1c-1.12,1-5.68,7.15-2,15.85a12.74,12.74,0,0,1-.7,11.6,1.87,1.87,0,0,0,.75,2.53,1.92,1.92,0,0,0,.89.22,1.85,1.85,0,0,0,1.64-1,16.46,16.46,0,0,0,.87-14.82c-3-7.21,1.13-11.66,1.11-11.66A1.87,1.87,0,0,0,68.73,13Z"/><path class="cls-1" d="M77.79,13a1.87,1.87,0,0,0-2.64-.1c-1.13,1-5.68,7.16-2,15.85a12.73,12.73,0,0,1-.71,11.6,1.87,1.87,0,0,0,3.29,1.77,16.48,16.48,0,0,0,.86-14.82c-3-7.21,1.13-11.66,1.12-11.66h0A1.88,1.88,0,0,0,77.79,13Z"/><path class="cls-1" d="M82.71,66.4c1.06-.16,1.78-1,1.6-1.78a1.32,1.32,0,0,1,1-1.68c.69-.1,1-1,.69-2.06L83.86,51a2.34,2.34,0,0,0-2.51-1.57L16.09,59.81a2.37,2.37,0,0,0-1.93,2.26V95H40.5V72.19a2.36,2.36,0,0,1,1.93-2.25l19.74-3.49a1.92,1.92,0,0,1,2.26,1.19,1.93,1.93,0,0,0,2.27,1.18l.23,0L71.22,95H74L69.66,68.38l3.77-.58L77.88,95h2.8L76.16,67.39l3.8-.58L84.58,95h2.79L82.69,66.4Z"/><path class="cls-1" d="M15.94,42.84a2,2,0,0,0-2,2V56.15l26.35-4V44.8a2,2,0,0,0-2-2Z"/><path class="cls-1" d="M59.58,13a1.87,1.87,0,0,0-2.64-.1c-1.13,1-5.67,7.16-2,15.85a12.74,12.74,0,0,1-.7,11.6A1.87,1.87,0,0,0,55,42.87a1.89,1.89,0,0,0,.89.22,1.85,1.85,0,0,0,1.64-1,16.46,16.46,0,0,0,.87-14.82c-3-7.21,1.13-11.66,1.11-11.66h0A1.87,1.87,0,0,0,59.58,13Z"/></svg>