<svg id="Layer_1" data-name="Layer 1" xmlns="http://www.w3.org/2000/svg" viewBox="0 0 100 100"><defs><style>.cls-1{fill:#231f20;}</style></defs><title>icon_ch_off</title><path class="cls-1" d="M90,5,77.58,17.45a4.35,4.35,0,0,0-4,4.05L69.05,26v-4.2a4.38,4.38,0,0,0-4.36-4.36H63.62a4.38,4.38,0,0,0-4.36,4.36v14l-4.45,4.45V21.78a4.38,4.38,0,0,0-4.36-4.36H49.38A4.39,4.39,0,0,0,45,21.78V50l-4.45,4.46V21.78a4.38,4.38,0,0,0-4.36-4.36H35.13a4.38,4.38,0,0,0-4.36,4.36V64.26l-4.46,4.45V21.78A4.38,4.38,0,0,0,22,17.42H20.88a4.38,4.38,0,0,0-4.36,4.36v1.87H15.19a1.29,1.29,0,0,0-1.28,1.28V32a1.28,1.28,0,0,0,1.28,1.27h1.33V78.51L4.91,90.11V95H9.79L20.12,84.67a4.77,4.77,0,0,0,.76.07H22a4.37,4.37,0,0,0,4.36-4.36V78.47L30.77,74v6.36a4.37,4.37,0,0,0,4.36,4.36H36.2a4.37,4.37,0,0,0,4.36-4.36V64.23L45,59.78v20.6a4.38,4.38,0,0,0,4.37,4.36h1.07a4.38,4.38,0,0,0,4.36-4.36V50l4.45-4.45V80.38a4.37,4.37,0,0,0,4.36,4.36h1.07a4.37,4.37,0,0,0,4.36-4.36V35.74l4.46-4.45V80.38a4.37,4.37,0,0,0,4.36,4.36h1.07a4.37,4.37,0,0,0,4.36-4.36V78.51h1.34a1.27,1.27,0,0,0,1.27-1.27V70.13a1.27,1.27,0,0,0-1.27-1.27H83.3V21.78a2.3,2.3,0,0,0,0-.26L94.91,9.89V5H90Z"/></svg>