<svg id="Layer_1" data-name="Layer 1" xmlns="http://www.w3.org/2000/svg" viewBox="0 0 100 100"><defs><style>.cls-1{fill:#231f20;}</style></defs><title>icon_ch_on</title><path class="cls-1" d="M21,84.41h1.07a4.37,4.37,0,0,0,4.36-4.36V21.46a4.38,4.38,0,0,0-4.36-4.37H21a4.38,4.38,0,0,0-4.36,4.37v2a1.2,1.2,0,0,0-.56-.15h-.78a1.28,1.28,0,0,0-1.27,1.28v7.1A1.28,1.28,0,0,0,15.34,33h.78a1.2,1.2,0,0,0,.56-.15V80.05A4.37,4.37,0,0,0,21,84.41Z"/><rect class="cls-1" x="30.92" y="17.09" width="9.79" height="67.32" rx="4.36" ry="4.36"/><rect class="cls-1" x="45.17" y="17.09" width="9.79" height="67.32" rx="4.36" ry="4.36"/><rect class="cls-1" x="59.42" y="17.09" width="9.79" height="67.32" rx="4.36" ry="4.36"/><path class="cls-1" d="M84.79,68.53H83.46V21.46a4.39,4.39,0,0,0-4.37-4.37H78a4.39,4.39,0,0,0-4.36,4.37V80.05A4.38,4.38,0,0,0,78,84.41h1.07a4.38,4.38,0,0,0,4.37-4.36V78.18h1.33a1.27,1.27,0,0,0,1.27-1.27V69.8A1.28,1.28,0,0,0,84.79,68.53Z"/></svg>