<svg id="Layer_1" data-name="Layer 1" xmlns="http://www.w3.org/2000/svg" viewBox="0 0 100 100"><defs><style>.cls-1{fill:#231f20;}</style></defs><title>icon_antifrost_mode</title><path class="cls-1" d="M92.21,12.18h-4.5a1.15,1.15,0,0,0-.83.36l-2.26,2.33V12.21A3.53,3.53,0,0,0,81.1,8.68H81a3.54,3.54,0,0,0-3.52,3.53v10L73.77,26.1H69.63a1.15,1.15,0,1,0,0,2.3h4.63a1.14,1.14,0,0,0,.82-.35l2.43-2.51v2a5.79,5.79,0,1,0,7.11,0V18.18l3.57-3.7h4a1.15,1.15,0,1,0,0-2.3ZM84.74,32.07a3.68,3.68,0,1,1-5.27-3.28V23.51l3.19-3.3v8.58A3.65,3.65,0,0,1,84.74,32.07Z"/><path class="cls-1" d="M49.89,65.72a1.54,1.54,0,0,0-.77-.21A1.49,1.49,0,0,0,48,66a1.5,1.5,0,0,0-.47,1.12A1.45,1.45,0,0,0,48,68.2a1.55,1.55,0,0,0,1.12.46,1.52,1.52,0,0,0,1.1-.45,1.46,1.46,0,0,0,.45-1.11,1.51,1.51,0,0,0-.21-.81A1.56,1.56,0,0,0,49.89,65.72Z"/><path class="cls-1" d="M50.06,34.21,23.44,57.53V95H77.72V57.53ZM43.2,66.77c-.41.56-.88,1.18-1.4,1.85a19.31,19.31,0,0,0-3.09,6.11c-.19.62-.33,1.15-.41,1.56s-.17,1-.26,1.62-.19,1.2-.26,1.56a3.72,3.72,0,0,1-.8,1.86,1.94,1.94,0,0,1-1.44.56,1.81,1.81,0,0,1-1.4-.61,2.57,2.57,0,0,1-.51-1.71A9.69,9.69,0,0,1,34,77.4,28.38,28.38,0,0,1,35,74.16a31.39,31.39,0,0,1,1.87-3.85,30.16,30.16,0,0,1,2.32-3.49H33.3a2.77,2.77,0,0,1-1.69-.43A1.58,1.58,0,0,1,31,65a1.31,1.31,0,0,1,.69-1.33,3.93,3.93,0,0,1,1.61-.27h8.08a3.21,3.21,0,0,1,1.84.42,1.62,1.62,0,0,1,.64,1.43A2.85,2.85,0,0,1,43.2,66.77Zm9.51,2.41a4.1,4.1,0,0,1-3.59,2A4,4,0,0,1,46.18,70,4,4,0,0,1,45,67.1a4.19,4.19,0,0,1,.34-1.64,4.11,4.11,0,0,1,.9-1.33,4.33,4.33,0,0,1,1.32-.87A4.17,4.17,0,0,1,52.71,65a4.16,4.16,0,0,1,0,4.17ZM71,77.64a7,7,0,0,1-3.75,3.63,8.53,8.53,0,0,1-3.36.62,11.69,11.69,0,0,1-2.62-.28,7.36,7.36,0,0,1-2.18-.86,7.56,7.56,0,0,1-1.79-1.54A9,9,0,0,1,56,77.27,10.2,10.2,0,0,1,55.25,75,12.17,12.17,0,0,1,55,72.44a11.26,11.26,0,0,1,.65-3.94,8.18,8.18,0,0,1,4.67-4.91,9.19,9.19,0,0,1,3.44-.65,8.66,8.66,0,0,1,4,.89,7.33,7.33,0,0,1,2.69,2.22,4.49,4.49,0,0,1,1,2.55,1.82,1.82,0,0,1-.52,1.28,1.62,1.62,0,0,1-1.25.57A1.72,1.72,0,0,1,68.36,70a4.3,4.3,0,0,1-.82-1.2A5.35,5.35,0,0,0,66,67a3.84,3.84,0,0,0-2.19-.6,3.93,3.93,0,0,0-3.32,1.58,7.37,7.37,0,0,0-1.26,4.62,8.69,8.69,0,0,0,.56,3.34,4.06,4.06,0,0,0,1.54,1.94,4.35,4.35,0,0,0,2.35.63,4.14,4.14,0,0,0,2.47-.72,4.4,4.4,0,0,0,1.52-2.13,4.21,4.21,0,0,1,.61-1.22,1.54,1.54,0,0,1,1.31-.55,1.81,1.81,0,0,1,1.3.53,1.76,1.76,0,0,1,.54,1.31A4.92,4.92,0,0,1,71,77.64Z"/><polygon class="cls-1" points="83.49 56.76 88.66 51.29 50.06 19.37 12.28 51.29 17.49 56.5 50.06 28.17 83.49 56.76"/></svg>