<svg id="Layer_1" data-name="Layer 1" xmlns="http://www.w3.org/2000/svg" viewBox="0 0 100 100"><defs><style>.cls-1{fill:#231f20;}</style></defs><title>icon_saving_mode</title><path class="cls-1" d="M79.08,13.56A12.09,12.09,0,0,0,73,12.12a12.52,12.52,0,0,0-4.65.82,9.25,9.25,0,0,0-3.47,2.35A10.12,10.12,0,0,0,62.71,19a14.73,14.73,0,0,0-.75,4.8,15.17,15.17,0,0,0,.72,4.76,10.32,10.32,0,0,0,2.13,3.77,9.56,9.56,0,0,0,3.52,2.43,13.78,13.78,0,0,0,9.53,0,9.36,9.36,0,0,0,3.51-2.42,10.27,10.27,0,0,0,2.13-3.73,15.12,15.12,0,0,0,.72-4.8,14,14,0,0,0-1.3-6.2A9.24,9.24,0,0,0,79.08,13.56Zm-.4,14.8a6.06,6.06,0,0,1-2.36,2.72,6.44,6.44,0,0,1-5.78.38,5.75,5.75,0,0,1-2.05-1.55,7.26,7.26,0,0,1-1.38-2.59,11.63,11.63,0,0,1-.49-3.51,11.3,11.3,0,0,1,.49-3.46,7.44,7.44,0,0,1,1.33-2.54,5.74,5.74,0,0,1,2-1.51,6.64,6.64,0,0,1,6,.42,6.06,6.06,0,0,1,2.31,2.77,10.78,10.78,0,0,1,.8,4.32A10.64,10.64,0,0,1,78.68,28.36Z"/><path class="cls-1" d="M49.48,15.78a5.19,5.19,0,0,1,3,.84,6.94,6.94,0,0,1,2.11,2.53,5.64,5.64,0,0,0,1,1.44A1.84,1.84,0,0,0,56.9,21a1.75,1.75,0,0,0,1.35-.61A2,2,0,0,0,58.81,19,5.34,5.34,0,0,0,57.66,16a8.78,8.78,0,0,0-3.3-2.72,10.57,10.57,0,0,0-4.91-1.11,11.3,11.3,0,0,0-4.27.81,10.1,10.1,0,0,0-3.49,2.35A10.53,10.53,0,0,0,39.41,19a14.26,14.26,0,0,0-.8,4.92,14.88,14.88,0,0,0,.32,3.19,12.56,12.56,0,0,0,1,2.83,11.12,11.12,0,0,0,1.54,2.39,8.87,8.87,0,0,0,2.2,1.9,9.34,9.34,0,0,0,2.68,1.07,14.93,14.93,0,0,0,3.27.34,10.6,10.6,0,0,0,4.15-.76,8.6,8.6,0,0,0,2.93-2,8.48,8.48,0,0,0,1.69-2.48,6.18,6.18,0,0,0,.53-2.35,2,2,0,0,0-2-2,1.63,1.63,0,0,0-1.39.57,4.63,4.63,0,0,0-.73,1.46A6,6,0,0,1,52.68,31a5.61,5.61,0,0,1-3.36,1,5.8,5.8,0,0,1-3.19-.87A5.57,5.57,0,0,1,44,28.47a11.28,11.28,0,0,1-.74-4.41A9.75,9.75,0,0,1,45,17.94,5.43,5.43,0,0,1,49.48,15.78Z"/><path class="cls-1" d="M37.85,91.78h0c14.88,0,23.5-14.15,31.83-27.84C73,58.5,76.43,52.87,80.12,48.43a2.61,2.61,0,0,0-2.54-4.22,165.07,165.07,0,0,1-22.53,2.61c-14.38,1-26.8,1.84-33.61,10.31-4.3,5.34-5.71,13.25-4.36,24.05-3.94,3-7.9,6.37-11.93,10V95H8.67c3.77-3.36,7.47-6.47,11.16-9.34C26.36,89.75,32.27,91.78,37.85,91.78ZM25.5,60.39C30.88,53.7,42.25,52.93,55.4,52c5.44-.37,11-.75,16.67-1.56-2.38,3.44-4.64,7.14-6.84,10.76-7.94,13-15.43,25.34-27.38,25.34h0c-4.05,0-8.6-1.44-13.55-4.29a158.31,158.31,0,0,1,29.08-17,2.61,2.61,0,0,0-2.14-4.76,163.49,163.49,0,0,0-29.32,17C21.32,69.77,22.5,64.13,25.5,60.39Z"/><path class="cls-1" d="M33.31,16.06a2.32,2.32,0,0,0,1.63-.49,1.8,1.8,0,0,0,0-2.57,2.37,2.37,0,0,0-1.63-.49H21.15a3.88,3.88,0,0,0-1.6.29,1.81,1.81,0,0,0-.92.91,3.78,3.78,0,0,0-.3,1.62V32.42A3,3,0,0,0,19,34.57a2.93,2.93,0,0,0,2.16.67H33.66a2.38,2.38,0,0,0,1.64-.5,1.7,1.7,0,0,0,.55-1.31,1.74,1.74,0,0,0-.55-1.35,2.38,2.38,0,0,0-1.64-.5H22.94V25.12h9.55a2.25,2.25,0,0,0,1.58-.49,1.69,1.69,0,0,0,.51-1.27,1.58,1.58,0,0,0-.52-1.24,2.25,2.25,0,0,0-1.57-.48H22.94V16.06Z"/></svg>