<svg id="Layer_1" data-name="Layer 1" xmlns="http://www.w3.org/2000/svg" viewBox="0 0 100 100"><defs><style>.cls-1{fill:#231f20;}</style></defs><title>icon_oil_burner_power_1</title><path class="cls-1" d="M11.92,11.92V88.08L88.08,11.92ZM14,73.11h9.76L14,82.87Z"/><polygon class="cls-1" points="63.07 73.92 71.82 73.92 72.68 73.06 72.68 65.82 71.82 64.96 63.07 64.96 63.07 73.92"/><path class="cls-1" d="M74.77,68.67a13.59,13.59,0,0,0,.08,1.5c.14-6.26,7.58.17,7.58.17s-4.7,4.06-6.7,2.59C79,77.76,89.39,68.64,92.2,68.55,87.76,68.58,75.63,57.82,74.77,68.67Z"/><path class="cls-1" d="M45.86,66V82c0,1.94,1.59,3.23,3.52,3.85L57,88.23H60V62.48H49.38A3.53,3.53,0,0,0,45.86,66Z"/></svg>