<svg id="Layer_1" data-name="Layer 1" xmlns="http://www.w3.org/2000/svg" viewBox="0 0 100 100"><defs><style>.cls-1{fill:#231f20;}</style></defs><title>icon_summer</title><path class="cls-1" d="M25.25,16.9A8.12,8.12,0,1,0,17.14,25,8.12,8.12,0,0,0,25.25,16.9Z"/><path class="cls-1" d="M16.87,27c-.94,0-1.26.94-1.29,1.44v1h0v4.2A1.35,1.35,0,0,0,16.93,35h0a1.42,1.42,0,0,0,1.29-1.44V32.48h0V28.32A1.35,1.35,0,0,0,16.87,27Zm.06,7.83Z"/><path class="cls-1" d="M34.46,17.2A1.41,1.41,0,0,0,33,15.91H27.8a1.35,1.35,0,0,0-1.31,1.38c0,.94,1,1.25,1.44,1.29h5.23A1.34,1.34,0,0,0,34.46,17.2Z"/><path class="cls-1" d="M53.24,78.26l11.87-40.7a6.94,6.94,0,0,0,4.17,3.15,6.81,6.81,0,0,0,5.31-.39h0a7.48,7.48,0,0,0,9.53,2.85A7.49,7.49,0,0,0,93.66,46C90.15,35.5,81.39,26.49,69.43,22.48a1.35,1.35,0,0,0-2.53-.76c-12.21-3.24-24.51-.52-33.23,6.37A6.94,6.94,0,0,0,38,31.34,6.92,6.92,0,0,0,43.33,31h0a6.94,6.94,0,0,0,4.29,3.26A6.92,6.92,0,0,0,53,33.86h0a6.92,6.92,0,0,0,4.29,3.26,7.05,7.05,0,0,0,5.16-.28l-11.66,40A9.48,9.48,0,0,1,53.24,78.26Z"/><path class="cls-1" d="M27.54,29.67a1.6,1.6,0,0,0,1,.37h0a1.29,1.29,0,0,0,.93-.42,1.42,1.42,0,0,0-.11-1.93l-.76-.77h0L25.64,24a1.67,1.67,0,0,0-1-.37,1.23,1.23,0,0,0-.93.43A1.42,1.42,0,0,0,23.85,26l.71.71h0Z"/><path class="cls-1" d="M26.59,5.48l-3,3a1.35,1.35,0,0,0,.05,1.9,1.15,1.15,0,0,0,.82.35,1.93,1.93,0,0,0,1.11-.45l.77-.78h0l2.92-2.93a1.51,1.51,0,0,0,.36-1.09H26.59Z"/><path class="cls-1" d="M6.13,29.72,6.89,29h0L9.82,26a1.33,1.33,0,0,0-.05-1.89A1.14,1.14,0,0,0,9,23.78a1.93,1.93,0,0,0-1.11.45L7.12,25h0L5,27.07v3.09H5A1.93,1.93,0,0,0,6.13,29.72Z"/><path class="cls-1" d="M5.1,7.24l3,3a1.63,1.63,0,0,0,1,.37,1.25,1.25,0,0,0,.92-.42,1.42,1.42,0,0,0-.1-1.93L9.1,7.46h0l-2-2H5V7.13l.1.1Z"/><path class="cls-1" d="M6.94,17.2A1.41,1.41,0,0,0,5.5,15.91H5v2.67h.63A1.35,1.35,0,0,0,6.94,17.2Z"/><path class="cls-1" d="M58.91,66.26,55,79.6a2.91,2.91,0,0,0,1.34.59,31.37,31.37,0,0,0,3.16.2,1,1,0,0,1,1,1,1,1,0,0,1-1,1h-.08c-.31,0-1.45,0-3.32-.21a6.93,6.93,0,0,1-3.48-1.83,7.56,7.56,0,0,0-3.42-1.86c-2-.3-3.68.58-5.17,1.35a35.64,35.64,0,0,1-6.14,2.26,1,1,0,0,1-.53-2,34.5,34.5,0,0,0,5.68-2.07,11.24,11.24,0,0,1,5.68-1.64l2.76-9.51c-15.51,1.47-31,3-46.51.36V95.47H95V66.38C83,64.6,70.94,65.22,58.91,66.26Z"/><path class="cls-1" d="M16.93,7.47h0A1.42,1.42,0,0,0,18.25,6V5.47H15.58v.69A1.36,1.36,0,0,0,16.93,7.47Zm0-.14Z"/></svg>