<?xml version="1.0" encoding="utf-8"?>
<!-- Generator: Adobe Illustrator 20.1.0, SVG Export Plug-In . SVG Version: 6.00 Build 0)  -->
<!DOCTYPE svg PUBLIC "-//W3C//DTD SVG 1.1//EN" "http://www.w3.org/Graphics/SVG/1.1/DTD/svg11.dtd">
<svg version="1.1" id="Layer_1" xmlns="http://www.w3.org/2000/svg" xmlns:xlink="http://www.w3.org/1999/xlink" x="0px" y="0px"
	 viewBox="0 0 100 100" enable-background="new 0 0 100 100" xml:space="preserve">
<g>
	<g>
		<path d="M212.7,12c-2,0-2.3,1.7-2.3,1.7v1.4v14.8v1.4c0,0,0.2,1.7,2.2,1.7s2.3-1.7,2.3-1.7v-1.4v-15v-1.2
			C214.7,13.7,214.7,12,212.7,12z"/>
		<rect x="203.1" y="66" width="9.7" height="9.7"/>
		<rect x="216.8" y="66" width="9.7" height="9.7"/>
		<path d="M246.5,12c-2,0-2.3,1.7-2.3,1.7v1.4v14.8v1.4c0,0,0.2,1.7,2.2,1.7s2.3-1.7,2.3-1.7v-1.4v-15v-1.2
			C248.7,13.7,248.5,12,246.5,12z"/>
		<path d="M228.8,78h-28.9V37.7h57.4v6c1.8,0.5,3.5,1.2,5.2,2.2v-8.2c0,0,0.2-4.8-2.5-7.8c-2.9-3.4-7.7-3.2-7.7-3.2h-1.8v2.6v2.5
			c0,0-0.5,3.1-4.2,3.1s-3.8-3.2-3.8-3.2v-2.5v-2.6h-9.8h-16.2v2.6v2.5c0,0-0.5,3.1-4.2,3.1s-3.8-3.1-3.8-3.1v-2.5v-2.6h-2.8
			c0,0-4.6-0.2-7.7,3.2c-2.6,3.1-2.5,7.8-2.5,7.8v16.9v1.2v16.9c0,0-0.2,4.8,2.5,7.8c2.9,3.4,7.7,3.2,7.7,3.2h19.8h7.5
			C231.3,82,229.9,80.2,228.8,78z"/>
		<path d="M250.3,45.8c-11.7,0-21.1,9.5-21.1,21.1S238.8,88,250.3,88c11.5,0,21.1-9.5,21.1-21.1S262,45.8,250.3,45.8z M250.3,85.8
			c-10.5,0-18.9-8.5-18.9-18.9S239.9,48,250.3,48s18.9,8.5,18.9,18.9S260.8,85.8,250.3,85.8z"/>
		<g>
			<path d="M249.7,53.4c-1.7,0-1.8,1.4-1.8,1.4v1.1v12.5v1.1c0,0,0.2,1.4,1.8,1.4c1.7,0,1.8-1.4,1.8-1.4v-1.1V55.8v-1.1
				C251.4,54.8,251.4,53.4,249.7,53.4z"/>
			<path d="M260.8,71.1h-11.5v-3.7h11.5c0,0,1.4,0.3,1.4,1.8C262.2,70.8,260.8,71.1,260.8,71.1z"/>
		</g>
		<path d="M250.3,42.6c1.1,0,2.2,0.2,3.2,0.3v-1.7h-9.7v2.5C246,42.9,248.2,42.6,250.3,42.6z"/>
		<path d="M240,44.9v-3.8h-9.7v9.7h1.8C234.5,48.3,237.1,46.5,240,44.9z"/>
	</g>
</g>
<g>
	<g>
		<path d="M406,12c-2,0-2.3,1.7-2.3,1.7v1.4v14.8v1.4c0,0,0.2,1.7,2.2,1.7s2.3-1.7,2.3-1.7v-1.4v-15v-1.2C408,13.7,408,12,406,12z"
			/>
		<rect x="396.5" y="66" width="9.7" height="9.7"/>
		<rect x="410.1" y="66" width="9.7" height="9.7"/>
		<path d="M439.9,12c-2,0-2.3,1.7-2.3,1.7v1.4v14.8v1.4c0,0,0.2,1.7,2.2,1.7s2.3-1.7,2.3-1.7v-1.4v-15v-1.2
			C442,13.7,441.9,12,439.9,12z"/>
		<path d="M422.1,78h-28.9V37.7h57.4v6c1.8,0.5,3.5,1.2,5.2,2.2v-8.2c0,0,0.2-4.8-2.5-7.8c-2.9-3.4-7.7-3.2-7.7-3.2h-1.8v2.6v2.5
			c0,0-0.5,3.1-4.2,3.1c-3.7,0-3.8-3.2-3.8-3.2v-2.5v-2.6H426h-16.2v2.6v2.5c0,0-0.5,3.1-4.2,3.1c-3.7,0-3.8-3.1-3.8-3.1v-2.5v-2.6
			H399c0,0-4.6-0.2-7.7,3.2c-2.6,3.1-2.5,7.8-2.5,7.8v16.9v1.2v16.9c0,0-0.2,4.8,2.5,7.8c2.9,3.4,7.7,3.2,7.7,3.2h19.8h7.5
			C424.6,82,423.2,80.2,422.1,78z"/>
		<path d="M443.6,45.8c-11.7,0-21.1,9.5-21.1,21.1S432.1,88,443.6,88s21.1-9.5,21.1-21.1S455.4,45.8,443.6,45.8z M443.6,85.8
			c-10.5,0-18.9-8.5-18.9-18.9S433.2,48,443.6,48c10.4,0,18.9,8.5,18.9,18.9S454.1,85.8,443.6,85.8z"/>
		<g>
			<path d="M443,53.4c-1.7,0-1.8,1.4-1.8,1.4v1.1v12.5v1.1c0,0,0.2,1.4,1.8,1.4c1.7,0,1.8-1.4,1.8-1.4v-1.1V55.8v-1.1
				C444.8,54.8,444.8,53.4,443,53.4z"/>
			<path d="M454.1,71.1h-11.5v-3.7h11.5c0,0,1.4,0.3,1.4,1.8C455.5,70.8,454.1,71.1,454.1,71.1z"/>
		</g>
		<path d="M443.6,42.6c1.1,0,2.2,0.2,3.2,0.3v-1.7h-9.7v2.5C439.4,42.9,441.5,42.6,443.6,42.6z"/>
		<path d="M433.4,44.9v-3.8h-9.7v9.7h1.8C427.9,48.3,430.5,46.5,433.4,44.9z"/>
	</g>
</g>
<g>
	<g>
		<path d="M29.2,12c-2,0-2.3,1.7-2.3,1.7v1.4v14.8v1.4c0,0,0.2,1.7,2.2,1.7s2.3-1.7,2.3-1.7v-1.4v-15v-1.2
			C31.2,13.7,31.2,12,29.2,12z"/>
		<rect x="19.6" y="66" width="9.7" height="9.7"/>
		<rect x="33.3" y="66" width="9.7" height="9.7"/>
		<path d="M63,12c-2,0-2.3,1.7-2.3,1.7v1.4v14.8v1.4c0,0,0.2,1.7,2.2,1.7s2.3-1.7,2.3-1.7v-1.4v-15v-1.2C65.2,13.7,65,12,63,12z"/>
		<path d="M45.3,78H16.4V37.7h57.4v6c1.8,0.5,3.5,1.2,5.2,2.2v-8.2c0,0,0.2-4.8-2.5-7.8c-2.9-3.4-7.7-3.2-7.7-3.2H67v2.6v2.5
			c0,0-0.5,3.1-4.2,3.1S59,31.7,59,31.7v-2.5v-2.6h-9.8H33v2.6v2.5c0,0-0.5,3.1-4.2,3.1S25,31.7,25,31.7v-2.5v-2.6h-2.8
			c0,0-4.6-0.2-7.7,3.2c-2.6,3.1-2.5,7.8-2.5,7.8v16.9v1.2v16.9c0,0-0.2,4.8,2.5,7.8c2.9,3.4,7.7,3.2,7.7,3.2H42h7.5
			C47.8,82,46.4,80.2,45.3,78z"/>
		<path d="M66.8,45.8c-11.7,0-21.1,9.5-21.1,21.1S55.3,88,66.8,88s21.1-9.5,21.1-21.1S78.5,45.8,66.8,45.8z M66.8,85.8
			c-10.5,0-18.9-8.5-18.9-18.9S56.4,48,66.8,48s18.9,8.5,18.9,18.9S77.3,85.8,66.8,85.8z"/>
		<g>
			<path d="M66.2,53.4c-1.7,0-1.8,1.4-1.8,1.4v1.1v12.5v1.1c0,0,0.2,1.4,1.8,1.4c1.7,0,1.8-1.4,1.8-1.4v-1.1V55.8v-1.1
				C67.9,54.8,67.9,53.4,66.2,53.4z"/>
			<path d="M77.3,71.1H65.8v-3.7h11.5c0,0,1.4,0.3,1.4,1.8C78.7,70.8,77.3,71.1,77.3,71.1z"/>
		</g>
		<path d="M66.8,42.6c1.1,0,2.2,0.2,3.2,0.3v-1.7h-9.7v2.5C62.5,42.9,64.7,42.6,66.8,42.6z"/>
		<path d="M56.5,44.9v-3.8h-9.7v9.7h1.8C51,48.3,53.6,46.5,56.5,44.9z"/>
	</g>
</g>
<g>
	<path d="M213.6,56.5c0.3-0.3,1-0.8,1.8-1.4l1.4-1c1.3-0.9,2.2-1.7,2.7-2.5c0.9-1.1,1.3-2.5,1.3-3.9c0-1.9-0.6-3.5-1.9-4.6
		c-1.2-1.2-2.9-1.8-5-1.8c-2.7,0-4.5,1-5.6,3c-0.5,1-0.8,2.4-0.9,4l0,0.5h4.5l0-0.5c0-1,0.2-1.7,0.4-2.1c0.3-0.6,0.9-0.9,1.8-0.9
		c0.7,0,1.1,0.2,1.5,0.6c0.4,0.4,0.5,1,0.5,1.6c0,0.8-0.3,1.6-1,2.3c-0.5,0.5-1.5,1.3-3.2,2.5c-2,1.4-3.3,2.8-3.8,4.1
		c-0.6,1.1-0.9,2.4-0.9,3.8l0,0.5h13.6v-4.2h-7.5C213.5,56.6,213.5,56.5,213.6,56.5z"/>
	<path d="M412.7,51c-0.2-0.2-0.5-0.4-0.7-0.6c0.2-0.2,0.4-0.3,0.6-0.6c0.7-0.8,1.1-1.9,1.1-3.1c0-1.7-0.6-3-1.8-4
		c-1.2-1-2.7-1.5-4.6-1.5c-1,0-1.9,0.1-2.6,0.4c-0.7,0.2-1.3,0.6-1.9,1.1c-0.7,0.7-1.2,1.4-1.5,2.2c-0.3,0.9-0.5,1.8-0.5,2.7l0,0.5
		h4.4l0-0.5c0-0.8,0.1-1.4,0.5-1.9c0.3-0.4,0.8-0.6,1.5-0.6c0.6,0,1,0.2,1.4,0.5c0.3,0.3,0.5,0.8,0.5,1.4c0,1.2-0.5,1.5-0.9,1.7
		c-0.3,0.1-0.9,0.3-2.3,0.3l-0.5,0v3.6h0.5c1.1,0,1.9,0.1,2.4,0.3c0.8,0.3,1.2,1,1.2,2c0,0.8-0.2,1.3-0.6,1.7
		c-0.4,0.4-0.9,0.6-1.5,0.6c-1,0-1.6-0.3-1.9-1.1c-0.2-0.4-0.3-1-0.3-1.6v-0.5h-4.6l0,0.5c0.1,1.5,0.4,2.8,1,3.8
		c1.1,1.9,3.1,2.8,5.9,2.8c2.2,0,4-0.7,5.2-1.9c1.2-1.3,1.7-2.8,1.7-4.4C414.3,53.2,413.7,51.9,412.7,51z"/>
	<path d="M29.8,41.9c0,0.1,0,0.2-0.1,0.6c-0.1,0.5-0.3,0.8-0.6,1.1c-0.4,0.4-0.9,0.7-1.5,0.8c-0.4,0.1-1.2,0.2-2.3,0.2l-0.5,0v3.4
		h4.3v12.7h4.7V41.4h-4V41.9z"/>
</g>
</svg>
