<svg id="Layer_1" data-name="Layer 1" xmlns="http://www.w3.org/2000/svg" viewBox="0 0 100 100"><defs><style>.cls-1{fill:#231f20;}</style></defs><title>icon_scheduling_1</title><rect class="cls-1" x="30.29" y="69.35" width="11.45" height="11.45"/><rect class="cls-1" x="30.29" y="39.95" width="11.45" height="11.45"/><rect class="cls-1" x="30.29" y="54.58" width="11.45" height="11.45"/><path class="cls-1" d="M48.67,51.4a28.67,28.67,0,0,1,9.18-6.87V40H46.4V51.4Z"/><path class="cls-1" d="M84.35,45.55V35.89s.19-5.68-2.89-9.24c-3.53-4.1-9.08-3.88-9.08-3.88H70.24v6a4.69,4.69,0,0,1-4.94,3.71c-4.34,0-4.59-3.71-4.59-3.71v-6H30v6a4.68,4.68,0,0,1-4.93,3.71c-4.34,0-4.59-3.71-4.59-3.71v-6H17.18s-5.55-.22-9.08,3.88C5,30.21,5.21,35.89,5.21,35.89V77.36S5,83,8.1,86.6c3.53,4.1,9.08,3.87,9.08,3.87H49.46a28.92,28.92,0,0,1-4.93-6.9H10.3V35.88H78.22v7A29.25,29.25,0,0,1,84.35,45.55Z"/><path class="cls-1" d="M70.11,41.75A28.71,28.71,0,0,1,74,42V40H62.52V42.8A28.74,28.74,0,0,1,70.11,41.75Z"/><rect class="cls-1" x="14.17" y="54.58" width="11.45" height="11.45"/><rect class="cls-1" x="14.17" y="39.95" width="11.45" height="11.45"/><rect class="cls-1" x="14.17" y="69.35" width="11.45" height="11.45"/><path class="cls-1" d="M82.48,71.08H71.36l0-13.54V56.19a1.92,1.92,0,0,0-2.1-1.7A2.15,2.15,0,0,0,67,56.19v1.34l0,14.81v1.35a1.9,1.9,0,0,0,1.82,1.67v0H82.46a1.89,1.89,0,0,0,1.68-2.07A2.12,2.12,0,0,0,82.48,71.08Z"/><path class="cls-1" d="M62.89,7.41V28.13a2.27,2.27,0,0,0,2.49,2,2.53,2.53,0,0,0,2.67-2V7.41a2.22,2.22,0,0,0-1.91-1.94H65A2.52,2.52,0,0,0,62.89,7.41Z"/><path class="cls-1" d="M22.68,7.41V28.13a2.27,2.27,0,0,0,2.49,2,2.53,2.53,0,0,0,2.67-2V7.41a2.23,2.23,0,0,0-1.92-1.94H24.78A2.52,2.52,0,0,0,22.68,7.41Z"/><path class="cls-1" d="M95.14,70.5a25,25,0,1,0-26.64,25h3.21A25,25,0,0,0,95.14,70.5Zm-25,22.37A22.37,22.37,0,1,1,92.48,70.5,22.37,22.37,0,0,1,70.11,92.87Z"/></svg>