<svg id="Layer_1" data-name="Layer 1" xmlns="http://www.w3.org/2000/svg" viewBox="0 0 100 100"><title>icon_study</title><path d="M85.86,45.14H75.57l10-21.56-2.25-1-9.83,21h-13a3.77,3.77,0,0,0,.36-7.48L50.05,34.42l-6.36-8.53a3.75,3.75,0,0,0-2.23-1.45l-4.62-.93a3.79,3.79,0,0,0-4,2.72L25,53.5a3.77,3.77,0,0,0,.62,3.31A3.64,3.64,0,0,0,27.11,58H24.67L21.11,24.14l-4.93.42,3.89,36.87.13,1.39H33v4.85H31.85v6.42H23.76v3.28h.77a1.89,1.89,0,1,0,2,0H44.06a1.89,1.89,0,1,0,2,0h.77V74.09H38.7V67.67H37.57V62.82H48.1V58.31h5L50.35,77a3.77,3.77,0,0,0,3.18,4.28,3.39,3.39,0,0,0,.71,0,3.77,3.77,0,0,0,3.57-3.21l.77-5.54,1.56,5.82a3.77,3.77,0,0,0,3.64,2.81,4.19,4.19,0,0,0,1-.13,3.78,3.78,0,0,0,2.67-4.62l-6.1-22.87a3.68,3.68,0,0,0-.26-.68L61,52.72a4,4,0,0,0-.32-.48l-.07-.11-.06-.06a3.43,3.43,0,0,0-.52-.49l0,0a4.06,4.06,0,0,0-.63-.38l-.2-.09a4,4,0,0,0-.52-.18l-.21,0a3.67,3.67,0,0,0-.75-.08H37.84l4.28-14.29,2.77,3.65a3.78,3.78,0,0,0,2.44,1.49l12.35,2a3.44,3.44,0,0,0,.55,0H50.87v1.5H48.64v3.8H72V80.86h6.54V48.94h7.29Z"/><path d="M41.41,21.6a7,7,0,1,0-7-7A7,7,0,0,0,41.41,21.6Z"/><rect x="5" y="86.43" width="90" height="8.57"/></svg>