<svg id="Layer_1" data-name="Layer 1" xmlns="http://www.w3.org/2000/svg" viewBox="0 0 100 100"><title>icon_hot_water_boost</title><path d="M80.16,63.32a1,1,0,0,1-.78-.36c-.08-.1-8.52-10.56-.07-23.64,3.13-4.8,4.2-9.49,3.18-13.93a14.92,14.92,0,0,0-4.83-8A1,1,0,0,1,77.3,16a1,1,0,0,1,1.35-.37c1,.6,4.51,4,5.75,9.14S84.47,35.07,81,40.41c-7.66,11.86-.14,21.18-.07,21.28a1,1,0,0,1-.13,1.4A.94.94,0,0,1,80.16,63.32Z"/><path d="M24.92,63.32a1,1,0,0,1-.77-.36c-.08-.1-8.52-10.56-.07-23.64,3.13-4.8,4.2-9.49,3.18-13.94a14.8,14.8,0,0,0-4.84-8A1,1,0,0,1,22.07,16a1,1,0,0,1,1.35-.37c1,.6,4.51,4,5.75,9.14s.07,10.32-3.41,15.66c-7.64,11.82-.38,20.9-.07,21.28a1,1,0,0,1-.77,1.63Z"/><path d="M52.46,63.32a1,1,0,0,1-.77-.36c-.08-.1-8.52-10.56-.07-23.64,3.13-4.8,4.2-9.49,3.18-13.93a14.85,14.85,0,0,0-4.84-8A1,1,0,0,1,49.61,16,1,1,0,0,1,51,15.61c1,.6,4.51,4,5.74,9.14s.08,10.32-3.4,15.66c-7.67,11.86-.14,21.18-.07,21.28a1,1,0,0,1-.13,1.4A1,1,0,0,1,52.46,63.32Z"/><path d="M75.62,86A15.16,15.16,0,0,1,74,85.93a17.8,17.8,0,0,1-10.85-5.79c-5,4.37-10.12,6.32-15.15,5.8a18,18,0,0,1-11-5.81C32.05,84.45,27,86.41,22,86,13.7,85.23,8.76,78.2,8.56,77.9l4.11-2.84s3.86,5.42,9.78,5.92c4.18.35,8.54-1.75,13-6.26l2.19-2.2,1.69,2.6S42.88,80.4,48.54,81c4.11.41,8.51-1.69,13.08-6.26l2.19-2.2,1.68,2.62S69,80.39,74.56,81c4.08.42,8.48-1.68,13.06-6.26l3.53,3.54C86,83.41,80.77,86,75.62,86Z"/></svg>