<svg id="Layer_1" data-name="Layer 1" xmlns="http://www.w3.org/2000/svg" viewBox="0 0 100 100"><defs><style>.cls-1{fill:#231f20;}</style></defs><title>icon_service</title><path class="cls-1" d="M66.9,19.38A1.7,1.7,0,0,0,67.11,17l-5.25-6.38a1.61,1.61,0,0,0-2.3-.19L58,11.85l7.22,9Z"/><path class="cls-1" d="M63,36.8c8.07,9.29,16.06,15.57,22.11,10.32L77.3,38.47c-2.47,2.15-7.65-1.95-10.58-5.33-3.35-3.85-6.07-8.53-3.6-10.68l-7.21-9C49.86,18.71,55,27.5,63,36.8Z"/><path class="cls-1" d="M83.45,35.55a1.71,1.71,0,0,0-2.37-.16l-1.71,1.49,7.84,8.64,1.58-1.4A1.66,1.66,0,0,0,89,41.78Z"/><path class="cls-1" d="M56.28,83.57a10.84,10.84,0,0,1,4.12.07,21,21,0,0,0,4.34.38q6.14-.61,9.06-7l-.12-.74c-1.16.24-2.75.62-4.78,1.15s-3.67,1-4.72,1.18q-1.74-.8-2.57-4.37a13.43,13.43,0,0,1-.15-5.75,65.35,65.35,0,0,1,9.78-2.37q-2.71-4.47-8.36-4a10.36,10.36,0,0,0-8.3,4.62A11.49,11.49,0,0,0,53.21,71a7.8,7.8,0,0,1-1.66,3.92,21.46,21.46,0,0,1-2.59,2V62.88a7.85,7.85,0,0,0-6.4-7.69v26q-3.66,2.32-8.77,5.44L19.68,95H49V87.87Q55.13,83.87,56.28,83.57Z"/><path class="cls-1" d="M23.7,55.12c6,0,10.89-7.41,10.89-16.52l0-12.84a4.33,4.33,0,0,0-4.32-4.32H17.11a4.34,4.34,0,0,0-4.32,4.32V31h-5a2.65,2.65,0,0,0,0,5.29h5.06V38.6C12.81,47.71,17.7,55.12,23.7,55.12Z"/><path class="cls-1" d="M37.27,55.05H32.76a12.58,12.58,0,0,1-9.06,4.21,12.6,12.6,0,0,1-9.06-4.21H10.3V70.12h27Z"/></svg>