<svg id="Layer_1" data-name="Layer 1" xmlns="http://www.w3.org/2000/svg" viewBox="0 0 100 100"><defs><style>.cls-1{fill:#231f20;}</style></defs><title>icon_heat_pump</title><path class="cls-1" d="M84.28,18.28A12.31,12.31,0,1,0,72,30.58,12.32,12.32,0,0,0,84.28,18.28Z"/><path class="cls-1" d="M73.78,35.39a2.17,2.17,0,0,0-2.2-2.08h0A2.27,2.27,0,0,0,69.5,35.6V37h0v6.47a2.16,2.16,0,0,0,2.16,2.09h0a2.27,2.27,0,0,0,2.07-2.3V41.74h0Zm-2.12,9.8h0Z"/><path class="cls-1" d="M46.9,20.93h7.84a2.16,2.16,0,0,0,2.09-2.2,2.27,2.27,0,0,0-2.3-2.07H46.69a2.16,2.16,0,0,0-2.08,2.21A2.26,2.26,0,0,0,46.9,20.93Z"/><path class="cls-1" d="M94.41,16.65H87.94a2.16,2.16,0,0,0-2.08,2.21,2.26,2.26,0,0,0,2.29,2.07H95V16.66h-.59Z"/><path class="cls-1" d="M53.81,38.3a3,3,0,0,0,1.76-.71l1-1.05h0L61.12,32A2.15,2.15,0,0,0,61,29a1.85,1.85,0,0,0-1.33-.56,3,3,0,0,0-1.76.72l-1,1h0L52.4,34.71a2.17,2.17,0,0,0,.08,3A1.91,1.91,0,0,0,53.81,38.3Z"/><path class="cls-1" d="M81.65,8.58A1.85,1.85,0,0,0,83,9.13a3,3,0,0,0,1.76-.71l1.05-1h0L88.16,5H82.1l-.53.53A2.16,2.16,0,0,0,81.65,8.58Z"/><path class="cls-1" d="M84.8,28.81a2.5,2.5,0,0,0-1.54-.59,2,2,0,0,0-1.49.67A2.27,2.27,0,0,0,81.93,32l1,1h0l4.57,4.56a2.64,2.64,0,0,0,1.55.59h0a2,2,0,0,0,1.49-.68,2.29,2.29,0,0,0-.16-3.09l-1.07-1.06h0Z"/><path class="cls-1" d="M53.91,44.93H5V56.22H42.82a31.48,31.48,0,0,1,4,4.08H5v2.76H48.82a30.46,30.46,0,0,1,2.23,4.09H5v2.76H52.14A29.18,29.18,0,0,1,53.24,74H5v2.76H53.65A31.32,31.32,0,0,1,53.82,80c0,.28,0,.57,0,.86H5V83.6H53.4A21.09,21.09,0,0,1,52,87.68H5v2.76H50.55a34.78,34.78,0,0,1-2.93,4.09H5V95H57.82V48.85A3.93,3.93,0,0,0,53.91,44.93ZM8.34,53.46A37.79,37.79,0,0,1,18,49.37H28.78a31,31,0,0,1,10.27,4.09Z"/><path class="cls-1" d="M93.61,51.7l-4.47,3.64v-.47h0V49.22a2,2,0,0,0-2-1.88h0a2,2,0,0,0-1.87,2.07v1.17h0v4.73l-4.46-3.62a2.4,2.4,0,0,0-1.26-.41,1.78,1.78,0,0,0-1.41.71,2,2,0,0,0,.37,2.72l6.78,5.5v7.46L78.9,63.89l-1.3-8.72c0-.07-.47-1.92-2.14-1.67a1.92,1.92,0,0,0-1.62,2.17l.85,5.71-.41-.25h0l-4.86-2.86a2.45,2.45,0,0,0-1-.23,1.79,1.79,0,0,0-1.62,1,2,2,0,0,0,.83,2.67l1,.6h0l4.07,2.4-5.39,2a1.91,1.91,0,0,0-1.11,2.45A1.76,1.76,0,0,0,68,70.29a3,3,0,0,0,.73-.09l8.19-3L83.33,71l-6.51,3.52-8.14-3.36a2.59,2.59,0,0,0-.8-.12,1.76,1.76,0,0,0-1.74,1.1,1.91,1.91,0,0,0,1,2.49l5.33,2.21-.4.22h0l-5,2.7a2,2,0,0,0-.71,2.65,1.73,1.73,0,0,0,1.59.9A3,3,0,0,0,69.13,83l1.06-.58h0l4.13-2.24-1.06,5.64a1.91,1.91,0,0,0,1.53,2.21c1.66.33,2.19-1.51,2.22-1.62l1.61-8.58,6.67-3.62V81.8l-6.83,5.55a2,2,0,0,0-.35,2.7,1.81,1.81,0,0,0,1.42.71,2.33,2.33,0,0,0,1.27-.43l4.48-3.63v.38h0v5.74a2,2,0,0,0,2,1.88h0a2.06,2.06,0,0,0,1.88-2.07V91.37h0V86.72l4.46,3.62a2.28,2.28,0,0,0,1.26.42l.14,0V86.6l-5.89-4.79V74.37L95,77.85V73.41L91.08,71.1,95,69V64.63l-5.89,3.19V60.24L95,55.46V51.29h-.11A2.47,2.47,0,0,0,93.61,51.7ZM87.22,94.35Z"/><path class="cls-1" d="M59.85,9h0a2,2,0,0,0,1.49-.68,2.27,2.27,0,0,0-.16-3.09L61,5H54.94L58.3,8.36A2.64,2.64,0,0,0,59.85,9Z"/></svg>