<?xml version="1.0" encoding="UTF-8"?>
<svg width="100px" height="100px" viewBox="0 0 100 100" version="1.1" xmlns="http://www.w3.org/2000/svg" xmlns:xlink="http://www.w3.org/1999/xlink">
    <!-- Generator: Sketch 57.1 (83088) - https://sketch.com -->
    <title>icon/error/alt</title>
    <desc>Created with Sketch.</desc>
    <g id="icon/error/alt" stroke="none" stroke-width="1" fill="none" fill-rule="evenodd">
        <path d="M54,29.5999 C54,30.6999 53.6,34.5999 52.9,41.0999 C52.2,47.0999 51.6,52.9999 51,58.6999 C50.9,59.3999 50.3,59.9999 49.5,59.9999 C48.7,59.9999 48.1,59.3999 48,58.6999 C47.5,52.9999 46.9,47.1999 46.2,41.0999 C45.5,34.5999 45.1,30.7999 45.1,29.5999 C45.1,28.2999 45.5,27.1999 46.3,26.2999 C47.1,25.3999 48.2,24.9999 49.4,24.9999 C50.7,24.9999 51.7,25.3999 52.5,26.2999 C53.6,27.1999 54,28.2999 54,29.5999 M54.4,70.7999 C54.4,72.0999 53.9,73.1999 53,74.0999 C52.1,74.9999 51,75.3999 49.7,75.3999 C48.4,75.3999 47.3,74.8999 46.4,74.0999 C45.5,73.1999 45,72.0999 45,70.7999 C45,69.4999 45.5,68.3999 46.4,67.4999 C47.3,66.5999 48.4,66.0999 49.7,66.0999 C51,66.0999 52.1,66.5999 53,67.4999 C53.9,68.3999 54.4,69.4999 54.4,70.7999" id="Fill-1" fill="#FFFFFF"></path>
    </g>
</svg>