<?xml version="1.0" encoding="utf-8"?>
<!-- Generator: Adobe Illustrator 20.1.0, SVG Export Plug-In . SVG Version: 6.00 Build 0)  -->
<!DOCTYPE svg PUBLIC "-//W3C//DTD SVG 1.1//EN" "http://www.w3.org/Graphics/SVG/1.1/DTD/svg11.dtd">
<svg version="1.1" id="Calque_1" xmlns="http://www.w3.org/2000/svg" xmlns:xlink="http://www.w3.org/1999/xlink" x="0px" y="0px"
	 viewBox="0 0 65.2 65.2" enable-background="new 0 0 65.2 65.2" xml:space="preserve">
<g>
	<path d="M63.2,5.2h-3.3c-0.2,0-0.4,0.1-0.6,0.3l-1.6,1.7V5.2c0-1.4-1.1-2.6-2.6-2.6h0c-1.4,0-2.6,1.1-2.6,2.6v7.3l-2.7,2.8h-3
		c-0.5,0-0.8,0.4-0.8,0.8s0.4,0.8,0.8,0.8h3.4c0.2,0,0.4-0.1,0.6-0.3l1.8-1.8v1.4c-1,0.8-1.6,1.9-1.6,3.3c0,2.3,1.9,4.2,4.2,4.2
		s4.2-1.9,4.2-4.2c0-1.3-0.6-2.5-1.6-3.3V9.6l2.6-2.7h2.9C63.6,6.9,64,6.5,64,6C64,5.6,63.6,5.2,63.2,5.2z M57.8,19.6
		c0,1.5-1.2,2.7-2.7,2.7s-2.7-1.2-2.7-2.7c0-1.1,0.6-1.9,1.5-2.4v-3.8l2.3-2.4v6.2C57.1,17.7,57.8,18.6,57.8,19.6z"/>
	<path d="M31.1,44.2c-0.2,0.2-0.3,0.5-0.3,0.8c0,0.3,0.1,0.6,0.3,0.8c0.2,0.2,0.5,0.3,0.8,0.3c0.3,0,0.6-0.1,0.8-0.3
		c0.2-0.2,0.3-0.5,0.3-0.8c0-0.2,0-0.4-0.2-0.6c-0.1-0.2-0.2-0.3-0.4-0.4c-0.2-0.1-0.4-0.2-0.6-0.2C31.6,43.8,31.4,43.9,31.1,44.2z"
		/>
	<path d="M13.4,38.1v27.1h39.3V38.1l-20-16.9L13.4,38.1z M27.7,44.7c-0.3,0.4-0.6,0.9-1,1.3c-0.4,0.5-0.8,1.1-1.2,1.8
		c-0.4,0.7-0.8,1.6-1.1,2.6c-0.1,0.5-0.2,0.8-0.3,1.1c-0.1,0.3-0.1,0.7-0.2,1.2c-0.1,0.5-0.1,0.9-0.2,1.1c-0.1,0.6-0.3,1.1-0.6,1.3
		c-0.3,0.3-0.6,0.4-1,0.4c-0.4,0-0.8-0.1-1-0.4c-0.2-0.3-0.4-0.7-0.4-1.2c0-0.4,0.1-0.9,0.2-1.6c0.2-0.7,0.4-1.4,0.8-2.3
		c0.4-0.9,0.8-1.8,1.4-2.8c0.5-0.8,1-1.7,1.7-2.5h-4.3c-0.5,0-0.9-0.1-1.2-0.3c-0.3-0.2-0.4-0.6-0.4-1c0-0.6,0.3-0.9,0.5-1
		c0.3-0.1,0.7-0.2,1.2-0.2h5.9c0.6,0,1,0.1,1.3,0.3c0.3,0.2,0.5,0.6,0.5,1C28.2,43.9,28,44.3,27.7,44.7z M36.7,46
		c0.3-0.8,0.8-1.6,1.3-2.2c0.6-0.6,1.3-1.1,2-1.4c0.8-0.3,1.6-0.5,2.5-0.5c1.1,0,2,0.2,2.9,0.6c0.8,0.4,1.5,1,1.9,1.6
		c0.5,0.6,0.7,1.3,0.7,1.9c0,0.3-0.1,0.7-0.4,0.9c-0.2,0.3-0.6,0.4-0.9,0.4c-0.4,0-0.7-0.1-0.9-0.3c-0.2-0.2-0.4-0.5-0.6-0.9
		c-0.3-0.6-0.7-1.1-1.1-1.4c-0.4-0.3-1-0.4-1.6-0.4c-1,0-1.8,0.4-2.4,1.1c-0.6,0.8-0.9,1.9-0.9,3.3c0,1,0.1,1.8,0.4,2.4
		c0.3,0.6,0.6,1.1,1.1,1.4c0.5,0.3,1.1,0.5,1.7,0.5c0.7,0,1.3-0.2,1.8-0.5c0.5-0.3,0.9-0.9,1.1-1.5c0.1-0.4,0.3-0.7,0.4-0.9
		c0.2-0.3,0.5-0.4,1-0.4c0.4,0,0.7,0.1,0.9,0.4c0.3,0.3,0.4,0.6,0.4,1c0,0.4-0.1,0.9-0.3,1.4c-0.2,0.5-0.5,1-1,1.5
		c-0.4,0.5-1,0.9-1.7,1.2c-0.7,0.3-1.5,0.4-2.4,0.4c-0.7,0-1.3-0.1-1.9-0.2c-0.6-0.1-1.1-0.3-1.6-0.6c-0.5-0.3-0.9-0.7-1.3-1.1
		c-0.3-0.4-0.7-0.9-0.9-1.4c-0.2-0.5-0.4-1.1-0.6-1.7c-0.1-0.6-0.2-1.2-0.2-1.9C36.2,47.8,36.4,46.8,36.7,46z M34.6,43.5
		c0.3,0.5,0.4,1,0.4,1.5c0,0.5-0.1,1-0.4,1.5c-0.3,0.5-0.6,0.8-1.1,1.1C33,47.8,32.5,48,32,48c-0.8,0-1.5-0.3-2.1-0.9
		c-0.6-0.6-0.9-1.3-0.9-2.1c0-0.4,0.1-0.8,0.2-1.2c0.2-0.4,0.4-0.7,0.7-1c0.3-0.3,0.6-0.5,1-0.6c0.8-0.4,1.8-0.3,2.7,0.2
		C33.9,42.6,34.3,43,34.6,43.5z"/>
	<polygon points="5.3,33.5 9,37.3 32.6,16.8 56.9,37.5 60.6,33.5 32.6,10.4 	"/>
</g>
</svg>
