<?xml version="1.0" encoding="utf-8"?>
<!-- Generator: Adobe Illustrator 20.1.0, SVG Export Plug-In . SVG Version: 6.00 Build 0)  -->
<!DOCTYPE svg PUBLIC "-//W3C//DTD SVG 1.1//EN" "http://www.w3.org/Graphics/SVG/1.1/DTD/svg11.dtd">
<svg version="1.1" id="Calque_1" xmlns="http://www.w3.org/2000/svg" xmlns:xlink="http://www.w3.org/1999/xlink" x="0px" y="0px"
	 viewBox="0 0 65.2 65.2" enable-background="new 0 0 65.2 65.2" xml:space="preserve">
<g>
	<path d="M20.1,23c-1.6-0.9-3.5-1.3-5.6-1.3c-1.6,0-3.1,0.3-4.3,0.8c-1.3,0.5-2.3,1.2-3.2,2.2c-0.9,1-1.6,2.1-2,3.5
		c-0.5,1.4-0.7,2.8-0.7,4.5c0,1.6,0.2,3.1,0.7,4.4s1.1,2.5,2,3.5c0.9,1,2,1.7,3.3,2.3c1.3,0.5,2.8,0.8,4.4,0.8
		c1.7,0,3.1-0.3,4.4-0.8c1.3-0.5,2.4-1.3,3.3-2.2c0.9-1,1.5-2.1,2-3.5s0.7-2.8,0.7-4.5c0-2.2-0.4-4.1-1.2-5.8
		C22.9,25.2,21.7,23.9,20.1,23z M19.7,36.8c-0.5,1.1-1.3,2-2.2,2.5c-0.9,0.5-1.9,0.8-3,0.8c-0.9,0-1.6-0.2-2.4-0.5
		c-0.7-0.3-1.4-0.8-1.9-1.4c-0.6-0.6-1-1.4-1.3-2.4s-0.5-2.1-0.5-3.3c0-1.2,0.2-2.3,0.5-3.2c0.3-1,0.7-1.7,1.2-2.4
		c0.5-0.6,1.1-1.1,1.9-1.4c0.7-0.3,1.5-0.5,2.4-0.5c1.2,0,2.3,0.3,3.2,0.9c0.9,0.6,1.6,1.4,2.1,2.6c0.5,1.1,0.8,2.5,0.8,4
		C20.5,34.2,20.3,35.6,19.7,36.8z"/>
	<path d="M41.2,22H31.1c-0.6,0-1.1,0.1-1.5,0.3c-0.4,0.2-0.7,0.5-0.9,0.9c-0.2,0.4-0.3,0.9-0.3,1.5v16.3c0,0.9,0.2,1.5,0.6,2
		c0.4,0.4,0.9,0.6,1.6,0.6c0.6,0,1.1-0.2,1.5-0.6c0.4-0.4,0.6-1.1,0.6-2v-7h7.1c0.6,0,1.1-0.1,1.5-0.4c0.3-0.3,0.5-0.7,0.5-1.2
		c0-0.5-0.2-0.9-0.5-1.2c-0.3-0.3-0.8-0.4-1.5-0.4h-7.1v-5.4h8.4c0.7,0,1.2-0.2,1.5-0.5c0.3-0.3,0.5-0.7,0.5-1.2
		c0-0.5-0.2-0.9-0.5-1.2C42.4,22.2,41.9,22,41.2,22z"/>
	<path d="M59,25.3c0.7,0,1.2-0.2,1.5-0.5c0.3-0.3,0.5-0.7,0.5-1.2c0-0.5-0.2-0.9-0.5-1.2C60.2,22.2,59.7,22,59,22H48.9
		c-0.6,0-1.1,0.1-1.5,0.3c-0.4,0.2-0.7,0.5-0.9,0.9c-0.2,0.4-0.3,0.9-0.3,1.5v16.3c0,0.9,0.2,1.5,0.6,2c0.4,0.4,0.9,0.6,1.6,0.6
		c0.6,0,1.1-0.2,1.5-0.6c0.4-0.4,0.6-1.1,0.6-2v-7h7.1c0.6,0,1.1-0.1,1.5-0.4c0.3-0.3,0.5-0.7,0.5-1.2c0-0.5-0.2-0.9-0.5-1.2
		c-0.3-0.3-0.8-0.4-1.5-0.4h-7.1v-5.4H59z"/>
</g>
</svg>
