<?xml version="1.0" encoding="utf-8"?>
<!-- Generator: Adobe Illustrator 20.1.0, SVG Export Plug-In . SVG Version: 6.00 Build 0)  -->
<!DOCTYPE svg PUBLIC "-//W3C//DTD SVG 1.1//EN" "http://www.w3.org/Graphics/SVG/1.1/DTD/svg11.dtd">
<svg version="1.1" id="Calque_1" xmlns="http://www.w3.org/2000/svg" xmlns:xlink="http://www.w3.org/1999/xlink" x="0px" y="0px"
	 viewBox="0 0 65.2 65.2" enable-background="new 0 0 65.2 65.2" xml:space="preserve">
<path d="M38.7,60.4c-0.2-0.3-0.3-0.5-0.3-0.6c0,0,0-0.2,0.1-0.2c0,0,0.4,0,0.7,0l1.3,0c0.4-0.7,0.6-1.4,0.6-2.1
	c0.1-2.6-2.4-5.7-2.5-9.5c0-1.6,0.5-3.3,1.9-5c0.3-0.4,1-0.5,1.4-0.2c0.4,0.3,0.5,1,0.2,1.4c-1.1,1.4-1.4,2.6-1.4,3.8
	c-0.1,2.9,2.4,5.9,2.5,9.5c0,0.7-0.1,1.4-0.4,2.1l1.4,0c0.3,0,0.6,0,0.6,0c0,0,0.1,0.1,0.1,0.2c0,0-0.1,0.4-0.3,0.6l-2.7,4.7
	c-0.1,0.1-0.3,0.1-0.4,0L38.7,60.4z M30.8,60.4c-0.2-0.3-0.3-0.5-0.3-0.6c0,0,0-0.2,0.1-0.2c0,0,0.4,0,0.7,0l1.3,0
	c0.4-0.7,0.6-1.4,0.6-2.1c0.1-2.6-2.4-5.7-2.5-9.5c0-1.6,0.5-3.3,1.9-5c0.3-0.4,1-0.5,1.4-0.2c0.4,0.3,0.5,1,0.2,1.4
	c-1.1,1.4-1.4,2.6-1.4,3.8c-0.1,2.9,2.4,5.9,2.5,9.5c0,0.7-0.1,1.4-0.4,2.1l1.4,0c0.3,0,0.6,0,0.6,0c0,0,0.1,0.1,0.1,0.2
	c0,0-0.1,0.4-0.3,0.6l-2.7,4.7c-0.1,0.1-0.3,0.1-0.4,0L30.8,60.4z M22.9,60.4c-0.2-0.3-0.3-0.5-0.3-0.6c0,0,0-0.2,0.1-0.2
	c0,0,0.4,0,0.7,0l1.3,0c0.4-0.7,0.6-1.4,0.6-2.1c0.1-2.6-2.4-5.7-2.5-9.5c0-1.6,0.5-3.3,1.9-5c0.3-0.4,1-0.5,1.4-0.2
	c0.4,0.3,0.5,1,0.2,1.4c-1.1,1.4-1.4,2.6-1.4,3.8c-0.1,2.9,2.4,5.9,2.5,9.5c0,0.7-0.1,1.4-0.4,2.1l1.4,0c0.3,0,0.6,0,0.6,0
	c0,0,0.1,0.1,0.1,0.2c0,0-0.1,0.4-0.3,0.6L26,65.1c-0.1,0.1-0.3,0.1-0.4,0L22.9,60.4z M40.1,23.3l6-2.2c0,0,0.2-0.1,0.5-0.1
	c0.4,0,1.1,0.1,1.3,0.8C48,22,48,22.2,48,22.4c0,0.9-0.9,1.3-0.9,1.3L47,23.4l0.1,0.2l-4,1.5l2.9,1.7l0,0l0.8,0.5
	c0,0,0.7,0.5,0.8,1.3c0,0.2-0.1,0.4-0.2,0.6c-0.3,0.5-0.8,0.7-1.2,0.7c0,0,0,0,0,0c-0.4,0-0.7-0.2-0.7-0.2L42,27.7l0,0l-0.3-0.2
	l0.6,4.2l-0.2,0l0.2,0c0,0,0,0,0,0.1c0,0.3-0.1,1.3-1.2,1.4c-0.1,0-0.1,0-0.2,0c-1.1,0-1.3-1.2-1.3-1.3l-0.9-6.4L34,22.9l0,5.5
	l5,4.1c0,0,0.5,0.5,0.5,1.2c0,0.3-0.1,0.5-0.3,0.8c-0.3,0.4-0.7,0.5-1,0.5c0,0,0,0,0,0c-0.5,0-0.9-0.3-0.9-0.3l0.1-0.2l-0.2,0.2
	L34,31.9l0,3.4h0v0.9c0,0-0.1,1.4-1.4,1.5l0,0c-1.3,0-1.4-1.4-1.4-1.4l0-4.2h0v-0.3l-3.3,2.7l-0.1-0.2l0.1,0.2c0,0-0.4,0.3-0.9,0.3
	c0,0,0,0,0,0c-0.3,0-0.7-0.1-1-0.5c-0.2-0.2-0.3-0.5-0.3-0.8c0-0.7,0.5-1.2,0.6-1.2l5-4l0-5.6l-4.9,2.7l-1.2,6.3
	c0,0-0.3,1.1-1.3,1.2c-0.1,0-0.2,0-0.3,0c-1-0.2-1.1-1.1-1.1-1.4c0-0.1,0-0.2,0-0.2l0.2,0l-0.2,0l0.8-4.1l-3.1,1.7l0,0l-0.7,0.4
	c0,0-0.4,0.2-0.8,0.2c0,0,0,0,0,0c-0.4,0-0.9-0.2-1.1-0.7c-0.1-0.2-0.2-0.5-0.2-0.7c0-0.8,0.7-1.2,0.7-1.2l3.6-1.9l0,0l0.4-0.2
	l-3.9-1.6l0.1-0.2l-0.1,0.2c0,0-0.8-0.4-0.9-1.3c0-0.2,0-0.4,0.1-0.6c0.3-0.6,0.9-0.8,1.3-0.8c0.3,0,0.6,0.1,0.6,0.1L25,23l4.8-2.6
	l-4.7-2.8l-6,2.2c0,0-0.2,0.1-0.5,0.1c0,0,0,0,0,0c-0.4,0-1-0.2-1.3-0.8c-0.1-0.2-0.1-0.4-0.1-0.5c0-0.9,0.9-1.3,0.9-1.3l0.1,0.2
	l-0.1-0.2l4-1.5l-3-1.8l0,0l-0.8-0.4c0,0-0.7-0.5-0.8-1.3c0-0.2,0.1-0.4,0.2-0.6c0.3-0.5,0.8-0.7,1.2-0.7c0.4,0,0.7,0.2,0.7,0.2
	l3.6,2.1l0,0l0.3,0.2l-0.6-4.2l0.2,0l-0.2,0c0,0,0-0.1,0-0.1c0-0.3,0.1-1.3,1.2-1.4c0.1,0,0.2,0,0.2,0c1.1,0,1.3,1.2,1.3,1.3
	l0.9,6.4l4.7,2.8l0-5.5l-5-4c0,0-0.5-0.5-0.5-1.2c0-0.3,0.1-0.5,0.3-0.8C26.3,6.2,26.7,6,27,6c0.5,0,0.9,0.3,0.9,0.3l-0.1,0.2
	l0.2-0.2L31.2,9l0-3.4l0,0V4.7c0,0,0.1-1.4,1.3-1.5c0,0,0.1,0,0.1,0c0,0,0,0,0,0c1.3,0,1.4,1.4,1.4,1.4l0,4.1l0,0V9l3.3-2.7l0.2,0.2
	l-0.1-0.2c0,0,0.4-0.3,0.9-0.3c0.3,0,0.7,0.1,1,0.5c0.2,0.2,0.3,0.5,0.3,0.8C39.5,8,39,8.5,39,8.5l-5,4.1l0,5.6l4.9-2.7l1.2-6.3
	c0,0,0.3-1.1,1.3-1.2c0.1,0,0.2,0,0.3,0c1,0.2,1.1,1.1,1.1,1.4c0,0.1,0,0.2,0,0.2l-0.2,0l0.2,0L42,13.8l3-1.6l0,0l0.8-0.5
	c0,0,0.4-0.2,0.8-0.2c0.4,0,0.9,0.1,1.1,0.7c0.1,0.2,0.2,0.5,0.2,0.7c0,0.8-0.7,1.2-0.7,1.2l-3.7,2l0,0l-0.3,0.1l3.9,1.6l-0.1,0.2
	l0,0l0.1-0.2c0,0,0.8,0.4,0.8,1.3c0,0.2,0,0.4-0.1,0.6c-0.3,0.6-0.8,0.8-1.2,0.8c0,0,0,0,0,0c-0.3,0-0.6-0.1-0.6-0.1l-5.9-2.5
	l-4.8,2.6L40.1,23.3z"/>
</svg>
