<?xml version="1.0" encoding="utf-8"?>
<!-- Generator: Adobe Illustrator 20.1.0, SVG Export Plug-In . SVG Version: 6.00 Build 0)  -->
<!DOCTYPE svg PUBLIC "-//W3C//DTD SVG 1.1//EN" "http://www.w3.org/Graphics/SVG/1.1/DTD/svg11.dtd">
<svg version="1.1" id="Calque_1" xmlns="http://www.w3.org/2000/svg" xmlns:xlink="http://www.w3.org/1999/xlink" x="0px" y="0px"
	 viewBox="0 0 65.2 65.2" enable-background="new 0 0 65.2 65.2" xml:space="preserve">
<g>
	<path d="M9.2,31.3v33.9h46.4V31.3L31.9,11.3L9.2,31.3z M32.6,27.1c1.1,0,1.1,1.1,1.1,1.1l0,3.7l0,0l0,1.1l3.5-2.9
		c0,0,0.9-0.6,1.5,0.2c0.6,0.7-0.2,1.6-0.2,1.6l-4.9,3.9v5.8l5.1-2.8l1.2-6.1c0,0,0.3-1.1,1.3-0.9c1,0.2,0.9,1.3,0.9,1.3l-0.8,4.4
		l3.1-1.7l0,0l1-0.5c0,0,1.1-0.5,1.6,0.4c0.5,0.9-0.4,1.5-0.4,1.5l-3.3,1.8l0,0l-0.9,0.5l4.2,1.7c0,0,1,0.5,0.6,1.4
		c-0.4,0.9-1.5,0.5-1.5,0.5l-5.8-2.4l-5,2.7l4.9,2.9l5.8-2.2c0,0,1.1-0.3,1.5,0.6c0.4,1-0.6,1.4-0.6,1.4l-4.2,1.6l3,1.8l0,0l1,0.6
		c0,0,1,0.7,0.5,1.5c-0.5,0.9-1.5,0.4-1.5,0.4l-3.2-1.9l0,0l-0.9-0.5l0.7,4.5c0,0,0.1,1.1-0.9,1.2c-1,0.1-1.2-1-1.2-1l-0.9-6.2
		l-4.9-2.9v5.7l4.8,3.9c0,0,0.8,0.8,0.2,1.6c-0.7,0.8-1.5,0.2-1.5,0.2l-3.5-2.8l0,3.5l0,0l0,1.1c0,0-0.1,1.2-1.1,1.2
		c-1.1,0-1.1-1.1-1.1-1.1l0-3.8l0,0l0-1L28,56.7c0,0-0.9,0.6-1.5-0.2c-0.6-0.7,0.2-1.6,0.2-1.6l4.9-3.9v-5.8L26.4,48l-1.1,6.1
		c0,0-0.3,1.1-1.3,0.9c-1-0.2-0.9-1.3-0.9-1.3l0.8-4.4l-3.1,1.7l0,0l-0.9,0.5c0,0-1.1,0.5-1.6-0.4c-0.5-0.9,0.4-1.5,0.4-1.5l3.3-1.8
		l0,0l0.9-0.5l-4.2-1.7c0,0-1-0.5-0.6-1.4c0.4-0.9,1.5-0.5,1.5-0.5l5.8,2.4l5-2.7l-4.9-2.9l-5.8,2.2c0,0-1.1,0.3-1.5-0.6
		c-0.4-1,0.6-1.4,0.6-1.4l4.2-1.6L20,37.2l0,0l-0.9-0.5c0,0-1-0.7-0.5-1.5c0.5-0.9,1.5-0.4,1.5-0.4l3.2,1.9l0,0l0.9,0.5l-0.7-4.5
		c0,0-0.1-1.1,0.9-1.2c1-0.1,1.2,1,1.2,1l0.9,6.2l4.9,2.9v-5.8l-4.8-3.9c0,0-0.8-0.8-0.2-1.6c0.7-0.8,1.5-0.2,1.5-0.2l3.5,2.8l0-3.6
		l0,0l0-1.1C31.5,28.3,31.6,27.1,32.6,27.1z"/>
	<polygon points="32.2,0 0,27.3 4.4,31.7 32.2,7.5 60.8,31.9 65.2,27.3 	"/>
</g>
</svg>
