<?xml version="1.0" encoding="utf-8"?>
<!-- Generator: Adobe Illustrator 20.1.0, SVG Export Plug-In . SVG Version: 6.00 Build 0)  -->
<!DOCTYPE svg PUBLIC "-//W3C//DTD SVG 1.1//EN" "http://www.w3.org/Graphics/SVG/1.1/DTD/svg11.dtd">
<svg version="1.1" id="Calque_1" xmlns="http://www.w3.org/2000/svg" xmlns:xlink="http://www.w3.org/1999/xlink" x="0px" y="0px"
	 viewBox="0 0 65.2 65.2" enable-background="new 0 0 65.2 65.2" xml:space="preserve">
<g>
	<path d="M9.2,31.3v33.9h46.4V31.3L31.9,11.3L9.2,31.3z M22.8,55.9c0,1-0.8,1.8-1.8,1.8h-0.4c-1,0-1.8-0.8-1.8-1.8V36.8
		c-0.1,0-0.1,0.1-0.2,0.1h-0.3c-0.3,0-0.5-0.2-0.5-0.5v-2.9c0-0.3,0.2-0.5,0.5-0.5h0.3c0.1,0,0.2,0,0.2,0.1v-0.8
		c0-1,0.8-1.8,1.8-1.8H21c1,0,1.8,0.8,1.8,1.8V55.9z M28.5,55.9c0,1-0.8,1.8-1.8,1.8h-0.4c-1,0-1.8-0.8-1.8-1.8V32.2
		c0-1,0.8-1.8,1.8-1.8h0.4c1,0,1.8,0.8,1.8,1.8V55.9z M41.8,32.2c0-1,0.8-1.8,1.8-1.8H44c1,0,1.8,0.8,1.8,1.8v19h0.5
		c0.3,0,0.5,0.2,0.5,0.5v2.9c0,0.3-0.2,0.5-0.5,0.5h-0.5v0.8c0,1-0.8,1.8-1.8,1.8h-0.4c-1,0-1.8-0.8-1.8-1.8V32.2z M36.1,32.2
		c0-1,0.8-1.8,1.8-1.8h0.4c1,0,1.8,0.8,1.8,1.8v23.7c0,1-0.8,1.8-1.8,1.8h-0.4c-1,0-1.8-0.8-1.8-1.8V32.2z M32.5,30.4
		c1,0,1.8,0.8,1.8,1.8v23.7c0,1-0.8,1.8-1.8,1.8h-0.4c-1,0-1.8-0.8-1.8-1.8V32.2c0-1,0.8-1.8,1.8-1.8H32.5z"/>
	<polygon points="32.2,0 0,27.3 4.4,31.7 32.2,7.5 60.8,31.9 65.2,27.3 	"/>
</g>
</svg>
