<?xml version="1.0" encoding="utf-8"?>
<!-- Generator: Adobe Illustrator 20.1.0, SVG Export Plug-In . SVG Version: 6.00 Build 0)  -->
<!DOCTYPE svg PUBLIC "-//W3C//DTD SVG 1.1//EN" "http://www.w3.org/Graphics/SVG/1.1/DTD/svg11.dtd">
<svg version="1.1" id="Calque_1" xmlns="http://www.w3.org/2000/svg" xmlns:xlink="http://www.w3.org/1999/xlink" x="0px" y="0px"
	 viewBox="0 0 65.2 65.2" enable-background="new 0 0 65.2 65.2" xml:space="preserve">
<g>
	<polygon points="40.7,62.7 40.7,62.7 40.7,62.7 	"/>
	<path d="M9.2,31.3v33.9h46.4V31.3L31.9,11.4L9.2,31.3z M25.2,28.7c0-0.7,0.6-1.3,1.3-1.3h0.3c0.7,0,1.3,0.6,1.3,1.3v16.7l-2.3,2.3
		c-0.4-0.2-0.7-0.6-0.7-1.1V28.7z M20.8,28.7c0-0.7,0.6-1.3,1.3-1.3h0.3c0.7,0,1.3,0.6,1.3,1.3v17.9c0,0.7-0.6,1.3-1.3,1.3h-0.3
		c-0.7,0-1.3-0.6-1.3-1.3V28.7z M16.5,46.6V32.2c-0.1,0-0.1,0-0.2,0h-0.2c-0.2,0-0.4-0.2-0.4-0.4v-2.2c0-0.2,0.2-0.4,0.4-0.4h0.2
		c0.1,0,0.1,0,0.2,0v-0.6c0-0.7,0.6-1.3,1.3-1.3h0.3c0.7,0,1.3,0.6,1.3,1.3v17.9c0,0.7-0.6,1.3-1.3,1.3h-0.3
		C17.1,47.9,16.5,47.3,16.5,46.6z M48.8,46.1l0.5-0.3c0,0,0.3-0.1,0.6-0.1c0.3,0,0.6,0.2,0.8,0.4c0.4,0.6-0.1,1.1-0.3,1.3l-2.4,1.3
		l0,0l-0.1,0l2.5,1c0.3,0.1,0.8,0.6,0.5,1.2c-0.1,0.3-0.4,0.5-0.9,0.5c-0.2,0-0.4,0-0.4-0.1L45.6,50l-3.1,1.7l3,1.8l3.9-1.4
		c0,0,0.2,0,0.4,0c0.4,0,0.8,0.2,0.9,0.6c0.2,0.7-0.2,1.1-0.5,1.2l-2.5,0.9l1.9,1.1l0,0L50,56c0.3,0.2,0.7,0.7,0.4,1.3
		c-0.2,0.4-0.6,0.5-0.8,0.5h0c-0.3,0-0.5-0.1-0.5-0.1l-2.4-1.4l0,0l-0.1,0l0.4,2.7c0,0.3-0.1,1-0.8,1.1c0,0-0.1,0-0.1,0
		c-0.7,0-0.9-0.8-0.9-0.8L44.6,55l-3-1.8l0,3.5l3.2,2.6c0.3,0.2,0.6,0.8,0.2,1.3c-0.2,0.2-0.4,0.3-0.7,0.3c-0.3,0-0.6-0.2-0.6-0.2
		l-2.1-1.7l0,2.2l0,0l0,0.6c0,0.4-0.2,1-0.9,1h0c-0.7,0-0.9-0.6-1-0.9l0-2.7l0,0l0-0.1l-2.1,1.7c0,0-0.3,0.2-0.6,0.2
		c-0.3,0-0.5-0.1-0.7-0.3c-0.4-0.5-0.1-1.1,0.2-1.3l3.3-2.6l0-3.5l-3.1,1.7l-0.8,4.1c0,0-0.2,0.8-0.9,0.8c-0.1,0-0.1,0-0.2,0
		C34,59.6,33.9,59,34,58.6l0.5-2.6l-1.9,1.1l0,0L32,57.3c0,0-0.3,0.1-0.6,0.1c-0.3,0-0.6-0.2-0.8-0.4c-0.4-0.6,0.1-1.1,0.3-1.3
		l2.4-1.3l0,0l0.1-0.1l-2.5-1c-0.1,0-0.2-0.1-0.3-0.2l1.3-1.3l3.6,1.5l3-1.7l-3-1.8l-2.7,1l3.5-3.5l0.1,0.9l3,1.8l0-3.5l-1.3-1
		l3.2-3.2l0,1.6l0,0l0,0.2l2.1-1.7c0,0,0.3-0.2,0.6-0.2c0.3,0,0.5,0.1,0.7,0.3c0.4,0.5,0.1,1.1-0.2,1.3l-3.3,2.6l0,3.6l3.1-1.7
		l0.8-4.1c0-0.1,0.3-0.9,1.1-0.8c0.7,0.1,0.8,0.8,0.8,1.1l-0.5,2.6L48.8,46.1L48.8,46.1z M48.3,30.4c0.5,0.5,0.5,1.2,0,1.7L20,60.4
		c-0.2,0.2-0.5,0.4-0.9,0.4c-0.3,0-0.6-0.1-0.9-0.4c-0.5-0.5-0.5-1.2,0-1.7l28.3-28.3C47.1,29.9,47.9,29.9,48.3,30.4z M33.9,28.7
		c0-0.7,0.6-1.3,1.3-1.3h0.3c0.7,0,1.3,0.6,1.3,1.3v8l-3,3V28.7z M32.5,28.7v12.4l-3,3V28.7c0-0.7,0.6-1.3,1.3-1.3h0.3
		C31.9,27.4,32.5,28,32.5,28.7z"/>
	<polygon points="32.2,0 0,27.3 4.4,31.7 32.2,7.5 60.8,32 65.2,27.3 	"/>
</g>
</svg>
