<?xml version="1.0" encoding="utf-8"?>
<!-- Generator: Adobe Illustrator 20.1.0, SVG Export Plug-In . SVG Version: 6.00 Build 0)  -->
<!DOCTYPE svg PUBLIC "-//W3C//DTD SVG 1.1//EN" "http://www.w3.org/Graphics/SVG/1.1/DTD/svg11.dtd">
<svg version="1.1" id="Calque_1" xmlns="http://www.w3.org/2000/svg" xmlns:xlink="http://www.w3.org/1999/xlink" x="0px" y="0px"
	 viewBox="0 0 65.2 65.2" enable-background="new 0 0 65.2 65.2" xml:space="preserve">
<g>
	<path d="M21.5,58.3c0,1.1-0.9,2-2,2H19c-1.1,0-2-0.9-2-2V36.1c-0.1,0-0.2,0.1-0.3,0.1h-0.4c-0.3,0-0.6-0.3-0.6-0.6v-3.3
		c0-0.3,0.3-0.6,0.6-0.6h0.4c0.1,0,0.2,0,0.3,0.1v-0.9c0-1.1,0.9-2,2-2h0.5c1.1,0,2,0.9,2,2V58.3z M28.2,58.3c0,1.1-0.9,2-2,2h-0.5
		c-1.1,0-2-0.9-2-2V30.8c0-1.1,0.9-2,2-2h0.5c1.1,0,2,0.9,2,2V58.3z M34.9,58.3c0,1.1-0.9,2-2,2h-0.5c-1.1,0-2-0.9-2-2V30.8
		c0-1.1,0.9-2,2-2h0.5c1.1,0,2,0.9,2,2V58.3z M41.6,58.3c0,1.1-0.9,2-2,2H39c-1.1,0-2-0.9-2-2V30.8c0-1.1,0.9-2,2-2h0.5
		c1.1,0,2,0.9,2,2V58.3z M49.5,56.8c0,0.3-0.3,0.6-0.6,0.6h-0.6v0.9c0,1.1-0.9,2-2,2h-0.5c-1.1,0-2-0.9-2-2V30.8c0-1.1,0.9-2,2-2
		h0.5c1.1,0,2,0.9,2,2v22.1h0.6c0.3,0,0.6,0.3,0.6,0.6V56.8z"/>
	<path d="M26.5,4.8c0.2,0.3,0.3,0.5,0.3,0.6c0,0,0,0.2-0.1,0.2c0,0-0.4,0-0.7,0l-1.3,0c-0.4,0.7-0.6,1.4-0.6,2.1
		c-0.1,2.6,2.4,5.7,2.5,9.5c0,1.6-0.5,3.3-1.9,5c-0.3,0.4-1,0.5-1.4,0.2c-0.4-0.3-0.5-1-0.2-1.4c1.1-1.4,1.4-2.6,1.4-3.8
		c0.1-2.9-2.4-5.9-2.5-9.5c0-0.7,0.1-1.4,0.4-2.1l-1.4,0c-0.3,0-0.6,0-0.6,0c0,0-0.1-0.1-0.1-0.2c0,0,0.1-0.4,0.3-0.6l2.7-4.7
		c0.1-0.1,0.3-0.1,0.4,0L26.5,4.8z"/>
	<path d="M34.3,4.8c0.2,0.3,0.3,0.5,0.3,0.6c0,0,0,0.2-0.1,0.2c0,0-0.4,0-0.7,0l-1.3,0C32.2,6.3,32,7,32,7.7
		c-0.1,2.6,2.4,5.7,2.5,9.5c0,1.6-0.5,3.3-1.9,5c-0.3,0.4-1,0.5-1.4,0.2c-0.4-0.3-0.5-1-0.2-1.4c1.1-1.4,1.4-2.6,1.4-3.8
		c0.1-2.9-2.4-5.9-2.5-9.5c0-0.7,0.1-1.4,0.4-2.1l-1.4,0c-0.3,0-0.6,0-0.6,0c0,0-0.1-0.1-0.1-0.2c0,0,0.1-0.4,0.3-0.6l2.7-4.7
		c0.1-0.1,0.3-0.1,0.4,0L34.3,4.8z"/>
	<path d="M42.2,4.8c0.2,0.3,0.3,0.5,0.3,0.6c0,0,0,0.2-0.1,0.2c0,0-0.4,0-0.7,0l-1.3,0c-0.4,0.7-0.6,1.4-0.6,2.1
		c-0.1,2.6,2.4,5.7,2.5,9.5c0,1.6-0.5,3.3-1.9,5c-0.3,0.4-1,0.5-1.4,0.2c-0.4-0.3-0.5-1-0.2-1.4c1.1-1.4,1.4-2.6,1.4-3.8
		c0.1-2.9-2.4-5.9-2.5-9.5c0-0.7,0.1-1.4,0.4-2.1l-1.4,0c-0.3,0-0.6,0-0.6,0c0,0-0.1-0.1-0.1-0.2c0,0,0.1-0.4,0.3-0.6l2.7-4.7
		c0.1-0.1,0.3-0.1,0.4,0L42.2,4.8z"/>
</g>
</svg>
