<?xml version="1.0" encoding="utf-8"?>
<!-- Generator: Adobe Illustrator 23.0.6, SVG Export Plug-In . SVG Version: 6.00 Build 0)  -->
<svg version="1.1" id="Layer_1" xmlns="http://www.w3.org/2000/svg" xmlns:xlink="http://www.w3.org/1999/xlink" x="0px" y="0px"
	 viewBox="0 0 100 100" style="enable-background:new 0 0 100 100;" xml:space="preserve">
<style type="text/css">
	.st0{fill-rule:evenodd;clip-rule:evenodd;}
</style>
<title>icon/waiting/default</title>
<desc>Created with Sketch.</desc>
<g>
	<path id="Fill-1" class="st0" d="M27.1,58c1.9,6,6,10.9,11.6,13.8c0.2,0.1,0.5,0.2,0.8,0.2c0.6,0,1.2-0.3,1.5-0.9
		c0.4-0.8,0.1-1.8-0.7-2.2c-4.8-2.5-8.4-6.7-10-11.8c-1.6-5.2-1.2-10.6,1.3-15.4c2.6-5.1,7.1-8.8,12.7-10.3c0.7-0.2,1.4-0.3,2.1-0.4
		l-3.2,4.8c-0.4,0.6-0.3,1.4,0.3,1.7l0.4,0.3c0.6,0.3,1.4,0.1,1.7-0.5l4.9-7.7l0.3-0.5c0.2-0.3,0.2-0.6,0.1-0.9
		c-0.1-0.3-0.3-0.6-0.6-0.7l-0.5-0.3l-8-4.1c-0.6-0.3-1.4-0.1-1.7,0.5L39.9,24c-0.4,0.6,0,1.3,0.6,1.6l4.3,2.2
		c-0.5,0.1-0.9,0.2-1.4,0.3c-6.4,1.7-11.7,6.1-14.8,12C25.7,45.6,25.2,52,27.1,58L27.1,58z M50.7,71.5c-0.2,0.3-0.2,0.6-0.1,0.9
		c0.1,0.3,0.3,0.6,0.6,0.7l0.5,0.3l8,4.1c0.6,0.3,1.2,0.1,1.5-0.5l0.2-0.4c0.4-0.6,0.2-1.3-0.4-1.6l-4.4-2.2h0.2
		c6.5-1.7,11.9-6.1,15-12c2.9-5.6,3.4-12,1.5-18c-1.9-6-6.2-10.9-11.8-13.8c-0.8-0.4-1.8-0.1-2.2,0.7c-0.4,0.8-0.1,1.8,0.7,2.2
		c4.8,2.5,8.5,6.7,10.2,11.8c1.6,5.2,1.2,10.6-1.3,15.4c-2.6,5.1-7.3,8.8-12.9,10.3c-0.3,0.1-0.5,0.1-0.8,0.2l3.2-4.9
		c0.4-0.6,0.4-1.4-0.2-1.7l-0.4-0.3c-0.6-0.3-1.4-0.1-1.7,0.5l-4.9,7.7L50.7,71.5z"/>
</g>
</svg>
