<?xml version="1.0" encoding="UTF-8"?>
<svg width="100px" height="100px" viewBox="0 0 100 100" version="1.1" xmlns="http://www.w3.org/2000/svg" xmlns:xlink="http://www.w3.org/1999/xlink">
    <!-- Generator: Sketch 57.1 (83088) - https://sketch.com -->
    <title>icon/cooling</title>
    <desc>Created with Sketch.</desc>
    <defs>
        <polygon id="path-1" points="-2.41613171e-15 0 85.7142857 0 85.7142857 90 -2.41613171e-15 90"></polygon>
    </defs>
    <g id="icon/cooling" stroke="none" stroke-width="1" fill="none" fill-rule="evenodd">
        <g id="cooling" transform="translate(7.000000, 5.000000)">
            <mask id="mask-2" fill="white">
                <use xlink:href="#path-1"></use>
            </mask>
            <g id="Clip-2"></g>
            <path d="M83.8069735,52.4935293 C83.4025343,50.9935924 81.8622637,50.1053722 80.3654609,50.5087644 L72.62631,52.5825407 C70.8800401,52.9575249 69.0600639,52.7207925 67.4668761,51.9121144 L57.928538,46.3915134 C57.151788,46.1377362 56.72656,45.3025441 56.9798069,44.5241678 C57.1253294,44.0734291 57.4787412,43.7192774 57.928538,43.5734502 L67.4668761,38.0490615 C69.0600639,37.2403834 70.88193,37.0036509 72.62631,37.3786352 L80.3692407,39.4524115 C81.8660436,39.8558036 83.4044242,38.9675834 83.8088634,37.4676466 L85.6212799,30.6686903 C86.0162695,29.1630718 85.1166759,27.6214701 83.6142034,27.2256534 C83.6085337,27.2237595 83.6009741,27.2218657 83.5971943,27.2199718 L79.3808217,26.11017 C77.8859088,25.7029902 76.9995445,24.1613884 77.4002039,22.6614515 L78.5095766,18.4381444 C78.8894471,16.9628277 78.0314313,15.4534216 76.5724265,15.0273031 L69.8254745,13.2110917 C68.3286717,12.8076996 66.790291,13.6959198 66.3858518,15.1958567 L64.3164086,22.9549998 C63.7664469,24.6670489 62.6381751,26.1328963 61.1262531,27.1025525 L51.586025,32.6250473 C50.2536438,33.399636 49.1556104,32.7670868 49.1556104,31.2179096 L49.1556104,20.1407243 C49.2765641,18.3794348 49.9833877,16.7109444 51.1645768,15.4003935 L56.7813671,9.77184252 C57.8680611,8.6734039 57.8680611,6.90264509 56.7813671,5.80231261 L51.8090335,0.819567779 C50.7128901,-0.27318926 48.9420514,-0.27318926 47.8477978,0.819567779 L44.7842658,3.87815117 C43.6900122,4.97090821 41.9172836,4.97090821 40.8230301,3.87815117 L37.7594981,0.819567779 C36.6652445,-0.27318926 34.8944058,-0.27318926 33.8001522,0.819567779 L28.8259287,5.80231261 C27.735455,6.89885737 27.735455,8.67529776 28.8259287,9.77184252 L34.4427191,15.4003935 C35.6220183,16.7336707 36.3212822,18.4248874 36.423337,20.2032217 L36.423337,31.2633622 C36.423337,32.8163272 35.3271935,33.4469825 33.9948122,32.6723938 L24.5868773,27.0874016 C23.0862947,26.1139577 21.9693623,24.6481103 21.4269603,22.9398489 L19.357517,15.1807058 C18.9530779,13.6826628 17.4146972,12.7944426 15.9178944,13.1959408 L9.14448368,15.0121523 C7.64579097,15.4193321 6.75942668,16.9647216 7.16386582,18.4665523 L8.27134871,22.6917533 C8.67578785,24.1916902 7.78753366,25.7351858 6.29073085,26.1404718 L2.07624818,27.2502736 C0.581335271,27.6574534 -0.303139118,29.1990552 0.0956303182,30.698992 L1.90804685,37.4979483 C2.312486,38.9959913 3.85086667,39.8842115 5.34766948,39.4827133 L13.0906002,37.4089369 C14.8368701,37.0396343 16.6568463,37.2763667 18.2481442,38.0850448 L27.7883722,43.562087 C28.5651222,43.8158642 28.9903503,44.6491625 28.7371033,45.4275388 C28.5915808,45.8782774 28.2381691,46.2324292 27.7883722,46.3801502 L18.2481442,51.9007512 C16.6568463,52.7094293 14.8349802,52.9442679 13.0906002,52.5692837 L5.35144928,50.4974012 C3.85464647,50.0921152 2.3143759,50.9822293 1.90993676,52.4821662 L0.0994101233,59.2811224 C-0.29746941,60.7867409 0.602124199,62.3283427 2.10459672,62.7241593 C2.11026643,62.7260532 2.11782604,62.7260532 2.12349574,62.7279471 L6.33797841,63.8396427 C7.83478122,64.2449287 8.71925561,65.7884243 8.32048618,67.2883612 L7.19599416,71.5230314 C6.81612375,72.9983481 7.67413951,74.5077543 9.13314427,74.9338727 L15.9178944,76.7500842 C17.4165871,77.1534763 18.9568577,76.2652561 19.3631867,74.7653192 L21.43263,67.0061761 C21.9712522,65.3017024 23.0825149,63.8339611 24.5793177,62.8586234 L34.1176559,57.3380224 C35.4519271,56.5596461 36.5480705,57.1940891 36.5480705,58.7432663 L36.5480705,69.7996191 C36.4497956,71.5798472 35.7524216,73.2729578 34.5674527,74.6024473 L28.9506623,80.2309983 C27.8639684,81.3294369 27.8639684,83.1001957 28.9506623,84.2005282 L33.9229959,89.183273 C35.0210293,90.2722423 36.7880881,90.2722423 37.8842316,89.183273 L40.9477636,86.1246896 C42.0439071,85.0376142 43.810966,85.0376142 44.9089994,86.1246896 L47.9706415,89.183273 C49.0686749,90.2722423 50.8357337,90.2722423 51.9318772,89.183273 L56.9023209,84.2611317 C57.9927947,83.1645869 57.9927947,81.3900404 56.9023209,80.2934956 L51.2855305,74.6649447 C50.1024515,73.3335613 49.4050775,71.6404507 49.3049127,69.8621165 L49.3049127,58.7527356 C49.3049127,57.1997706 50.4010562,56.5691154 51.7353273,57.3455978 L61.1205834,62.8680927 C62.621166,63.8415366 63.7380984,65.3073839 64.2805004,67.0156454 L66.3499437,74.7747885 C66.7562727,76.2728315 68.2946534,77.1591579 69.7914562,76.7595535 L76.562977,74.943342 C78.0616697,74.5361622 78.948034,72.9907727 78.5435949,71.488942 L77.436112,67.263741 C77.0335628,65.7638041 77.919927,64.2203085 79.4167299,63.8150225 L83.6331024,62.7052207 C85.1261254,62.2980409 86.0124897,60.7564391 85.6118304,59.2565023 L83.8069735,52.4935293" id="Fill-1" fill="#575757" mask="url(#mask-2)"></path>
        </g>
    </g>
</svg>