<?xml version="1.0" encoding="UTF-8"?>
<svg width="100px" height="100px" viewBox="0 0 100 100" version="1.1" xmlns="http://www.w3.org/2000/svg" xmlns:xlink="http://www.w3.org/1999/xlink">
    <!-- Generator: Sketch 57.1 (83088) - https://sketch.com -->
    <title>icon/DHW default Copy</title>
    <desc>Created with Sketch.</desc>
    <defs>
        <polygon id="path-1" points="0.1719 0.350186127 73.3899 0.350186127 73.3899 46 0.1719 46"></polygon>
    </defs>
    <g id="icon/DHW-default-Copy" stroke="none" stroke-width="1" fill="none" fill-rule="evenodd">
        <g id="Page-1" transform="translate(13.000000, 9.000000)">
            <path d="M54.7503,0.5986 C54.0483,-0.1574 52.8673,-0.2024 52.1103,0.4976 C50.9813,1.5436 46.4313,7.6516 50.0903,16.3446 C52.8023,22.7876 49.5043,27.7196 49.3833,27.9506 C48.8973,28.8566 49.2343,29.9856 50.1393,30.4756 C50.4223,30.6286 50.7273,30.7016 51.0273,30.7016 C51.6903,30.7016 52.3323,30.3466 52.6713,29.7236 C52.8163,29.4556 56.9723,23.0676 53.5333,14.8956 C50.5003,7.6896 54.6623,3.2386 54.6493,3.2386 C55.4053,2.5366 55.4513,1.3546 54.7503,0.5986" id="Fill-1" fill="#FFFFFF"></path>
            <path d="M61.165,0.4987 C60.036,1.5457 55.489,7.6567 59.145,16.3447 C61.857,22.7877 58.56,27.7197 58.439,27.9507 C57.952,28.8567 58.289,29.9857 59.195,30.4757 C59.477,30.6287 59.783,30.7017 60.082,30.7017 C60.745,30.7017 61.388,30.3467 61.726,29.7237 C61.871,29.4557 66.027,23.0677 62.588,14.8957 C59.556,7.6907 63.718,3.2367 63.706,3.2367 C64.462,2.5347 64.505,1.3537 63.804,0.5977 C63.103,-0.1583 61.92,-0.2043 61.165,0.4987 Z" id="Fill-3" fill="#FFFFFF"></path>
            <g id="Group-7" transform="translate(0.000000, 36.635500)">
                <mask id="mask-2" fill="white">
                    <use xlink:href="#path-1"></use>
                </mask>
                <g id="Clip-6"></g>
                <path d="M68.7239,17.3713 C69.7869,17.2093 70.5109,16.4083 70.3309,15.5943 C70.1519,14.7783 70.5759,14.0233 71.2739,13.9183 C71.9709,13.8103 72.2839,12.8833 71.9659,11.8533 L69.8809,1.9473 C69.5639,0.9183 68.4349,0.2113 67.3709,0.3733 L2.1069,10.7863 C1.0429,10.9493 0.1719,11.9633 0.1719,13.0393 L0.1719,46.0003 L26.5149,46.0003 L26.5149,23.1663 C26.5149,22.0903 27.3849,21.0753 28.4489,20.9113 L48.1919,17.4273 C49.2549,17.2633 50.2719,17.7953 50.4519,18.6103 C50.6309,19.4263 51.6489,19.9603 52.7119,19.7973 L52.9479,19.7623 L57.2399,46.0003 L60.0379,46.0003 L55.6789,19.3523 L59.4449,18.7753 L63.8979,46.0003 L66.6969,46.0003 L62.1759,18.3653 L65.9759,17.7823 L70.5919,46.0003 L73.3899,46.0003 L68.7069,17.3733 L68.7239,17.3713 Z" id="Fill-5" fill="#FFFFFF" mask="url(#mask-2)"></path>
            </g>
            <path d="M1.9564,30.4531 C0.8804,30.4531 0.0004,31.3331 0.0004,32.4091 L0.0004,43.7571 L26.3424,39.7431 L26.3424,32.4091 C26.3424,31.3331 25.4624,30.4531 24.3864,30.4531 L1.9564,30.4531 Z" id="Fill-8" fill="#FFFFFF"></path>
            <path d="M45.598,0.5977 C44.898,-0.1583 43.714,-0.2043 42.959,0.4987 C41.83,1.5457 37.283,7.6567 40.939,16.3447 C43.651,22.7877 40.354,27.7197 40.233,27.9507 C39.746,28.8567 40.083,29.9857 40.989,30.4757 C41.272,30.6287 41.577,30.7017 41.877,30.7017 C42.54,30.7017 43.182,30.3467 43.521,29.7237 C43.665,29.4557 47.822,23.0677 44.383,14.8957 C41.35,7.6907 45.513,3.2367 45.5,3.2367 L45.499,3.2367 C46.256,2.5347 46.3,1.3537 45.598,0.5977" id="Fill-10" fill="#FFFFFF"></path>
        </g>
    </g>
</svg>