<?xml version="1.0" encoding="UTF-8"?>
<svg width="100px" height="100px" viewBox="0 0 100 100" version="1.1" xmlns="http://www.w3.org/2000/svg" xmlns:xlink="http://www.w3.org/1999/xlink">
    <!-- Generator: Sketch 57.1 (83088) - https://sketch.com -->
    <title>icon/DHW</title>
    <desc>Created with Sketch.</desc>
    <defs>
        <polygon id="path-1" points="0.18639759 0.379719897 79.5794096 0.379719897 79.5794096 49.8795181 0.18639759 49.8795181"></polygon>
    </defs>
    <g id="icon/DHW" stroke="none" stroke-width="1" fill="none" fill-rule="evenodd">
        <g id="Page-1" transform="translate(10.000000, 5.000000)">
            <path d="M59.3677952,0.649084337 C58.6065904,-0.170674699 57.325988,-0.21946988 56.5051446,0.539566265 C55.2809277,1.67378313 50.3471928,8.29691566 54.3147831,17.7230602 C57.255506,24.7094458 53.6793614,30.0573976 53.5481566,30.3078795 C53.0211687,31.2902892 53.3865904,32.514506 54.3679157,33.0458313 C54.6747831,33.2117349 55.005506,33.2908916 55.3308072,33.2908916 C56.0497229,33.2908916 56.7458675,32.9059518 57.1134578,32.2304096 C57.2706867,31.9398072 61.7771928,25.0130602 58.0481566,16.1518554 C54.7593614,8.33812048 59.2723735,3.51173494 59.2582771,3.51173494 C60.0780361,2.75053012 60.1279157,1.46884337 59.3677952,0.649084337" id="Fill-1" fill="#575757"></path>
            <path d="M66.323494,0.540759036 C65.0992771,1.67606024 60.1687952,8.30244578 64.1331325,17.7231687 C67.0738554,24.7095542 63.4987952,30.057506 63.3675904,30.307988 C62.8395181,31.2903976 63.2049398,32.5146145 64.1873494,33.0459398 C64.4931325,33.2118434 64.8249398,33.291 65.1491566,33.291 C65.8680723,33.291 66.5653012,32.9060602 66.9318072,32.2305181 C67.0890361,31.9399157 71.5955422,25.0131687 67.866506,16.1519639 C64.5787952,8.33931325 69.0918072,3.5096747 69.0787952,3.5096747 C69.8985542,2.74846988 69.9451807,1.46786747 69.1850602,0.648108434 C68.4249398,-0.171650602 67.1421687,-0.22153012 66.323494,0.540759036 Z" id="Fill-3" fill="#575757"></path>
            <g id="Group-7" transform="translate(0.000000, 39.725241)">
                <mask id="mask-2" fill="white">
                    <use xlink:href="#path-1"></use>
                </mask>
                <g id="Clip-6"></g>
                <path d="M74.5198916,18.8363494 C75.6725422,18.6606867 76.4576024,17.7921325 76.2624217,16.9094819 C76.0683253,16.0246627 76.5280843,15.205988 77.2849518,15.0921325 C78.0407349,14.9750241 78.3801325,13.9698434 78.0353133,12.8529759 L75.7744699,2.11153012 C75.4307349,0.995746988 74.2065181,0.229120482 73.0527831,0.404783133 L2.28459036,11.695988 C1.13085542,11.8727349 0.18639759,12.972253 0.18639759,14.139 L0.18639759,49.8798434 L28.7510964,49.8798434 L28.7510964,25.1200843 C28.7510964,23.9533373 29.6944699,22.8527349 30.8482048,22.6749036 L52.2562771,18.8970723 C53.4089277,18.719241 54.5116988,19.2961084 54.7068795,20.1798434 C54.9009759,21.0646627 56.0048313,21.6436988 57.1574819,21.4669518 L57.4133855,21.429 L62.0673614,49.8798434 L65.1013373,49.8798434 L60.3747108,20.9844217 L64.4583253,20.358759 L69.2868795,49.8798434 L72.3219398,49.8798434 L67.4196506,19.9141807 L71.5401325,19.282012 L76.5454337,49.8798434 L79.5794096,49.8798434 L74.5014578,18.8385181 L74.5198916,18.8363494 Z" id="Fill-5" fill="#575757" mask="url(#mask-2)"></path>
            </g>
            <path d="M2.12139759,33.0214337 C0.954650602,33.0214337 0.00043373494,33.9756506 0.00043373494,35.1423976 L0.00043373494,47.4474578 L28.5640482,43.0949277 L28.5640482,35.1423976 C28.5640482,33.9756506 27.6098313,33.0214337 26.4430843,33.0214337 L2.12139759,33.0214337 Z" id="Fill-8" fill="#575757"></path>
            <path d="M49.4436145,0.648108434 C48.6845783,-0.171650602 47.4007229,-0.22153012 46.5820482,0.540759036 C45.3578313,1.67606024 40.4273494,8.30244578 44.3916867,17.7231687 C47.3324096,24.7095542 43.7573494,30.057506 43.6261446,30.307988 C43.0980723,31.2903976 43.463494,32.5146145 44.4459036,33.0459398 C44.7527711,33.2118434 45.083494,33.291 45.4087952,33.291 C46.1277108,33.291 46.8238554,32.9060602 47.1914458,32.2305181 C47.3475904,31.9399157 51.8551807,25.0131687 48.1261446,16.1519639 C44.8373494,8.33931325 49.3514458,3.5096747 49.3373494,3.5096747 L49.3362651,3.5096747 C50.1571084,2.74846988 50.2048193,1.46786747 49.4436145,0.648108434" id="Fill-10" fill="#575757"></path>
        </g>
    </g>
</svg>