<?xml version="1.0" encoding="UTF-8"?>
<svg width="100px" height="100px" viewBox="0 0 100 100" version="1.1" xmlns="http://www.w3.org/2000/svg" xmlns:xlink="http://www.w3.org/1999/xlink">
    <!-- Generator: Sketch 57.1 (83088) - https://sketch.com -->
    <title>icon/download</title>
    <desc>Created with Sketch.</desc>
    <defs>
        <polygon id="path-1" points="0.06 0.786657499 85.005 0.786657499 85.005 72.94 0.06 72.94"></polygon>
    </defs>
    <g id="icon/download" stroke="none" stroke-width="1" fill="none" fill-rule="evenodd">
        <g id="Download" transform="translate(9.000000, 14.000000)">
            <mask id="mask-2" fill="white">
                <use xlink:href="#path-1"></use>
            </mask>
            <g id="Clip-2"></g>
            <path d="M81.006,48.411 C78.819,48.397 77.028,49.489 77.005,50.849 C77.005,50.866 77.005,50.883 77.005,50.901 L77.005,68.024 L8.005,68.024 L8.005,50.838 C8.005,49.463 6.213,48.348 4.003,48.348 C1.792,48.348 -0.000204712356,49.463 -0.000204712356,50.838 L-0.000204712356,70.511 C-0.022,71.871 1.732,72.985 3.918,73.0001331 C3.945,73.0001331 3.973,73.0001331 4,73.0001331 L81.006,73.0001331 C83.191,73.014 84.982,71.922 85.006,70.562 C85.006,70.545 85.006,70.528 85.006,70.511 L85.006,50.838 C84.984,49.485 83.205,48.399 81.03,48.411 C81.022,48.411 81.013,48.411 81.006,48.411" id="Fill-1" fill="#707070" mask="url(#mask-2)"></path>
            <path d="M45.187,1.959 C45.076,1.839 44.944,1.739 44.798,1.665 C44.698,1.665 44.698,1.565 44.504,1.471 C43.89,1.001 43.132,0.76 42.359,0.789 C41.825,0.792 41.296,0.892 40.796,1.083 C40.31,1.283 39.851,1.546 39.431,1.864 L19.914,21.575 C19.152,22.358 18.731,23.41 18.7437076,24.503 C18.76,25.504 19.183,26.454 19.914,27.137 C20.648,27.911 21.676,28.337 22.742,28.307 C23.812,28.357 24.849,27.928 25.57,27.137 L38.257,14.351 L38.257,54.951 C38.257,57.161 40.049,58.953 42.26,58.953 C44.47,58.953 46.262,57.161 46.262,54.951 L46.262,14.351 L59.242,27.137 C59.976,27.911 61.004,28.337 62.07,28.307 C63.14,28.357 64.176,27.928 64.898,27.137 C65.66,26.354 66.081,25.301 66.0682924,24.209 C66.052,23.208 65.63,22.257 64.898,21.575 L45.187,1.959" id="Fill-3" fill="#707070" mask="url(#mask-2)"></path>
        </g>
    </g>
</svg>