<?xml version="1.0" encoding="UTF-8"?>
<svg width="100px" height="100px" viewBox="0 0 100 100" version="1.1" xmlns="http://www.w3.org/2000/svg" xmlns:xlink="http://www.w3.org/1999/xlink">
    <!-- Generator: Sketch 57.1 (83088) - https://sketch.com -->
    <title>icon/empty copy</title>
    <desc>Created with Sketch.</desc>
    <defs>
        <polygon id="path-1" points="-2.53693829e-15 0 90 0 90 90 -2.53693829e-15 90"></polygon>
    </defs>
    <g id="icon/empty-copy" stroke="none" stroke-width="1" fill="none" fill-rule="evenodd">
        <g id="empty" transform="translate(5.000000, 5.000000)">
            <mask id="mask-2" fill="white">
                <use xlink:href="#path-1"></use>
            </mask>
            <g id="Clip-2"></g>
            <path d="M16.3712191,22.3522804 L67.4057368,73.3867148 C67.4791592,73.470059 67.5565504,73.54745 67.6379103,73.6208723 C51.8282827,86.1244873 28.8768389,83.4455665 16.3712191,67.6359647 C5.87776976,54.3663767 5.87578537,35.6258371 16.3712191,22.3562492 L16.3712191,22.3522804 Z M44.9742029,8.45959532 C65.1435333,8.47745479 81.4829928,24.8426846 81.4651479,45.0139664 C81.4571957,53.2114642 78.6929418,61.1708357 73.6129058,67.6061989 C73.5494053,67.5387298 73.4878893,67.4752294 73.4184357,67.4117291 L22.3859023,16.3257007 C28.8073853,11.219876 36.7687542,8.44173585 44.9742029,8.44570037 L44.9742029,8.45959532 Z M44.9742029,-1.05902862e-13 C20.11973,0.0140492923 -0.0158657318,20.1734248 1.87774889e-13,45.0258727 C0.0158844931,69.880305 20.1733085,90.0138835 45.0277814,90 C69.88027,89.9861021 90.0158657,69.8247422 90,44.9722943 C89.9940375,33.0342292 85.2434101,21.5882919 76.7958658,13.1546522 C68.3641967,4.70513736 56.9103031,-0.0315915814 44.9742029,-1.05902862e-13 L44.9742029,-1.05902862e-13 Z" id="Fill-1" fill="#FFFFFF" mask="url(#mask-2)"></path>
        </g>
    </g>
</svg>