<?xml version="1.0" encoding="UTF-8"?>
<svg width="100px" height="100px" viewBox="0 0 100 100" version="1.1" xmlns="http://www.w3.org/2000/svg" xmlns:xlink="http://www.w3.org/1999/xlink">
    <!-- Generator: Sketch 57.1 (83088) - https://sketch.com -->
    <title>icon/fan coil</title>
    <desc>Created with Sketch.</desc>
    <defs>
        <polygon id="path-1" points="0 0.911921182 89.0880788 0.911921182 89.0880788 89.8699507 0 89.8699507"></polygon>
    </defs>
    <g id="icon/fan-coil" stroke="none" stroke-width="1" fill="none" fill-rule="evenodd">
        <g id="Fan-coil" transform="translate(4.000000, 5.000000)">
            <g id="Group-3">
                <mask id="mask-2" fill="white">
                    <use xlink:href="#path-1"></use>
                </mask>
                <g id="Clip-2"></g>
                <path d="M44.5440394,7.27349754 C23.4565517,7.27349754 6.36374384,24.3684729 6.36374384,45.4559606 C6.36374384,66.5412808 23.4565517,83.6362562 44.5440394,83.6362562 C65.6293596,83.6362562 82.724335,66.5412808 82.724335,45.4559606 C82.7004926,24.3793103 65.6206897,7.2973399 44.5440394,7.27349754 Z M44.5440394,90 C19.9430542,90 0,70.0569458 0,45.4559606 C0,20.8549754 19.9430542,0.909753695 44.5440394,0.909753695 C69.1450246,0.909753695 89.0880788,20.8549754 89.0880788,45.4559606 C89.0599015,70.0439409 69.1341872,89.9696552 44.5440394,90 L44.5440394,90 Z" id="Fill-1" fill="#575757" mask="url(#mask-2)"></path>
            </g>
            <path d="M44.0171248,49.6966381 C41.9646926,49.6966381 40.3023742,48.0342647 40.3023742,45.9817645 C40.3023742,43.9292644 41.9646926,42.266891 44.0171248,42.266891 C46.0673897,42.266891 47.7318754,43.9292644 47.7318754,45.9817645 C47.7318754,48.0320973 46.0717243,49.6944707 44.0214594,49.6966381 C44.0214594,49.6966381 44.0171248,49.6966381 44.0171248,49.6966381 Z M79.8837568,41.7618936 C77.066268,24.982109 59.2055565,31.4972256 48.5922931,37.9451536 C49.1969695,34.6377458 51.3469302,31.8201638 54.3768143,30.365858 C58.3429715,28.2158262 64.6324734,25.0211216 62.5843758,19.4639829 C61.5440722,16.7807779 59.6476855,14.5158754 57.1921357,13.0182222 C55.6706918,12.0364033 53.9932023,11.3255056 52.2333555,10.9158726 C48.1653352,9.90587777 43.9456039,9.63929116 39.7822225,10.1269496 C22.9964913,12.9423642 29.5113923,30.8080016 35.9677761,41.4172816 C32.6583105,40.8169199 29.8386544,38.6647207 28.3865641,35.632569 C26.2366034,31.6662805 23.0420046,25.3765704 17.4850499,27.4247358 C14.8019336,28.4650738 12.5371061,30.3615233 11.0395025,32.8171544 C10.057716,34.3364813 9.34684194,36.0161936 8.93505512,37.7760987 C7.92726106,41.8464211 7.66068328,46.0641246 8.15049286,50.2276439 C10.9658143,67.0095959 28.8286931,60.4944793 39.4376219,54.0378817 C38.8372801,57.3474569 36.6851521,60.165039 33.6531008,61.6193448 C29.6869435,63.7693766 23.3974417,66.9640811 25.4455393,72.5190524 C26.4880101,75.2000901 28.3822295,77.4649926 30.8377793,78.9604784 C32.3570559,79.9444648 34.0345454,80.6553624 35.7965595,81.0649955 C39.8667471,82.0706555 44.0843111,82.3372421 48.2476926,81.8539184 C65.0269218,79.034169 58.5141881,61.1728664 52.0643062,50.561419 C55.3716045,51.1639481 58.1890933,53.3139799 59.6433509,56.3461316 C61.7954789,60.3124202 64.9900777,66.6021302 70.5448652,64.5517974 C73.2236468,63.5114595 75.4841397,61.6171774 76.9752414,59.1637137 C77.9613625,57.6443867 78.6722366,55.9668417 79.0818561,54.2047693 C80.0918175,50.1387817 80.3605626,45.9232455 79.8750876,41.7618936 L79.8837568,41.7618936 L79.8837568,41.7618936 Z" id="Fill-4" fill="#575757"></path>
        </g>
    </g>
</svg>