<?xml version="1.0" encoding="UTF-8"?>
<svg width="100px" height="100px" viewBox="0 0 100 100" version="1.1" xmlns="http://www.w3.org/2000/svg" xmlns:xlink="http://www.w3.org/1999/xlink">
    <!-- Generator: Sketch 57.1 (83088) - https://sketch.com -->
    <title>icon/heating&amp;cooling</title>
    <desc>Created with Sketch.</desc>
    <g id="icon/heating&amp;cooling" stroke="none" stroke-width="1" fill="none" fill-rule="evenodd">
        <g id="Heating-&amp;-cooling" transform="translate(5.000000, 6.000000)" fill="#575757">
            <polygon id="Fill-1" points="74.9453875 42.4933018 86.4768223 33.0553056 84.6232172 30.6797951 70.1965917 42.4933018 50.5658324 42.4933018 64.4460523 28.2984624 82.8113514 26.2140684 82.4888203 23.1981017 67.8079645 24.8691103 77.4099044 15.0468403 75.3077607 12.8964599 65.7058207 22.7187299 67.3298596 7.70876431 64.3796488 7.3710692 62.3420113 26.1597266 48.4674832 40.346803 48.4674832 20.2617068 60.015993 5.50210142 57.691872 3.60596276 48.4674832 15.4039432 48.4674832 0 45.4945055 0 45.4945055 88.021978 48.4674832 88.021978 48.4674832 72.6219164 57.6861803 84.4296007 60.0084041 82.5295805 48.4674832 67.7583304 48.4674832 47.6732343 62.3533948 61.8797184 64.3910323 80.6625535 67.3393458 80.3248584 65.7058207 65.312952 75.3077607 75.135222 77.4099044 72.9848416 67.8079645 63.1606309 82.4831286 64.8335802 82.8113514 61.8156728 64.4460523 59.7312788 50.5601407 45.5267355 70.1871055 45.5267355 84.6194227 57.3344198 86.474925 54.9627909 74.9415931 45.5267355 89.9981028 45.5267355 90 42.4933018"></polygon>
            <path d="M23.7300316,44.5074369 C23.7319283,34.4417859 31.6982086,26.2816548 41.5270811,26.2816548 L41.5270811,1.97802198 C37.714647,16.1538462 34.0558483,16.9463559 25.370706,5.32093694 C27.4419389,19.8192038 24.4564805,21.8975995 12.1751317,14.4328568 C19.458588,27.0236615 17.4328767,30.0790974 3.26238145,27.952141 C14.627608,36.8659335 13.8423604,40.5915063 0,44.5074369 C13.8423604,48.4097706 14.627608,52.1547677 3.26427819,61.0491358 C17.4214963,58.9280068 19.4510011,61.9853851 12.1789252,74.5625928 C24.4659642,67.1056198 27.4476291,69.1781882 25.3744995,83.6919945 C34.0786091,72.0588058 37.7165437,72.8590853 41.5384615,87.032967 L41.5384615,62.7312767 C31.7114858,62.7293342 23.7433087,54.5711455 23.741412,44.5074369 L23.7300316,44.5074369" id="Fill-3"></path>
        </g>
    </g>
</svg>