<?xml version="1.0" encoding="UTF-8"?>
<svg width="100px" height="100px" viewBox="0 0 100 100" version="1.1" xmlns="http://www.w3.org/2000/svg" xmlns:xlink="http://www.w3.org/1999/xlink">
    <!-- Generator: Sketch 57.1 (83088) - https://sketch.com -->
    <title>icon/heatpump</title>
    <desc>Created with Sketch.</desc>
    <g id="icon/heatpump" stroke="none" stroke-width="1" fill="none" fill-rule="evenodd">
        <g id="heat-pump" transform="translate(9.000000, 11.000000)" fill="#575757" fill-rule="nonzero">
            <polygon id="Path" points="60.3259912 64 60 64.3584906 60 66.6509434 60.3259912 67 73.6740088 67 74 66.6509434 74 64.3584906 73.6740088 64"></polygon>
            <path d="M80.4798488,8.68270588 L65.3409316,8.68270588 C65.3458258,7.68385445 66.1877039,6.87528879 67.2277074,6.87058824 L82,6.87058824 L82,0 L67.2277074,0 C62.2388982,0.00945053258 58.1971189,3.89129983 58.187279,8.68270588 L1.50352444,8.68270588 C0.672400902,8.68742926 0.000594369008,9.33586704 0.000594369008,10.1341176 L0.000594369008,71.5056471 C-0.0107936386,71.8964848 0.14185603,72.2754602 0.424638252,72.5567527 C0.707420474,72.8380452 1.09641212,72.9978577 1.50352444,73 L80.4798488,73 C81.3144666,73 81.9910579,72.3501808 81.9910579,71.5485882 L81.9910579,10.1341176 C81.9910579,9.33252506 81.3144666,8.68270588 80.4798488,8.68270588 Z M33.426699,67.9415294 C21.9339142,67.9415245 11.5732896,61.2909995 7.17770155,51.0921962 C2.78211345,40.8933929 5.21758287,29.1556851 13.3480468,21.3543108 C21.4785108,13.5529365 33.702101,11.2249267 44.3169318,15.4562182 C54.9317625,19.6875096 61.8464943,29.644451 61.8356546,40.6824706 C61.815935,55.7388726 49.1123583,67.9397789 33.4356411,67.9587059 L33.426699,67.9415294 Z M77.4574306,68.1991765 C77.4574306,68.8062998 76.9449827,69.2984706 76.3128462,69.2984706 L58.7238029,69.2984706 C58.0916664,69.2984706 57.5791836,68.8062998 57.5791836,68.1991765 L57.5791836,62.1874118 C57.5768348,61.8943757 57.6963714,61.6125545 57.9112816,61.4045357 C58.1261917,61.1965168 58.4186846,61.0795294 58.7238029,61.0795294 L76.3217883,61.0795294 C76.6269066,61.0795294 76.9193995,61.1965168 77.1343096,61.4045357 C77.3492198,61.6125545 77.4687564,61.8943757 77.4664077,62.1874118 L77.4574306,68.1991765 Z" id="Shape"></path>
            <path d="M53.1507241,42.3071687 C52.033211,40.610945 49.9998461,39.6973129 47.9401792,39.9659654 C45.3681024,40.2988884 42.7538837,40.1498566 40.2399542,39.5269898 C39.960546,38.2996658 39.3464652,37.1672519 38.4616112,36.2475836 C38.6974603,35.6923638 39.0247757,35.1778491 39.4308081,34.72408 C41.0559146,32.9283468 41.950362,30.6214699 41.9471634,28.2341266 C41.9514017,24.5078146 38.9279366,21.4369733 35.0827596,21.2621608 L29.5610047,21.0039399 C27.4953386,20.9259822 25.5690761,22.0102148 24.6172699,23.7866126 C23.6654637,25.5630105 23.8594552,27.7117919 25.1151473,29.3014399 C26.6461395,31.2185489 27.7922245,33.3965432 28.4939989,35.7225343 C27.4084056,36.6291612 26.625434,37.8274739 26.244395,39.1654804 C25.7241556,39.2106812 25.1998789,39.1816806 24.6883449,39.0794068 C22.2704424,38.6232961 19.7637179,39.0267043 17.6283234,40.215579 C14.2944606,42.0640335 13.0431336,46.1181389 14.7829746,49.4340671 L17.3171133,54.2025474 C18.2180868,55.9240675 20.0450282,57.0064934 22.0386139,56.9999707 L22.2875819,56.9999707 C24.3662103,56.9250951 26.2051356,55.6742925 26.9824074,53.8066086 C27.9369754,51.5510961 29.3215012,49.4896225 31.0637045,47.7298088 C31.7508192,47.9267221 32.4633458,48.0281546 33.1799326,48.0310666 C33.828829,48.0319947 34.4748788,47.9480304 35.100543,47.781453 C35.4580725,48.2386063 35.7400438,48.7467654 35.9363642,49.2877419 C36.7282189,51.5472982 38.3393123,53.4524224 40.4711388,54.6501304 C41.5708314,55.2578352 42.8149089,55.5781889 44.081175,55.5797258 C46.5339138,55.5815916 48.8190291,54.3750248 50.1453245,52.377786 L53.1418324,47.876134 C54.2828225,46.1850312 54.2863085,44.0016777 53.1507241,42.3071687 Z M33.1710409,43.5380368 C31.7370994,43.5380368 30.5746602,42.4127565 30.5746602,41.0246713 C30.5746602,39.6365861 31.7370994,38.5113207 33.1710409,38.5113207 C34.6049824,38.5113207 35.767437,39.6365861 35.767437,41.0246713 C35.7697945,41.6919549 35.4970101,42.3325709 35.009579,42.8044145 C34.5221478,43.276258 33.8603686,43.540319 33.1710409,43.5380368 Z" id="Shape"></path>
        </g>
    </g>
</svg>