<?xml version="1.0" encoding="UTF-8"?>
<svg width="100px" height="100px" viewBox="0 0 100 100" version="1.1" xmlns="http://www.w3.org/2000/svg" xmlns:xlink="http://www.w3.org/1999/xlink">
    <!-- Generator: Sketch 57.1 (83088) - https://sketch.com -->
    <title>icon/heating default</title>
    <desc>Created with Sketch.</desc>
    <defs>
        <polygon id="path-1" points="0 0.243958021 38.8966623 0.243958021 38.8966623 90 0 90"></polygon>
    </defs>
    <g id="icon/heating-default" stroke="none" stroke-width="1" fill="none" fill-rule="evenodd">
        <g id="Heating" transform="translate(29.000000, 5.000000)">
            <g id="Group-3">
                <mask id="mask-2" fill="white">
                    <use xlink:href="#path-1"></use>
                </mask>
                <g id="Clip-2"></g>
                <path d="M10.2914483,58.2091754 L11.9641034,56.9030285 L11.9641034,12.0250075 C11.9680345,7.99970015 15.2091724,4.73631184 19.2070345,4.73036034 C23.2402759,4.72245877 26.5423448,7.96209895 26.6347241,12.0250075 L26.6347241,56.8951124 L28.3073793,58.2032384 C32.1971379,61.0846777 34.4771379,65.670045 34.4378276,70.5324738 C34.4260345,74.6032984 32.8202069,78.503928 29.9662759,81.3873463 C27.0848276,84.2232684 23.2245517,85.8302249 19.1952414,85.8761895 C11.9896552,85.9311544 5.75896552,80.8332234 4.33986207,73.7206597 C3.26865517,67.8350825 5.56437931,61.8426387 10.2816207,58.2032384 L10.2914483,58.2091754 Z M15.675,89.616072 C26.1865862,91.7355922 36.4131724,84.8743628 38.5182414,74.2925937 C40.0061379,66.809955 37.0323103,59.1393103 30.9018621,54.6509145 L30.9018621,11.8330435 C30.9372414,5.46656672 25.8386897,0.277601199 19.5156207,0.243958021 C19.4743448,0.243958021 19.433069,0.243958021 19.3917931,0.243958021 C13.0471034,0.275622189 7.91317241,5.4447976 7.88172414,11.8330435 L7.88172414,54.6390405 C1.72375862,59.1788906 -1.19110345,66.9524438 0.452068966,74.4568516 C2.07362069,82.1096852 8.05665517,88.0625487 15.675,89.6041979 L15.675,89.616072 L15.675,89.616072 Z" id="Fill-1" fill="#D8D8D8" mask="url(#mask-2)"></path>
            </g>
            <path d="M19.183349,81.7212673 C25.0606662,81.8178139 29.9014948,77.0594471 29.9985443,71.0932631 C30.0004852,70.9750428 30.0004852,70.8587928 29.9985443,70.7425429 C29.9985443,63.2966348 23.762144,60.8750892 22.1123026,59.3933949 L22.1123026,27.9310345 L16.0641784,27.9310345 L16.0641784,59.3835432 C14.7811841,60.8750892 6.70860749,63.8522702 8.54672484,72.9749361 C9.55215757,78.1116077 14.0241981,81.7902292 19.183349,81.7232377 L19.183349,81.7212673" id="Fill-4" fill="#D8D8D8"></path>
            <path d="M45.562986,13.4538473 L35.1724138,13.4538473 L35.1724138,17.5862069 L45.5552722,17.5862069 C46.6583545,17.5766985 47.551234,16.6981204 47.5589479,15.6103571 C47.7344382,14.6005629 47.0440476,13.6440158 46.0219608,13.4747659 C45.8676836,13.4481423 45.7114779,13.4424372 45.5552722,13.4538473 L45.562986,13.4538473" id="Fill-5" fill="#D8D8D8"></path>
            <path d="M43.4482759,26.8060999 C43.4385487,25.7168701 42.5378143,24.8371074 41.4269734,24.8275862 L35.1724138,24.8275862 L35.1724138,28.9655172 L41.4230825,28.9655172 C42.5358689,28.8112731 43.3840766,27.9067553 43.444385,26.8060999 L43.4482759,26.8060999" id="Fill-6" fill="#D8D8D8"></path>
            <path d="M47.5862069,37.1509275 C47.5765464,36.0616976 46.6839125,35.181935 45.5787468,35.1724138 L35.1724138,35.1724138 L35.1724138,39.3103448 L45.5729505,39.3103448 C46.710962,39.2151324 47.5842748,38.2763381 47.5823427,37.1509275 L47.5862069,37.1509275" id="Fill-7" fill="#D8D8D8"></path>
        </g>
    </g>
</svg>