<?xml version="1.0" encoding="UTF-8"?>
<svg width="100px" height="100px" viewBox="0 0 100 100" version="1.1" xmlns="http://www.w3.org/2000/svg" xmlns:xlink="http://www.w3.org/1999/xlink">
    <!-- Generator: Sketch 57.1 (83088) - https://sketch.com -->
    <title>icon/main board</title>
    <desc>Created with Sketch.</desc>
    <defs>
        <polygon id="path-1" points="0 0.297230769 91.6280016 0.297230769 91.6280016 49.5383604 0 49.5383604"></polygon>
    </defs>
    <g id="icon/main-board" stroke="none" stroke-width="1" fill="none" fill-rule="evenodd">
        <g id="Group-10" transform="translate(4.000000, 25.000000)">
            <g id="Group-3">
                <mask id="mask-2" fill="white">
                    <use xlink:href="#path-1"></use>
                </mask>
                <g id="Clip-2"></g>
                <path d="M1.3427027,27.2013165 L41.2060541,48.3850747 C44.0918703,49.922789 47.5366486,49.922789 50.4219676,48.3850747 L90.2853189,27.2013165 C91.5235892,26.5269868 91.9895568,24.9594484 91.3256649,23.700767 C91.0889514,23.2518879 90.7269189,22.8833824 90.2853189,22.642767 L50.4259459,1.45041538 C47.5386378,-0.0862879121 44.0943568,-0.0872989011 41.2060541,1.44687692 L1.3427027,22.6392286 C0.103437838,23.3155802 -0.362032432,24.8846352 0.303351351,26.144833 C0.540064865,26.5932066 0.9016,26.9607011 1.3427027,27.2013165" id="Fill-1" fill="#7F7F7F" mask="url(#mask-2)"></path>
            </g>
            <polygon id="Fill-4" fill="#FFFFFF" points="33.3626374 28.3076923 33.3626374 19.2087912 40.2617857 19.2087912 40.2617857 20.748349 35.2415136 20.748349 35.2415136 22.7651801 39.9126235 22.7651801 39.9126235 24.2979718 35.2415136 24.2979718 35.2415136 26.7749007 40.4395604 26.7749007 40.4395604 28.3076923"></polygon>
            <polygon id="Fill-6" fill="#FFFFFF" points="42.4615385 28.3076923 42.4615385 19.2087912 44.2489983 19.2087912 44.2489983 22.7901628 47.7510017 22.7901628 47.7510017 19.2087912 49.5384615 19.2087912 49.5384615 28.3076923 47.7510017 28.3076923 47.7510017 24.3292001 44.2489983 24.3292001 44.2489983 28.3076923"></polygon>
            <path d="M56.0360643,24.9225931 L57.6263736,25.468658 C57.3823899,26.428927 56.9771445,27.1420828 56.4101727,27.6081253 C55.8427362,28.0741678 55.1233327,28.3076923 54.2514974,28.3076923 C53.1728568,28.3076923 52.2861502,27.9080835 51.5913774,27.1098725 C50.8966046,26.3116615 50.5494505,25.2205382 50.5494505,23.8359994 C50.5494505,22.3719415 50.8989282,21.2345159 51.5969541,20.424226 C52.2954448,19.6139361 53.2132884,19.2087912 54.3514145,19.2087912 C55.3450093,19.2087912 56.152247,19.5268677 56.7731276,20.1630208 C57.1425887,20.5394784 57.4195683,21.0795039 57.6045313,21.7836005 L55.9802966,22.2038441 C55.884562,21.747364 55.6842629,21.3875147 55.3793994,21.1232898 C55.0745359,20.8595681 54.7041453,20.7277073 54.2682277,20.7277073 C53.6659364,20.7277073 53.1775041,20.9612318 52.8024662,21.4297907 C52.4274284,21.8978464 52.2401418,22.6557946 52.2401418,23.7041386 C52.2401418,24.8163998 52.42464,25.6085714 52.7941011,26.0806533 C53.1635622,26.5527353 53.6436293,26.7887762 54.2352318,26.7887762 C54.6706847,26.7887762 55.0457226,26.6387971 55.3598807,26.3388389 C55.6740389,26.0388806 55.8994334,25.5667987 56.0360643,24.9225931" id="Fill-8" fill="#FFFFFF"></path>
        </g>
    </g>
</svg>