<?xml version="1.0" encoding="UTF-8"?>
<svg width="100px" height="100px" viewBox="0 0 100 100" version="1.1" xmlns="http://www.w3.org/2000/svg" xmlns:xlink="http://www.w3.org/1999/xlink">
    <!-- Generator: Sketch 57.1 (83088) - https://sketch.com -->
    <title>icon/mainboard board selected</title>
    <desc>Created with Sketch.</desc>
    <defs>
        <polygon id="path-1" points="0 0.0182610701 89.3318477 0.0182610701 89.3318477 47.2468081 0 47.2468081"></polygon>
    </defs>
    <g id="icon/mainboard-board-selected" stroke="none" stroke-width="1" fill="none" fill-rule="evenodd">
        <g id="Group-18" transform="translate(5.000000, 14.000000)">
            <path d="M88.022093,46.394686 L75.7580233,39.9774767 L69.3334884,43.3378256 L79.3548837,48.5829419 L46.4975581,65.7645698 C45.355814,66.3652674 43.9922093,66.3652674 42.8504651,65.7645698 L9.97639535,48.5787558 L20.0019767,43.3378256 L13.5743023,39.9837558 L1.31127907,46.3978256 C0.104651163,47.0445698 -0.350581395,48.5452674 0.295116279,49.7518953 C0.526395349,50.1830581 0.879069767,50.5367791 1.31127907,50.7670116 L40.1745349,71.0850349 C42.9875581,72.5595698 46.345814,72.5595698 49.1598837,71.0850349 L88.0168605,50.7670116 C89.2245349,50.1181744 89.6787209,48.6122442 89.0288372,47.4035233 C88.7996512,46.9765465 88.4501163,46.6259651 88.0231395,46.394686 L88.022093,46.394686 Z" id="Fill-1" fill="#575757"></path>
            <g id="Group-5" transform="translate(0.000000, 1.028407)">
                <mask id="mask-2" fill="white">
                    <use xlink:href="#path-1"></use>
                </mask>
                <g id="Clip-4"></g>
                <path d="M1.30939535,25.8228837 L40.1736977,46.140907 C42.9867209,47.6154419 46.3449767,47.6154419 49.1590465,46.140907 L88.0223023,25.8228837 C89.2299767,25.1761395 89.6841628,23.6723023 89.0374186,22.4656744 C88.8061395,22.0345116 88.4534651,21.6818372 88.0223023,21.4505581 L49.162186,1.12416279 C46.3481163,-0.349325581 42.9898605,-0.350372093 40.1736977,1.12102326 L1.30939535,21.4474186 C0.100674419,22.0952093 -0.352465116,23.6011395 0.295325581,24.8098605 C0.526604651,25.2389302 0.87927907,25.5916047 1.30939535,25.8228837" id="Fill-3" fill="#575757" mask="url(#mask-2)"></path>
            </g>
            <polygon id="Fill-6" fill="#FFFFFF" points="33.2213023 27.3617791 33.2213023 18.8860814 39.5056047 18.8860814 39.5056047 20.3198023 34.9323488 20.3198023 34.9323488 22.1982907 39.1874651 22.1982907 39.1874651 23.6267791 34.9323488 23.6267791 34.9323488 25.9332907 39.667814 25.9332907 39.667814 27.3617791"></polygon>
            <polygon id="Fill-8" fill="#FFFFFF" points="41.1243488 27.3617791 41.1243488 18.8860814 42.8353953 18.8860814 42.8353953 22.221314 46.1894651 22.221314 46.1894651 18.8860814 47.9005116 18.8860814 47.9005116 27.3617791 46.1894651 27.3617791 46.1894651 23.6560814 42.8353953 23.6560814 42.8353953 27.3617791"></polygon>
            <path d="M55.0927674,24.2457907 L56.7514884,24.7711395 C56.497186,25.6962558 56.0743953,26.383814 55.4831163,26.8327674 C54.8918372,27.2817209 54.1404419,27.5067209 53.2310233,27.5067209 C52.1060233,27.5067209 51.180907,27.1216047 50.4556744,26.3524186 C49.7304419,25.5842791 49.3683488,24.5325349 49.3683488,23.1992791 C49.3683488,21.7885814 49.7325349,20.6928837 50.4619535,19.912186 C51.1903256,19.1314884 52.1478837,18.7411395 53.3346279,18.7411395 C54.3717209,18.7411395 55.2141628,19.0477674 55.8619535,19.6610233 C56.2470698,20.0231163 56.535907,20.5432326 56.7284651,21.2213721 L55.0341628,21.6263721 C54.9347442,21.1868372 54.7254419,20.8404419 54.4073023,20.585093 C54.0891628,20.3318372 53.703,20.2041628 53.2477674,20.2041628 C52.6198605,20.2041628 52.1102093,20.4302093 51.718814,20.8802093 C51.3274186,21.3312558 51.1317209,22.0617209 51.1317209,23.0716047 C51.1317209,24.1432326 51.3253256,24.9061395 51.7104419,25.3613721 C52.0955581,25.8155581 52.5968372,26.0436977 53.2142791,26.0436977 C53.6684651,26.0436977 54.0598605,25.8992791 54.3874186,25.6104419 C54.7149767,25.3205581 54.9493953,24.8663721 55.0927674,24.2457907" id="Fill-10" fill="#FFFFFF"></path>
            <path d="M36.2172558,56.0524186 L37.4667907,55.9310233 C37.5421395,56.3496279 37.6938837,56.6583488 37.9241163,56.855093 C38.1543488,57.0507907 38.4630698,57.1491628 38.8544651,57.1491628 C39.2678372,57.1491628 39.5786512,57.0623023 39.789,56.8864884 C39.9983023,56.7117209 40.1029535,56.5076512 40.1029535,56.2732326 C40.1029535,56.1225349 40.059,55.9948605 39.9700465,55.8891628 C39.8821395,55.7845116 39.7283023,55.6924186 39.5095814,55.6149767 C39.3578372,55.5626512 39.0156279,55.4695116 38.4808605,55.3366047 C37.7933023,55.1660233 37.309814,54.9567209 37.0324884,54.7076512 C36.6421395,54.3581163 36.4474884,53.932186 36.4474884,53.428814 C36.4474884,53.1054419 36.5395814,52.803 36.7227209,52.5204419 C36.906907,52.2389302 37.1706279,52.0233488 37.5159767,51.8768372 C37.8613256,51.7292791 38.2788837,51.6549767 38.7676047,51.6549767 C39.5650465,51.6549767 40.1657442,51.8297442 40.5686512,52.1803256 C40.9715581,52.5298605 41.184,52.9966047 41.2038837,53.5805581 L39.9208605,53.6370698 C39.8653953,53.3105581 39.748186,53.075093 39.5671395,52.9327674 C39.386093,52.7893953 39.116093,52.717186 38.754,52.717186 C38.3814419,52.717186 38.0894651,52.7946279 37.8780698,52.9474186 C37.7430698,53.0457907 37.6750465,53.1766047 37.6750465,53.3419535 C37.6750465,53.4926512 37.7378372,53.6213721 37.8655116,53.7281163 C38.0266744,53.8641628 38.4201628,54.0054419 39.0449302,54.153 C39.6686512,54.3005581 40.1312093,54.4533488 40.4305116,54.6103256 C40.729814,54.7673023 40.963186,54.9839302 41.1327209,55.2570698 C41.3012093,55.5291628 41.3859767,55.867186 41.3859767,56.2690465 C41.3859767,56.6332326 41.2855116,56.9743953 41.0824884,57.2925349 C40.8805116,57.6106744 40.594814,57.8461395 40.2243488,58.0010233 C39.8538837,58.155907 39.3934186,58.2333488 38.8408605,58.2333488 C38.0371395,58.2333488 37.4196977,58.0481163 36.9895814,57.6766047 C36.5584186,57.305093 36.3009767,56.763 36.2172558,56.0524186" id="Fill-12" fill="#575757"></path>
            <path d="M46.5331395,55.7831512 L47.7774419,56.177686 C47.5869767,56.8725698 47.2698837,57.3874535 46.8261628,57.7233837 C46.3824419,58.0603605 45.8194186,58.2288488 45.137093,58.2288488 C44.2925581,58.2288488 43.5987209,57.9410581 43.0555814,57.3644302 C42.5124419,56.7867558 42.2403488,55.9987326 42.2403488,54.9982674 C42.2403488,53.9402442 42.5134884,53.1187326 43.0597674,52.5337326 C43.6060465,51.947686 44.325,51.6557093 45.2155814,51.6557093 C45.992093,51.6557093 46.624186,51.8848953 47.1097674,52.344314 C47.3986047,52.616407 47.6162791,53.0067558 47.7606977,53.5153605 L46.489186,53.8188488 C46.4148837,53.4902442 46.257907,53.2296628 46.0193023,53.0381512 C45.7806977,52.847686 45.490814,52.7524535 45.1496512,52.7524535 C44.6787209,52.7524535 44.2967442,52.9219884 44.0037209,53.2600116 C43.7096512,53.5980349 43.5631395,54.146407 43.5631395,54.9030349 C43.5631395,55.7067558 43.7075581,56.2791977 43.9963953,56.6203605 C44.2862791,56.9615233 44.6609302,57.1321047 45.1234884,57.1321047 C45.4646512,57.1321047 45.7587209,57.024314 46.0046512,56.8066395 C46.2495349,56.5900116 46.4263953,56.2488488 46.5331395,55.7831512" id="Fill-14" fill="#575757"></path>
            <path d="M50.1668372,55.3498953 L50.1668372,57.0494302 L51.3546279,57.0494302 C51.817186,57.0494302 52.1112558,57.0368721 52.2357907,57.0107093 C52.4262558,56.9761744 52.5811395,56.891407 52.7014884,56.756407 C52.8218372,56.6224535 52.8814884,56.4424535 52.8814884,56.2174535 C52.8814884,56.0259419 52.8354419,55.8647791 52.7423023,55.7318721 C52.6502093,55.5989651 52.5162558,55.5016395 52.3414884,55.4409419 C52.1667209,55.3802442 51.7868372,55.3498953 51.2028837,55.3498953 L50.1668372,55.3498953 Z M50.1668372,52.8215233 L50.1668372,54.2918721 L51.0082326,54.2918721 C51.5084651,54.2918721 51.8192791,54.2845465 51.9406744,54.2698953 C52.1604419,54.2437326 52.3331163,54.1683837 52.4586977,54.0417558 C52.5842791,53.9161744 52.6470698,53.7508256 52.6470698,53.5457093 C52.6470698,53.3489651 52.5926512,53.1898953 52.4848605,53.066407 C52.3760233,52.9439651 52.215907,52.8696628 52.0013721,52.8435 C51.8736977,52.8288488 51.5084651,52.8215233 50.9046279,52.8215233 L50.1668372,52.8215233 Z M48.8827674,51.7635 L51.4247442,51.7635 C51.9281163,51.7635 52.3027674,51.7844302 52.5497442,51.8262907 C52.7967209,51.8681512 53.0185814,51.9560581 53.2132326,52.0889651 C53.4089302,52.2218721 53.5711395,52.3987326 53.700907,52.620593 C53.8306744,52.841407 53.8955581,53.0894302 53.8955581,53.3646628 C53.8955581,53.6618721 53.8160233,53.9350116 53.6548605,54.1830349 C53.4947442,54.4321047 53.2770698,54.6183837 53.0028837,54.7429186 C53.390093,54.8559419 53.6883488,55.0474535 53.8955581,55.3195465 C54.1048605,55.590593 54.2084651,55.9108256 54.2084651,56.2781512 C54.2084651,56.5669884 54.1404419,56.8485 54.0064884,57.120593 C53.8725349,57.3947791 53.6883488,57.6124535 53.4560233,57.7757093 C53.2226512,57.9400116 52.935907,58.0394302 52.5947442,58.0771047 C52.3812558,58.1001279 51.8653256,58.1147791 51.0469535,58.1200116 L48.8827674,58.1200116 L48.8827674,51.7635 Z" id="Fill-16" fill="#575757"></path>
        </g>
    </g>
</svg>