<?xml version="1.0" encoding="utf-8"?>
<!-- Generator: Adobe Illustrator 23.0.6, SVG Export Plug-In . SVG Version: 6.00 Build 0)  -->
<svg version="1.1" id="Layer_1" xmlns="http://www.w3.org/2000/svg" xmlns:xlink="http://www.w3.org/1999/xlink" x="0px" y="0px"
	 viewBox="0 0 100 100" style="enable-background:new 0 0 100 100;" xml:space="preserve">
<style type="text/css">
	.st0{filter:url(#Adobe_OpacityMaskFilter);}
	.st1{fill-rule:evenodd;clip-rule:evenodd;fill:#FFFFFF;}
	.st2{mask:url(#mask-2_1_);fill-rule:evenodd;clip-rule:evenodd;}
</style>
<title>icon/power</title>
<desc>Created with Sketch.</desc>
<g>
	<g id="Power" transform="translate(13.000000, 5.000000)">
		<g id="Clip-2">
		</g>
		<defs>
			<filter id="Adobe_OpacityMaskFilter" filterUnits="userSpaceOnUse" x="0" y="0" width="75" height="90">
				<feColorMatrix  type="matrix" values="1 0 0 0 0  0 1 0 0 0  0 0 1 0 0  0 0 0 1 0"/>
			</filter>
		</defs>
		<mask maskUnits="userSpaceOnUse" x="0" y="0" width="75" height="90" id="mask-2_1_">
			<g class="st0">
				<polygon id="path-1_1_" class="st1" points="0,0 75,0 75,90 0,90 				"/>
			</g>
		</mask>
		<path id="Fill-1" class="st2" d="M0.2,88.4c-0.3,0.5-0.2,1.1,0.3,1.4c0.3,0.2,0.8,0.2,1.1,0l28.7-22.4c0.9-0.7,1.1-2.1,0.4-3
			c-0.4-0.5-1-0.8-1.7-0.8h-8.6c-0.9,0-1.7-0.7-1.7-1.7c0-0.9,0.7-1.7,1.7-1.7h3.3l0.9-1.5c1.5-2.4,4-4,6.8-4.4l8.2-1.1
			c7-0.8,13.5-3.9,18.6-8.8c6.6-6.5,10.7-15.2,11.4-24.4c0.4-5.7,2.1-11.2,4.9-16.2l0.2-0.4c0.7-1,0.4-2.3-0.6-3
			C73.7,0.2,73.4,0,73,0H49c-2.4-0.1-4.8,0.1-7.2,0.6C36.3,1.6,31,4,26.5,7.4c-9.4,7.5-14.6,19.1-13.9,31.2c0,1.1,0.9,1.9,2,1.9
			c0.5,0,1-0.2,1.3-0.6l5.5-5.5c4.7-4.7,10.4-8.3,16.7-10.4l6.4-2.1L36,28.4c-3.2,2.7-6.3,5.7-9.1,8.8c-4.9,5.4-9.3,11.3-13.2,17.6
			L2.8,72.4c-0.2,0.4-0.1,0.8,0.2,1c0.1,0.1,0.3,0.1,0.4,0.1h5.3c0.4,0,0.7,0.4,0.7,0.8c0,0.1,0,0.3-0.1,0.4L0.2,88.4"/>
	</g>
</g>
</svg>
