<?xml version="1.0" encoding="UTF-8"?>
<svg width="100px" height="100px" viewBox="0 0 100 100" version="1.1" xmlns="http://www.w3.org/2000/svg" xmlns:xlink="http://www.w3.org/1999/xlink">
    <!-- Generator: Sketch 57.1 (83088) - https://sketch.com -->
    <title>icon/radiatiors</title>
    <desc>Created with Sketch.</desc>
    <defs>
        <polygon id="path-1" points="0 0.849125 15.499875 0.849125 15.499875 85 0 85"></polygon>
        <polygon id="path-3" points="1.066625 0.849125 13.306625 0.849125 13.306625 85 1.066625 85"></polygon>
        <polygon id="path-5" points="0.1255 0.849125 12.3655 0.849125 12.3655 85 0.1255 85"></polygon>
        <polygon id="path-7" points="0.433125 0.849125 12.674375 0.849125 12.674375 85 0.433125 85"></polygon>
        <polygon id="path-9" points="0.74225 0.849375 16.241 0.849375 16.241 85 0.74225 85"></polygon>
    </defs>
    <g id="icon/radiatiors" stroke="none" stroke-width="1" fill="none" fill-rule="evenodd">
        <g id="Page-1" transform="translate(5.000000, 6.000000)">
            <g id="Group-3" transform="translate(0.000000, 0.400875)">
                <mask id="mask-2" fill="white">
                    <use xlink:href="#path-1"></use>
                </mask>
                <g id="Clip-2"></g>
                <path d="M8.711125,85.000375 L10.046125,85.000375 C13.046125,85.000375 15.499875,82.546625 15.499875,79.549125 L15.499875,6.300375 C15.499875,3.302875 13.046125,0.849125 10.046125,0.849125 L8.711125,0.849125 C5.712375,0.849125 3.258625,3.302875 3.258625,6.300375 L3.258625,8.820375 C3.044875,8.711625 2.812375,8.636625 2.557375,8.636625 L1.589875,8.636625 C0.716125,8.636625 -0.000125,9.351625 -0.000125,10.226625 L-0.000125,19.111625 C-0.000125,19.985375 0.716125,20.701625 1.589875,20.701625 L2.557375,20.701625 C2.812375,20.701625 3.044875,20.626625 3.258625,20.519125 L3.258625,79.549125 C3.258625,82.546625 5.712375,85.000375 8.711125,85.000375" id="Fill-1" fill="#575757" mask="url(#mask-2)"></path>
            </g>
            <g id="Group-6" transform="translate(20.000000, 0.400875)">
                <mask id="mask-4" fill="white">
                    <use xlink:href="#path-3"></use>
                </mask>
                <g id="Clip-5"></g>
                <path d="M7.855375,85.000375 C10.852875,85.000375 13.306625,82.546625 13.306625,79.549125 L13.306625,6.300375 C13.306625,3.302875 10.852875,0.849125 7.855375,0.849125 L6.519125,0.849125 C3.520375,0.849125 1.066625,3.302875 1.066625,6.300375 L1.066625,79.549125 C1.066625,82.546625 3.520375,85.000375 6.519125,85.000375 L7.855375,85.000375 Z" id="Fill-4" fill="#575757" mask="url(#mask-4)"></path>
            </g>
            <g id="Group-9" transform="translate(38.750000, 0.400875)">
                <mask id="mask-6" fill="white">
                    <use xlink:href="#path-5"></use>
                </mask>
                <g id="Clip-8"></g>
                <path d="M6.91425,85.000375 C9.91175,85.000375 12.3655,82.546625 12.3655,79.549125 L12.3655,6.300375 C12.3655,3.302875 9.91175,0.849125 6.91425,0.849125 L5.578,0.849125 C2.57925,0.849125 0.1255,3.302875 0.1255,6.300375 L0.1255,79.549125 C0.1255,82.546625 2.57925,85.000375 5.578,85.000375 L6.91425,85.000375 Z" id="Fill-7" fill="#575757" mask="url(#mask-6)"></path>
            </g>
            <g id="Group-12" transform="translate(56.250000, 0.400875)">
                <mask id="mask-8" fill="white">
                    <use xlink:href="#path-7"></use>
                </mask>
                <g id="Clip-11"></g>
                <path d="M7.221875,85.000375 C10.220625,85.000375 12.674375,82.546625 12.674375,79.549125 L12.674375,6.300375 C12.674375,3.302875 10.220625,0.849125 7.221875,0.849125 L5.886875,0.849125 C2.886875,0.849125 0.433125,3.302875 0.433125,6.300375 L0.433125,79.549125 C0.433125,82.546625 2.886875,85.000375 5.886875,85.000375 L7.221875,85.000375 Z" id="Fill-10" fill="#575757" mask="url(#mask-8)"></path>
            </g>
            <g id="Group-15" transform="translate(73.750000, 0.400875)">
                <mask id="mask-10" fill="white">
                    <use xlink:href="#path-9"></use>
                </mask>
                <g id="Clip-14"></g>
                <path d="M14.65225,65.148125 L12.98225,65.148125 L12.98225,6.300625 C12.98225,3.301875 10.5285,0.849375 7.531,0.849375 L6.1935,0.849375 C3.196,0.849375 0.74225,3.301875 0.74225,6.300625 L0.74225,79.549375 C0.74225,82.546875 3.196,85.000625 6.1935,85.000625 L7.531,85.000625 C10.5285,85.000625 12.98225,82.546875 12.98225,79.549375 L12.98225,77.210625 L14.65225,77.210625 C15.526,77.210625 16.241,76.496875 16.241,75.623125 L16.241,66.736875 C16.241,65.863125 15.526,65.148125 14.65225,65.148125" id="Fill-13" fill="#575757" mask="url(#mask-10)"></path>
            </g>
        </g>
    </g>
</svg>