<?xml version="1.0" encoding="UTF-8"?>
<svg width="100px" height="100px" viewBox="0 0 100 100" version="1.1" xmlns="http://www.w3.org/2000/svg" xmlns:xlink="http://www.w3.org/1999/xlink">
    <!-- Generator: Sketch 57.1 (83088) - https://sketch.com -->
    <title>icon/radiatiors copy</title>
    <desc>Created with Sketch.</desc>
    <defs>
        <polygon id="path-1" points="0 0.6793 12.3999 0.6793 12.3999 68 0 68"></polygon>
        <polygon id="path-3" points="0.8533 0.6793 10.6453 0.6793 10.6453 68 0.8533 68"></polygon>
        <polygon id="path-5" points="0.1004 0.6793 9.8924 0.6793 9.8924 68 0.1004 68"></polygon>
        <polygon id="path-7" points="0.3465 0.6793 10.1395 0.6793 10.1395 68 0.3465 68"></polygon>
        <polygon id="path-9" points="0.5938 0.6795 12.9928 0.6795 12.9928 68 0.5938 68"></polygon>
    </defs>
    <g id="icon/radiatiors-copy" stroke="none" stroke-width="1" fill="none" fill-rule="evenodd">
        <g id="Page-1" transform="translate(14.000000, 16.000000)">
            <g id="Group-3" transform="translate(0.000000, 0.320700)">
                <mask id="mask-2" fill="white">
                    <use xlink:href="#path-1"></use>
                </mask>
                <g id="Clip-2"></g>
                <path d="M6.9689,68.0003 L8.0369,68.0003 C10.4369,68.0003 12.3999,66.0373 12.3999,63.6393 L12.3999,5.0403 C12.3999,2.6423 10.4369,0.6793 8.0369,0.6793 L6.9689,0.6793 C4.5699,0.6793 2.6069,2.6423 2.6069,5.0403 L2.6069,7.0563 C2.4359,6.9693 2.2499,6.9093 2.0459,6.9093 L1.2719,6.9093 C0.5729,6.9093 -0.0001,7.4813 -0.0001,8.1813 L-0.0001,15.2893 C-0.0001,15.9883 0.5729,16.5613 1.2719,16.5613 L2.0459,16.5613 C2.2499,16.5613 2.4359,16.5013 2.6069,16.4153 L2.6069,63.6393 C2.6069,66.0373 4.5699,68.0003 6.9689,68.0003" id="Fill-1" fill="#FFFFFF" mask="url(#mask-2)"></path>
            </g>
            <g id="Group-6" transform="translate(16.000000, 0.320700)">
                <mask id="mask-4" fill="white">
                    <use xlink:href="#path-3"></use>
                </mask>
                <g id="Clip-5"></g>
                <path d="M6.2843,68.0003 C8.6823,68.0003 10.6453,66.0373 10.6453,63.6393 L10.6453,5.0403 C10.6453,2.6423 8.6823,0.6793 6.2843,0.6793 L5.2153,0.6793 C2.8163,0.6793 0.8533,2.6423 0.8533,5.0403 L0.8533,63.6393 C0.8533,66.0373 2.8163,68.0003 5.2153,68.0003 L6.2843,68.0003 Z" id="Fill-4" fill="#FFFFFF" mask="url(#mask-4)"></path>
            </g>
            <g id="Group-9" transform="translate(31.000000, 0.320700)">
                <mask id="mask-6" fill="white">
                    <use xlink:href="#path-5"></use>
                </mask>
                <g id="Clip-8"></g>
                <path d="M5.5314,68.0003 C7.9294,68.0003 9.8924,66.0373 9.8924,63.6393 L9.8924,5.0403 C9.8924,2.6423 7.9294,0.6793 5.5314,0.6793 L4.4624,0.6793 C2.0634,0.6793 0.1004,2.6423 0.1004,5.0403 L0.1004,63.6393 C0.1004,66.0373 2.0634,68.0003 4.4624,68.0003 L5.5314,68.0003 Z" id="Fill-7" fill="#FFFFFF" mask="url(#mask-6)"></path>
            </g>
            <g id="Group-12" transform="translate(45.000000, 0.320700)">
                <mask id="mask-8" fill="white">
                    <use xlink:href="#path-7"></use>
                </mask>
                <g id="Clip-11"></g>
                <path d="M5.7775,68.0003 C8.1765,68.0003 10.1395,66.0373 10.1395,63.6393 L10.1395,5.0403 C10.1395,2.6423 8.1765,0.6793 5.7775,0.6793 L4.7095,0.6793 C2.3095,0.6793 0.3465,2.6423 0.3465,5.0403 L0.3465,63.6393 C0.3465,66.0373 2.3095,68.0003 4.7095,68.0003 L5.7775,68.0003 Z" id="Fill-10" fill="#FFFFFF" mask="url(#mask-8)"></path>
            </g>
            <g id="Group-15" transform="translate(59.000000, 0.320700)">
                <mask id="mask-10" fill="white">
                    <use xlink:href="#path-9"></use>
                </mask>
                <g id="Clip-14"></g>
                <path d="M11.7218,52.1185 L10.3858,52.1185 L10.3858,5.0405 C10.3858,2.6415 8.4228,0.6795 6.0248,0.6795 L4.9548,0.6795 C2.5568,0.6795 0.5938,2.6415 0.5938,5.0405 L0.5938,63.6395 C0.5938,66.0375 2.5568,68.0005 4.9548,68.0005 L6.0248,68.0005 C8.4228,68.0005 10.3858,66.0375 10.3858,63.6395 L10.3858,61.7685 L11.7218,61.7685 C12.4208,61.7685 12.9928,61.1975 12.9928,60.4985 L12.9928,53.3895 C12.9928,52.6905 12.4208,52.1185 11.7218,52.1185" id="Fill-13" fill="#FFFFFF" mask="url(#mask-10)"></path>
            </g>
        </g>
    </g>
</svg>