<?xml version="1.0" encoding="utf-8"?>
<!-- Generator: Adobe Illustrator 23.0.6, SVG Export Plug-In . SVG Version: 6.00 Build 0)  -->
<svg version="1.1" id="Layer_1" xmlns="http://www.w3.org/2000/svg" xmlns:xlink="http://www.w3.org/1999/xlink" x="0px" y="0px"
	 viewBox="0 0 100 100" style="enable-background:new 0 0 100 100;" xml:space="preserve">
<style type="text/css">
	.st0{filter:url(#Adobe_OpacityMaskFilter);}
	.st1{fill-rule:evenodd;clip-rule:evenodd;fill:#FFFFFF;}
	.st2{mask:url(#mask-2_1_);fill-rule:evenodd;clip-rule:evenodd;}
</style>
<title>icon/report save</title>
<desc>Created with Sketch.</desc>
<g>
	<g id="Save-report" transform="translate(9.000000, 5.000000)">
		<g id="Clip-2">
		</g>
		<defs>
			<filter id="Adobe_OpacityMaskFilter" filterUnits="userSpaceOnUse" x="0" y="0" width="81" height="91">
				<feColorMatrix  type="matrix" values="1 0 0 0 0  0 1 0 0 0  0 0 1 0 0  0 0 0 1 0"/>
			</filter>
		</defs>
		<mask maskUnits="userSpaceOnUse" x="0" y="0" width="81" height="91" id="mask-2_1_">
			<g class="st0">
				<polygon id="path-1_1_" class="st1" points="0,0 81,0 81,91 0,91 				"/>
			</g>
		</mask>
		<path id="Fill-1" class="st2" d="M81,84.8V73.6c0-1.6-0.6-3.2-1.8-4.4c-1.2-1.2-2.8-1.9-4.5-1.8c-3.5,0.1-6.3,2.8-6.3,6.2v5H12.7
			v-5c0-1.6-0.6-3.2-1.8-4.4c-1.2-1.2-2.8-1.9-4.5-1.8c-3.5,0-6.3,2.8-6.4,6.2v11.2c0,1.7,0.7,3.3,1.9,4.4C3,90.4,4.6,91,6.3,91
			h68.4c3.4,0.1,6.3-2.7,6.3-6C81,84.9,81,84.8,81,84.8L81,84.8z M69.6,39.9c0-1.6-0.6-3.2-1.8-4.4c-1.2-1.2-2.8-1.9-4.5-1.8
			c-1.7,0-3.3,0.6-4.4,1.8l-12,11.8V6.2c0-1.6-0.6-3.2-1.8-4.4C43.8,0.6,42.2,0,40.5,0c-3.5,0.1-6.3,2.8-6.3,6.2v41.1l-12-11.8
			c-1.2-1.2-2.8-1.9-4.5-1.8c-3.5,0-6.3,2.8-6.4,6.2c0,1.7,0.7,3.3,1.9,4.4l22.8,22.5c1.2,1.2,2.8,1.8,4.4,1.8
			c1.7,0,3.3-0.6,4.5-1.8l22.8-22.5C69,43.1,69.6,41.5,69.6,39.9L69.6,39.9z"/>
	</g>
</g>
</svg>
