<?xml version="1.0" encoding="utf-8"?>
<!-- Generator: Adobe Illustrator 23.0.6, SVG Export Plug-In . SVG Version: 6.00 Build 0)  -->
<svg version="1.1" id="Layer_1" xmlns="http://www.w3.org/2000/svg" xmlns:xlink="http://www.w3.org/1999/xlink" x="0px" y="0px"
	 viewBox="0 0 100 100" style="enable-background:new 0 0 100 100;" xml:space="preserve">
<style type="text/css">
	.st0{filter:url(#Adobe_OpacityMaskFilter);}
	.st1{fill-rule:evenodd;clip-rule:evenodd;fill:#FFFFFF;}
	.st2{mask:url(#mask-2_1_);fill-rule:evenodd;clip-rule:evenodd;}
</style>
<title>icon/report load</title>
<desc>Created with Sketch.</desc>
<g>
	<g id="Load-report" transform="translate(10.000000, 5.000000)">
		<g id="Clip-2">
		</g>
		<defs>
			<filter id="Adobe_OpacityMaskFilter" filterUnits="userSpaceOnUse" x="0" y="0" width="79" height="90">
				<feColorMatrix  type="matrix" values="1 0 0 0 0  0 1 0 0 0  0 0 1 0 0  0 0 0 1 0"/>
			</filter>
		</defs>
		<mask maskUnits="userSpaceOnUse" x="0" y="0" width="79" height="90" id="mask-2_1_">
			<g class="st0">
				<polygon id="path-1_1_" class="st1" points="0,0 79,0 79,90 0,90 				"/>
			</g>
		</mask>
		<path id="Fill-1" class="st2" d="M79,83.9V72.8c0-1.6-0.6-3.2-1.8-4.3c-1.1-1.2-2.7-1.8-4.4-1.8c-3.4,0.1-6.1,2.8-6.2,6.2v4.9
			H12.4v-5c0-1.6-0.6-3.2-1.8-4.3c-1.1-1.2-2.7-1.8-4.4-1.8c-3.4,0-6.2,2.8-6.2,6.1v11.1c0,1.6,0.6,3.2,1.8,4.4
			C3,89.4,4.5,90,6.2,90h66.7c3.4,0.1,6.1-2.6,6.2-6C79,84,79,83.9,79,83.9L79,83.9z M67.9,28.4c0-1.6-0.6-3.2-1.8-4.4L43.9,1.8
			C42.7,0.6,41.1,0,39.5,0c-1.6,0-3.2,0.6-4.3,1.8L12.9,24c-1.2,1.1-1.8,2.7-1.8,4.4c0.1,3.4,2.8,6.1,6.2,6.1c1.6,0,3.2-0.6,4.4-1.8
			L33.4,21v40.6c0.1,3.4,2.8,6.1,6.2,6.2c1.6,0,3.2-0.6,4.4-1.8c1.2-1.1,1.8-2.7,1.8-4.3V21l11.7,11.7c1.1,1.2,2.7,1.9,4.3,1.8
			c1.6,0,3.2-0.6,4.4-1.8C67.3,31.6,67.9,30,67.9,28.4L67.9,28.4z"/>
	</g>
</g>
</svg>
