<?xml version="1.0" encoding="utf-8"?>
<!-- Generator: Adobe Illustrator 23.0.6, SVG Export Plug-In . SVG Version: 6.00 Build 0)  -->
<svg version="1.1" id="Layer_1" xmlns="http://www.w3.org/2000/svg" xmlns:xlink="http://www.w3.org/1999/xlink" x="0px" y="0px"
	 viewBox="0 0 100 100" style="enable-background:new 0 0 100 100;" xml:space="preserve">
<style type="text/css">
	.st0{fill:none;stroke:#000000;stroke-width:3;}
	.st1{fill-rule:evenodd;clip-rule:evenodd;}
</style>
<title>icon/still to receive</title>
<desc>Created with Sketch.</desc>
<g>
	<path id="Fill-3" class="st0" d="M50,0c27.6,0,50,22.4,50,50s-22.4,50-50,50S0,77.6,0,50S22.4,0,50,0"/>
	<path id="Fill-1" class="st1" d="M59.8,28.4c-2.5-2.3-5.9-3.4-10.3-3.4c-4.1,0-7.4,1.1-10,3.3c-1.7,1.4-2.9,3.9-3.4,6.5
		c-0.4,2,1.1,4,3.2,4c1.5,0,2.8-1.1,3.2-2.6c0.3-1.6,1-3.1,1.9-3.8c1.4-1.1,3.2-1.7,5.2-1.7c2.4,0,4.2,0.6,5.5,1.9
		c1.3,1.3,1.9,3.1,1.9,5.5c0,2-0.5,3.7-1.4,5.1c-0.9,1.4-2.5,3.4-4.6,5.9c-0.1,0.1-0.2,0.2-0.3,0.3c-2.2,2-3.6,3.6-4.1,4.8
		c-0.3,0.7-0.5,1.8-0.7,3.1c-0.2,2,1.3,3.7,3.3,3.7c1.7,0,3.1-1.3,3.3-3c0.1-0.6,0.2-1.1,0.3-1.5c0.3-1,1-2.1,2.2-3.3
		c2.6-2.5,4.7-5,6.3-7.4c1.6-2.4,2.4-5.1,2.4-8C63.5,33.8,62.3,30.7,59.8,28.4 M49.1,67.9h-0.3c-1.8,0-3.3,1.5-3.3,3.3v0.4
		c0,1.8,1.5,3.3,3.3,3.3h0.3c1.8,0,3.3-1.5,3.3-3.3v-0.4C52.4,69.4,50.9,67.9,49.1,67.9"/>
</g>
</svg>
