<?xml version="1.0" encoding="UTF-8"?>
<svg width="100px" height="100px" viewBox="0 0 100 100" version="1.1" xmlns="http://www.w3.org/2000/svg" xmlns:xlink="http://www.w3.org/1999/xlink">
    <!-- Generator: Sketch 57.1 (83088) - https://sketch.com -->
    <title>icon/still to receive copy</title>
    <desc>Created with Sketch.</desc>
    <g id="icon/still-to-receive-copy" stroke="none" stroke-width="1" fill="none" fill-rule="evenodd">
        <path d="M50,0 C77.6,0 100,22.4 100,50 C100,77.6 77.6,100 50,100 C22.4,100 0,77.6 0,50 C0,22.4 22.4,0 50,0" id="Fill-3" stroke="#EEEEEE" stroke-width="3"></path>
        <path d="M59.7644,28.3999 C57.2644,26.0999 53.8654,24.9999 49.4644,24.9999 C45.3654,24.9999 42.0644,26.0999 39.4644,28.2999 C37.7644,29.6999 36.5644,32.1999 36.0644,34.7999 C35.6644,36.7999 37.1644,38.7999 39.2644,38.7999 C40.7644,38.7999 42.0644,37.6999 42.4644,36.1999 C42.7644,34.5999 43.4644,33.0999 44.3654,32.3999 C45.7644,31.2999 47.5644,30.6999 49.5644,30.6999 C51.9644,30.6999 53.7644,31.2999 55.0654,32.5999 C56.3654,33.8999 56.9644,35.6999 56.9644,38.0999 C56.9644,40.0999 56.4644,41.7999 55.5654,43.1999 C54.6644,44.5999 53.0654,46.5999 50.9644,49.0999 C50.8654,49.1999 50.7644,49.2999 50.6644,49.3999 C48.4644,51.3999 47.0644,52.9999 46.5644,54.1999 C46.2644,54.8999 46.0644,55.9999 45.8654,57.2999 C45.6644,59.2999 47.1644,60.9999 49.1644,60.9999 C50.8654,60.9999 52.2644,59.6999 52.4644,57.9999 C52.5654,57.3999 52.6644,56.8999 52.7644,56.4999 C53.0654,55.4999 53.7644,54.3999 54.9644,53.1999 C57.5654,50.6999 59.6644,48.1999 61.2644,45.7999 C62.8654,43.3999 63.6644,40.6999 63.6644,37.7999 C63.4644,33.7999 62.2644,30.6999 59.7644,28.3999 M49.0644,67.8999 L48.7644,67.8999 C46.9644,67.8999 45.4644,69.3999 45.4644,71.1999 L45.4644,71.5999 C45.4644,73.3999 46.9644,74.8999 48.7644,74.8999 L49.0644,74.8999 C50.8654,74.8999 52.3654,73.3999 52.3654,71.5999 L52.3654,71.1999 C52.3654,69.3999 50.8654,67.8999 49.0644,67.8999" id="Fill-1" fill="#EEEEEE"></path>
    </g>
</svg>