<?xml version="1.0" encoding="UTF-8"?>
<svg width="100px" height="100px" viewBox="0 0 100 100" version="1.1" xmlns="http://www.w3.org/2000/svg" xmlns:xlink="http://www.w3.org/1999/xlink">
    <!-- Generator: Sketch 57.1 (83088) - https://sketch.com -->
    <title>icon/swimming_pool</title>
    <desc>Created with Sketch.</desc>
    <defs>
        <polygon id="path-1" points="0.3838 0.441 11.6448 0.441 11.6448 11.7018 0.3838 11.7018"></polygon>
        <polygon id="path-3" points="0.0004 0.6567 90 0.6567 90 10.0607 0.0004 10.0607"></polygon>
        <polygon id="path-5" points="0.0004 0.7095 90 0.7095 90 10.1135 0.0004 10.1135"></polygon>
    </defs>
    <g id="icon/swimming_pool" stroke="none" stroke-width="1" fill="none" fill-rule="evenodd">
        <g id="Page-1" transform="translate(5.000000, 7.000000)">
            <path d="M42.8535,82.3205 C39.0475,82.3205 36.6305,84.0935 34.2925,85.8095 C33.9465,86.0645 33.6005,86.3145 33.2535,86.5585 L38.0585,86.5585 C39.4605,85.6905 40.9285,85.0825 42.8535,85.0825 C44.7785,85.0825 46.2465,85.6905 47.6475,86.5585 L52.4525,86.5585 C52.1055,86.3145 51.7595,86.0645 51.4125,85.8095 C49.0755,84.0935 46.6595,82.3205 42.8535,82.3205" id="Fill-1" fill="#575757"></path>
            <path d="M74.1729,13.428 L51.7799,13.467 L51.7619,13.467 C50.1009,13.467 48.7479,14.807 48.7388446,16.47 C48.7289,18.14 50.0729,19.501 51.7419,19.512 L72.8479,19.465 L82.4659,29.601 L71.5289,32.745 C70.7259,32.977 70.0539,33.531 69.6729,34.276 C69.2919,35.021 69.2369,35.889 69.5219,36.676 L74.2709,49.847 C74.5589,50.647 75.1639,51.221 75.8819,51.546 L64.0689,51.546 C62.1619,51.546 60.6139,53.093 60.6139,55 C60.6139,56.907 62.1619,58.454 64.0689,58.454 L89.9999,58.454 L89.9999,51.546 L78.3889,51.546 C79.7869,50.891 80.4909,49.278 79.9569,47.796 L76.3039,37.663 L88.9199,34.035 C89.3279,33.918 89.6839,33.7 89.9999,33.439 L89.9999,28.758 L76.3459,14.369 C75.7789,13.774 74.9949,13.433 74.1729,13.428" id="Fill-3" fill="#575757"></path>
            <g id="Group-7" transform="translate(63.000000, 0.559300)">
                <mask id="mask-2" fill="white">
                    <use xlink:href="#path-1"></use>
                </mask>
                <g id="Clip-6"></g>
                <path d="M0.3838,6.0718 C0.3838,9.1808 2.9048,11.7018 6.0148,11.7018 C9.1238,11.7018 11.6448,9.1808 11.6448,6.0718 C11.6448,2.9618 9.1238,0.4408 6.0148,0.4408 C2.9048,0.4408 0.3838,2.9618 0.3838,6.0718" id="Fill-5" fill="#575757" mask="url(#mask-2)"></path>
            </g>
            <path d="M10.4697,82.3205 C6.6637,82.3205 4.2477,84.0935 1.9107,85.8095 C1.5637,86.0645 1.2177,86.3145 0.8707,86.5585 L5.6757,86.5585 C7.0767,85.6905 8.5447,85.0825 10.4697,85.0825 C12.3947,85.0825 13.8627,85.6905 15.2647,86.5585 L20.0697,86.5585 C19.7227,86.3145 19.3767,86.0645 19.0307,85.8095 C16.6927,84.0935 14.2757,82.3205 10.4697,82.3205" id="Fill-8" fill="#575757"></path>
            <g id="Group-12" transform="translate(0.000000, 65.559300)">
                <mask id="mask-4" fill="white">
                    <use xlink:href="#path-3"></use>
                </mask>
                <g id="Clip-11"></g>
                <path d="M75.2354,0.6567 C71.4294,0.6567 69.0124,2.4297 66.6764,4.1457 C64.4644,5.7677 62.3764,7.3007 59.0444,7.3007 C55.7124,7.3007 53.6234,5.7677 51.4124,4.1457 C49.0754,2.4297 46.6594,0.6567 42.8534,0.6567 C39.0474,0.6567 36.6314,2.4297 34.2934,4.1457 C32.0824,5.7677 29.9944,7.3007 26.6624,7.3007 C23.3294,7.3007 21.2414,5.7677 19.0304,4.1457 C16.6924,2.4297 14.2754,0.6567 10.4694,0.6567 C6.6644,0.6567 4.2484,2.4297 1.9114,4.1457 C1.2754,4.6117 0.6474,5.0657 0.0004,5.4827 L0.0004,8.6637 C1.3224,7.9867 2.4704,7.1597 3.5454,6.3717 C5.7044,4.7867 7.5684,3.4177 10.4694,3.4177 C13.3714,3.4177 15.2364,4.7867 17.3974,6.3717 C19.7544,8.1007 22.4244,10.0607 26.6624,10.0607 C30.8984,10.0607 33.5694,8.1007 35.9254,6.3717 C38.0874,4.7867 39.9524,3.4177 42.8534,3.4177 C45.7554,3.4177 47.6194,4.7867 49.7784,6.3717 C52.1364,8.1007 54.8064,10.0607 59.0444,10.0607 C63.2814,10.0607 65.9534,8.1007 68.3094,6.3717 C70.4684,4.7867 72.3354,3.4177 75.2354,3.4177 C78.1364,3.4177 80.0034,4.7867 82.1624,6.3717 C84.2414,7.8977 86.5704,9.5987 90.0004,9.9787 L90.0004,7.1887 C87.4664,6.8237 85.6714,5.5217 83.7954,4.1457 C81.4594,2.4297 79.0414,0.6567 75.2354,0.6567" id="Fill-10" fill="#575757" mask="url(#mask-4)"></path>
            </g>
            <path d="M75.2354,82.3205 C71.4294,82.3205 69.0124,84.0935 66.6764,85.8095 C66.3294,86.0645 65.9834,86.3145 65.6364,86.5585 L70.4414,86.5585 C71.8424,85.6905 73.3104,85.0825 75.2354,85.0825 C77.1614,85.0825 78.6294,85.6905 80.0304,86.5585 L84.8354,86.5585 C84.4884,86.3145 84.1424,86.0645 83.7954,85.8095 C81.4594,84.0935 79.0414,82.3205 75.2354,82.3205" id="Fill-13" fill="#575757"></path>
            <g id="Group-17" transform="translate(0.000000, 73.559300)">
                <mask id="mask-6" fill="white">
                    <use xlink:href="#path-5"></use>
                </mask>
                <g id="Clip-16"></g>
                <path d="M75.2354,0.7095 C71.4294,0.7095 69.0124,2.4825 66.6764,4.1985 C64.4644,5.8205 62.3764,7.3535 59.0444,7.3535 C55.7124,7.3535 53.6234,5.8205 51.4124,4.1985 C49.0754,2.4825 46.6594,0.7095 42.8534,0.7095 C39.0474,0.7095 36.6314,2.4825 34.2934,4.1985 C32.0824,5.8205 29.9944,7.3535 26.6624,7.3535 C23.3294,7.3535 21.2414,5.8205 19.0304,4.1985 C16.6924,2.4825 14.2754,0.7095 10.4694,0.7095 C6.6644,0.7095 4.2484,2.4825 1.9114,4.1985 C1.2754,4.6645 0.6474,5.1185 0.0004,5.5355 L0.0004,8.7165 C1.3224,8.0405 2.4704,7.2125 3.5454,6.4245 C5.7044,4.8395 7.5684,3.4705 10.4694,3.4705 C13.3714,3.4705 15.2364,4.8395 17.3974,6.4245 C19.7544,8.1535 22.4244,10.1135 26.6624,10.1135 C30.8984,10.1135 33.5694,8.1535 35.9254,6.4245 C38.0874,4.8395 39.9524,3.4705 42.8534,3.4705 C45.7554,3.4705 47.6194,4.8395 49.7784,6.4245 C52.1364,8.1535 54.8064,10.1135 59.0444,10.1135 C63.2814,10.1135 65.9534,8.1535 68.3094,6.4245 C70.4684,4.8395 72.3354,3.4705 75.2354,3.4705 C78.1364,3.4705 80.0034,4.8395 82.1624,6.4245 C84.2414,7.9505 86.5704,9.6515 90.0004,10.0315 L90.0004,7.2415 C87.4664,6.8765 85.6714,5.5745 83.7954,4.1985 C81.4594,2.4825 79.0414,0.7095 75.2354,0.7095" id="Fill-15" fill="#575757" mask="url(#mask-6)"></path>
            </g>
        </g>
    </g>
</svg>