<?xml version="1.0" encoding="utf-8"?>
<!-- Generator: Adobe Illustrator 23.0.6, SVG Export Plug-In . SVG Version: 6.00 Build 0)  -->
<svg version="1.1" id="Layer_1" xmlns="http://www.w3.org/2000/svg" xmlns:xlink="http://www.w3.org/1999/xlink" x="0px" y="0px"
	 viewBox="0 0 100 100" style="enable-background:new 0 0 100 100;" xml:space="preserve">
<style type="text/css">
	.st0{fill-rule:evenodd;clip-rule:evenodd;}
</style>
<title>icon/underfloor heating</title>
<desc>Created with Sketch.</desc>
<g>
	<path id="Underfloor-heating" class="st0" d="M69.3,35.3c0.3,2.4-0.3,4.8-1.7,6.8c-2,3.4-3,7.3-2.8,11.3c-0.1,4,1,7.9,3.1,11.3
		c1.1,2.1,1.6,4.4,1.4,6.8v5.6h8.4v-5.6c0.1-4-0.8-7.9-2.8-11.3c-1.2-2-1.8-4.4-1.7-6.8c-0.2-2.4,0.5-4.8,2-6.8
		c2-3.4,3-7.3,2.8-11.3v-2.8h8.4L75.2,15L63.9,32.5h5.6v2.8H69.3z M43.6,35.3c0.3,2.4-0.3,4.8-1.7,6.8c-2,3.4-3,7.3-2.8,11.3
		c-0.1,4,1,7.9,3.1,11.3c1.1,2.1,1.6,4.4,1.4,6.8v5.6H52v-5.6c0.1-4-0.8-7.9-2.8-11.3c-1.2-2-1.8-4.4-1.7-6.8
		c-0.2-2.4,0.5-4.8,2-6.8c2-3.4,3-7.3,2.8-11.3v-2.8h8.4L49.5,15L38.2,32.5h5.6v2.8H43.6z M18.9,35.1c0.3,2.4-0.3,4.8-1.7,6.8
		c-2,3.4-3,7.3-2.8,11.3c-0.1,4,1,7.9,3.1,11.3c1.4,2,1.4,3.7,1.4,7.1v5.6h8.4v-5.6c0.1-4-0.8-7.9-2.8-11.3c-1.2-2-1.8-4.4-1.7-6.8
		c-0.2-2.4,0.5-4.8,2-6.8c2-3.4,3-7.3,2.8-11.3v-2.8h8.5L24.8,15L13.6,32.5h5.6v2.5H18.9z M54.3,66.4c0.4,1.8,0.5,3.6,0.6,5.4H66
		c0.3-1.8-0.1-3.6-1.1-5.1v-0.3H54.3z M29.6,66.4c0.4,1.8,0.5,3.6,0.6,5.4h11.2c0-2.4,0.3-3.5-1.1-5.1v-0.3H29.6z M86,65.6h-5.6
		c0.3,1.9,0.5,3.9,0.6,5.8h3.4l2.2,8.7H13.2l2.5-8.7h0.6c0-2.6,0.3-3.8-1.1-5.8v-0.3H14L5,85.7h90L86,65.6L86,65.6z"/>
</g>
</svg>
