<?xml version="1.0" encoding="UTF-8"?>
<svg width="100px" height="100px" viewBox="0 0 100 100" version="1.1" xmlns="http://www.w3.org/2000/svg" xmlns:xlink="http://www.w3.org/1999/xlink">
    <!-- Generator: Sketch 57.1 (83088) - https://sketch.com -->
    <title>icon/underfloor heating copy</title>
    <desc>Created with Sketch.</desc>
    <g id="icon/underfloor-heating-copy" stroke="none" stroke-width="1" fill="none" fill-rule="evenodd">
        <path d="M69.2739598,35.3385396 C69.5688627,37.7311799 68.9659501,40.145751 67.5853675,42.1173217 C65.6106103,45.5428985 64.634154,49.4597231 64.7717753,53.416023 C64.7040569,57.4030259 65.7766297,61.3242367 67.8671637,64.7147243 C68.9834258,66.7893694 69.4727462,69.1447276 69.2739598,71.4935065 L69.2739598,77.1428571 L77.7147365,77.1428571 L77.7147365,71.4956996 C77.8501734,67.5372066 76.8737171,63.622575 74.8967753,60.1969983 C73.6800277,58.1552493 73.0924064,55.795505 73.2081831,53.4182161 C72.9962899,50.9904866 73.695319,48.5715294 75.1742025,46.6394339 C77.1489598,43.2138572 78.1254161,39.2970325 77.9877947,35.3407326 L77.9877947,32.5138642 L86.4285714,32.5138642 L75.1829404,15 L63.9285714,32.5138642 L69.5557559,32.5138642 L69.5557559,35.3385396 L69.2739598,35.3385396 Z M43.557599,35.3385396 C43.8502038,37.7311799 43.2497089,40.145751 41.8696623,42.1173217 C39.893488,45.5428985 38.9195943,49.4597231 39.0571623,53.416023 C38.9872865,57.4030259 40.0616266,61.3242367 42.151349,64.7147243 C43.2671778,66.7893694 43.7563082,69.1447276 43.557599,71.4935065 L43.557599,77.1428571 L52.0016498,77.1428571 L52.0016498,71.4956996 C52.1392178,67.5393997 51.1653241,63.622575 49.1891498,60.1969983 C47.9728746,58.1552493 47.3854814,55.795505 47.5012131,53.4182161 C47.2872186,50.9904866 47.9881599,48.5715294 49.4664693,46.6394339 C51.44046,43.2138572 52.4165373,39.2970325 52.2789693,35.3407326 L52.2789693,32.5138642 L60.7142857,32.5138642 L49.4642857,15 L38.2142857,32.5138642 L43.8392857,32.5138642 L43.8392857,35.3385396 L43.557599,35.3385396 Z M18.908191,35.0549257 C19.2029794,37.4474816 18.6003009,39.8619674 17.2202543,41.8334686 C15.2462636,45.2589245 14.2701863,49.1756109 14.4077543,53.1317712 C14.3422457,57.1186334 15.4187694,61.0418988 17.5106755,64.4322667 C18.9169255,66.4059609 18.9169255,68.1033379 18.9169255,71.4937059 L18.9169255,77.1428571 L27.3369565,77.1428571 L27.3369565,71.4937059 C27.4745245,67.5375456 26.4984472,63.6208591 24.5244565,60.1954033 C23.3081813,58.1515333 22.7186044,55.7940653 22.8365198,53.4168603 C22.6247089,50.9892165 23.3234666,48.5703447 24.801776,46.6383174 C26.7757667,43.2106685 27.7518439,39.2961751 27.614276,35.3400148 L27.614276,32.5132462 L36.0714286,32.5132462 L24.8214286,15 L13.5714286,32.5132462 L19.1964286,32.5132462 L19.1964286,35.0549257 L18.908191,35.0549257 Z M54.2857143,66.4285714 C54.6384316,68.1941826 54.8245278,69.986829 54.844003,71.7857143 L65.9924659,71.7857143 C66.254299,70.0159439 65.8604674,68.2149789 64.8780524,66.6968445 L64.8780524,66.4285714 L54.2857143,66.4285714 Z M29.6428571,66.4285714 C29.9972621,68.1941826 30.1842488,69.986829 30.2038172,71.7857143 L41.4056243,71.7857143 C41.4056243,69.3754159 41.6861043,68.3044033 40.2858784,66.6968445 L40.2858784,66.4285714 L29.6428571,66.4285714 Z M86.0082973,65.6483785 L80.3748362,65.6483785 C80.7154641,67.5673727 80.9032462,69.5134587 80.9381823,71.46406 L84.313892,71.46406 L86.5629094,80.1875822 L13.1554175,80.1875822 L15.686108,71.46406 L16.2494541,71.46406 C16.2494541,68.8474548 16.5311272,67.68477 15.1249454,65.6483785 L15.1249454,65.3571429 L14.0004367,65.3571429 L5,85.7142857 L95,85.7142857 L86.0082973,65.6483785 L86.0082973,65.6483785 Z" id="Underfloor-heating" fill="#FFFFFF"></path>
    </g>
</svg>