<?xml version="1.0" encoding="UTF-8"?>
<svg width="50px" height="51px" viewBox="0 0 50 51" version="1.1" xmlns="http://www.w3.org/2000/svg" xmlns:xlink="http://www.w3.org/1999/xlink">
    <!-- Generator: Sketch 57.1 (83088) - https://sketch.com -->
    <title>ic_inbox</title>
    <desc>Created with Sketch.</desc>
    <g id="ic_inbox" stroke="none" stroke-width="1" fill="none" fill-rule="evenodd">
        <path d="M39.3333333,7.51282051 L10.1458333,7.51282051 C7.83333333,7.51282051 6.02083333,9.33846154 6.02083333,11.6153846 L6,40.3333333 C6,42.5897436 7.83333333,44.4358974 10.1458333,44.4358974 L39.3333333,44.4358974 C41.625,44.4358974 43.5,42.5897436 43.5,40.3333333 L43.5,11.6153846 C43.5,9.33846154 41.625,7.51282051 39.3333333,7.51282051 L39.3333333,7.51282051 Z M39.3333333,32.1282051 L31,32.1282051 C31,35.5333333 28.1875,38.2820513 24.75,38.2820513 C21.3125,38.2820513 18.5,35.5333333 18.5,32.1282051 L10.1458333,32.1282051 L10.1458333,11.6153846 L39.3333333,11.6153846 L39.3333333,32.1282051 L39.3333333,32.1282051 Z" id="Shape" fill="#000000"></path>
        <polygon id="Shape" points="0 0.512820513 50 0.512820513 50 50.5128205 0 50.5128205"></polygon>
    </g>
</svg>