<?xml version="1.0" encoding="utf-8"?>
<!-- Generator: Adobe Illustrator 23.0.6, SVG Export Plug-In . SVG Version: 6.00 Build 0)  -->
<svg version="1.1" id="Layer_1" xmlns="http://www.w3.org/2000/svg" xmlns:xlink="http://www.w3.org/1999/xlink" x="0px" y="0px"
	 viewBox="0 0 40 40" style="enable-background:new 0 0 40 40;" xml:space="preserve">
<style type="text/css">
	.st0{fill-rule:evenodd;clip-rule:evenodd;}
	.st1{fill-rule:evenodd;clip-rule:evenodd;fill:#FFFFFF;}
</style>
<title>open_on_phone</title>
<desc>Created with Sketch.</desc>
<g id="open_on_phone">
	<g>
		<path id="Oval-463" class="st0" d="M20,40c11,0,20-9,20-20S31,0,20,0S0,9,0,20S9,40,20,40z"/>
		<g id="icon" transform="translate(12.000000, 9.000000)">
			<path id="Fill-1" class="st1" d="M13.3,0.1H2.7c-0.3,0-0.6,0.3-0.6,0.6v8.6h0.9V2.9c0-0.1,0.1-0.1,0.1-0.1h9.6
				c0.1,0,0.1,0.1,0.1,0.1v15.8c0,0.1-0.1,0.1-0.1,0.1H3.2c-0.1,0-0.1-0.1-0.1-0.1v-6.1H2.1v8.6c0,0.3,0.3,0.6,0.6,0.6h10.6
				c0.3,0,0.6-0.3,0.6-0.6V0.7C13.9,0.4,13.7,0.1,13.3,0.1"/>
			<polyline id="Fill-2" class="st1" points="4.7,13.2 5.5,14.1 8.7,11 5.5,7.8 4.7,8.7 6.3,10.3 0.2,10.3 0.2,11.6 6.3,11.6 
				4.7,13.2 			"/>
		</g>
	</g>
</g>
</svg>
