<?xml version="1.0" encoding="UTF-8"?>
<svg width="100px" height="100px" viewBox="0 0 100 100" version="1.1" xmlns="http://www.w3.org/2000/svg" xmlns:xlink="http://www.w3.org/1999/xlink">
    <!-- Generator: Sketch 57.1 (83088) - https://sketch.com -->
    <title>icon/next/default</title>
    <desc>Created with Sketch.</desc>
    <g id="icon/next/default" stroke="none" stroke-width="1" fill="none" fill-rule="evenodd">
        <path d="M71.6,48.417 L57.1,33.617 C56.2,32.717 54.8,32.817 54.1,33.817 C53.5,34.617 53.7,35.817 54.4,36.517 L65.6,47.717 L30,47.717 C28.9,47.717 28,48.617 28,49.717 C28,50.817 28.9,51.717 30,51.717 L65.7,51.717 L54.5,63.017 C53.6,63.917 53.6,65.317 54.5,66.117 C54.9,66.417 55.3,66.517 55.7,66.517 C56.2,66.517 56.7,66.317 57.1,65.917 L71.6,51.117 C72.4,50.417 72.4,49.217 71.6,48.417" id="Fill-1" fill="#734875"></path>
    </g>
</svg>