<?xml version="1.0" encoding="utf-8"?>
<!-- Generator: Adobe Illustrator 23.0.6, SVG Export Plug-In . SVG Version: 6.00 Build 0)  -->
<svg version="1.1" id="Layer_1" xmlns="http://www.w3.org/2000/svg" xmlns:xlink="http://www.w3.org/1999/xlink" x="0px" y="0px"
	 viewBox="0 0 14 14" style="enable-background:new 0 0 14 14;" xml:space="preserve">
<style type="text/css">
	.st0{fill:none;}
</style>
<title>Icon/Clock</title>
<desc>Created with Sketch.</desc>
<g>
	<path id="Shape" d="M7,1.2C3.8,1.2,1.2,3.8,1.2,7s2.6,5.8,5.8,5.8c3.2,0,5.8-2.6,5.8-5.8S10.2,1.2,7,1.2z M7,11.7
		c-2.6,0-4.7-2.1-4.7-4.7S4.4,2.3,7,2.3s4.7,2.1,4.7,4.7S9.6,11.7,7,11.7z"/>
	<polygon class="st0" points="0,0 14,0 14,14 0,14 	"/>
	<polygon points="7.3,4.1 6.4,4.1 6.4,7.6 9.5,9.4 9.9,8.7 7.3,7.1 	"/>
</g>
</svg>
