<?xml version="1.0" encoding="utf-8"?>
<!-- Generator: Adobe Illustrator 23.0.6, SVG Export Plug-In . SVG Version: 6.00 Build 0)  -->
<svg version="1.1" id="Layer_1" xmlns="http://www.w3.org/2000/svg" xmlns:xlink="http://www.w3.org/1999/xlink" x="0px" y="0px"
	 viewBox="0 0 10 16" style="enable-background:new 0 0 10 16;" xml:space="preserve">
<style type="text/css">
	.st0{fill:none;stroke:#000000;}
	.st1{fill-rule:evenodd;clip-rule:evenodd;}
</style>
<title>Icon/Thermometer</title>
<desc>Created with Sketch.</desc>
<g>
	<path id="Combined-Shape" class="st0" d="M6.5,0.5l-0.1,0c-1.1,0.1-1.9,0.9-1.9,2l0,7.8l-0.1,0.1c-0.5,0.6-0.9,1.3-0.9,2.1
		c0,1.7,1.3,3,3,3s3-1.3,3-3c0-0.8-0.3-1.5-0.9-2.1l-0.1-0.1l0-0.2l0-7.5C8.5,1.4,7.6,0.5,6.5,0.5z"/>
	<path class="st1" d="M7,6l0,5.1c0.6,0.2,1,0.8,1,1.4C8,13.3,7.3,14,6.5,14S5,13.3,5,12.5c0-0.7,0.4-1.2,1-1.4L6,6H7z"/>
	<polygon id="Path-6" class="st1" points="3,6 0,4 0,8 	"/>
</g>
</svg>
