<?xml version="1.0" encoding="utf-8"?>
<!-- Generator: Adobe Illustrator 23.0.6, SVG Export Plug-In . SVG Version: 6.00 Build 0)  -->
<svg version="1.1" id="Layer_1" xmlns="http://www.w3.org/2000/svg" xmlns:xlink="http://www.w3.org/1999/xlink" x="0px" y="0px"
	 viewBox="0 0 100 100" style="enable-background:new 0 0 100 100;" xml:space="preserve">
<style type="text/css">
	.st0{fill-rule:evenodd;clip-rule:evenodd;}
</style>
<title>icon/service-notification/default</title>
<desc>Created with Sketch.</desc>
<g>
	<path id="Fill-1" class="st0" d="M96.5,21c-1-0.5-2.2-0.3-3.1,0.5l-15.3,14L64.3,21L78,4.9c0.8-0.9,0.9-2.1,0.5-3.2
		C78,0.7,77,0,75.8,0H75C66.6,0,52,0.7,45.4,7.5l-1.3,1.3c-7,7.2-8.2,19.1-4.5,28.2l-35,36.6c-4.7,5-4.7,12.8,0,17.7l4.2,4.4
		c4.5,4.7,12,4.9,16.7,0.4c0.1-0.1,0.3-0.3,0.4-0.4l35.6-36.6c3.6,1.9,7.7,3,11.8,3.1c6.3,0,12.3-2.6,16.6-7.2l1.3-1.3
		c7.1-7.3,7-23,7-29.9C98.2,22.6,97.6,21.5,96.5,21 M87,49.4l-1.1,1.3c-3.3,3.4-7.8,5.3-12.5,5.2c-2.6,0-5.1-0.4-7.5-1.3
		c-1.9-0.8-3.7-2-5.2-3.4l-39,40.1c-2.2,2.4-6,2.5-8.3,0.2c-0.1-0.1-0.1-0.1-0.2-0.2l-4.3-4.4c-2.4-2.5-2.4-6.4,0-8.9l38-39.7
		c-1.2-1.9-2.1-3.9-2.7-6.1c-1.5-6.1-0.6-14.4,4-19.2l1.3-1.3c3.9-4.1,14.2-5.3,19.9-5.7L58.2,19.2c-1,1.2-0.9,2.9,0.1,4.1
		l17.6,18.5c1.1,1.1,2.8,1.2,3.9,0.2l12.4-11.4C91.9,36.6,90.7,45.5,87,49.4"/>
</g>
</svg>
