<?xml version="1.0" encoding="UTF-8"?>
<svg width="100px" height="100px" viewBox="0 0 100 100" version="1.1" xmlns="http://www.w3.org/2000/svg" xmlns:xlink="http://www.w3.org/1999/xlink">
    <!-- Generator: Sketch 57.1 (83088) - https://sketch.com -->
    <title>icon/back/alt</title>
    <desc>Created with Sketch.</desc>
    <g id="icon/back/alt" stroke="none" stroke-width="1" fill="none" fill-rule="evenodd">
        <path d="M70.1996,47.8001 L34.4996,47.8001 L45.8006,36.5001 C46.6996,35.6001 46.6996,34.2001 45.8006,33.4001 C45.3996,33.1001 44.9996,33.0001 44.5996,33.0001 C44.0996,33.0001 43.5996,33.2001 43.1996,33.6001 L28.5996,48.3001 C27.8006,49.1001 27.8006,50.3001 28.5996,51.1001 L43.0996,65.9001 C43.9996,66.8001 45.3996,66.7001 46.0996,65.7001 C46.6996,64.9001 46.4996,63.7001 45.8006,63.0001 L34.5996,51.8001 L70.1996,51.8001 C71.3006,51.8001 72.1996,50.9001 72.1996,49.8001 C72.1996,48.6001 71.3006,47.8001 70.1996,47.8001" id="Fill-1" fill="#FFFFFF"></path>
    </g>
</svg>