<?xml version="1.0" encoding="utf-8"?>
<!-- Generator: Adobe Illustrator 23.0.6, SVG Export Plug-In . SVG Version: 6.00 Build 0)  -->
<svg version="1.1" id="Layer_1" xmlns="http://www.w3.org/2000/svg" xmlns:xlink="http://www.w3.org/1999/xlink" x="0px" y="0px"
	 viewBox="0 0 620 620" style="enable-background:new 0 0 620 620;" xml:space="preserve">
<style type="text/css">
	.st0{fill:#FFFFFF;}
</style>
<g id="bg__x3C_do-not-export_x3E_">
</g>
<g id="bounding-box">
</g>
<g>
	<g>
		<path d="M484.9,125.5h-360c-33.1,0-60,26.9-60,60V435c0,33.1,26.9,60,60,60h360c33.1,0,60-26.9,60-60V185.5
			C544.9,152.4,518,125.5,484.9,125.5z"/>
	</g>
	<path class="st0" d="M524.9,434.5c0,22.1-17.9,40-40,40h-360c-22.1,0-40-17.9-40-40v-70h440V434.5z"/>
	<g>
		<circle cx="304.9" cy="354.5" r="100"/>
	</g>
	<path class="st0" d="M304.9,272.5c-45.3,0-82,36.7-82,82s36.7,82,82,82s82-36.7,82-82S350.2,272.5,304.9,272.5z M304.9,422.8
		c-37.7,0-68.3-30.6-68.3-68.3s30.6-68.3,68.3-68.3s68.3,30.6,68.3,68.3S342.6,422.8,304.9,422.8z"/>
	<path class="st0" d="M263.9,381.8c-2.8,0-4.4,3.2-2.8,5.4c10,13.3,25.8,21.9,43.7,21.9c17.8,0,33.7-8.6,43.7-21.8
		c1.7-2.3,0-5.5-2.8-5.5H263.9z"/>
	<path class="st0" d="M359.6,354.5c0-4.8-0.6-9.8-2-14.8c-5-18.8-20-33.5-39-38.2c-36.1-8.8-68.4,18.3-68.4,53c0,0.1,0,0.2,0,0.3
		c0,7.4,6.2,13.4,13.7,13.4h82C353.4,368.2,359.6,362,359.6,354.5z"/>
</g>
</svg>
