<?xml version="1.0" encoding="utf-8"?>
<!-- Generator: Adobe Illustrator 23.0.6, SVG Export Plug-In . SVG Version: 6.00 Build 0)  -->
<svg version="1.1" id="Layer_1" xmlns="http://www.w3.org/2000/svg" xmlns:xlink="http://www.w3.org/1999/xlink" x="0px" y="0px"
	 viewBox="0 0 449 512" style="enable-background:new 0 0 449 512;" xml:space="preserve">
<style type="text/css">
	.st0{filter:url(#Adobe_OpacityMaskFilter);}
	.st1{fill-rule:evenodd;clip-rule:evenodd;fill:#FFFFFF;}
	.st2{mask:url(#mask-2_1_);fill-rule:evenodd;clip-rule:evenodd;}
</style>
<title>defrosting</title>
<desc>Created with Sketch.</desc>
<g id="defrosting">
	<g id="Group-3">
		<g id="Clip-2">
		</g>
		<defs>
			<filter id="Adobe_OpacityMaskFilter" filterUnits="userSpaceOnUse" x="0" y="0" width="448" height="512">
				<feColorMatrix  type="matrix" values="1 0 0 0 0  0 1 0 0 0  0 0 1 0 0  0 0 0 1 0"/>
			</filter>
		</defs>
		<mask maskUnits="userSpaceOnUse" x="0" y="0" width="448" height="512" id="mask-2_1_">
			<g class="st0">
				<polygon id="path-1_1_" class="st1" points="0,0 448,0 448,512 0,512 				"/>
			</g>
		</mask>
		<path id="Fill-1" class="st2" d="M440.3,345.2l-33.8-19.5l26-7c8.2-2.2,13.1-10.7,10.9-18.9l-4-14.9c-2.2-8.2-10.7-13.1-18.9-10.9
			l-70.8,19l-63.9-37l63.8-36.9l70.8,19c8.2,2.2,16.7-2.7,18.9-10.9l4-14.9c2.2-8.2-2.7-16.7-10.9-18.9l-26-7l33.8-19.5
			c7.4-4.3,9.9-13.7,5.7-21.1L430.4,119c-4.3-7.4-13.7-9.9-21.1-5.7l-33.8,19.5l7-26c2.2-8.2-2.7-16.7-10.9-18.9l-14.9-4
			c-8.2-2.2-16.7,2.7-18.9,10.9l-19,70.8L256,201.8v-77.5l53.7-53.7c6.2-6.2,6.2-16.4,0-22.6l-11.3-11.3c-6.2-6.2-16.4-6.2-22.6,0
			L256,56.4V16c0-8.8-7.2-16-16-16h-32c-8.8,0-16,7.2-16,16v40.4l-19.7-19.7c-6.2-6.2-16.4-6.2-22.6,0L138.3,48
			c-6.3,6.2-6.3,16.4,0,22.6l53.7,53.7v77.5l-62.8-36.2l-19-70.8c-2.2-8.2-10.7-13.1-18.9-10.9l-14.9,4
			c-8.2,2.2-13.1,10.7-10.9,18.9l7,26l-33.8-19.5c-7.4-4.3-16.8-1.7-21.1,5.7L2.1,145.7c-4.3,7.4-1.7,16.8,5.7,21.1l33.8,19.5l-26,7
			c-8.3,2.2-13.2,10.7-11,19l4,14.9c2.2,8.2,10.7,13.1,18.9,10.9l70.8-19l63.8,36.9l-63.8,36.9l-70.8-19
			c-8.2-2.2-16.7,2.7-18.9,10.9l-4,14.9c-2.2,8.2,2.7,16.7,10.9,18.9l26,7L7.7,345.2c-7.4,4.3-9.9,13.7-5.7,21.1l15.5,26.8
			c4.3,7.4,13.7,9.9,21.1,5.7l33.8-19.5l-7,26c-2.2,8.2,2.7,16.7,10.9,18.9l14.9,4c8.2,2.2,16.7-2.7,18.9-10.9l19-70.8l62.8-36.2
			v77.5l-53.7,53.7c-6.3,6.2-6.3,16.4,0,22.6l11.3,11.3c6.2,6.2,16.4,6.2,22.6,0l19.7-19.7V496c0,8.8,7.2,16,16,16h32
			c8.8,0,16-7.2,16-16v-40.4l19.7,19.7c6.2,6.2,16.4,6.2,22.6,0l11.3-11.3c6.2-6.2,6.2-16.4,0-22.6L256,387.7v-77.5l62.8,36.2
			l19,70.8c2.2,8.2,10.7,13.1,18.9,10.9l14.9-4c8.2-2.2,13.1-10.7,10.9-18.9l-7-26l33.8,19.5c7.4,4.3,16.8,1.7,21.1-5.7l15.5-26.8
			C450.2,358.9,447.7,349.4,440.3,345.2"/>
	</g>
</g>
</svg>
