<?xml version="1.0" encoding="UTF-8"?>
<svg width="448px" height="512px" viewBox="0 0 448 512" version="1.1" xmlns="http://www.w3.org/2000/svg" xmlns:xlink="http://www.w3.org/1999/xlink">
    <!-- Generator: Sketch 57.1 (83088) - https://sketch.com -->
    <title>Fill 1</title>
    <desc>Created with Sketch.</desc>
    <g id="Fill-1" stroke="none" stroke-width="1" fill="none" fill-rule="evenodd">
        <path d="M336,208 C336,199.2 328.8,192 320,192 C311.2,192 304,199.2 304,208 L304,432 C304,440.8 311.2,448 320,448 C328.8,448 336,440.8 336,432 L336,208 Z M240,208 C240,199.2 232.8,192 224,192 C215.2,192 208,199.2 208,208 L208,432 C208,440.8 215.2,448 224,448 C232.8,448 240,440.8 240,432 L240,208 Z M144,208 C144,199.2 136.8,192 128,192 C119.2,192 112,199.2 112,208 L112,432 C112,440.8 119.2,448 128,448 C136.8,448 144,440.8 144,432 L144,208 Z M416,140 L416,464 C416,490.5 394.5,512 368,512 L80,512 C53.5,512 32,490.5 32,464 L32,140 C32,133.4 37.4,128 44,128 L404,128 C410.6,128 416,133.4 416,140 L416,140 Z M0,84 L0,56 C0,42.7 10.7,32 24,32 L136,32 L145.4,13.3 C149.4,5.1 157.7,0 166.8,0 L281.1,0 C290.2,0 298.5,5.1 302.6,13.3 L312,32 L424,32 C437.3,32 448,42.7 448,56 L448,84 C448,90.6 442.6,96 436,96 L12,96 C5.4,96 0,90.6 0,84 L0,84 Z" fill="#000000"></path>
    </g>
</svg>