<?xml version="1.0" encoding="UTF-8"?>
<svg width="496px" height="496px" viewBox="0 0 496 496" version="1.1" xmlns="http://www.w3.org/2000/svg" xmlns:xlink="http://www.w3.org/1999/xlink">
    <!-- Generator: Sketch 57.1 (83088) - https://sketch.com -->
    <title>Group 3</title>
    <desc>Created with Sketch.</desc>
    <defs>
        <polygon id="path-1" points="0 0 495.9998 0 495.9998 495.9998 0 495.9998"></polygon>
    </defs>
    <g id="Group-3" stroke="none" stroke-width="1" fill="none" fill-rule="evenodd">
        <g>
            <mask id="mask-2" fill="white">
                <use xlink:href="#path-1"></use>
            </mask>
            <g id="Clip-2"></g>
            <path d="M349.7998,185.7998 L287.5998,247.9998 L349.7998,310.1998 C354.4998,314.9008 354.4998,322.4998 349.7998,327.1998 L327.1998,349.7998 C322.4998,354.4998 314.9008,354.4998 310.1998,349.7998 L247.9998,287.5998 L185.7998,349.7998 C181.0998,354.4998 173.4998,354.4998 168.7998,349.7998 L146.1998,327.1998 C141.4998,322.4998 141.4998,314.9008 146.1998,310.1998 L208.3998,247.9998 L146.1998,185.7998 C141.4998,181.0998 141.4998,173.4998 146.1998,168.7998 L168.7998,146.1998 C173.4998,141.4998 181.0998,141.4998 185.7998,146.1998 L247.9998,208.3998 L310.1998,146.1998 C314.9008,141.4998 322.4998,141.4998 327.1998,146.1998 L349.7998,168.7998 C354.4998,173.4998 354.4998,181.0998 349.7998,185.7998 M247.9998,447.9998 C137.4998,447.9998 47.9998,358.4998 47.9998,247.9998 C47.9998,137.4998 137.4998,47.9998 247.9998,47.9998 C358.4998,47.9998 447.9998,137.4998 447.9998,247.9998 C447.9998,358.4998 358.4998,447.9998 247.9998,447.9998 M247.9998,-0.0002 C110.9998,-0.0002 -0.0002,110.9998 -0.0002,247.9998 C-0.0002,384.9998 110.9998,495.9998 247.9998,495.9998 C384.9998,495.9998 495.9998,384.9998 495.9998,247.9998 C495.9998,110.9998 384.9998,-0.0002 247.9998,-0.0002" id="Fill-1" fill="#000000" mask="url(#mask-2)"></path>
        </g>
    </g>
</svg>