<?xml version="1.0" encoding="UTF-8"?>
<svg width="22px" height="22px" viewBox="0 0 22 22" version="1.1" xmlns="http://www.w3.org/2000/svg" xmlns:xlink="http://www.w3.org/1999/xlink">
    <!-- Generator: Sketch 57.1 (83088) - https://sketch.com -->
    <title>icon calendar</title>
    <desc>Created with Sketch.</desc>
    <defs>
        <polygon id="path-1" points="0 21.699 21.8993333 21.699 21.8993333 0 0 0"></polygon>
    </defs>
    <g id="icon-calendar" stroke="none" stroke-width="1" fill="none" fill-rule="evenodd">
        <g id="icon">
            <g id="Group-18">
                <path d="M10.9002745,11.1754314 C11.5172745,10.4834314 12.2689412,9.91776471 13.1166078,9.51643137 L13.1166078,8.41176471 L10.3529412,8.41176471 L10.3529412,11.1754314 L10.9002745,11.1754314 Z" id="Fill-1" fill="#888888"></path>
                <mask id="mask-2" fill="white">
                    <use xlink:href="#path-1"></use>
                </mask>
                <g id="Clip-4"></g>
                <polygon id="Fill-3" fill="#888888" mask="url(#mask-2)" points="6.47058824 14.4107255 9.2342549 14.4107255 9.2342549 11.6470588 6.47058824 11.6470588"></polygon>
                <path d="M5.12941176,5.94333333 C5.6967451,5.94333333 5.77541176,5.45766667 5.77541176,5.45766667 L5.77541176,5.073 L5.77541176,0.839666667 L5.77541176,0.455 C5.77541176,0.455 5.74241176,0.097 5.36607843,0 L4.9817451,0 C4.59607843,0.097 4.52941176,0.455 4.52941176,0.455 L4.52941176,0.839666667 L4.52941176,5.073 L4.52941176,5.45766667 C4.52941176,5.45766667 4.5617451,5.94333333 5.12941176,5.94333333" id="Fill-5" fill="#888888" mask="url(#mask-2)"></path>
                <polygon id="Fill-6" fill="#888888" mask="url(#mask-2)" points="6.47058824 17.6460196 9.2342549 17.6460196 9.2342549 14.8823529 6.47058824 14.8823529"></polygon>
                <path d="M1.87523061,18.5635518 L1.87523061,7.04688512 L18.2758973,7.04688512 L18.2758973,8.75088512 C18.7985639,8.90455178 19.2935639,9.11855178 19.7572306,9.38355178 L19.7572306,7.04921845 C19.7572306,7.04921845 19.8015639,5.67888512 19.0592306,4.81788512 C18.2065639,3.82855178 16.8675639,3.88288512 16.8675639,3.88288512 L16.3488973,3.88288512 L16.3488973,4.62688512 L16.3488973,5.33721845 C16.3488973,5.33721845 16.2035639,6.23388512 15.1562306,6.23388512 C14.1085639,6.23388512 14.0485639,5.33721845 14.0485639,5.33721845 L14.0485639,4.62688512 L14.0485639,3.88288512 L11.2112306,3.88288512 L6.63889728,3.88288512 L6.63889728,4.62688512 L6.63889728,5.33721845 C6.63889728,5.33721845 6.49389728,6.23388512 5.44623061,6.23388512 C4.39856395,6.23388512 4.33823061,5.33721845 4.33823061,5.33721845 L4.33823061,4.62688512 L4.33823061,3.88288512 L3.53723061,3.88288512 C3.53723061,3.88288512 2.19823061,3.82855178 1.34523061,4.81788512 C0.603230614,5.67888512 0.647563947,7.04921845 0.647563947,7.04921845 L0.647563947,11.8778851 L0.647563947,12.2345518 L0.647563947,17.0632184 C0.647563947,17.0632184 0.603230614,18.4335518 1.34523061,19.2945518 C2.19823061,20.2838851 3.53723061,20.2295518 3.53723061,20.2295518 L9.19356395,20.2295518 L11.3328973,20.2295518 C10.8575639,19.7385518 10.4562306,19.1775518 10.1415639,18.5635518 L1.87523061,18.5635518 Z" id="Fill-7" fill="#888888" mask="url(#mask-2)"></path>
                <path d="M16.0682941,8.84643137 C16.3849608,8.84643137 16.6936275,8.87476471 16.9989608,8.91576471 L16.9989608,8.41176471 L14.2352941,8.41176471 L14.2352941,9.09909804 C14.8199608,8.93909804 15.4326275,8.84643137 16.0682941,8.84643137" id="Fill-8" fill="#888888" mask="url(#mask-2)"></path>
                <path d="M14.8352941,5.94333333 C15.4026275,5.94333333 15.4812941,5.45766667 15.4812941,5.45766667 L15.4812941,5.073 L15.4812941,0.839666667 L15.4812941,0.455 C15.4812941,0.455 15.4482941,0.097 15.0719608,0 L14.6876275,0 C14.3019608,0.097 14.2352941,0.455 14.2352941,0.455 L14.2352941,0.839666667 L14.2352941,5.073 L14.2352941,5.45766667 C14.2352941,5.45766667 14.2679608,5.94333333 14.8352941,5.94333333" id="Fill-9" fill="#888888" mask="url(#mask-2)"></path>
                <polygon id="Fill-11" fill="#888888" mask="url(#mask-2)" points="6.47058824 11.1754314 9.2342549 11.1754314 9.2342549 8.41176471 6.47058824 8.41176471"></polygon>
                <polygon id="Fill-13" fill="#888888" mask="url(#mask-2)" points="2.58823529 14.4107255 5.35190196 14.4107255 5.35190196 11.6470588 2.58823529 11.6470588"></polygon>
                <polygon id="Fill-14" fill="#888888" mask="url(#mask-2)" points="2.58823529 11.1754314 5.35190196 11.1754314 5.35190196 8.41176471 2.58823529 8.41176471"></polygon>
                <polygon id="Fill-15" fill="#888888" mask="url(#mask-2)" points="2.58823529 17.6460196 5.35190196 17.6460196 5.35190196 14.8823529 2.58823529 14.8823529"></polygon>
                <path d="M19.2670784,15.6530606 L16.5834118,15.6530606 L16.5894118,12.383394 L16.5900784,12.058394 C16.5900784,12.058394 16.5634118,11.6480606 16.0840784,11.6470588 C15.6044118,11.6460606 15.5374118,12.056394 15.5374118,12.056394 L15.5367451,12.381394 L15.5300784,15.9577273 L15.5294118,16.2827273 C15.5294118,16.2827273 15.5584118,16.6467273 15.9687451,16.686394 L15.9687451,16.692394 L16.0230784,16.692394 C16.0277451,16.6927273 16.0310784,16.6940606 16.0357451,16.6940606 C16.0404118,16.6940606 16.0437451,16.6927273 16.0487451,16.692394 L19.2627451,16.6927273 C19.2627451,16.6927273 19.6680784,16.6670606 19.6697551,16.1937273 C19.6720784,15.720394 19.2670784,15.6530606 19.2670784,15.6530606" id="Fill-16" fill="#888888" mask="url(#mask-2)"></path>
                <path d="M15.7518824,21.153549 C12.768549,21.153549 10.3502157,18.7352157 10.3502157,15.7518824 C10.3502157,12.768549 12.768549,10.3502157 15.7518824,10.3502157 C18.7352157,10.3502157 21.153549,12.768549 21.153549,15.7518824 C21.153549,18.7352157 18.7352157,21.153549 15.7518824,21.153549 M15.7518824,9.70588235 C12.4128824,9.70588235 9.70588235,12.4128824 9.70588235,15.7518824 C9.70588235,18.9128824 12.1352157,21.495549 15.2272157,21.7628824 L16.276549,21.7628824 C19.368549,21.495549 21.7978824,18.9128824 21.7978824,15.7518824 C21.7978824,12.4128824 19.0908824,9.70588235 15.7518824,9.70588235" id="Fill-17" fill="#888888" mask="url(#mask-2)"></path>
            </g>
        </g>
    </g>
</svg>