<?xml version="1.0" encoding="UTF-8"?>
<svg width="496px" height="496px" viewBox="0 0 496 496" version="1.1" xmlns="http://www.w3.org/2000/svg" xmlns:xlink="http://www.w3.org/1999/xlink">
    <!-- Generator: Sketch 57.1 (83088) - https://sketch.com -->
    <title>information</title>
    <desc>Created with Sketch.</desc>
    <g id="information" stroke="none" stroke-width="1" fill="none" fill-rule="evenodd">
        <path d="M304,364 C304,370.627 298.627,376 292,376 L204,376 C197.373,376 192,370.627 192,364 L192,340 C192,333.373 197.373,328 204,328 L216,328 L216,264 L204,264 C197.373,264 192,258.627 192,252 L192,228 C192,221.373 197.373,216 204,216 L268,216 C274.627,216 280,221.373 280,228 L280,328 L292,328 C298.627,328 304,333.373 304,340 L304,364 Z M248,110 C271.196,110 290,128.804 290,152 C290,175.196 271.196,194 248,194 C224.804,194 206,175.196 206,152 C206,128.804 224.804,110 248,110 L248,110 Z M248,0 C111.043,0 0,111.083 0,248 C0,384.997 111.043,496 248,496 C384.957,496 496,384.997 496,248 C496,111.083 384.957,0 248,0 L248,0 Z" id="Fill-1" fill="#000000"></path>
    </g>
</svg>