<?xml version="1.0" encoding="UTF-8"?>
<svg width="641px" height="512px" viewBox="0 0 641 512" version="1.1" xmlns="http://www.w3.org/2000/svg" xmlns:xlink="http://www.w3.org/1999/xlink">
    <!-- Generator: Sketch 57.1 (83088) - https://sketch.com -->
    <title>solar panel</title>
    <desc>Created with Sketch.</desc>
    <defs>
        <polygon id="path-1" points="8.23683765e-05 0 640.004 0 640.004 512 8.23683765e-05 512"></polygon>
        <polygon id="path-3" points="0 0.849828571 489.465348 0.849828571 489.465348 304.857143 0 304.857143"></polygon>
        <polygon id="path-5" points="0.100436303 0.8416 73.0595323 0.8416 73.0595323 48.2087385 0.100436303 48.2087385"></polygon>
    </defs>
    <g id="solar-panel" stroke="none" stroke-width="1" fill="none" fill-rule="evenodd">
        <g id="Group-3">
            <mask id="mask-2" fill="white">
                <use xlink:href="#path-1"></use>
            </mask>
            <g id="Clip-2"></g>
        </g>
        <g id="Group-25" transform="translate(37.000000, 0.000000)">
            <path d="M261.130935,285.199543 L261.130935,328.765257 L306.033677,328.765257 C287.907968,317.8944 272.544097,302.945829 261.130935,285.199543" id="Fill-1" fill="#222222"></path>
            <path d="M261.130935,453.592686 L402.624871,453.592686 C416.735855,453.592686 412.172419,437.098971 412.172419,437.098971 L393.552871,350.936686 L261.130935,350.936686 L261.130935,453.592686 Z" id="Fill-3" fill="#222222"></path>
            <path d="M199.4139,100.213029 C199.4139,100.213029 185.586416,93.8861714 178.782416,106.8416 C172.453965,118.855314 186.244868,127.614171 186.244868,127.614171 L198.974932,134.5536 L198.947497,134.6176 L244.280061,159.330743 C244.280061,159.330743 258.107545,165.6576 264.92069,152.702171 C271.239997,140.688457 257.458239,131.9296 257.458239,131.9296 L243.978271,124.587886 L244.005706,124.514743 L199.4139,100.213029 Z" id="Fill-5" fill="#222222"></path>
            <g id="Group-9" transform="translate(0.000000, 201.232000)">
                <mask id="mask-4" fill="white">
                    <use xlink:href="#path-3"></use>
                </mask>
                <g id="Clip-8"></g>
                <path d="M454.402945,122.641829 C445.559574,128.767543 435.9663,133.8784 425.77859,137.809829 L452.198961,258.303543 C452.198961,258.303543 458.042719,279.103543 439.981026,279.103543 L246.670606,279.103543 L242.802203,279.103543 L49.4917839,279.103543 C31.4300903,279.103543 37.2738484,258.303543 37.2738484,258.303543 L82.3046226,52.9184 C82.3046226,52.9184 85.615171,24.0818286 118.299977,24.0818286 L240.131816,24.0818286 C239.665413,19.4555429 239.418494,14.7652571 239.418494,10.0109714 C239.418494,6.92982857 239.555671,3.87611429 239.756865,0.849828571 L96.2235581,0.849828571 C57.8413161,0.849828571 53.9454774,35.2178286 53.9454774,35.2178286 L1.05900968,280.072686 C1.05900968,280.072686 -5.80900645,304.858971 15.4077677,304.858971 L242.463832,304.858971 L247.008977,304.858971 L474.055897,304.858971 C495.272671,304.858971 488.404655,280.072686 488.404655,280.072686 L454.402945,122.641829 Z" id="Fill-7" fill="#222222" mask="url(#mask-4)"></path>
            </g>
            <path d="M228.34096,251.316114 L140.620573,251.316114 C115.078137,251.316114 112.490056,274.1824 112.490056,274.1824 L100.701944,328.765257 L228.34096,328.765257 L228.34096,251.316114 Z" id="Fill-10" fill="#222222"></path>
            <g id="Group-16" transform="translate(493.693548, 142.374857)">
                <mask id="mask-6" fill="white">
                    <use xlink:href="#path-5"></use>
                </mask>
                <g id="Clip-15"></g>
            </g>
            <path d="M480.422758,19.4322286 C468.406016,13.1145143 459.644952,26.8928 459.644952,26.8928 L452.703774,39.6288 L452.630613,39.5922286 L427.920387,84.9225143 C427.920387,84.9225143 421.591935,98.7373714 434.541484,105.5488 C446.567371,111.866514 455.31929,98.0882286 455.31929,98.0882286 L462.672,84.6116571 L462.736016,84.6482286 L487.053,40.0585143 C487.053,40.0585143 493.381452,26.2436571 480.422758,19.4322286" id="Fill-17" fill="#222222"></path>
            <path d="M562.345035,123.560027 C550.328293,117.242313 541.567228,131.020598 541.567228,131.020598 L534.626051,143.756598 L534.552889,143.720027 L509.842664,189.050313 C509.842664,189.050313 503.514212,202.86517 516.46376,209.676598 C528.489648,215.994313 537.241567,202.216027 537.241567,202.216027 L544.594277,188.739455 L544.658293,188.776027 L568.975277,144.186313 C568.975277,144.186313 575.303728,130.371455 562.345035,123.560027" id="Fill-17" fill="#222222" transform="translate(539.408418, 166.618313) rotate(45.000000) translate(-539.408418, -166.618313) "></path>
            <path d="M550.65245,254.053626 C538.635708,247.735912 529.874643,261.514197 529.874643,261.514197 L522.933466,274.250197 L522.860305,274.213626 L498.150079,319.543912 C498.150079,319.543912 491.821627,333.358769 504.771176,340.170197 C516.797063,346.487912 525.548982,332.709626 525.548982,332.709626 L532.901692,319.233054 L532.965708,319.269626 L557.282692,274.679912 C557.282692,274.679912 563.611143,260.865054 550.65245,254.053626" id="Fill-17" fill="#222222" transform="translate(527.715833, 297.111912) rotate(90.000000) translate(-527.715833, -297.111912) "></path>
            <path d="M347.688058,115.520914 C294.069977,131.255771 263.360526,187.466057 279.099348,241.070629 C294.838171,294.684343 351.062623,325.386057 404.680703,309.6512 C458.298784,293.916343 489.008235,237.706057 473.269413,184.092343 C457.539735,130.487771 401.306139,99.7860571 347.688058,115.520914" id="Fill-19" fill="#222222"></path>
            <path d="M332.13031,10.7264 C332.13031,10.7264 326.835261,-3.51817143 312.85231,0.824685714 C299.884471,4.85668571 303.441939,20.7926857 303.441939,20.7926857 L307.538971,34.6989714 L307.46581,34.7264 L322.043197,84.2532571 C322.043197,84.2532571 327.34739,98.4978286 341.321197,94.1549714 C354.289035,90.1229714 350.740713,74.1869714 350.740713,74.1869714 L346.405906,59.4669714 L346.479068,59.4395429 L332.13031,10.7264 Z" id="Fill-21" fill="#222222"></path>
            <path d="M77.3031339,437.097143 C77.3031339,437.097143 72.7305532,453.590857 86.8415371,453.590857 L228.344618,453.590857 L228.344618,350.944 L95.9135371,350.944 L77.3031339,437.097143 Z" id="Fill-23" fill="#222222"></path>
        </g>
    </g>
</svg>