<?xml version="1.0" encoding="UTF-8"?>
<svg width="26px" height="57px" viewBox="0 0 26 57" version="1.1" xmlns="http://www.w3.org/2000/svg" xmlns:xlink="http://www.w3.org/1999/xlink">
    <!-- Generator: Sketch 57.1 (83088) - https://sketch.com -->
    <title>Mandatory</title>
    <desc>Created with Sketch.</desc>
    <g id="/Mandatory" stroke="none" stroke-width="1" fill="none" fill-rule="evenodd">
        <path d="M11.7241484,26.912 L11.7241484,22.52 C11.7241484,22.1999984 11.7441482,21.8880015 11.7841484,21.584 C11.8241486,21.2799985 11.8921479,20.9920014 11.9881484,20.72 C11.8121475,20.9440011 11.6041496,21.1439991 11.3641484,21.32 C11.1241472,21.4960009 10.8681497,21.6719991 10.5961484,21.848 L6.80414835,24.056 L5.38814835,21.656 L9.20414835,19.448 C9.49214979,19.2719991 9.77614695,19.1280006 10.0561484,19.016 C10.3361498,18.9039994 10.6281468,18.8240002 10.9321484,18.776 C10.6281468,18.7439998 10.3361498,18.6640006 10.0561484,18.536 C9.77614695,18.4079994 9.49214979,18.2560009 9.20414835,18.08 L5.38814835,15.848 L6.78014835,13.448 L10.5961484,15.704 C10.8681497,15.8800009 11.1281471,16.0599991 11.3761484,16.244 C11.6241496,16.4280009 11.8361475,16.6319989 12.0121484,16.856 C11.9001478,16.5839986 11.8241486,16.2960015 11.7841484,15.992 C11.7441482,15.6879985 11.7241484,15.3760016 11.7241484,15.056 L11.7241484,10.616 L14.5561484,10.616 L14.5561484,15.008 C14.5561484,15.3440017 14.5361486,15.6679984 14.4961484,15.98 C14.4561482,16.2920016 14.3801489,16.5839986 14.2681484,16.856 C14.4441492,16.6319989 14.6521472,16.4280009 14.8921484,16.244 C15.1321496,16.0599991 15.3961469,15.8800009 15.6841484,15.704 L19.4761484,13.496 L20.8921484,15.896 L17.0761484,18.08 C16.7881469,18.2560009 16.5041498,18.4039994 16.2241484,18.524 C15.944147,18.6440006 15.6521499,18.7279998 15.3481484,18.776 C15.8921511,18.8720005 16.4681453,19.0959982 17.0761484,19.448 L20.8921484,21.68 L19.5001484,24.08 L15.6841484,21.848 C15.3961469,21.6719991 15.1321496,21.4960009 14.8921484,21.32 C14.6521472,21.1439991 14.4361493,20.9440011 14.2441484,20.72 C14.4521494,21.2320026 14.5561484,21.8239966 14.5561484,22.496 L14.5561484,26.912 L11.7241484,26.912 Z" id="*" fill="#000000"></path>
    </g>
</svg>