<?xml version="1.0" encoding="UTF-8"?>
<svg width="100px" height="100px" viewBox="0 0 100 100" version="1.1" xmlns="http://www.w3.org/2000/svg" xmlns:xlink="http://www.w3.org/1999/xlink">
    <!-- Generator: Sketch 57.1 (83088) - https://sketch.com -->
    <title>icon/close/circle/default</title>
    <desc>Created with Sketch.</desc>
    <g id="icon/close/circle/default" stroke="none" stroke-width="1" fill="none" fill-rule="evenodd">
        <path d="M50,27.0833333 C62.6565255,27.0833333 72.9166667,37.3434745 72.9166667,50 C72.9166667,62.6565255 62.6565255,72.9166667 50,72.9166667 C37.3434745,72.9166667 27.0833333,62.6565255 27.0833333,50 C27.0833333,37.3434745 37.3434745,27.0833333 50,27.0833333 Z M50,31.25 C39.6446609,31.25 31.25,39.6446609 31.25,50 C31.25,60.3553391 39.6446609,68.75 50,68.75 C60.3553391,68.75 68.75,60.3553391 68.75,50 C68.75,39.6446609 60.3553391,31.25 50,31.25 Z M57.3656956,42.6343044 C58.1792879,43.4478966 58.1792879,44.7669903 57.3656956,45.5805826 L52.9463333,49.9993333 L57.3656956,54.4194174 C58.1792879,55.2330097 58.1792879,56.5521034 57.3656956,57.3656956 C56.5521034,58.1792879 55.2330097,58.1792879 54.4194174,57.3656956 L49.9993333,52.9463333 L45.5805826,57.3656956 C44.7669903,58.1792879 43.4478966,58.1792879 42.6343044,57.3656956 C41.8207121,56.5521034 41.8207121,55.2330097 42.6343044,54.4194174 L47.0533333,49.9993333 L42.6343044,45.5805826 C41.8207121,44.7669903 41.8207121,43.4478966 42.6343044,42.6343044 C43.4478966,41.8207121 44.7669903,41.8207121 45.5805826,42.6343044 L49.9993333,47.0533333 L54.4194174,42.6343044 C55.2330097,41.8207121 56.5521034,41.8207121 57.3656956,42.6343044 Z" id="Combined-Shape" fill="#734875"></path>
    </g>
</svg>