<?xml version="1.0" encoding="UTF-8"?>
<svg width="47px" height="47px" viewBox="0 0 47 47" version="1.1" xmlns="http://www.w3.org/2000/svg" xmlns:xlink="http://www.w3.org/1999/xlink">
    <!-- Generator: Sketch 57.1 (83088) - https://sketch.com -->
    <title>icon/pencil/black-medium</title>
    <desc>Created with Sketch.</desc>
    <g id="icon/pencil/black-medium" stroke="none" stroke-width="1" fill="none" fill-rule="evenodd">
        <g id="Potlood" transform="translate(23.853553, 23.853553) rotate(45.000000) translate(-23.853553, -23.853553) translate(17.853553, 4.353553)" fill="#000000">
            <path d="M8.5,34 L6,39 L3.5,34 L8.5,34 Z M12,6 L12,27 L12,27 L9,33 L3,33 L-2.66453526e-14,27 L-2.48689958e-14,6 L12,6 Z M4,6 L3,6 L3,27 L4,27 L4,6 Z M9,6 L8,6 L8,27 L9,27 L9,6 Z M12,1.77635684e-14 L12,5 L-2.48689958e-14,5 L-2.48689958e-14,1.77635684e-14 L12,1.77635684e-14 Z" id="Combined-Shape"></path>
        </g>
    </g>
</svg>