<?xml version="1.0" encoding="UTF-8"?>
<svg width="100px" height="100px" viewBox="0 0 100 100" version="1.1" xmlns="http://www.w3.org/2000/svg" xmlns:xlink="http://www.w3.org/1999/xlink">
    <!-- Generator: Sketch 57.1 (83088) - https://sketch.com -->
    <title>icon/plus/default</title>
    <desc>Created with Sketch.</desc>
    <g id="icon/plus/default" stroke="none" stroke-width="1" fill="none" fill-rule="evenodd">
        <path d="M75,48 L52,48 L52,25 C52,23.9 51.1,23 50,23 C48.9,23 48,23.9 48,25 L48,48 L25,48 C23.9,48 23,48.9 23,50 C23,51.1 23.9,52 25,52 L48,52 L48,75 C48,76.1 48.9,77 50,77 C51.1,77 52,76.1 52,75 L52,52 L75,52 C76.1,52 77,51.1 77,50 C77,48.9 76.1,48 75,48" id="Page-1" fill="#734875"></path>
    </g>
</svg>