<?xml version="1.0" encoding="UTF-8"?>
<svg width="28px" height="28px" viewBox="0 0 28 28" version="1.1" xmlns="http://www.w3.org/2000/svg" xmlns:xlink="http://www.w3.org/1999/xlink">
    <!-- Generator: Sketch 57.1 (83088) - https://sketch.com -->
    <title>Map/Gasboiler</title>
    <desc>Created with Sketch.</desc>
    <g id="Map/Gasboiler" stroke="none" stroke-width="1" fill="none" fill-rule="evenodd">
        <rect id="Rectangle-9" stroke="#000000" stroke-width="2" x="1" y="1" width="26" height="26"></rect>
        <g id="FlameIcon" transform="translate(11.000000, 11.000000)"></g>
        <path d="M14,6 C14.75,6 20,13.1692245 20,16.3111111 C20,19.4529977 17.3137085,22 14,22 C10.6862915,22 8,19.4529977 8,16.3111111 C8,13.1692245 13.25,6 14,6 Z M14,12 C13.625,12 11,15.5846123 11,17.1555556 C11,18.7264988 12.3431458,20 14,20 C15.6568542,20 17,18.7264988 17,17.1555556 C17,15.5846123 14.375,12 14,12 Z" id="Combined-Shape" fill="#000000"></path>
    </g>
</svg>