<?xml version="1.0" encoding="UTF-8"?>
<svg width="100px" height="100px" viewBox="0 0 100 100" version="1.1" xmlns="http://www.w3.org/2000/svg" xmlns:xlink="http://www.w3.org/1999/xlink">
    <!-- Generator: Sketch 57.1 (83088) - https://sketch.com -->
    <title>icon/menu/default/default</title>
    <desc>Created with Sketch.</desc>
    <g id="icon/menu/default/default" stroke="none" stroke-width="1" fill="none" fill-rule="evenodd">
        <g id="Group" transform="translate(26.000000, 24.000000)" fill="#734875">
            <polygon id="Rectangle-2" points="0.467773438 0 47.2677734 0 47.2677734 5.4 0.467773438 5.4"></polygon>
            <polygon id="Rectangle-2" points="0.467773438 10.8 47.2677734 10.8 47.2677734 16.2 0.467773438 16.2"></polygon>
            <polygon id="Rectangle-2" points="0.467773438 21.6 47.2677734 21.6 47.2677734 27 0.467773438 27"></polygon>
            <path d="M5.62695313,38.8828125 L8.58535156,47.2359375 L11.5279297,38.8828125 L14.6445313,38.8828125 L14.6445313,50.4 L12.2635742,50.4 L12.2635742,47.2517578 L12.5008789,41.8174805 L9.3921875,50.4 L7.76269531,50.4 L4.66191406,41.8253906 L4.89921875,47.2517578 L4.89921875,50.4 L2.52617188,50.4 L2.52617188,38.8828125 L5.62695313,38.8828125 Z M23.6462891,45.4086914 L19.0900391,45.4086914 L19.0900391,48.4936523 L24.4373047,48.4936523 L24.4373047,50.4 L16.7169922,50.4 L16.7169922,38.8828125 L24.4214844,38.8828125 L24.4214844,40.8049805 L19.0900391,40.8049805 L19.0900391,43.5498047 L23.6462891,43.5498047 L23.6462891,45.4086914 Z M35.1951172,50.4 L32.8220703,50.4 L28.2025391,42.8220703 L28.2025391,50.4 L25.8294922,50.4 L25.8294922,38.8828125 L28.2025391,38.8828125 L32.8299805,46.4765625 L32.8299805,38.8828125 L35.1951172,38.8828125 L35.1951172,50.4 Z M45.9845703,38.8828125 L45.9845703,46.4686523 C45.9845703,47.7290102 45.5903848,48.7256799 44.802002,49.4586914 C44.0136191,50.1917029 42.9365303,50.5582031 41.5707031,50.5582031 C40.2259698,50.5582031 39.1581094,50.2022497 38.3670898,49.490332 C37.5760703,48.7784144 37.1726563,47.8002015 37.1568359,46.5556641 L37.1568359,38.8828125 L39.5298828,38.8828125 L39.5298828,46.4844727 C39.5298828,47.238578 39.7104962,47.7883284 40.0717285,48.1337402 C40.4329608,48.4791521 40.932614,48.6518555 41.5707031,48.6518555 C42.9048895,48.6518555 43.5825194,47.9504953 43.6036133,46.5477539 L43.6036133,38.8828125 L45.9845703,38.8828125 Z" id="menu"></path>
        </g>
    </g>
</svg>