<?xml version="1.0" encoding="UTF-8"?>
<svg width="100px" height="100px" viewBox="0 0 100 100" version="1.1" xmlns="http://www.w3.org/2000/svg" xmlns:xlink="http://www.w3.org/1999/xlink">
    <!-- Generator: Sketch 57.1 (83088) - https://sketch.com -->
    <title>icon/clock/default</title>
    <desc>Created with Sketch.</desc>
    <g id="icon/clock/default" stroke="none" stroke-width="1" fill="none" fill-rule="evenodd">
        <path d="M65.7002,63.3 L52.0002,50.1 L52.0002,14 C52.0002,12.9 51.0992,12 50.0002,12 C48.9002,12 48.0002,12.9 48.0002,14 L48.0002,51 L48.0002,51.2 L48.0002,51.3 C48.0002,51.401 48.0002,51.401 48.1002,51.5 C48.1002,51.6 48.1002,51.6 48.2002,51.7 L48.3002,51.8 C48.3002,51.901 48.4002,51.901 48.4002,52 L48.5002,52.1 C48.6002,52.2 48.6002,52.2 48.7002,52.3 L63.0002,66 C63.4002,66.401 63.9002,66.6 64.4002,66.6 C64.9002,66.6 65.5002,66.401 65.8002,66 C66.5002,65.3 66.5002,64 65.7002,63.3" id="Fill-1" fill="#734875"></path>
    </g>
</svg>