<?xml version="1.0" encoding="UTF-8"?>
<svg width="100px" height="100px" viewBox="0 0 100 100" version="1.1" xmlns="http://www.w3.org/2000/svg" xmlns:xlink="http://www.w3.org/1999/xlink">
    <!-- Generator: Sketch 57.1 (83088) - https://sketch.com -->
    <title>icon/mode-arrows/default</title>
    <desc>Created with Sketch.</desc>
    <g id="icon/mode-arrows/default" stroke="none" stroke-width="1" fill="none" fill-rule="evenodd">
        <path d="M71.2198,66.8636 L51.1188,55.2626 C50.2198,54.7626 49.1198,54.6636 48.2198,55.1636 L27.5198,65.6636 C26.0198,66.3636 24.2198,65.8636 23.4198,64.4636 C22.5198,62.9636 23.1198,60.9636 24.7198,60.1636 L48.3198,47.8636 C49.2198,47.3636 50.4198,47.3636 51.3198,47.9636 L74.5198,61.2626 C76.0198,62.1636 76.5198,64.0636 75.6188,65.5636 L75.5198,65.8636 C74.5198,67.2626 72.7198,67.6636 71.2198,66.8636" id="Fill-4" fill="#734875"></path>
        <path d="M71.2198,51.9632 L51.2198,40.3632 C50.2198,39.7632 49.1198,39.7632 48.1198,40.2632 L27.7198,51.0632 C26.1198,51.8632 24.2198,51.2632 23.4198,49.7632 C22.5198,48.1632 23.1198,46.1632 24.7198,45.3632 L48.2198,33.3632 C49.1198,32.8632 50.3198,32.8632 51.2198,33.4632 L74.4198,46.3632 C76.0198,47.2632 76.5198,49.2632 75.6188,50.8632 C74.6188,52.3632 72.7198,52.7632 71.2198,51.9632" id="Fill-1" fill="#734875"></path>
    </g>
</svg>