<?xml version="1.0" encoding="utf-8"?>
<!-- Generator: Adobe Illustrator 23.0.6, SVG Export Plug-In . SVG Version: 6.00 Build 0)  -->
<svg version="1.1" id="Layer_1" xmlns="http://www.w3.org/2000/svg" xmlns:xlink="http://www.w3.org/1999/xlink" x="0px" y="0px"
	 viewBox="0 0 100 100" style="enable-background:new 0 0 100 100;" xml:space="preserve">
<style type="text/css">
	.st0{fill-rule:evenodd;clip-rule:evenodd;}
</style>
<title>icon/schedule/default</title>
<desc>Created with Sketch.</desc>
<g>
	<path id="Fill-3" class="st0" d="M37,72.2l12.3,7.2c0.6,0.3,1.3,0.3,1.8,0l12.6-6.6c0.9-0.5,2.1-0.1,2.5,0.8l0.1,0.1
		c0.5,0.9,0.1,2.1-0.8,2.6l-14.4,7.3c-0.6,0.3-1.2,0.3-1.8,0l-14.3-8c-0.9-0.5-1.3-1.7-0.7-2.6l0.1-0.1C35,72,36.1,71.7,37,72.2
		 M37,63.1l12.3,7.1c0.6,0.3,1.2,0.3,1.8,0l12.7-6.5c0.9-0.5,2-0.1,2.5,0.8c0.5,0.9,0.2,2.1-0.8,2.6l-14.4,7.5
		c-0.6,0.3-1.3,0.3-1.8,0L35,66.5c-0.9-0.5-1.2-1.7-0.7-2.6l0.1-0.1C35,62.9,36.1,62.6,37,63.1"/>
	<path id="Fill-1" class="st0" d="M63.6,37.8l-12.3-7.1c-0.6-0.3-1.2-0.3-1.8,0l-12.7,6.5c-0.9,0.5-2,0.1-2.5-0.8
		c-0.5-0.9-0.2-2.1,0.8-2.6l14.4-7.5c0.6-0.3,1.3-0.3,1.8,0l14.3,8.1c0.9,0.5,1.2,1.7,0.7,2.6l-0.1,0.1C65.6,38,64.5,38.3,63.6,37.8
		 M63.6,28.7l-12.3-7.2c-0.6-0.3-1.3-0.3-1.8,0l-12.6,6.6c-0.9,0.5-2.1,0.1-2.5-0.8l-0.1-0.1c-0.5-0.9-0.1-2.1,0.8-2.6l14.4-7.4
		c0.6-0.3,1.2-0.3,1.8,0l14.3,8c0.9,0.5,1.3,1.7,0.7,2.6l-0.1,0.1C65.6,28.9,64.5,29.2,63.6,28.7"/>
</g>
</svg>
