<?xml version="1.0" encoding="UTF-8"?>
<svg width="100px" height="100px" viewBox="0 0 100 100" version="1.1" xmlns="http://www.w3.org/2000/svg" xmlns:xlink="http://www.w3.org/1999/xlink">
    <!-- Generator: Sketch 57.1 (83088) - https://sketch.com -->
    <title>icon/mainboard/secondary board selected</title>
    <desc>Created with Sketch.</desc>
    <defs>
        <polygon id="path-1" points="0.000185929694 0.975138158 89.9893421 0.975138158 89.9893421 48.5525731 0.000185929694 48.5525731"></polygon>
    </defs>
    <g id="icon/mainboard/secondary-board-selected" stroke="none" stroke-width="1" fill="none" fill-rule="evenodd">
        <g id="Group-18" transform="translate(5.000000, 14.000000)">
            <path d="M1.31909211,25.9861974 L13.6739605,32.4508026 L20.1456711,29.0663289 L10.0502763,23.7823816 L43.1501447,6.47396053 C44.3000132,5.86882895 45.6736974,5.86882895 46.8235658,6.47396053 L79.9400132,23.7859342 L69.8398816,29.0663289 L76.3151447,32.4460658 L88.6700132,25.9826447 C89.8850132,25.3325132 90.3421184,23.8190921 89.6919868,22.6052763 C89.4598816,22.1706711 89.1034342,21.8142237 88.6700132,21.5821184 L49.5200132,1.11422368 C46.6850132,-0.370776316 43.3029079,-0.370776316 40.4679079,1.11422368 L1.32501316,21.5821184 C0.107644737,22.2358026 -0.349460526,23.7527763 0.305407895,24.9701447 C0.535144737,25.4000132 0.888039474,25.7540921 1.31790789,25.9861974 L1.31909211,25.9861974 Z" id="Fill-1" fill="#575757"></path>
            <g id="Group-5" transform="translate(0.000000, 23.116026)">
                <mask id="mask-2" fill="white">
                    <use xlink:href="#path-1"></use>
                </mask>
                <g id="Clip-4"></g>
                <path d="M88.6708421,22.5576711 L49.5196579,2.08977632 C46.6858421,0.603592105 43.3025526,0.603592105 40.4687368,2.08977632 L1.31873684,22.5576711 C0.102552632,23.2089868 -0.354552632,24.7235921 0.296763158,25.9397763 C0.528868421,26.3743816 0.885315789,26.7296447 1.31873684,26.96175 L40.4651842,47.4379342 C43.3001842,48.9229342 46.6834737,48.9241184 49.5196579,47.4414868 L88.6708421,26.9653026 C89.8882105,26.3116184 90.3453158,24.7958289 89.6916316,23.5784605 C89.4595263,23.1462237 89.1042632,22.7897763 88.6708421,22.5576711" id="Fill-3" fill="#575757" mask="url(#mask-2)"></path>
            </g>
            <polygon id="Fill-6" fill="#575757" points="35.8509079 21.4378816 35.8509079 15.0348553 40.5995921 15.0348553 40.5995921 16.1172237 37.1440658 16.1172237 37.1440658 17.5370921 40.3591974 17.5370921 40.3591974 18.6159079 37.1440658 18.6159079 37.1440658 20.3590658 40.7215658 20.3590658 40.7215658 21.4378816"></polygon>
            <polygon id="Fill-8" fill="#575757" points="41.8222895 21.4378816 41.8222895 15.0348553 43.1154474 15.0348553 43.1154474 17.5548553 45.6484737 17.5548553 45.6484737 15.0348553 46.9416316 15.0348553 46.9416316 21.4378816 45.6484737 21.4378816 45.6484737 18.6384079 43.1154474 18.6384079 43.1154474 21.4378816"></polygon>
            <path d="M52.3755,19.0833158 L53.6295789,19.4812105 C53.4365526,20.1798947 53.1168158,20.6997632 52.6703684,21.0384474 C52.2227368,21.3771316 51.6566842,21.5476579 50.9698421,21.5476579 C50.1183947,21.5476579 49.4197105,21.2563421 48.8726053,20.6760789 C48.3255,20.0946316 48.0507632,19.3012105 48.0507632,18.2934474 C48.0507632,17.2276579 48.3266842,16.3987105 48.8761579,15.8101579 C49.4268158,15.2192368 50.1503684,14.9255526 51.048,14.9255526 C51.8307632,14.9255526 52.4678684,15.1564737 52.9569474,15.6195 C53.2470789,15.8930526 53.4661579,16.2862105 53.6118158,16.7989737 L52.3316842,17.1045 C52.2558947,16.7729211 52.0983947,16.5112105 51.858,16.3193684 C51.6176053,16.1263421 51.3251053,16.0304211 50.9816842,16.0304211 C50.5068158,16.0304211 50.1219474,16.2009474 49.8270789,16.542 C49.5310263,16.8818684 49.383,17.4337105 49.383,18.1963421 C49.383,19.0063421 49.5286579,19.5830526 49.8199737,19.9264737 C50.1112895,20.2698947 50.4902368,20.4416053 50.9556316,20.4416053 C51.2990526,20.4416053 51.5951053,20.3326579 51.8426053,20.1147632 C52.0901053,19.8968684 52.2677368,19.5522632 52.3755,19.0833158" id="Fill-10" fill="#575757"></path>
            <path d="M32.8978421,48.6515132 L34.5746842,48.4880921 C34.6753421,49.0505921 34.8802105,49.4650658 35.1892895,49.7291447 C35.4983684,49.9932237 35.9140263,50.1246711 36.4386316,50.1246711 C36.9940263,50.1246711 37.4120526,50.0074342 37.6938947,49.7729605 C37.9757368,49.5373026 38.1154737,49.2625658 38.1154737,48.9475658 C38.1154737,48.74625 38.0562632,48.5745395 37.9378421,48.4324342 C37.8194211,48.2915132 37.6133684,48.1683553 37.3173158,48.0629605 C37.116,47.9930921 36.6565263,47.86875 35.9377105,47.6899342 C35.0140263,47.4613816 34.3650789,47.1795395 33.9920526,46.8455921 C33.4686316,46.3766447 33.2057368,45.8034868 33.2057368,45.1273026 C33.2057368,44.6926974 33.3300789,44.2853289 33.5763947,43.9075658 C33.8227105,43.5286184 34.1779737,43.2408553 34.6421842,43.0430921 C35.1063947,42.8441447 35.6653421,42.7458553 36.3225789,42.7458553 C37.3931053,42.7458553 38.2007368,42.9803289 38.7419211,43.4504605 C39.2842895,43.9194079 39.5685,44.5470395 39.5957368,45.3309868 L37.8715263,45.4067763 C37.7981053,44.9686184 37.6394211,44.6536184 37.3966579,44.4605921 C37.1538947,44.26875 36.7903421,44.1728289 36.3048158,44.1728289 C35.8038947,44.1728289 35.4119211,44.2758553 35.1277105,44.4819079 C34.9453421,44.6133553 34.8541579,44.7898026 34.8541579,45.01125 C34.8541579,45.21375 34.9406053,45.3854605 35.1111316,45.5299342 C35.3278421,45.7123026 35.856,45.9017763 36.6956053,46.1007237 C37.5340263,46.2984868 38.1533684,46.5033553 38.556,46.7153289 C38.9574474,46.9261184 39.2724474,47.21625 39.4998158,47.5821711 C39.726,47.9492763 39.8396842,48.4028289 39.8396842,48.9428289 C39.8396842,49.4319079 39.7046842,49.8901974 39.4323158,50.3165132 C39.1611316,50.7440132 38.7762632,51.0613816 38.2788947,51.2686184 C37.7827105,51.4770395 37.1633684,51.58125 36.4208684,51.58125 C35.3420526,51.58125 34.5131053,51.3313816 33.9340263,50.8328289 C33.3561316,50.3330921 33.0103421,49.6059868 32.8978421,48.6515132" id="Fill-12" fill="#FFFFFF"></path>
            <path d="M46.7533421,48.2900921 L48.4254474,48.8206184 C48.1684737,49.7514079 47.7421579,50.4441711 47.1465,50.8965395 C46.5508421,51.3489079 45.7941316,51.5750921 44.8775526,51.5750921 C43.7442632,51.5750921 42.8122895,51.1878553 42.0828158,50.4133816 C41.3521579,49.6389079 40.9874211,48.5790395 40.9874211,47.2361447 C40.9874211,45.8150921 41.3545263,44.7114079 42.0887368,43.9250921 C42.8217632,43.1387763 43.7868947,42.7456184 44.9829474,42.7456184 C46.0274211,42.7456184 46.8753158,43.0546974 47.5278158,43.6716711 C47.9162368,44.0364079 48.2075526,44.5610132 48.4017632,45.2443026 L46.6953158,45.6516711 C46.5934737,45.2087763 46.3838684,44.8594342 46.0629474,44.6036447 C45.7420263,44.3466711 45.3536053,44.2187763 44.8953158,44.2187763 C44.2617632,44.2187763 43.749,44.4461447 43.3546579,44.9008816 C42.9603158,45.3544342 42.7637368,46.0910132 42.7637368,47.1070658 C42.7637368,48.1870658 42.9579474,48.9556184 43.3463684,49.4139079 C43.7347895,49.8721974 44.2392632,50.1019342 44.8597895,50.1019342 C45.3192632,50.1019342 45.7124211,49.9562763 46.0428158,49.6649605 C46.3732105,49.3736447 46.6088684,48.9153553 46.7533421,48.2900921" id="Fill-14" fill="#FFFFFF"></path>
            <path d="M51.6335921,47.7078158 L51.6335921,49.9909737 L53.2299079,49.9909737 C53.8516184,49.9909737 54.2447763,49.9732105 54.41175,49.9388684 C54.6687237,49.8915 54.8771447,49.779 55.0381974,49.5978158 C55.19925,49.4166316 55.2797763,49.1750526 55.2797763,48.8718947 C55.2797763,48.6161053 55.2170132,48.3982105 55.0926711,48.2205789 C54.9695132,48.0417632 54.7895132,47.9115 54.5550395,47.8297895 C54.3205658,47.7480789 53.8101711,47.7078158 53.0262237,47.7078158 L51.6335921,47.7078158 Z M51.6335921,44.3126842 L51.6335921,46.2867632 L52.7645132,46.2867632 C53.4347763,46.2867632 53.8528026,46.2772895 54.0162237,46.2571579 C54.3110921,46.2228158 54.5431974,46.1209737 54.7125395,45.9516316 C54.8806974,45.7834737 54.9647763,45.5608421 54.9647763,45.2849211 C54.9647763,45.0208421 54.8925395,44.8065 54.7468816,44.6418947 C54.6012237,44.4761053 54.3845132,44.3766316 54.0979342,44.3411053 C53.9274079,44.3221579 53.4347763,44.3126842 52.6235921,44.3126842 L51.6335921,44.3126842 Z M49.9093816,42.8916316 L53.3222763,42.8916316 C53.9984605,42.8916316 54.50175,42.9200526 54.8345132,42.9757105 C55.1660921,43.0313684 55.4633289,43.1497895 55.7250395,43.3274211 C55.9879342,43.5062368 56.2058289,43.7442632 56.3799079,44.0415 C56.5551711,44.3387368 56.6428026,44.6715 56.6428026,45.0409737 C56.6428026,45.4400526 56.5350395,45.8071579 56.3195132,46.1411053 C56.1039868,46.4750526 55.8114868,46.7249211 55.4431974,46.8930789 C55.9630658,47.0434737 56.3633289,47.3016316 56.6428026,47.6663684 C56.9222763,48.0322895 57.0620132,48.4609737 57.0620132,48.9536053 C57.0620132,49.3420263 56.9720132,49.7197895 56.7908289,50.0868947 C56.6108289,50.454 56.3645132,50.7465 56.0506974,50.9655789 C55.73925,51.1858421 55.3531974,51.3208421 54.8949079,51.3705789 C54.6083289,51.4025526 53.9143816,51.4215 52.8166184,51.4297895 L49.9093816,51.4297895 L49.9093816,42.8916316 Z" id="Fill-16" fill="#FFFFFF"></path>
        </g>
    </g>
</svg>