<svg xmlns="http://www.w3.org/2000/svg" width="11.29mm" height="11.29mm" viewBox="0 0 32 32">
  <title>ic_no-connection_wru</title>
  <g id="Layer_2" data-name="Layer 2">
    <g id="Layer_1-2" data-name="Layer 1">
      <g>
        <g>
          <path d="M19,20a3,3,0,0,0-6,0h0V32h6V20Z"/>
          <path d="M24.46,18A11,11,0,0,0,22.6,2.2a1,1,0,0,0-1.21,1.6A9,9,0,0,1,23,16.62L21.6,15.19A7,7,0,0,0,20.2,5.4,1,1,0,0,0,19,7a5,5,0,0,1,2,4,4.9,4.9,0,0,1-.83,2.76L18.7,12.29a3,3,0,0,0-4-4L13.2,6.78a1,1,0,0,0,0-1.18,1,1,0,0,0-1.39-.2L10.39,4l.21-.18A1,1,0,0,0,9.4,2.2L9,2.56,6.71.29A1,1,0,0,0,5.29,1.71L7.55,4A11,11,0,0,0,9.4,19.81a1.05,1.05,0,0,0,.6.2,1,1,0,0,0,.6-1.8A9,9,0,0,1,9,5.39L10.4,6.82a7,7,0,0,0,1.4,9.79,1,1,0,0,0,.6.2,1,1,0,0,0,.8-.4A1,1,0,0,0,13,15a5,5,0,0,1-1.17-6.77L13.3,9.71a3,3,0,0,0,4,4l1.52,1.52a1,1,0,0,0,.79,1.58,1,1,0,0,0,.59-.19L21.61,18c-.07,0-.14.12-.21.18A1,1,0,0,0,22,20a1,1,0,0,0,.6-.2c.15-.11.28-.24.43-.36l1.26,1.27a1,1,0,0,0,1.42,0,1,1,0,0,0,0-1.42Z"/>
        </g>
        <rect width="32" height="32" style="fill: none"/>
      </g>
    </g>
  </g>
</svg>
