<svg xmlns="http://www.w3.org/2000/svg" width="32" height="32" viewBox="0 0 32 32">
  <title>ic_no-network_wru</title>
  <g id="Layer_2" data-name="Layer 2">
    <g id="Layer_1-2" data-name="Layer 1">
      <g>
        <circle cx="16" cy="26" r="3"/>
        <path d="M16,4a2,2,0,0,0-2,2V19a2,2,0,0,0,.74,1.54l0,0a2.2,2.2,0,0,0,.32.21l.07,0a1.75,1.75,0,0,0,.32.12l.09,0a2,2,0,0,0,.88,0l.09,0a1.75,1.75,0,0,0,.32-.12l.07,0a1.69,1.69,0,0,0,.31-.21l0,0A2,2,0,0,0,18,19V6A2,2,0,0,0,16,4Z"/>
        <path d="M30.3,9.28a22,22,0,0,0-10.69-5A4,4,0,0,1,20,6V8.47a18,18,0,0,1,7.7,3.85,2,2,0,1,0,2.6-3Z"/>
        <path d="M12.39,4.31a22,22,0,0,0-10.69,5,2,2,0,0,0,2.6,3A18,18,0,0,1,12,8.47V6A4,4,0,0,1,12.39,4.31Z"/>
        <path d="M23.58,16.7a2,2,0,0,0,1.27.45,2,2,0,0,0,1.26-3.55A16,16,0,0,0,20,10.51v4.18A11.94,11.94,0,0,1,23.58,16.7Z"/>
        <path d="M5.72,13.46a2,2,0,1,0,2.56,3.08,10.55,10.55,0,0,1,3.72-2V10.44A14.88,14.88,0,0,0,5.72,13.46Z"/>
        <path d="M19.4,21.08c.11.08.24.15.35.24a2,2,0,0,0,2.5-3.13A10.1,10.1,0,0,0,20,16.84V19A4,4,0,0,1,19.4,21.08Z"/>
        <path d="M12,16.84a10.1,10.1,0,0,0-2.25,1.35A2,2,0,0,0,9.44,21a2,2,0,0,0,1.56.74,2,2,0,0,0,1.25-.43c.11-.09.24-.16.35-.24A4,4,0,0,1,12,19Z"/>
        <rect width="32" height="32" style="fill: none"/>
      </g>
    </g>
  </g>
</svg>
