<svg xmlns="http://www.w3.org/2000/svg" width="128" height="128" viewBox="0 0 128 128">
  <title>ic_water-pressure-alert</title>
  <g id="Layer_2" data-name="Layer 2">
    <g id="Layer_2-2" data-name="Layer 2">
      <g>
        <g>
          <path d="M100,81.48A39.83,39.83,0,0,0,104,64v0a32,32,0,0,1-11.06,5.76Z"/>
          <path d="M71.5,89,82.33,71A30.44,30.44,0,0,1,64,64a30.63,30.63,0,0,0-20-7,31.82,31.82,0,0,0-20,7A40,40,0,0,0,62.52,104Z"/>
        </g>
        <polygon points="88 72 100 92 112 112 88 112 64 112 76 92 88 72"/>
        <path d="M60.2,107.83a44,44,0,1,1,42.19-22.34L104.5,89l.23.39a48,48,0,1,0-46.79,22.22Z"/>
        <path d="M88.09,102.29a2.38,2.38,0,0,1,1.69.6,2,2,0,0,1,.64,1.53,2,2,0,0,1-.64,1.51,2.38,2.38,0,0,1-1.69.6,2.33,2.33,0,0,1-1.67-.6,2,2,0,0,1-.64-1.51,2,2,0,0,1,.64-1.52A2.33,2.33,0,0,1,88.09,102.29Zm1.73-2.19H86.37l-.49-14H90.3Z" style="fill: #fff"/>
        <rect width="128" height="128" style="fill: none"/>
      </g>
    </g>
  </g>
</svg>
