<?xml version="1.0" encoding="utf-8"?>
<!-- Generator: Adobe Illustrator 23.0.6, SVG Export Plug-In . SVG Version: 6.00 Build 0)  -->
<svg version="1.1" id="Layer_1" xmlns="http://www.w3.org/2000/svg" xmlns:xlink="http://www.w3.org/1999/xlink" x="0px" y="0px"
	 viewBox="0 0 128 128" style="enable-background:new 0 0 128 128;" xml:space="preserve">
<style type="text/css">
	.st0{fill:none;}
	.st1{enable-background:new    ;}
</style>
<title>icon-timer-alt</title>
<g id="icon">
	<g>
		<rect y="0" class="st0" width="128" height="128"/>
		<circle class="st1" cx="64" cy="72" r="16"/>
		<path d="M64,32c-22.1,0-40,17.9-40,40s17.9,40,40,40s40-17.9,40-40S86.1,32,64,32z M64,105.3c-18.4,0-33.3-14.9-33.3-33.3
			S45.6,38.7,64,38.7S97.3,53.6,97.3,72l0,0C97.3,90.4,82.4,105.3,64,105.3z"/>
		<g>
			<rect x="60" y="24" width="8" height="12"/>
			<circle cx="76" cy="20" r="4"/>
			<circle cx="52" cy="20" r="4"/>
			<rect x="52" y="16" width="24" height="8"/>
		</g>
		<g>
			<circle cx="64" cy="72" r="4"/>
			<rect x="60" y="44" width="8" height="28"/>
		</g>
	</g>
</g>
</svg>
