<svg xmlns="http://www.w3.org/2000/svg" width="620" height="620" viewBox="0 0 620 620">
  <title>IcoonRoomUnit</title>
  <g id="icon">
    <g>
      <path d="M484.9,125.5h-360a60,60,0,0,0-60,60V435a60,60,0,0,0,60,60h360a60,60,0,0,0,60-60V185.5A60,60,0,0,0,484.9,125.5Zm40,309a40,40,0,0,1-40,40h-360a40,40,0,0,1-40-40v-70h440Z" style="fill: #464646"/>
      <circle cx="304.9" cy="354.5" r="100" style="fill: #464646"/>
      <g>
        <path d="M304.9,272.5a82,82,0,1,0,82,82A82,82,0,0,0,304.9,272.5Zm0,150.33a68.33,68.33,0,1,1,68.33-68.33A68.33,68.33,0,0,1,304.9,422.83Z" style="fill: #fff"/>
        <path d="M263.93,381.83a3.42,3.42,0,0,0-2.77,5.44,54.63,54.63,0,0,0,87.4.11,3.49,3.49,0,0,0-2.82-5.55Z" style="fill: #fff"/>
        <path d="M359.57,354.48a58.33,58.33,0,0,0-1.95-14.81,53.5,53.5,0,0,0-39-38.16c-36.14-8.81-68.42,18.32-68.42,53v.29a13.6,13.6,0,0,0,13.67,13.38h82A13.69,13.69,0,0,0,359.57,354.48Z" style="fill: #fff"/>
      </g>
      <rect width="620" height="620" style="fill: none"/>
    </g>
  </g>
</svg>
