<?xml version="1.0" encoding="utf-8"?>
<!-- Generator: Adobe Illustrator 23.0.6, SVG Export Plug-In . SVG Version: 6.00 Build 0)  -->
<svg version="1.1" id="Layer_1" xmlns="http://www.w3.org/2000/svg" xmlns:xlink="http://www.w3.org/1999/xlink" x="0px" y="0px"
	 viewBox="0 0 100 100" style="enable-background:new 0 0 100 100;" xml:space="preserve">
<style type="text/css">
	.st0{fill-rule:evenodd;clip-rule:evenodd;}
</style>
<title>icon/help/circle/alt</title>
<desc>Created with Sketch.</desc>
<g>
	<path id="Combined-Shape" class="st0" d="M50,27.1c12.7,0,22.9,10.3,22.9,22.9S62.7,72.9,50,72.9S27.1,62.7,27.1,50
		S37.3,27.1,50,27.1z M50,31.2c-10.4,0-18.8,8.4-18.8,18.8S39.6,68.7,50,68.7S68.8,60.4,68.8,50S60.4,31.2,50,31.2z"/>
	<path class="st0" d="M47.9,54.3c0-1.3,0.2-2.3,0.5-3c0.3-0.8,0.9-1.6,1.9-2.5s1.5-1.5,1.8-1.9c0.4-0.6,0.6-1.2,0.6-1.9
		c0-0.9-0.2-1.6-0.7-2c-0.4-0.5-1.1-0.7-1.9-0.7c-0.8,0-1.5,0.2-2,0.7s-0.7,1.1-0.7,1.9h-3.5c0-1.7,0.6-3,1.7-4
		c1.1-1,2.6-1.5,4.5-1.5c1.9,0,3.4,0.5,4.5,1.5c1.1,1,1.6,2.3,1.6,4.1c0,1.5-0.7,3.1-2.2,4.6l-1.8,1.7c-0.6,0.7-0.9,1.8-1,3.1H47.9z
		 M47.7,58.8c0-0.6,0.2-1,0.5-1.4c0.4-0.3,0.8-0.5,1.4-0.5c0.6,0,1.1,0.2,1.4,0.5c0.4,0.4,0.5,0.8,0.5,1.3c0,0.5-0.2,1-0.5,1.3
		c-0.3,0.4-0.8,0.5-1.5,0.5c-0.6,0-1.1-0.2-1.4-0.5C47.8,59.7,47.7,59.3,47.7,58.8z"/>
</g>
</svg>
