<?xml version="1.0" encoding="utf-8"?>
<!-- Generator: Adobe Illustrator 23.0.6, SVG Export Plug-In . SVG Version: 6.00 Build 0)  -->
<svg version="1.1" id="Layer_1" xmlns="http://www.w3.org/2000/svg" xmlns:xlink="http://www.w3.org/1999/xlink" x="0px" y="0px"
	 viewBox="0 0 65.2 65.2" style="enable-background:new 0 0 65.2 65.2;" xml:space="preserve">
<title>antifrost-mode</title>
<g>
	<g id="Calque_1">
		<g>
			<path d="M27.7,42.6c-0.4-0.2-0.9-0.3-1.3-0.3h-5.8c-0.4,0-0.8,0.1-1.2,0.2c-0.4,0.2-0.6,0.6-0.5,1c0,0.4,0.1,0.8,0.4,1
				c0.4,0.2,0.8,0.3,1.2,0.3h4.3c-0.6,0.8-1.2,1.6-1.7,2.5c-0.5,0.9-1,1.8-1.4,2.8c-0.3,0.7-0.6,1.5-0.8,2.3c-0.1,0.5-0.2,1-0.3,1.6
				c0,0.4,0.1,0.9,0.4,1.2c0.3,0.3,0.6,0.4,1,0.4c0.4,0,0.7-0.1,1-0.4c0.3-0.4,0.5-0.9,0.6-1.3c0-0.3,0.1-0.6,0.2-1.1
				c0.1-0.5,0.1-0.9,0.2-1.2c0.1-0.4,0.2-0.8,0.3-1.1c0.5-1.6,1.2-3.1,2.2-4.4c0.4-0.5,0.7-0.9,1-1.3c0.3-0.3,0.4-0.7,0.5-1.1
				C28.1,43.2,28,42.9,27.7,42.6z"/>
			<path d="M33.5,42.4c-0.8-0.5-1.8-0.5-2.7-0.2c-0.4,0.1-0.7,0.4-0.9,0.6c-0.3,0.3-0.5,0.6-0.7,1C29,44.2,29,44.6,29,45
				c0,0.8,0.3,1.6,0.9,2.1c0.6,0.6,1.3,0.9,2.1,0.9c1.1,0,2.1-0.6,2.6-1.5c0.5-0.9,0.5-2.1,0-3C34.3,43,33.9,42.6,33.5,42.4z
				 M32.8,45.8c-0.2,0.2-0.5,0.3-0.8,0.3c-0.3,0-0.6-0.1-0.8-0.3c-0.2-0.2-0.3-0.5-0.3-0.8c0-0.3,0.1-0.6,0.3-0.8
				c0.2-0.2,0.5-0.3,0.8-0.3c0.2,0,0.4,0.1,0.6,0.1c0.2,0.1,0.3,0.2,0.4,0.4c0.1,0.2,0.2,0.4,0.1,0.6C33.1,45.3,33,45.6,32.8,45.8z"
				/>
			<path d="M46.8,49.9c-0.4,0-0.8,0.1-1,0.4c-0.2,0.3-0.3,0.6-0.4,0.9c-0.2,0.6-0.6,1.2-1.1,1.5c-0.5,0.4-1.2,0.5-1.8,0.5
				c-0.6,0-1.2-0.1-1.7-0.5c-0.5-0.3-0.9-0.8-1.1-1.4c-0.3-0.8-0.4-1.6-0.4-2.4c-0.1-1.2,0.2-2.4,0.9-3.3c0.6-0.8,1.5-1.2,2.4-1.1
				c0.6,0,1.1,0.1,1.6,0.4c0.5,0.4,0.9,0.8,1.1,1.4c0.2,0.3,0.4,0.6,0.6,0.9c0.5,0.5,1.4,0.4,1.8-0.1c0.2-0.3,0.4-0.6,0.4-0.9
				c0-0.7-0.3-1.3-0.7-1.8c-0.5-0.7-1.2-1.2-1.9-1.6c-0.9-0.4-1.9-0.6-2.9-0.6c-0.9,0-1.7,0.2-2.5,0.5c-0.8,0.3-1.4,0.8-2,1.4
				c-0.6,0.6-1.1,1.3-1.4,2.1c-0.3,0.9-0.5,1.9-0.5,2.9c0,0.6,0.1,1.2,0.2,1.8c0.1,0.6,0.3,1.1,0.6,1.6c0.2,0.5,0.5,1,0.9,1.4
				c0.7,0.9,1.8,1.5,2.9,1.7c0.6,0.1,1.3,0.2,1.9,0.2c0.8,0,1.7-0.1,2.4-0.4c0.7-0.3,1.2-0.7,1.7-1.2c0.4-0.4,0.8-0.9,1-1.5
				c0.2-0.4,0.3-0.9,0.3-1.4c0-0.4-0.1-0.7-0.4-1C47.5,50,47.1,49.8,46.8,49.9z"/>
			<path d="M56.3,17.2V11L54,13.4v3.8c-0.9,0.4-1.5,1.4-1.5,2.4c0,1.5,1.2,2.7,2.6,2.7c1.5,0,2.7-1.2,2.7-2.6
				C57.8,18.6,57.2,17.7,56.3,17.2L56.3,17.2z"/>
			<path d="M0,0v65.2h13.4V38.1l19.3-16.9l20,16.9v27.1h12.5V0H0z M56.9,37.5L32.6,16.8L9,37.3l-3.8-3.8l27.4-23.1l28,23.1
				L56.9,37.5z M63.2,6.9h-2.9l-2.6,2.7v6.8c1.8,1.4,2.2,4.1,0.7,5.9s-4.1,2.2-5.9,0.7c-1.8-1.4-2.2-4.1-0.7-5.9
				c0.2-0.3,0.5-0.5,0.7-0.7v-1.4l-1.8,1.8c-0.2,0.2-0.4,0.3-0.6,0.3h-3.3c-0.5,0-0.8-0.4-0.8-0.8c0-0.5,0.4-0.8,0.8-0.8l0,0h3
				l2.7-2.8V5.2c0-1.4,1.1-2.5,2.5-2.5h0c1.4,0,2.5,1.1,2.5,2.5v1.9l1.6-1.7c0.2-0.2,0.4-0.2,0.6-0.2h3.3C63.6,5.2,64,5.6,64,6
				C64,6.5,63.7,6.9,63.2,6.9C63.2,6.9,63.2,6.9,63.2,6.9z"/>
		</g>
	</g>
</g>
</svg>
