<?xml version="1.0" encoding="utf-8"?>
<!-- Generator: Adobe Illustrator 23.0.6, SVG Export Plug-In . SVG Version: 6.00 Build 0)  -->
<svg version="1.1" id="Layer_1" xmlns="http://www.w3.org/2000/svg" xmlns:xlink="http://www.w3.org/1999/xlink" x="0px" y="0px"
	 viewBox="0 0 100 100" style="enable-background:new 0 0 100 100;" xml:space="preserve">
<style type="text/css">
	.st0{fill-rule:evenodd;clip-rule:evenodd;}
</style>
<title>icon/menu/default/alt</title>
<desc>Created with Sketch.</desc>
<g>
	<g id="Group" transform="translate(26.000000, 24.000000)">
		<polygon id="Rectangle-2" class="st0" points="0.5,0 47.3,0 47.3,5.4 0.5,5.4 		"/>
		<polygon class="st0" points="0.5,10.8 47.3,10.8 47.3,16.2 0.5,16.2 		"/>
		<polygon class="st0" points="0.5,21.6 47.3,21.6 47.3,27 0.5,27 		"/>
		<path id="menu" class="st0" d="M5.6,38.9l3,8.4l2.9-8.4h3.1v11.5h-2.4v-3.1l0.2-5.4l-3.1,8.6H7.8l-3.1-8.6l0.2,5.4v3.1H2.5V38.9
			H5.6z M23.6,45.4h-4.6v3.1h5.3v1.9h-7.7V38.9h7.7v1.9h-5.3v2.7h4.6V45.4z M35.2,50.4h-2.4l-4.6-7.6v7.6h-2.4V38.9h2.4l4.6,7.6
			v-7.6h2.4V50.4z M46,38.9v7.6c0,1.3-0.4,2.3-1.2,3c-0.8,0.7-1.9,1.1-3.2,1.1c-1.3,0-2.4-0.4-3.2-1.1s-1.2-1.7-1.2-2.9v-7.7h2.4
			v7.6c0,0.8,0.2,1.3,0.5,1.6c0.4,0.3,0.9,0.5,1.5,0.5c1.3,0,2-0.7,2-2.1v-7.7H46z"/>
	</g>
</g>
</svg>
