<?xml version="1.0" encoding="utf-8"?>
<!-- Generator: Adobe Illustrator 20.1.0, SVG Export Plug-In . SVG Version: 6.00 Build 0)  -->
<!DOCTYPE svg PUBLIC "-//W3C//DTD SVG 1.1//EN" "http://www.w3.org/Graphics/SVG/1.1/DTD/svg11.dtd">
<svg version="1.1" id="Layer_1" xmlns="http://www.w3.org/2000/svg" xmlns:xlink="http://www.w3.org/1999/xlink" x="0px" y="0px"
	 viewBox="0 0 100 100" enable-background="new 0 0 100 100" xml:space="preserve">
<g>
	<path fill="#0F1231" d="M50,9C24.9,9,4.5,29.4,4.5,54.5S24.9,100,50,100s45.5-20.4,45.5-45.5S75.1,9,50,9z M50,93.7
		c-21.6,0-39.2-17.6-39.2-39.2S28.4,15.3,50,15.3s39.2,17.6,39.2,39.2S71.6,93.7,50,93.7z"/>
	<path fill="#0F1231" d="M55.7,54.5c0-2-1-3.7-2.6-4.7V21.2h-6.3v28.6c-1.5,1-2.6,2.8-2.6,4.7c0,3.1,2.6,5.7,5.7,5.7
		c0.4,0,0.8,0,1.1-0.1l10.1,10.1l4.4-4.4L55.6,55.6C55.7,55.3,55.7,54.9,55.7,54.5z"/>
	
		<rect x="75.9" y="-3.5" transform="matrix(0.5769 -0.8168 0.8168 0.5769 24.5908 69.1167)" fill="#0F1231" width="6.3" height="28.6"/>
	
		<rect x="6.6" y="7.7" transform="matrix(0.8166 -0.5771 0.5771 0.8166 -2.413 14.0469)" fill="#0F1231" width="28.6" height="6.3"/>
</g>
</svg>
