<?xml version="1.0" encoding="utf-8"?>
<!-- Generator: Adobe Illustrator 18.1.1, SVG Export Plug-In . SVG Version: 6.00 Build 0)  -->
<svg version="1.1" id="Layer_1" xmlns="http://www.w3.org/2000/svg" xmlns:xlink="http://www.w3.org/1999/xlink" x="0px" y="0px"
	 viewBox="0 0 65 65" enable-background="new 0 0 65 65" xml:space="preserve">
<g>
	<g>
		<g>
			<polygon points="31.6,13.8 45,25.3 47.1,23.1 31.6,10.2 16.4,23.1 18.5,25.2 			"/>
			<path d="M31.4,15.6l-10.7,9.4v16h13v-9.1h4.1v9.1h4.7v-16L31.4,15.6z M28.9,35.9h-4.1v-4.1h4.1V35.9z M28.9,28.7h-4.1v-4.1h4.1
				V28.7z M37.9,28.7h-4.1v-4.1h4.1V28.7z"/>
		</g>
		<path d="M31.8,3.4C18.2,3.4,7.2,14.4,7.2,28s11,24.6,24.6,24.6s24.6-11,24.6-24.6S45.4,3.4,31.8,3.4z M31.8,50
			c-12.1,0-22-9.8-22-22c0-12.1,9.8-22,22-22c12.1,0,22,9.8,22,22C53.7,40.1,43.9,50,31.8,50z"/>
		<path d="M33.7,51.8c-12.3,2.4-21.2-11.7-21.2-11.7h39.7C52.3,40.1,46,49.4,33.7,51.8z"/>
	</g>
	<rect x="2.6" y="56" width="59.9" height="5.6"/>
</g>
</svg>
