<?xml version="1.0" encoding="utf-8"?>
<!-- Generator: Adobe Illustrator 18.1.1, SVG Export Plug-In . SVG Version: 6.00 Build 0)  -->
<svg version="1.1" id="Layer_1" xmlns="http://www.w3.org/2000/svg" xmlns:xlink="http://www.w3.org/1999/xlink" x="0px" y="0px"
	 viewBox="0 0 65 65" enable-background="new 0 0 65 65" xml:space="preserve">
<g>
	<rect x="8.1" y="31.1" width="51.9" height="7.8"/>
	<path d="M40.9,27.3l-28.9,0c0,0-1.4-3.6,1.5-5.7c3.2-2.4,24.9-1.3,25.3,1.2L40.9,27.3z"/>
	<path d="M8.9,24.1v24H3.2v-24c0,0,0.4-3,2.9-3S8.9,24.1,8.9,24.1z"/>
	<path d="M61.6,10.7V48h-5.9V10.7c0,0,0.4-3.1,3.1-3.1S61.6,10.7,61.6,10.7z"/>
	<circle cx="47.5" cy="22.5" r="5.1"/>
	<rect x="2.5" y="51.4" width="60" height="5.6"/>
</g>
</svg>
