<?xml version="1.0" encoding="utf-8"?>
<!-- Generator: Adobe Illustrator 18.1.1, SVG Export Plug-In . SVG Version: 6.00 Build 0)  -->
<svg version="1.1" id="Layer_1" xmlns="http://www.w3.org/2000/svg" xmlns:xlink="http://www.w3.org/1999/xlink" x="0px" y="0px"
	 viewBox="0 0 65 65" enable-background="new 0 0 65 65" xml:space="preserve">
<g>
	<path d="M33.3,40V12.6c0,0,0.3-8.2-5.7-8.2c-6.4,0-6.1,8.2-6.1,8.2V40c-3.2,2-5.3,5.5-5.3,9.5c0,6.2,5,11.2,11.2,11.2
		c6.2,0,11.2-5,11.2-11.2C38.6,45.4,36.5,41.9,33.3,40z M27.6,57c-3.9,0-7.1-3.2-7.1-7.1c0-2.7,1.5-5.1,3.8-6.3V25.2h6.2v18.3
		c2.4,1.1,4.1,3.6,4.1,6.4C34.6,53.8,31.5,57,27.6,57z"/>
	<rect x="36.5" y="15.9" width="12.2" height="2"/>
	<rect x="36.5" y="24.3" width="12.2" height="2"/>
	<rect x="36.5" y="33" width="12.2" height="2"/>
</g>
</svg>
