<?xml version="1.0" encoding="utf-8"?>
<!-- Generator: Adobe Illustrator 20.1.0, SVG Export Plug-In . SVG Version: 6.00 Build 0)  -->
<!DOCTYPE svg PUBLIC "-//W3C//DTD SVG 1.1//EN" "http://www.w3.org/Graphics/SVG/1.1/DTD/svg11.dtd">
<svg version="1.1" id="Layer_2" xmlns="http://www.w3.org/2000/svg" xmlns:xlink="http://www.w3.org/1999/xlink" x="0px" y="0px"
	 viewBox="0 0 100 100" enable-background="new 0 0 100 100" xml:space="preserve">
<g>
	<path d="M18.5,12.9c-3.1,0-5.8,2.5-5.8,5.7l-3.8,1v8.9l4,1v52c0,3.1,2.4,5.7,5.5,5.7c3.1,0,5.5-2.5,5.5-5.7V18.6
		C24,15.4,21.6,12.9,18.5,12.9z"/>
	<path d="M34.5,12.9c-3.1,0-5.5,2.5-5.5,5.7v62.8c0,3.1,2.4,5.7,5.5,5.7c3.1,0,5.5-2.5,5.5-5.7V18.6C40,15.4,37.6,12.9,34.5,12.9z"
		/>
	<path d="M50.5,12.9c-3.1,0-5.5,2.5-5.5,5.7v62.8c0,3.1,2.4,5.7,5.5,5.7s5.5-2.5,5.5-5.7V18.6C56,15.4,53.6,12.9,50.5,12.9z"/>
	<path d="M66.5,12.9c-3.1,0-5.5,2.5-5.5,5.7v62.8c0,3.1,2.4,5.7,5.5,5.7c3.1,0,5.5-2.5,5.5-5.7V18.6C72,15.4,69.6,12.9,66.5,12.9z"
		/>
	<path d="M88,70.6v-52c0-3.1-2.4-5.7-5.5-5.7c-3.1,0-5.5,2.5-5.5,5.7v62.8c0,3.1,2.4,5.7,5.5,5.7c3.1,0,5.8-2.5,5.8-5.7l3.8-1v-8.9
		L88,70.6z"/>
</g>
</svg>
