<svg xmlns="http://www.w3.org/2000/svg" xmlns:xlink="http://www.w3.org/1999/xlink" version="1.1" id="Your_Icon" x="0px" y="0px" viewBox="0 0 100 100" enable-background="new 0 0 100 100" xml:space="preserve" height="100px" width="100px">
<g>
	<g>
		<g>
		</g>
	</g>
	<g>
	</g>
</g>
<path fill-rule="evenodd" clip-rule="evenodd" d="M58.147,62.569h-4.079V85H35.716V62.569v-8.158c0-3.009-1.648-5.608-4.073-7.022  l0.002-5.267c0-3.81,2.304-6.063,6.11-6.063h4.078h6.118h2.039c3.806,0,8.158,2.254,8.158,6.063L58.147,62.569z M43.872,31.98  c-4.505,0-8.157-3.652-8.157-8.157c0-4.505,3.652-8.157,8.157-8.157c4.505,0,8.157,3.652,8.157,8.157  C52.029,28.328,48.377,31.98,43.872,31.98z M27.559,68.686V85H11.245V68.686H7.167l0.008-12.289c0-3.81,2.304-6.064,6.11-6.064  h4.078h4.078h4.078c3.806,0,6.119,2.254,6.119,6.064l-0.001,12.289H27.559z M19.402,46.254c-3.379,0-6.118-2.739-6.118-6.118  c0-3.379,2.739-6.118,6.118-6.118c3.379,0,6.118,2.739,6.118,6.118C25.519,43.515,22.781,46.254,19.402,46.254z"/>
<g>
	<path d="M76.456,31.98c0.008,0,0.016-0.001,0.023-0.001s0.016,0.001,0.023,0.001c4.505,0,8.157-3.652,8.157-8.157   c0-4.505-3.652-8.157-8.157-8.157c-0.008,0-0.016,0.001-0.023,0.001s-0.016-0.001-0.023-0.001c-4.505,0-8.157,3.652-8.157,8.157   C68.299,28.328,71.951,31.98,76.456,31.98z"/>
	<path d="M82.662,36.062c-0.015,0-0.027-0.003-0.042-0.003h-0.047h-2.039h-1.993h-4.125h-1.993h-2.039h-0.047   c-0.015,0-0.027,0.003-0.042,0.003c-3.784,0.034-8.07,2.28-8.07,6.06l0.001,20.447h4.079V85h1.992h16.36h1.992V62.569h4.079   l0.001-20.447C90.732,38.342,86.446,36.097,82.662,36.062z"/>
</g>
</svg>