<?xml version="1.0" encoding="utf-8"?>
<!-- Generator: Adobe Illustrator 18.1.1, SVG Export Plug-In . SVG Version: 6.00 Build 0)  -->
<svg version="1.1" id="Layer_1" xmlns="http://www.w3.org/2000/svg" xmlns:xlink="http://www.w3.org/1999/xlink" x="0px" y="0px"
	 viewBox="0 0 65 65" enable-background="new 0 0 65 65" xml:space="preserve">
<g>
	<path d="M0,1.5h65V6c0,0,0.1,2.4-1.7,3.9c-1.5,1.3-4,1.2-4,1.2H32.7h-0.4H5.7c0,0-2.4,0.1-4-1.2C-0.1,8.4,0,6,0,6V1.5z"/>
	<rect x="3.8" y="9.3" width="9.6" height="54"/>
	<rect x="51.5" y="9.3" width="9.6" height="54"/>
	<path d="M17.3,60c0,2.9,2.5,3.3,2.5,3.3l2,0l21.6,0.2l2,0c0,0,2.5-0.1,2.5-3c0-2.9-2.5-3.3-2.5-3.3l-2,0l-21.6-0.2l-2,0
		C19.8,56.9,17.3,57.1,17.3,60z"/>
	<g>
		<path fill-rule="evenodd" clip-rule="evenodd" d="M37.8,53.4c2.2-3-3.8-10-3.8-10s-9.6,11.1-0.2,11.3c-0.7,0.1-1.4,0.1-2.2,0.1
			c-16.1-1.3-0.1-19.3-0.2-25.9C31.4,33.1,45,48.6,37.8,53.4z"/>
	</g>
	<path fill-rule="evenodd" clip-rule="evenodd" d="M41,43.6c-1.3-2,4-9.4,4-9.4s-0.8,2.5,1.7,7.5c1.7,3.4,1,8.4-2.2,10
		c-1.2,0.7-3.6,1.7-3.6,1.7s0.6-0.8,1-2.1C42.8,48.8,42.4,45.7,41,43.6z"/>
	<path fill-rule="evenodd" clip-rule="evenodd" d="M22.4,44.5c1.1-1.6-3.2-7.6-3.2-7.6s0.7,2-1.4,6c-1.4,2.7-0.8,6.7,1.8,8.1
		c1,0.5,2.9,1.4,2.9,1.4s-0.5-0.7-0.8-1.7C21,48.7,21.4,46.2,22.4,44.5z"/>
</g>
</svg>
