<svg xmlns="http://www.w3.org/2000/svg" xmlns:xlink="http://www.w3.org/1999/xlink" version="1.1" id="Layer_1" x="0px" y="0px" width="100px" height="100px" viewBox="0 0 100 100" enable-background="new 0 0 100 100" xml:space="preserve">
<g>
	<path fill="#000000" d="M49.999,98.001C23.532,98.001,2,76.468,2,49.999c0-26.467,21.532-48,47.999-48   c26.468,0,48.001,21.533,48.001,48C98,76.468,76.467,98.001,49.999,98.001z M49.999,5.999C25.738,5.999,6,25.737,6,49.999   c0,24.263,19.738,44.002,43.999,44.002C74.262,94.001,94,74.262,94,49.999C94,25.737,74.262,5.999,49.999,5.999z"/>
</g>
<g>
	<path fill="#000000" d="M50,34.677c-1.104,0-2-0.896-2-2v-6.002c0-1.104,0.896-2,2-2s2,0.896,2,2v6.002   C52,33.781,51.104,34.677,50,34.677z"/>
</g>
<g>
	<path fill="#000000" d="M37.363,40.137c-0.512,0-1.023-0.195-1.414-0.586l-4.245-4.244c-0.781-0.781-0.781-2.047,0-2.828   c0.78-0.781,2.047-0.781,2.828,0l4.245,4.244c0.781,0.781,0.781,2.047,0,2.828C38.387,39.941,37.875,40.137,37.363,40.137z"/>
</g>
<g>
	<path fill="#000000" d="M62.563,39.819c-0.512,0-1.023-0.195-1.414-0.585c-0.781-0.781-0.781-2.047,0-2.829l4.243-4.245   c0.779-0.781,2.047-0.781,2.828,0c0.781,0.781,0.781,2.047,0,2.829l-4.243,4.245C63.588,39.624,63.075,39.819,62.563,39.819z"/>
</g>
<path fill="#000000" d="M49.999,1.999C23.532,1.999,2,23.532,2,49.999c0,10.981,3.715,21.106,9.942,29.203l0.279,0.354  c2.502,3.191,5.395,6.06,8.612,8.529l0.874,0.657c7.94,5.814,17.719,9.258,28.292,9.258c10.573,0,20.353-3.443,28.293-9.258  l0.874-0.657c3.218-2.47,6.11-5.338,8.613-8.529l0.278-0.354C94.285,71.105,98,60.98,98,49.999C98,23.532,76.467,1.999,49.999,1.999  z M49.999,5.999c23.592,0,42.9,18.664,43.95,42H63.686C62.762,41.264,56.984,36.054,50,36.054c-6.985,0-12.762,5.21-13.687,11.945  H6.051C7.101,24.663,26.409,5.999,49.999,5.999z M40.374,47.885C41.3,43.42,45.265,40.054,50,40.054s8.699,3.366,9.626,7.831H40.374  z M49.999,94.001c-7.534,0-14.631-1.906-20.837-5.258h41.675C64.631,92.095,57.533,94.001,49.999,94.001z M76.951,84.743H23.048  c-2.016-1.567-3.9-3.298-5.616-5.187h65.135C80.852,81.445,78.968,83.176,76.951,84.743z M85.783,75.557H14.217  c-1.181-1.648-2.25-3.379-3.198-5.186h77.963C88.033,72.178,86.964,73.908,85.783,75.557z M90.829,66.371H9.171  c-0.677-1.682-1.259-3.41-1.727-5.187h85.11C92.088,62.961,91.506,64.689,90.829,66.371z M93.403,57.185H6.596  c-0.28-1.698-0.466-3.428-0.545-5.186h87.898C93.87,53.757,93.684,55.486,93.403,57.185z"/>
</svg>