<?xml version="1.0" encoding="utf-8"?>
<!-- Generator: Adobe Illustrator 18.1.1, SVG Export Plug-In . SVG Version: 6.00 Build 0)  -->
<svg version="1.1" id="Layer_1" xmlns="http://www.w3.org/2000/svg" xmlns:xlink="http://www.w3.org/1999/xlink" x="0px" y="0px"
	 viewBox="0 0 65 65" enable-background="new 0 0 65 65" xml:space="preserve">
<g>
	<g>
		<rect x="21.6" y="16.8" width="21.7" height="33.7"/>
		<path d="M57,34v-0.7v-10c0,0,0.1-2.8-1.4-4.6c-1.2-1.4-2.9-1.8-3.9-1.9v0h-0.5c-0.1,0-0.2,0-0.2,0l-2.8,0v33.7h2.8
			c0,0,0.1,0,0.2,0h0.5v0c0.9-0.1,2.6-0.5,3.9-1.9C57.1,46.8,57,44,57,44V34z"/>
		<path d="M16.7,16.8h-2.8c0,0-0.1,0-0.2,0h-0.5v0c-0.9,0.1-2.6,0.5-3.9,1.9C7.9,20.5,8,23.3,8,23.3v10V34v10c0,0-0.1,2.8,1.4,4.6
			c1.2,1.4,2.9,1.8,3.9,1.9v0h0.5c0.1,0,0.2,0,0.2,0h2.8V16.8z"/>
	</g>
	<path d="M40.3,16.2v-1c0,0,0.1-3-0.7-4.6C38.7,8.8,36.4,9,36.4,9h-3h0h-1.6h0h-3c0,0-2.3-0.1-3.2,1.6c-0.8,1.6-0.7,4.6-0.7,4.6v1
		v0.2c0,0,0,1.4,0.4,2.3c0.4,0.8,1.1,0.7,1.1,0.7h5.5h0h1.6h0h5.5c0,0,0.7,0,1.1-0.7c0.5-0.9,0.4-2.3,0.4-2.3V16.2z M37.8,18.3
		c-0.3,0.6-0.8,0.5-0.8,0.5h-3.9h0h-1.1h0H28c0,0-0.5,0-0.8-0.5c-0.3-0.6-0.3-1.7-0.3-1.7v-0.1v-0.7c0,0-0.1-2.1,0.5-3.3
		c0.7-1.3,2.3-1.2,2.3-1.2h2.2h0h1.1h0h2.2c0,0,1.6-0.1,2.3,1.2c0.6,1.1,0.5,3.3,0.5,3.3v0.7v0.1C38.1,16.6,38.1,17.6,37.8,18.3z"/>
</g>
</svg>
