<svg xmlns="http://www.w3.org/2000/svg" xmlns:xlink="http://www.w3.org/1999/xlink" version="1.1" x="0px" y="0px" width="100px" height="100px" viewBox="0 0 100 100" enable-background="new 0 0 100 100" xml:space="preserve">
<g id="Captions">
</g>
<g id="Your_Icon">
	<g>
		<path d="M19.273,26.159H4.517c-2.301,0-4.166,1.867-4.166,4.167v58.328c0,2.301,1.865,4.166,4.166,4.166h14.756V26.159z"/>
		<path d="M95.482,26.159H80.727V92.82h14.756c2.301,0,4.166-1.865,4.166-4.166V30.326C99.648,28.025,97.783,26.159,95.482,26.159z"/>
		<g>
			<circle cx="40.646" cy="40.856" r="2.031"/>
			<path d="M24.828,26.159V92.82h50.344V26.159H24.828z M52.051,64.617L33.065,45.632l2.169-10.188l10.188-2.169l18.986,18.986     L52.051,64.617z"/>
		</g>
	</g>
	<path d="M33.913,23.381v-4.397c0-2.302,1.865-4.166,4.166-4.166H61.92c2.303,0,4.166,1.864,4.166,4.166v4.397h7.639v-4.397   c0-6.509-5.295-11.805-11.805-11.805H38.079c-6.508,0-11.805,5.295-11.805,11.805v4.397H33.913z"/>
</g>
</svg>