<?xml version="1.0" encoding="utf-8"?>
<!-- Generator: Adobe Illustrator 18.1.1, SVG Export Plug-In . SVG Version: 6.00 Build 0)  -->
<svg version="1.1" id="Layer_1" xmlns="http://www.w3.org/2000/svg" xmlns:xlink="http://www.w3.org/1999/xlink" x="0px" y="0px"
	 viewBox="0 0 65 65" enable-background="new 0 0 65 65" xml:space="preserve">
<g>
	<path fill="none" stroke="#000000" stroke-width="2" stroke-linecap="round" stroke-miterlimit="10" d="M52.1,40.5
		c0,0-5.3-6.4,0-14.6c5.8-8.9-0.6-14.8-1.3-15.2"/>
	<path fill="none" stroke="#000000" stroke-width="2" stroke-linecap="round" stroke-miterlimit="10" d="M16.2,40.5
		c0,0-5.3-6.4,0-14.6c5.8-8.9-0.6-14.8-1.3-15.2"/>
	<path fill="none" stroke="#000000" stroke-width="2" stroke-linecap="round" stroke-miterlimit="10" d="M34.1,40.5
		c0,0-5.3-6.4,0-14.6c5.8-8.9-0.6-14.8-1.3-15.2"/>
	<path fill="none" stroke="#000000" stroke-width="5" stroke-miterlimit="10" d="M58.1,49.7c-10.3,10.3-16.9,0-16.9,0
		c-10.3,10.3-17,0-17,0C14,60,6.9,49.7,6.9,49.7"/>
</g>
</svg>
