<?xml version="1.0" encoding="utf-8"?>
<!-- Generator: Adobe Illustrator 18.1.1, SVG Export Plug-In . SVG Version: 6.00 Build 0)  -->
<svg version="1.1" id="Layer_1" xmlns="http://www.w3.org/2000/svg" xmlns:xlink="http://www.w3.org/1999/xlink" x="0px" y="0px"
	 viewBox="0 0 65 65" enable-background="new 0 0 65 65" xml:space="preserve">
<g>
	<rect x="2.6" y="57.1" width="59.9" height="5.6"/>
	<g>
		<path d="M7.3,29.1v24.4h26.9V29.1H7.3z M31,36.7h-2.2v-5.4H31V36.7z"/>
		<path d="M7,2.2v13.5h26.9V2.2H7z M30.7,13.5h-2.2V8.1h2.2V13.5z"/>
		<polygon points="48.6,8 48.6,2.4 43.8,2.4 43.8,8 38.4,12.7 54.1,12.7 		"/>
		<g>
			<path stroke="#000000" stroke-linecap="round" stroke-miterlimit="10" d="M50.5,26.6c0,0-1.2-1.5,0-3.4c1.3-2.1-0.1-3.4-0.3-3.5"
				/>
			<path stroke="#000000" stroke-linecap="round" stroke-miterlimit="10" d="M46.6,26.6c0,0-1.2-1.5,0-3.4c1.3-2.1-0.1-3.4-0.3-3.5"
				/>
			<path stroke="#000000" stroke-linecap="round" stroke-miterlimit="10" d="M42.8,26.6c0,0-1.2-1.5,0-3.4c1.3-2.1-0.1-3.4-0.3-3.5"
				/>
		</g>
		<path d="M36.7,29.1v24.3h20.8V29.1H36.7z M53.5,47.9H39.9v-8.5h13.6V47.9z M53.2,35.2c-0.9,0-1.6-0.7-1.6-1.6s0.7-1.6,1.6-1.6
			s1.6,0.7,1.6,1.6S54.1,35.2,53.2,35.2z"/>
	</g>
</g>
</svg>
