<?xml version="1.0" encoding="utf-8"?>
<!-- Generator: Adobe Illustrator 18.1.1, SVG Export Plug-In . SVG Version: 6.00 Build 0)  -->
<svg version="1.1" id="Layer_1" xmlns="http://www.w3.org/2000/svg" xmlns:xlink="http://www.w3.org/1999/xlink" x="0px" y="0px"
	 viewBox="0 0 65 65" enable-background="new 0 0 65 65" xml:space="preserve">
<g>
	<path d="M47.9,29.4v17.3l-5,1.2V29.4c0,0,0.3-1.9,2.6-1.9S47.9,29.4,47.9,29.4z"/>
	<path d="M41.6,26.8v18.5h-5V26.8c0,0,0.3-1.9,2.6-1.9S41.6,26.8,41.6,26.8z"/>
	<path d="M35.2,25.2v18.5h-5V25.2c0,0,0.3-1.9,2.6-1.9C35.1,23.3,35.2,25.2,35.2,25.2z"/>
	<path d="M28.6,14.8v20.5h-5.5V14.8c0,0,0.3-2.2,2.9-2.2S28.6,14.8,28.6,14.8z"/>
	<path d="M23.1,47.1V31.9h24.7v15.2c0,0-0.9,9.5-12.2,9.5S23.1,47.1,23.1,47.1z"/>
	<path d="M44.9,58v-1.6v-1.1c0,0,0-0.9-0.5-1.5c-0.4-0.5-1.1-0.5-1.1-0.5h-7.5h-0.1h-7.5c0,0-0.7,0-1.1,0.5
		c-0.5,0.6-0.5,1.5-0.5,1.5v1.1V58v0.1c0,0,0,0.9,0.5,1.5c0.4,0.5,1.1,0.5,1.1,0.5h7.5h0.1h7.5c0,0,0.7,0,1.1-0.5
		c0.5-0.6,0.5-1.5,0.5-1.5V58z"/>
	<path d="M25.8,4.9c-4.8,0-8.8,3.9-8.8,8.8s3.9,8.8,8.8,8.8s8.8-3.9,8.8-8.8S30.7,4.9,25.8,4.9z M25.8,21.5c-4.3,0-7.8-3.5-7.8-7.8
		c0-4.3,3.5-7.8,7.8-7.8c4.3,0,7.8,3.5,7.8,7.8C33.7,18,30.2,21.5,25.8,21.5z"/>
</g>
</svg>
