<?xml version="1.0" encoding="utf-8"?>
<!-- Generator: Adobe Illustrator 18.1.1, SVG Export Plug-In . SVG Version: 6.00 Build 0)  -->
<svg version="1.1" id="Layer_1" xmlns="http://www.w3.org/2000/svg" xmlns:xlink="http://www.w3.org/1999/xlink" x="0px" y="0px"
	 viewBox="0 0 65 65" enable-background="new 0 0 65 65" xml:space="preserve">
<g>
	<path d="M18.9,7.8c-1.3,0-1.5,1.1-1.5,1.1v0.9v9.6v0.9c0,0,0.1,1.1,1.4,1.1c1.3,0,1.5-1.1,1.5-1.1v-0.9V9.7V8.9
		C20.2,8.9,20.2,7.8,18.9,7.8z"/>
	<rect x="12.7" y="26.7" width="6.3" height="6.3"/>
	<rect x="21.6" y="26.7" width="6.3" height="6.3"/>
	<rect x="12.7" y="34.8" width="6.3" height="6.3"/>
	<rect x="21.6" y="34.8" width="6.3" height="6.3"/>
	<rect x="12.7" y="42.9" width="6.3" height="6.3"/>
	<rect x="21.6" y="42.9" width="6.3" height="6.3"/>
	<path d="M40.9,7.8c-1.3,0-1.5,1.1-1.5,1.1v0.9v9.6v0.9c0,0,0.1,1.1,1.4,1.1c1.3,0,1.5-1.1,1.5-1.1v-0.9V9.7V8.9
		C42.3,8.9,42.2,7.8,40.9,7.8z"/>
	<path d="M29.4,50.7H10.6V24.5h37.3v3.9c1.2,0.3,2.3,0.8,3.4,1.4v-5.3c0,0,0.1-3.1-1.6-5.1c-1.9-2.2-5-2.1-5-2.1h-1.2V19v1.6
		c0,0-0.3,2-2.7,2c-2.4,0-2.5-2-2.5-2V19v-1.7h-6.4H21.4V19v1.6c0,0-0.3,2-2.7,2c-2.4,0-2.5-2-2.5-2V19v-1.7h-1.8c0,0-3-0.1-5,2.1
		c-1.7,2-1.6,5.1-1.6,5.1v11v0.8v11c0,0-0.1,3.1,1.6,5.1c1.9,2.2,5,2.1,5,2.1h12.9h4.9C31,53.3,30.1,52.1,29.4,50.7z"/>
	<path d="M43.4,29.8c-7.6,0-13.7,6.2-13.7,13.7s6.2,13.7,13.7,13.7s13.7-6.2,13.7-13.7S51,29.8,43.4,29.8z M43.4,55.8
		c-6.8,0-12.3-5.5-12.3-12.3c0-6.8,5.5-12.3,12.3-12.3c6.8,0,12.3,5.5,12.3,12.3C55.7,50.3,50.2,55.8,43.4,55.8z"/>
	<g>
		<path d="M43,34.7c-1.1,0-1.2,0.9-1.2,0.9l0,0.7l0,8.1l0,0.7c0,0,0.1,0.9,1.2,0.9c1.1,0,1.2-0.9,1.2-0.9l0-0.7l0-8.1l0-0.7
			C44.1,35.6,44.1,34.7,43,34.7z"/>
		<path d="M50.2,46.2l-7.5,0l0-2.4l7.5,0c0,0,0.9,0.2,0.9,1.2S50.2,46.2,50.2,46.2z"/>
	</g>
	<path d="M43.4,27.7c0.7,0,1.4,0.1,2.1,0.2v-1.1h-6.3v1.6C40.6,27.9,42,27.7,43.4,27.7z"/>
	<path d="M36.7,29.2v-2.5h-6.3V33h1.2C33.1,31.4,34.8,30.2,36.7,29.2z"/>
</g>
</svg>
