<?xml version="1.0" encoding="utf-8"?>
<!-- Generator: Adobe Illustrator 18.1.1, SVG Export Plug-In . SVG Version: 6.00 Build 0)  -->
<svg version="1.1" id="Layer_1" xmlns="http://www.w3.org/2000/svg" xmlns:xlink="http://www.w3.org/1999/xlink" x="0px" y="0px"
	 viewBox="0 0 65 65" enable-background="new 0 0 65 65" xml:space="preserve">
<g>
	<g>
		<polygon points="61.8,9.5 46.4,9.5 54,3.8 		"/>
		<rect x="51.1" y="9.2" width="6" height="16.6"/>
	</g>
	<path d="M33.7,38.8V15.5c0,0,0.2-7-4.8-7c-5.4,0-5.2,7-5.2,7v23.3c-2.7,1.7-4.5,4.7-4.5,8.1c0,5.3,4.3,9.5,9.5,9.5
		c5.3,0,9.5-4.3,9.5-9.5C38.2,43.5,36.4,40.5,33.7,38.8z M28.8,53.3c-3.3,0-6-2.7-6-6C22.7,45,24,43,26,42V26.2h5.3v15.6
		c2.1,1,3.5,3,3.5,5.5C34.8,50.6,32.1,53.3,28.8,53.3z"/>
	<rect x="36.4" y="18.3" width="10.4" height="1.7"/>
	<rect x="36.4" y="25.5" width="10.4" height="1.7"/>
	<rect x="36.4" y="32.9" width="10.4" height="1.7"/>
	<g>
		<polygon points="3.2,55.5 18.6,55.5 11,61.2 		"/>
		<rect x="7.9" y="39.2" width="6" height="16.6"/>
	</g>
</g>
</svg>
