<?xml version="1.0" encoding="utf-8"?>
<!-- Generator: Adobe Illustrator 18.1.1, SVG Export Plug-In . SVG Version: 6.00 Build 0)  -->
<svg version="1.1" id="Layer_1" xmlns="http://www.w3.org/2000/svg" xmlns:xlink="http://www.w3.org/1999/xlink" x="0px" y="0px"
	 viewBox="0 0 65 65" enable-background="new 0 0 65 65" xml:space="preserve">
<g>
	<path d="M26,32.3c-3.7,0-7.5,0-8.7,0c-2.5,0-2.8,2.3-2.8,2.3L13.3,40H26V32.3z"/>
	<path d="M26,42.2H12.8L11,50.7c0,0-0.5,1.6,0.9,1.6c0.7,0,7.4,0,14,0V42.2z"/>
	<path d="M44.2,50.7l-1.8-8.5H29.2v10.2c6.6,0,13.3,0,14,0C44.6,52.4,44.2,50.7,44.2,50.7z"/>
	<path d="M48.3,39.5c-0.9,0.6-1.8,1.1-2.8,1.5L48.1,53c0,0,0.6,2.1-1.2,2.1c-0.9,0-10.3,0-19.1,0c-0.1,0-0.3,0-0.4,0
		c-8.8,0-18.2,0-19.1,0C6.5,55,7,53,7,53l4.5-20.3c0,0,0.3-2.9,3.6-2.9c1.6,0,7,0,12.1,0c0-0.5-0.1-0.9-0.1-1.4c0-0.3,0-0.6,0-0.9
		c-6,0-12.3,0-14.2,0c-3.8,0-4.2,3.4-4.2,3.4L3.4,55.1c0,0-0.7,2.5,1.4,2.5c1.1,0,12.1,0,22.5,0c0.2,0,0.3,0,0.5,0
		c10.3,0,21.4,0,22.5,0c2.1,0,1.4-2.5,1.4-2.5L48.3,39.5z"/>
	<circle cx="40.6" cy="28.5" r="10"/>
	<path d="M59.6,21.6L58.2,22l0,0l-4.9,1.4c0,0-1.4,0.5-1,1.9c0.4,1.3,2,0.9,2,0.9l1.5-0.4l0,0l4.8-1.4c0,0,1.4-0.5,1-1.9
		C61.2,21.2,59.6,21.6,59.6,21.6z"/>
	<path d="M33.4,9.5l0.4,1.4l0,0l1.4,4.9c0,0,0.5,1.4,1.9,1c1.3-0.4,0.9-2,0.9-2l-0.4-1.5l0,0l-1.4-4.8c0,0-0.5-1.4-1.9-1
		C33,7.9,33.4,9.5,33.4,9.5z"/>
	<path d="M48.9,10.1l-0.7,1.3l0,0l-2.4,4.5c0,0-0.6,1.4,0.7,2c1.2,0.6,2.1-0.7,2.1-0.7l0.7-1.3l0,0l2.4-4.4c0,0,0.6-1.4-0.7-2
		C49.7,8.7,48.9,10.1,48.9,10.1z"/>
	<path d="M52.1,36.6l1.3,0.7l0,0l4.5,2.4c0,0,1.4,0.6,2-0.7c0.6-1.2-0.7-2.1-0.7-2.1l-1.3-0.7l0,0l-4.4-2.4c0,0-1.4-0.6-2,0.7
		C50.8,35.8,52.1,36.6,52.1,36.6z"/>
	<path d="M21.8,20.1l1.3,0.7l0,0l4.5,2.4c0,0,1.4,0.6,2-0.7c0.6-1.2-0.7-2.1-0.7-2.1l-1.3-0.7l0,0l-4.4-2.4c0,0-1.4-0.6-2,0.7
		C20.4,19.2,21.8,20.1,21.8,20.1z"/>
	<path d="M29.2,35.7V40h4.4C31.9,38.9,30.3,37.4,29.2,35.7z"/>
</g>
</svg>
