<?xml version="1.0" encoding="utf-8"?>
<!-- Generator: Adobe Illustrator 18.1.1, SVG Export Plug-In . SVG Version: 6.00 Build 0)  -->
<svg version="1.1" id="Layer_1" xmlns="http://www.w3.org/2000/svg" xmlns:xlink="http://www.w3.org/1999/xlink" x="0px" y="0px"
	 viewBox="0 0 65 65" enable-background="new 0 0 65 65" xml:space="preserve">
<g>
	<g>
		<polygon points="17,24.7 17,9.9 22.4,17.2 		"/>
		<rect x="12.6" y="14.4" width="4.6" height="5.8"/>
	</g>
	<path d="M17.1,4.5c-7,0-12.7,5.7-12.7,12.7s5.7,12.7,12.7,12.7s12.7-5.7,12.7-12.7S24.1,4.5,17.1,4.5z M17.1,28.5
		c-6.3,0-11.3-5.1-11.3-11.3c0-6.3,5.1-11.3,11.3-11.3c6.3,0,11.3,5.1,11.3,11.3C28.4,23.4,23.3,28.5,17.1,28.5z"/>
	<path d="M45.2,40V12.6c0,0,0.3-8.2-5.7-8.2c-6.4,0-6.1,8.2-6.1,8.2V40c-3.2,2-5.3,5.5-5.3,9.5c0,6.2,5,11.2,11.2,11.2
		c6.2,0,11.2-5,11.2-11.2C50.5,45.4,48.4,41.9,45.2,40z M39.4,57c-3.9,0-7.1-3.2-7.1-7.1c0-2.7,1.5-5.1,3.8-6.3V25.2h6.2v18.3
		c2.4,1.1,4.1,3.6,4.1,6.4C46.5,53.8,43.3,57,39.4,57z"/>
	<rect x="48.4" y="15.9" width="12.2" height="2"/>
	<rect x="48.4" y="24.3" width="12.2" height="2"/>
	<rect x="48.4" y="33" width="12.2" height="2"/>
</g>
</svg>
