<svg xmlns="http://www.w3.org/2000/svg" xmlns:xlink="http://www.w3.org/1999/xlink" version="1.1" id="Your_Icon" x="0px" y="0px" width="100px" height="100px" viewBox="0 0 100 100" enable-background="new 0 0 100 100" xml:space="preserve">
<path d="M89.449,71.641V21.779c0-3.359-2.859-6.084-6.391-6.084h-65.27c-3.528,0-6.39,2.725-6.39,6.084v49.861H8.271V18.886  c0-3.556,3.09-6.437,6.905-6.437h70.501c3.809,0,6.9,2.881,6.9,6.437v52.755H89.449z M82.197,23.183H18.651v46.019h63.546V23.183z   M56.533,55.385c0.557,0.929,0.252,2.134-0.678,2.688c-0.934,0.558-2.135,0.252-2.689-0.679l-5.131-8.587l-4.916,2.589V34.413  l13.693,9.781l-5.299,2.786L56.533,55.385z M100,81.984c0-4.427-3.588-8.016-8.018-8.016H8.867c-4.429,0-8.015,3.589-8.015,8.016  l0,0C0.852,86.412,4.438,90,8.867,90h83.116C96.412,90,100,86.412,100,81.984L100,81.984z M53.348,81.984  c0,1.612-1.307,2.922-2.923,2.922c-1.611,0-2.919-1.31-2.919-2.922c0-1.614,1.309-2.923,2.919-2.923  C52.041,79.062,53.348,80.37,53.348,81.984z M64.486,81.984c0,1.612-1.309,2.922-2.926,2.922c-1.609,0-2.92-1.31-2.92-2.922  c0-1.614,1.311-2.923,2.92-2.923C63.178,79.062,64.486,80.37,64.486,81.984z M42.389,81.984c0,1.612-1.308,2.922-2.922,2.922  c-1.614,0-2.921-1.31-2.921-2.922c0-1.614,1.308-2.923,2.921-2.923C41.082,79.062,42.389,80.37,42.389,81.984z"/>
</svg>