<svg id="Layer_1" data-name="Layer 1" xmlns="http://www.w3.org/2000/svg" xmlns:xlink="http://www.w3.org/1999/xlink" viewBox="0 0 100 100"><defs><style>.cls-1{fill:none;}.cls-2{clip-path:url(#clip-path);}.cls-3{fill:#005b99;}</style><clipPath id="clip-path"><rect class="cls-1" x="1.39" y="0.3" width="97.21" height="99.41"/></clipPath></defs><title>icon</title><g class="cls-2"><path class="cls-3" d="M87.37,49.71l-1.13,1.34a17,17,0,0,1-12.5,5.2,21.35,21.35,0,0,1-7.52-1.34A18,18,0,0,1,61,51.48L22.05,91.6a5.9,5.9,0,0,1-8.56,0L9.22,87.17a6.44,6.44,0,0,1,0-8.87l38-39.65a18.83,18.83,0,0,1-2.66-6.11c-1.46-6.05-.61-14.41,4-19.21L49.89,12c3.94-4.09,14.19-5.3,19.86-5.65L58.61,19.47a3.06,3.06,0,0,0,.12,4.06L76.33,42a2.81,2.81,0,0,0,3.94.15l12.4-11.41c-0.37,6.14-1.54,15.07-5.31,19m9.56-28.42a2.82,2.82,0,0,0-3.09.47L78.52,35.81,64.7,21.32,78.39,5.17A3,3,0,0,0,78.85,2,2.83,2.83,0,0,0,76.23.29H75.41C67,0.29,52.35,1,45.83,7.8L44.52,9.13c-7,7.25-8.19,19.14-4.53,28.18l-35,36.55a12.86,12.86,0,0,0,0,17.73L9.22,96a11.81,11.81,0,0,0,17.11,0L61.9,59.4a26.23,26.23,0,0,0,11.84,3.07,22.91,22.91,0,0,0,16.57-7.2l1.3-1.34c7.08-7.33,7-23,7-29.91a3,3,0,0,0-1.68-2.73"/></g></svg>