<?xml version="1.0" encoding="utf-8"?>
<!-- Generator: Adobe Illustrator 23.0.6, SVG Export Plug-In . SVG Version: 6.00 Build 0)  -->
<svg version="1.1" id="Layer_1" xmlns="http://www.w3.org/2000/svg" xmlns:xlink="http://www.w3.org/1999/xlink" x="0px" y="0px"
	 viewBox="0 0 100 100" style="enable-background:new 0 0 100 100;" xml:space="preserve">
<g>
	<path d="M71.7,51.8l-20-11.6c-1-0.6-2.1-0.6-3.1-0.1L28.2,50.9c-1.6,0.8-3.5,0.2-4.3-1.3l0,0C23,48,23.6,46,25.2,45.2l23.5-12
		c0.9-0.5,2.1-0.5,3,0.1l23.2,12.9c1.6,0.9,2.1,2.9,1.2,4.5l0,0C75.1,52.2,73.2,52.6,71.7,51.8z"/>
	<path d="M71.7,66.7L51.6,55.1c-0.9-0.5-2-0.6-2.9-0.1L28,65.5c-1.5,0.7-3.3,0.2-4.1-1.2l0,0c-0.9-1.5-0.3-3.5,1.3-4.3l23.6-12.3
		c0.9-0.5,2.1-0.5,3,0.1L75,61.1c1.5,0.9,2,2.8,1.1,4.3L76,65.7C75,67.1,73.2,67.5,71.7,66.7z"/>
</g>
</svg>
