<?xml version="1.0" encoding="utf-8"?>
<!-- Generator: Adobe Illustrator 18.1.1, SVG Export Plug-In . SVG Version: 6.00 Build 0)  -->
<svg version="1.1" id="Layer_1" xmlns="http://www.w3.org/2000/svg" xmlns:xlink="http://www.w3.org/1999/xlink" x="0px" y="0px"
	 viewBox="0 0 100 100" enable-background="new 0 0 100 100" xml:space="preserve">
<rect x="6.3" y="12.9" fill="none" width="44.8" height="93.6"/>
<g id="Right_4_">
	<path fill-rule="evenodd" clip-rule="evenodd" fill="#005C99" d="M70.1,48.1H34.4l11.3-11.3c0.9-0.9,0.9-2.3,0-3.1
		c-0.4-0.3-0.8-0.4-1.2-0.4c-0.5,0-1,0.2-1.4,0.6L28.5,48.6c-0.8,0.8-0.8,2,0,2.8L43,66.2c0.9,0.9,2.3,0.8,3-0.2
		c0.6-0.8,0.4-2-0.3-2.7L34.5,52.1h35.6c1.1,0,2-0.9,2-2C72.1,48.9,71.2,48.1,70.1,48.1z"/>
</g>
</svg>
