<?xml version="1.0" encoding="utf-8"?>
<!-- Generator: Adobe Illustrator 18.1.1, SVG Export Plug-In . SVG Version: 6.00 Build 0)  -->
<svg version="1.1" id="Layer_1" xmlns="http://www.w3.org/2000/svg" xmlns:xlink="http://www.w3.org/1999/xlink" x="0px" y="0px"
	 viewBox="0 0 100 100" enable-background="new 0 0 100 100" xml:space="preserve">
<g>
	<path fill="#005C99" d="M50.2,54.4L50.2,54.4c-2.2,0-4-1.8-4-4v-32c0-2.2,1.8-4,4-4h0c2.2,0,4,1.8,4,4v32
		C54.2,52.6,52.4,54.4,50.2,54.4z"/>
	<path fill="#005C99" d="M47.3,48.1L47.3,48.1c1.5-1.6,4-1.7,5.7-0.2l8.8,8.2c1.6,1.5,1.7,4,0.2,5.7l0,0c-1.5,1.6-4,1.7-5.7,0.2
		l-8.8-8.2C45.8,52.2,45.7,49.7,47.3,48.1z"/>
</g>
</svg>
