<?xml version="1.0" encoding="utf-8"?>
<!-- Generator: Adobe Illustrator 18.1.1, SVG Export Plug-In . SVG Version: 6.00 Build 0)  -->
<svg version="1.1" id="Layer_1" xmlns="http://www.w3.org/2000/svg" xmlns:xlink="http://www.w3.org/1999/xlink" x="0px" y="0px"
	 viewBox="0 0 100 100" enable-background="new 0 0 100 100" xml:space="preserve">
<g>
	<g enable-background="new    ">
		<path fill="#005C99" d="M63.3,28.1L51,20.9c-0.6-0.3-1.3-0.3-1.8,0l-12.6,6.6c-0.9,0.5-2.1,0.1-2.5-0.8l-0.1-0.1
			c-0.5-0.9-0.1-2.1,0.8-2.6l14.4-7.4c0.6-0.3,1.2-0.3,1.8,0l14.3,8c0.9,0.5,1.3,1.7,0.7,2.6l-0.1,0.1
			C65.3,28.3,64.2,28.6,63.3,28.1z M63.3,37.2L51,30.1c-0.6-0.3-1.2-0.3-1.8,0l-12.7,6.5c-0.9,0.5-2,0.1-2.5-0.8h0
			c-0.5-0.9-0.2-2.1,0.8-2.6l14.4-7.5c0.6-0.3,1.3-0.3,1.8,0l14.3,8.1c0.9,0.5,1.2,1.7,0.7,2.6l-0.1,0.1
			C65.3,37.4,64.2,37.7,63.3,37.2z"/>
	</g>
	<g enable-background="new    ">
		<path fill="#005C99" d="M36.7,62.5L49,69.6c0.6,0.3,1.2,0.3,1.8,0l12.7-6.5c0.9-0.5,2-0.1,2.5,0.8h0c0.5,0.9,0.2,2.1-0.8,2.6
			l-14.4,7.5c-0.6,0.3-1.3,0.3-1.8,0l-14.3-8.1c-0.9-0.5-1.2-1.7-0.7-2.6l0.1-0.1C34.7,62.3,35.8,62,36.7,62.5z M36.7,71.6L49,78.8
			c0.6,0.3,1.3,0.3,1.8,0l12.6-6.6c0.9-0.5,2.1-0.1,2.5,0.8l0.1,0.1c0.5,0.9,0.1,2.1-0.8,2.6L50.8,83c-0.6,0.3-1.2,0.3-1.8,0
			l-14.3-8c-0.9-0.5-1.3-1.7-0.7-2.6l0.1-0.1C34.7,71.4,35.8,71.1,36.7,71.6z"/>
	</g>
</g>
</svg>
