<?xml version="1.0" encoding="utf-8"?>
<!-- Generator: Adobe Illustrator 23.0.6, SVG Export Plug-In . SVG Version: 6.00 Build 0)  -->
<svg version="1.1" id="Layer_1" xmlns="http://www.w3.org/2000/svg" xmlns:xlink="http://www.w3.org/1999/xlink" x="0px" y="0px"
	 viewBox="0 0 100 100" style="enable-background:new 0 0 100 100;" xml:space="preserve">
<style type="text/css">
	.st0{enable-background:new    ;}
</style>
<g class="st0">
	<path d="M54.9,70.6c0,1.3-0.5,2.4-1.4,3.3s-2,1.3-3.3,1.3s-2.4-0.5-3.3-1.3c-0.9-0.9-1.4-2-1.4-3.3s0.5-2.4,1.4-3.3s2-1.4,3.3-1.4
		s2.4,0.5,3.3,1.4C54.4,68.2,54.9,69.3,54.9,70.6z M54.5,29.4c0,1.1-0.4,5-1.1,11.5c-0.7,6-1.3,11.9-1.9,17.6
		c-0.1,0.7-0.7,1.3-1.5,1.3l0,0c-0.8,0-1.4-0.6-1.5-1.3C48,52.8,47.4,47,46.7,40.9c-0.7-6.5-1.1-10.3-1.1-11.5
		c0-1.3,0.4-2.4,1.2-3.3s1.9-1.3,3.1-1.3c1.3,0,2.3,0.4,3.1,1.3C54.1,27,54.5,28.1,54.5,29.4z"/>
</g>
</svg>
