<svg id="Layer_1" data-name="Layer 1" xmlns="http://www.w3.org/2000/svg" viewBox="0 0 100 100"><title>icon address</title><path d="M92.22,51.51l-3.28,3.91a1.8,1.8,0,0,1-1.11.58h-.16a1.62,1.62,0,0,1-1.11-.37L50,25.14,13.43,55.63a2,2,0,0,1-1.27.37,1.8,1.8,0,0,1-1.11-.58L7.78,51.51a1.72,1.72,0,0,1-.37-1.24A1.54,1.54,0,0,1,8,49.13L46,17.47a6.56,6.56,0,0,1,8,0L66.91,28.25V17.95a1.63,1.63,0,0,1,1.69-1.69H78.75a1.63,1.63,0,0,1,1.69,1.69V39.51L92,49.13a1.54,1.54,0,0,1,.58,1.14A1.72,1.72,0,0,1,92.22,51.51ZM80.44,55.15V80.52a3.43,3.43,0,0,1-3.38,3.38H56.76V63.61H43.24V83.9H22.94a3.43,3.43,0,0,1-3.38-3.38V55.15a.7.7,0,0,1,0-.16.78.78,0,0,0,0-.16L50,29.79l30.39,25A.75.75,0,0,1,80.44,55.15Z"/></svg>