<?xml version="1.0" encoding="utf-8"?>
<!-- Generator: Adobe Illustrator 23.0.6, SVG Export Plug-In . SVG Version: 6.00 Build 0)  -->
<svg version="1.1" id="Layer_1" xmlns="http://www.w3.org/2000/svg" xmlns:xlink="http://www.w3.org/1999/xlink" x="0px" y="0px"
	 viewBox="0 0 100 100" style="enable-background:new 0 0 100 100;" xml:space="preserve">
<style type="text/css">
	.st0{fill-rule:evenodd;clip-rule:evenodd;}
</style>
<g id="Question">
	<g>
		<path class="st0" d="M49.4,67.9h-0.3c-1.8,0-3.3,1.5-3.3,3.3v0.4c0,1.8,1.5,3.3,3.3,3.3h0.3c1.8,0,3.3-1.5,3.3-3.3v-0.4
			C52.7,69.4,51.2,67.9,49.4,67.9z M60.1,28.4c-2.5-2.3-5.9-3.4-10.3-3.4c-4.1,0-7.4,1.1-10,3.3c-1.7,1.4-2.9,3.9-3.4,6.5
			c-0.4,2,1.1,4,3.2,4l0,0c1.5,0,2.8-1.1,3.2-2.6c0.3-1.6,1-3.1,1.9-3.8c1.4-1.1,3.2-1.7,5.2-1.7c2.4,0,4.2,0.6,5.5,1.9
			c1.3,1.3,1.9,3.1,1.9,5.5c0,2-0.5,3.7-1.4,5.1c-0.9,1.4-2.5,3.4-4.6,5.9c-0.1,0.1-0.2,0.2-0.3,0.3c-2.2,2-3.6,3.6-4.1,4.8
			c-0.3,0.7-0.5,1.8-0.7,3.1c-0.2,2,1.3,3.7,3.3,3.7c1.7,0,3.1-1.3,3.3-3c0.1-0.6,0.2-1.1,0.3-1.5c0.3-1,1-2.1,2.2-3.3
			c2.6-2.5,4.7-5,6.3-7.4s2.4-5.1,2.4-8C63.8,33.8,62.6,30.7,60.1,28.4z"/>
	</g>
</g>
</svg>
