<?xml version="1.0" encoding="utf-8"?>
<!-- Generator: Adobe Illustrator 18.1.1, SVG Export Plug-In . SVG Version: 6.00 Build 0)  -->
<svg version="1.1" id="Layer_1" xmlns="http://www.w3.org/2000/svg" xmlns:xlink="http://www.w3.org/1999/xlink" x="0px" y="0px"
	 viewBox="0 0 100 100" enable-background="new 0 0 100 100" xml:space="preserve">
<g id="Refresh">
	<path fill-rule="evenodd" clip-rule="evenodd" fill="#005C99" d="M50.5,71.2c-0.2,0.3-0.2,0.6-0.1,0.9c0.1,0.3,0.3,0.6,0.6,0.7
		l0.5,0.3c0,0,0,0,0,0l8,4.1c0.6,0.3,1.2,0.1,1.5-0.5l0.2-0.4c0.4-0.6,0.2-1.3-0.4-1.6l-4.4-2.2c0.1,0,0.1,0,0.2,0
		c6.5-1.7,11.9-6.1,15-12c2.9-5.6,3.4-12,1.5-18c-1.9-6-6.2-10.9-11.8-13.8c-0.8-0.4-1.8-0.1-2.2,0.7c-0.4,0.8-0.1,1.8,0.7,2.2
		c4.8,2.5,8.5,6.7,10.2,11.8c1.6,5.2,1.2,10.6-1.3,15.4c-2.6,5.1-7.3,8.8-12.9,10.3c-0.3,0.1-0.5,0.1-0.8,0.2l3.2-4.9
		c0.4-0.6,0.4-1.4-0.2-1.7l-0.4-0.3c-0.6-0.3-1.4-0.1-1.7,0.5l-4.9,7.7c0,0,0,0,0,0L50.5,71.2z M26.9,57.7c1.9,6,6,10.9,11.6,13.8
		c0.2,0.1,0.5,0.2,0.8,0.2c0.6,0,1.2-0.3,1.5-0.9c0.4-0.8,0.1-1.8-0.7-2.2c-4.8-2.5-8.4-6.7-10-11.8c-1.6-5.2-1.2-10.6,1.3-15.4
		c2.6-5.1,7.1-8.8,12.7-10.3c0.7-0.2,1.4-0.3,2.1-0.4L43,35.5c-0.4,0.6-0.3,1.4,0.3,1.7l0.4,0.3c0.6,0.3,1.4,0.1,1.7-0.5l4.9-7.7
		c0,0,0,0,0,0l0.3-0.5c0.2-0.3,0.2-0.6,0.1-0.9c-0.1-0.3-0.3-0.6-0.6-0.7l-0.5-0.3c0,0,0,0,0,0l-8-4.1c-0.6-0.3-1.4-0.1-1.7,0.5
		l-0.2,0.4c-0.4,0.6,0,1.3,0.6,1.6l4.3,2.2c-0.5,0.1-0.9,0.2-1.4,0.3c-6.4,1.7-11.7,6.1-14.8,12C25.5,45.3,25,51.7,26.9,57.7z"/>
</g>
</svg>
