<svg id="Layer_1" data-name="Layer 1" xmlns="http://www.w3.org/2000/svg" viewBox="0 0 100 100"><title>icon personal details</title><path d="M88.65,33.7a41.57,41.57,0,0,1,0,32.58,42.78,42.78,0,0,1-8.92,13.4,41.74,41.74,0,0,1-13.37,9,41.72,41.72,0,0,1-32.65,0A41.24,41.24,0,0,1,11.35,66.3a41.62,41.62,0,0,1,0-32.61A41.25,41.25,0,0,1,33.7,11.35a41.62,41.62,0,0,1,32.61,0A41.24,41.24,0,0,1,88.65,33.7ZM79.37,70.75a30.07,30.07,0,0,0-4.1-12.06,11.67,11.67,0,0,0-8.64-5.55,22.46,22.46,0,0,1-33.26,0,11.67,11.67,0,0,0-8.64,5.55,30,30,0,0,0-4.1,12.06A35.91,35.91,0,0,0,33.32,81.88a36,36,0,0,0,33.36,0A35.92,35.92,0,0,0,79.37,70.75Zm-16.66-20A17.33,17.33,0,0,0,68,38a17.33,17.33,0,0,0-5.27-12.72A17.33,17.33,0,0,0,50,20a17.33,17.33,0,0,0-12.72,5.27A17.33,17.33,0,0,0,32,38a17.33,17.33,0,0,0,5.27,12.72A17.34,17.34,0,0,0,50,56,17.33,17.33,0,0,0,62.72,50.73Z"/></svg>