<?xml version="1.0" encoding="utf-8"?>
<!-- Generator: Adobe Illustrator 18.1.1, SVG Export Plug-In . SVG Version: 6.00 Build 0)  -->
<svg version="1.1" id="Layer_1" xmlns="http://www.w3.org/2000/svg" xmlns:xlink="http://www.w3.org/1999/xlink" x="0px" y="0px"
	 viewBox="0 0 100 100" enable-background="new 0 0 100 100" xml:space="preserve">
<g id="Refresh">
	<path fill-rule="evenodd" clip-rule="evenodd" fill="#005C99" d="M49.2,70.7C49.2,70.7,49.2,70.7,49.2,70.7l-5-7.7
		c-0.3-0.6-1.1-0.8-1.7-0.5l-0.4,0.3c-0.6,0.3-0.6,1.2-0.2,1.7l3.2,4.9c-0.3-0.1-0.5-0.1-0.8-0.2C38.7,67.8,34,64.1,31.4,59
		c-2.5-4.8-3-10.3-1.3-15.4c1.6-5.2,5.4-9.4,10.2-11.8c0.8-0.4,1.1-1.4,0.7-2.2c-0.4-0.8-1.4-1.1-2.2-0.7
		c-5.6,2.9-9.9,7.8-11.8,13.8c-1.9,6-1.4,12.4,1.5,18c3.1,5.9,8.5,10.3,15,12c0.1,0,0.1,0,0.2,0l-4.4,2.2c-0.6,0.3-0.8,1.1-0.4,1.6
		l0.2,0.4c0.4,0.6,1,0.8,1.5,0.5l8-4.1c0,0,0,0,0,0l0.5-0.3c0.3-0.2,0.5-0.4,0.6-0.7c0.1-0.3,0-0.6-0.1-0.9L49.2,70.7z M71.6,39.7
		c-3.1-5.9-8.3-10.3-14.8-12c-0.5-0.1-0.9-0.2-1.4-0.3l4.3-2.2c0.6-0.3,0.9-1.1,0.6-1.6l-0.2-0.4c-0.4-0.6-1.1-0.8-1.7-0.5l-8,4.1
		c0,0,0,0,0,0l-0.5,0.3c-0.3,0.2-0.5,0.4-0.6,0.7c-0.1,0.3,0,0.6,0.1,0.9l0.3,0.5c0,0,0,0,0,0l4.9,7.7c0.3,0.6,1.1,0.8,1.7,0.5
		l0.4-0.3c0.6-0.3,0.6-1.2,0.3-1.7l-3.2-4.9c0.7,0.1,1.4,0.2,2.1,0.4c5.5,1.5,10.1,5.2,12.7,10.3c2.5,4.8,3,10.3,1.3,15.4
		c-1.6,5.2-5.2,9.4-10,11.8c-0.8,0.4-1.1,1.4-0.7,2.2c0.3,0.6,0.9,0.9,1.5,0.9c0.3,0,0.5-0.1,0.8-0.2c5.6-2.9,9.7-7.8,11.6-13.8
		C75,51.7,74.5,45.3,71.6,39.7z"/>
</g>
</svg>
