<?xml version="1.0" encoding="utf-8"?>
<!-- Generator: Adobe Illustrator 23.0.6, SVG Export Plug-In . SVG Version: 6.00 Build 0)  -->
<svg version="1.1" id="Layer_1" xmlns="http://www.w3.org/2000/svg" xmlns:xlink="http://www.w3.org/1999/xlink" x="0px" y="0px"
	 viewBox="0 0 100 100" style="enable-background:new 0 0 100 100;" xml:space="preserve">
<path d="M65.7,63.3L52,50.1V14c0-1.1-0.9-2-2-2s-2,0.9-2,2v37l0,0c0,0.1,0,0.2,0,0.2v0.1c0,0.1,0,0.1,0.1,0.2c0,0.1,0,0.1,0.1,0.2
	l0.1,0.1c0,0.1,0.1,0.1,0.1,0.2l0.1,0.1c0.1,0.1,0.1,0.1,0.2,0.2l0,0L63,66c0.4,0.4,0.9,0.6,1.4,0.6s1.1-0.2,1.4-0.6
	C66.5,65.3,66.5,64,65.7,63.3z"/>
</svg>
