<?xml version="1.0" encoding="utf-8"?>
<!-- Generator: Adobe Illustrator 23.0.6, SVG Export Plug-In . SVG Version: 6.00 Build 0)  -->
<svg version="1.1" id="Layer_1" xmlns="http://www.w3.org/2000/svg" xmlns:xlink="http://www.w3.org/1999/xlink" x="0px" y="0px"
	 viewBox="0 0 230 180" style="enable-background:new 0 0 230 180;" xml:space="preserve">
<style type="text/css">
	.st0{fill-rule:evenodd;clip-rule:evenodd;}
</style>
<g id="List_20_">
	<g>
		<path class="st0" d="M220,80H10C4.4,80,0,84.5,0,90s4.5,10,10,10h210c5.5,0,10-4.5,10-10S225.6,80,220,80z M220,160H10
			c-5.5,0-10,4.5-10,10s4.5,10,10,10h210c5.5,0,10-4.5,10-10S225.6,160,220,160z M10,20h210c5.5,0,10-4.5,10-10s-4.5-10-10-10H10
			C4.4,0,0,4.4,0,10C0,15.5,4.4,20,10,20z"/>
	</g>
</g>
</svg>
