<?xml version="1.0" encoding="utf-8"?>
<!-- Generator: Adobe Illustrator 18.1.1, SVG Export Plug-In . SVG Version: 6.00 Build 0)  -->
<svg version="1.1" id="Layer_1" xmlns="http://www.w3.org/2000/svg" xmlns:xlink="http://www.w3.org/1999/xlink" x="0px" y="0px"
	 viewBox="0 0 29.2 29.2" enable-background="new 0 0 29.2 29.2" xml:space="preserve">
<g>
	<path fill="#1C75BC" d="M14.6,28.7c-7.8,0-14.1-6.3-14.1-14.1S6.8,0.5,14.6,0.5c7.8,0,14.1,6.3,14.1,14.1S22.4,28.7,14.6,28.7z"/>
	<path fill="#FFFFFF" d="M14.6,1c7.5,0,13.6,6.1,13.6,13.6c0,7.5-6.1,13.6-13.6,13.6S1,22.1,1,14.6C1,7.1,7.1,1,14.6,1 M14.6,0
		C6.5,0,0,6.5,0,14.6c0,8.1,6.5,14.6,14.6,14.6c8.1,0,14.6-6.5,14.6-14.6C29.2,6.5,22.7,0,14.6,0L14.6,0z"/>
</g>
<g enable-background="new    ">
	<path fill="#FFFFFF" d="M19,8.5L14.6,6l-4.5,2.3l-0.5-1l5-2.5l4.9,2.8L19,8.5z M19,11.2l-4.3-2.5l-4.5,2.3l-0.5-1l5-2.6l4.9,2.8
		L19,11.2z"/>
</g>
<g enable-background="new    ">
	<path fill="#FFFFFF" d="M10.2,18.1l4.3,2.5l4.5-2.3l0.5,1l-5,2.6L9.6,19L10.2,18.1z M10.2,20.7l4.3,2.5l4.5-2.3l0.5,1l-5,2.5
		l-4.9-2.8L10.2,20.7z"/>
</g>
</svg>
