<?xml version="1.0" encoding="utf-8"?>
<!-- Generator: Adobe Illustrator 23.0.6, SVG Export Plug-In . SVG Version: 6.00 Build 0)  -->
<svg version="1.1" id="Layer_1" xmlns="http://www.w3.org/2000/svg" xmlns:xlink="http://www.w3.org/1999/xlink" x="0px" y="0px"
	 viewBox="0 0 28.3 29.2" style="enable-background:new 0 0 28.3 29.2;" xml:space="preserve">
<style type="text/css">
	.st0{fill:none;stroke:#FFFFFF;}
	.st1{enable-background:new    ;}
	.st2{fill:#FFFFFF;}
</style>
<g>
	<path d="M14.2,29.2c7.8,0,14.2-6.5,14.2-14.6S22,0,14.2,0S0,6.5,0,14.6S6.3,29.2,14.2,29.2"/>
	<ellipse class="st0" cx="14.2" cy="14.6" rx="14.2" ry="14.6"/>
	<g class="st1">
		<path class="st2" d="M18.5,8.5L14.2,6L9.7,8.3l-0.5-1l5-2.5l4.9,2.8L18.5,8.5z M18.5,11.2l-4.3-2.5L9.7,11l-0.5-1l5-2.6l4.9,2.8
			L18.5,11.2z"/>
	</g>
	<g class="st1">
		<path class="st2" d="M9.8,18.1l4.3,2.5l4.5-2.3l0.5,1l-5,2.6L9.2,19L9.8,18.1z M9.8,20.7l4.3,2.5l4.5-2.3l0.5,1l-5,2.5l-4.9-2.8
			L9.8,20.7z"/>
	</g>
</g>
</svg>
