<?xml version="1.0" encoding="utf-8"?>
<!-- Generator: Adobe Illustrator 18.1.1, SVG Export Plug-In . SVG Version: 6.00 Build 0)  -->
<svg version="1.1" id="Layer_1" xmlns="http://www.w3.org/2000/svg" xmlns:xlink="http://www.w3.org/1999/xlink" x="0px" y="0px"
	 viewBox="0 0 64 64" enable-background="new 0 0 64 64" xml:space="preserve">
<g id="Plus_2_">
	<g>
		<path fill-rule="evenodd" clip-rule="evenodd" fill="#1B1B1B" d="M32,0C14.3,0,0,14.3,0,32c0,17.7,14.3,32,32,32
			c17.7,0,32-14.3,32-32C64,14.3,49.7,0,32,0z M32,60.1C16.6,60.1,4,47.4,4,32S16.6,4,32,4c15.4,0,28,12.6,28,28S47.4,60.1,32,60.1z
			 M46,30H18c-1.1,0-2,0.9-2,2s0.9,2,2,2h28c1.1,0,2-0.9,2-2S47.1,30,46,30z"/>
	</g>
</g>
</svg>
