<?xml version="1.0" encoding="utf-8"?>
<!-- Generator: Adobe Illustrator 23.0.6, SVG Export Plug-In . SVG Version: 6.00 Build 0)  -->
<svg version="1.1" id="Layer_1" xmlns="http://www.w3.org/2000/svg" xmlns:xlink="http://www.w3.org/1999/xlink" x="0px" y="0px"
	 viewBox="0 0 30 30" style="enable-background:new 0 0 30 30;" xml:space="preserve">
<style type="text/css">
	.st0{fill-rule:evenodd;clip-rule:evenodd;}
	.st1{fill-rule:evenodd;clip-rule:evenodd;fill:#FFFFFF;}
</style>
<path class="st0" d="M25,30H5c-2.8,0-5-2.2-5-5V5c0-2.8,2.2-5,5-5h20c2.8,0,5,2.2,5,5v20C30,27.8,27.8,30,25,30z"/>
<g>
	<path class="st1" d="M13.5,20.6c-0.5,0.5-1.2,0.5-1.7,0L6,14.8c-0.5-0.5-0.5-1.2,0-1.7s1.2-0.5,1.7,0l5.8,5.8
		C14,19.4,14,20.1,13.5,20.6z"/>
	<path class="st1" d="M11.9,20.6c0.5,0.5,1.2,0.5,1.7,0L25.4,8.7c0.5-0.5,0.5-1.2,0-1.7s-1.2-0.5-1.7,0L11.9,18.9
		C11.4,19.4,11.4,20.1,11.9,20.6z"/>
</g>
</svg>
