<?xml version="1.0" encoding="utf-8"?>
<!-- Generator: Adobe Illustrator 23.0.6, SVG Export Plug-In . SVG Version: 6.00 Build 0)  -->
<svg version="1.1" id="Layer_1" xmlns="http://www.w3.org/2000/svg" xmlns:xlink="http://www.w3.org/1999/xlink" x="0px" y="0px"
	 viewBox="0 0 61 37" style="enable-background:new 0 0 61 37;" xml:space="preserve">
<style type="text/css">
	.st0{fill:none;stroke:#000000;stroke-miterlimit:10;}
	.st1{fill-rule:evenodd;clip-rule:evenodd;}
</style>
<path class="st0" d="M42.5,36.5h-24c-9.9,0-18-8.1-18-18l0,0c0-9.9,8.1-18,18-18h24c9.9,0,18,8.1,18,18l0,0
	C60.5,28.4,52.4,36.5,42.5,36.5z"/>
<path class="st1" d="M41.9,33.5L41.9,33.5c-8.3,0-15-6.7-15-15l0,0c0-8.3,6.7-15,15-15l0,0c8.3,0,15,6.7,15,15l0,0
	C56.9,26.8,50.1,33.5,41.9,33.5z"/>
</svg>
