<?xml version="1.0" encoding="utf-8"?>
<!-- Generator: Adobe Illustrator 18.1.1, SVG Export Plug-In . SVG Version: 6.00 Build 0)  -->
<svg version="1.1" id="Layer_1" xmlns="http://www.w3.org/2000/svg" xmlns:xlink="http://www.w3.org/1999/xlink" x="0px" y="0px"
	 viewBox="0 0 46.9 46.9" enable-background="new 0 0 46.9 46.9" xml:space="preserve">
<g>
	<g id="Refresh">
		<g>
			<path fill-rule="evenodd" clip-rule="evenodd" fill="#FFFFFF" d="M23,33.5C23,33.5,23,33.4,23,33.5l-2.4-3.7
				c-0.2-0.3-0.5-0.4-0.8-0.2l-0.2,0.1c-0.3,0.2-0.3,0.6-0.1,0.8l1.5,2.4c-0.1,0-0.3-0.1-0.4-0.1c-2.7-0.7-4.9-2.5-6.2-5
				c-1.2-2.3-1.4-5-0.6-7.5c0.8-2.5,2.6-4.5,4.9-5.7c0.4-0.2,0.6-0.7,0.3-1.1c-0.2-0.4-0.7-0.6-1.1-0.3c-2.7,1.4-4.8,3.8-5.7,6.7
				c-0.9,2.9-0.7,6,0.7,8.7c1.5,2.9,4.1,5,7.2,5.8c0,0,0.1,0,0.1,0l-2.1,1.1c-0.3,0.2-0.4,0.5-0.2,0.8l0.1,0.2
				c0.2,0.3,0.5,0.4,0.7,0.2l3.9-2c0,0,0,0,0,0l0.3-0.1c0.1-0.1,0.2-0.2,0.3-0.4c0-0.1,0-0.3-0.1-0.4L23,33.5z M33.9,18.4
				c-1.5-2.9-4-5-7.2-5.8c-0.2-0.1-0.4-0.1-0.7-0.1l2.1-1.1c0.3-0.2,0.5-0.5,0.3-0.8l-0.1-0.2c-0.2-0.3-0.5-0.4-0.8-0.2l-3.9,2
				c0,0,0,0,0,0l-0.3,0.1c-0.1,0.1-0.2,0.2-0.3,0.4c0,0.1,0,0.3,0.1,0.4l0.2,0.3c0,0,0,0,0,0l2.4,3.7c0.2,0.3,0.5,0.4,0.8,0.2
				l0.2-0.1c0.3-0.2,0.3-0.6,0.1-0.8L25.3,14c0.3,0.1,0.7,0.1,1,0.2c2.7,0.7,4.9,2.5,6.1,5c1.2,2.3,1.4,5,0.6,7.5
				c-0.8,2.5-2.5,4.5-4.8,5.7c-0.4,0.2-0.6,0.7-0.3,1.1c0.1,0.3,0.4,0.4,0.7,0.4c0.1,0,0.3,0,0.4-0.1c2.7-1.4,4.7-3.8,5.6-6.7
				C35.5,24.2,35.3,21.2,33.9,18.4z"/>
		</g>
	</g>
</g>
</svg>
