<?xml version="1.0" encoding="utf-8"?>
<!-- Generator: Adobe Illustrator 18.1.1, SVG Export Plug-In . SVG Version: 6.00 Build 0)  -->
<svg version="1.1" id="Layer_1" xmlns="http://www.w3.org/2000/svg" xmlns:xlink="http://www.w3.org/1999/xlink" x="0px" y="0px"
	 viewBox="0 0 46.9 46.9" enable-background="new 0 0 46.9 46.9" xml:space="preserve">
<g>
	<path fill-rule="evenodd" clip-rule="evenodd" fill="#FFFFFF" d="M20.6,32.1c-0.6,0.6-1.5,0.6-2.1,0l-7.4-7.4
		c-0.6-0.6-0.6-1.5,0-2.1c0.6-0.6,1.5-0.6,2.1,0l7.4,7.4C21.2,30.6,21.2,31.5,20.6,32.1z"/>
	<path fill-rule="evenodd" clip-rule="evenodd" fill="#FFFFFF" d="M18.5,32c0.6,0.6,1.5,0.6,2.1,0l15.1-15.2c0.6-0.6,0.6-1.5,0-2.1
		c-0.6-0.6-1.5-0.6-2.1,0L18.5,29.9C18,30.5,18,31.5,18.5,32z"/>
</g>
</svg>
