<?xml version="1.0" encoding="UTF-8"?>
<svg width="100px" height="100px" viewBox="0 0 100 100" version="1.1" xmlns="http://www.w3.org/2000/svg" xmlns:xlink="http://www.w3.org/1999/xlink">
    <!-- Generator: Sketch 57.1 (83088) - https://sketch.com -->
    <title>icon/close/free/default</title>
    <desc>Created with Sketch.</desc>
    <g id="icon/close/free/default" stroke="none" stroke-width="1" fill="none" fill-rule="evenodd">
        <path d="M52.4998,49.7 L68.7998,33.4 C69.6008,32.6 69.6008,31.4 68.7998,30.6 C67.9998,29.8 66.7998,29.8 65.9998,30.6 L49.6998,46.9 L33.3998,30.6 C32.5998,29.8 31.3998,29.8 30.5998,30.6 C29.7998,31.4 29.7998,32.6 30.5998,33.4 L46.8998,49.7 L30.5998,66 C29.7998,66.8 29.7998,68 30.5998,68.8 C30.9998,69.2 31.4998,69.4 31.9998,69.4 C32.4998,69.4 32.9998,69.2 33.3998,68.8 L49.6998,52.5 L65.9998,68.8 C66.3998,69.2 66.8998,69.4 67.3998,69.4 C67.8998,69.4 68.3998,69.2 68.7998,68.8 C69.6008,68 69.6008,66.8 68.7998,66 L52.4998,49.7 Z" id="Fill-1" fill="#734875"></path>
    </g>
</svg>