<svg xmlns="http://www.w3.org/2000/svg" width="32" height="32" viewBox="0 0 32 32">
  <title>low-loss-header</title>
  <g id="Layer_2" data-name="Layer 2">
    <g id="Laag_2" data-name="Laag 2">
      <g>
        <rect width="32" height="32" style="fill: none"/>
        <g>
          <circle cx="10.5" cy="9.5" r="1.5"/>
          <path d="M16.49,2,4,5.23V15.48a13.77,13.77,0,0,0,8.12,12.71L16.5,30.1l3.76-1.79A13.85,13.85,0,0,0,28,15.77V5.25ZM18.7,22a4.45,4.45,0,0,0,3.17-1.32l1.42,1.41a6.47,6.47,0,1,1,.5-8.59l-1.58,1.25A4.42,4.42,0,0,0,18.7,13a4.48,4.48,0,1,0,0,9ZM7,9.5A3.5,3.5,0,1,1,10.5,13,3.5,3.5,0,0,1,7,9.5Z"/>
        </g>
      </g>
    </g>
  </g>
</svg>
