<svg xmlns="http://www.w3.org/2000/svg" width="32" height="32" viewBox="0 0 32 32">
  <title>power-control</title>
  <g id="Layer_2" data-name="Layer 2">
    <g id="Laag_2" data-name="Laag 2">
      <g>
        <rect width="32" height="32" style="fill: none"/>
        <g>
          <path d="M15,19a3,3,0,1,0-3,3A3,3,0,0,0,15,19Zm-4,0a1,1,0,1,1,1,1A1,1,0,0,1,11,19Z"/>
          <path d="M20,22a3,3,0,1,0,3,3A3,3,0,0,0,20,22Zm0,4a1,1,0,1,1,1-1A1,1,0,0,1,20,26Z"/>
          <rect x="8.93" y="21" width="14.14" height="2" transform="translate(-10.87 17.76) rotate(-45)"/>
          <path d="M30.14,11.76A15,15,0,0,0,2,19v1H5l.15-.83,0-.15a10,10,0,0,1,18.91-2.13l.6,1.31,5.79-5.79Zm-4.86,3.05a12.08,12.08,0,0,0-5.64-4.87l1.87-3.12A13.1,13.1,0,0,1,28,12.08Z"/>
        </g>
      </g>
    </g>
  </g>
</svg>
