<svg xmlns="http://www.w3.org/2000/svg" width="32" height="32" viewBox="0 0 32 32">
  <title>pump-management</title>
  <g id="Layer_2" data-name="Layer 2">
    <g id="Laag_2" data-name="Laag 2">
      <g>
        <rect width="32" height="32" style="fill: none"/>
        <path d="M29,6H16A10,10,0,0,0,6.84,20H3v6H16a10,10,0,0,0,9.16-14H29ZM16.57,10l-.18,2a4,4,0,0,0-2.42.53l-1-1.72A6,6,0,0,1,16.57,10Zm4.89,3.47-1.82.83A4.14,4.14,0,0,0,18,12.51l1-1.74A6.14,6.14,0,0,1,21.46,13.5ZM13,21.21a6.12,6.12,0,0,1-2.49-2.74l1.82-.83A4,4,0,0,0,14,19.47Zm-3-5.3a5.91,5.91,0,0,1,1.12-3.4l1.63,1.16A4,4,0,0,0,12,16l-2,0ZM16,22h0c-.2,0-.41,0-.61,0l.2-2L16,20h0a4,4,0,0,0,2-.54l1,1.73A6,6,0,0,1,16,22Zm6-6a5.92,5.92,0,0,1-1.14,3.52l-1.62-1.17A4,4,0,0,0,20,16l2-.06Z"/>
      </g>
    </g>
  </g>
</svg>
