<svg xmlns="http://www.w3.org/2000/svg" width="32" height="32" viewBox="0 0 32 32">
  <title>temperature-control</title>
  <g id="Layer_2" data-name="Layer 2">
    <g id="Laag_2" data-name="Laag 2">
      <g>
        <rect width="32" height="32" style="fill: none"/>
        <g>
          <path d="M19,21V10a3,3,0,0,0-6,0V21a5,5,0,0,0-2,4,5,5,0,0,0,10,0A5,5,0,0,0,19,21ZM15,10a1,1,0,0,1,2,0v4H15Z"/>
          <path d="M18,2A16,16,0,0,0,8.89,4.88L2.21,2.21,4.88,8.89A16,16,0,0,0,2,18H4A14.05,14.05,0,0,1,18,4Z"/>
        </g>
      </g>
    </g>
  </g>
</svg>
